<svg xmlns="http://www.w3.org/2000/svg" viewBox="0 0 273.06 112.8"><defs><style>.cls-1{fill:#231815;}</style></defs><title>about3</title><g id="图层_2" data-name="图层 2"><g id="图层_1-2" data-name="图层 1"><path class="cls-1" d="M10.25,24.9v-7a1.89,1.89,0,0,1,.59-1.41,1.94,1.94,0,0,1,1.41-.59h2a1.93,1.93,0,0,1,1.41.59,2,2,0,0,1,.59,1.41v7h-2v-4h-2v4Zm2-5h2v-2a1,1,0,0,0-.29-.71,1,1,0,0,0-.71-.29,1,1,0,0,0-.71.29,1,1,0,0,0-.29.71Z" transform="translate(-1.74 -15.9)"/><path class="cls-1" d="M26.25,19.9h-1c-.09-.67-.41-1-1-1a1.24,1.24,0,0,0-.79.21.74.74,0,0,0-.27.62c0,.29.49.69,1.46,1.21A3.12,3.12,0,0,1,26.07,22a2.26,2.26,0,0,1,.18.9,1.92,1.92,0,0,1-.58,1.41,2,2,0,0,1-1.42.59h-1a1.77,1.77,0,0,1-2-2h1c.08.67.39,1,.93,1a1.31,1.31,0,0,0,.81-.21.77.77,0,0,0,.26-.63c0-.28-.48-.68-1.45-1.2a3.17,3.17,0,0,1-1.37-1.05,2.11,2.11,0,0,1-.19-.9,2,2,0,0,1,2-2h1C25.5,17.9,26.17,18.57,26.25,19.9Z" transform="translate(-1.74 -15.9)"/><path class="cls-1" d="M34.25,21.9h-4v1a1,1,0,0,0,.29.7,1,1,0,0,0,.71.3h1a.88.88,0,0,0,1-1h1c-.16,1.33-.82,2-2,2h-2a1.94,1.94,0,0,1-1.41-.59,1.89,1.89,0,0,1-.59-1.41v-3a1.89,1.89,0,0,1,.59-1.41,1.94,1.94,0,0,1,1.41-.59h2a2,2,0,0,1,2,2Zm-4-1h2v-1a1,1,0,0,0-.29-.71,1,1,0,0,0-.71-.29,1,1,0,0,0-1,1Z" transform="translate(-1.74 -15.9)"/><path class="cls-1" d="M36.25,24.9v-7h2v1a1.24,1.24,0,0,1,.31-.75,1,1,0,0,1,.69-.25h1a2,2,0,0,1,2,2v5h-2v-5a1,1,0,0,0-.3-.71,1,1,0,0,0-1.41,0,1,1,0,0,0-.3.71v5Z" transform="translate(-1.74 -15.9)"/><path class="cls-1" d="M44.25,16.9v-1h2v1Zm0,8v-7h2v7Z" transform="translate(-1.74 -15.9)"/><path class="cls-1" d="M50.25,17.9h2a2,2,0,0,1,2,2v3a2,2,0,0,1-.59,1.41,1.92,1.92,0,0,1-1.4.59h-2a2,2,0,0,1-1.41-.59,1.93,1.93,0,0,1-.59-1.41v-3a1.93,1.93,0,0,1,.59-1.41A2,2,0,0,1,50.25,17.9Zm0,2v3a1,1,0,0,0,.3.7,1,1,0,0,0,1.41,0,1,1,0,0,0,.3-.7v-3a1,1,0,0,0-.3-.71,1,1,0,0,0-1.41,0A1,1,0,0,0,50.25,19.9Z" transform="translate(-1.74 -15.9)"/><path class="cls-1" d="M58.26,24.9h-2v-7h2v2a2.42,2.42,0,0,1,.62-1.5,1.87,1.87,0,0,1,1.38-.5h1v2h-2a1,1,0,0,0-1,1Z" transform="translate(-1.74 -15.9)"/><path class="cls-1" d="M70.26,19.9h-1c-.09-.67-.4-1-1-1a1.26,1.26,0,0,0-.79.21.74.74,0,0,0-.26.62c0,.29.48.69,1.45,1.21A3.17,3.17,0,0,1,70.08,22a2.26,2.26,0,0,1,.18.9,1.93,1.93,0,0,1-.59,1.41,2,2,0,0,1-1.42.59h-1a1.77,1.77,0,0,1-2-2h1c.08.67.39,1,.94,1a1.27,1.27,0,0,0,.8-.21.74.74,0,0,0,.26-.63c0-.28-.48-.68-1.45-1.2a3.17,3.17,0,0,1-1.37-1.05,2.11,2.11,0,0,1-.19-.9,2,2,0,0,1,2-2h1A1.84,1.84,0,0,1,70.26,19.9Z" transform="translate(-1.74 -15.9)"/><path class="cls-1" d="M73.26,15.9h2v2h1v1h-1v4a.94.94,0,0,0,.32.75,1,1,0,0,0,.59.25h.1v1h-1a1.94,1.94,0,0,1-1.41-.59,1.92,1.92,0,0,1-.58-1.41v-4h-1v-1h1Z" transform="translate(-1.74 -15.9)"/><path class="cls-1" d="M84.25,17.9v7h-2v-1c-.08.67-.42,1-1,1h-1a2,2,0,0,1-1.41-.59,1.93,1.93,0,0,1-.59-1.41v-5h2v5a1,1,0,0,0,.3.7,1,1,0,0,0,1.41,0,1,1,0,0,0,.3-.7v-5Z" transform="translate(-1.74 -15.9)"/><path class="cls-1" d="M92.25,24.9h-2v-1c-.08.67-.42,1-1,1h-1a1.93,1.93,0,0,1-1.41-.59,1.9,1.9,0,0,1-.6-1.41v-3a1.9,1.9,0,0,1,.6-1.41,1.93,1.93,0,0,1,1.41-.59h2v-2h2Zm-2-6h-1a1,1,0,0,0-.7.29,1,1,0,0,0-.29.71v3a.94.94,0,0,0,.29.7,1,1,0,0,0,.7.3,1,1,0,0,0,1-1Z" transform="translate(-1.74 -15.9)"/><path class="cls-1" d="M100.26,21.9h-4v1a1,1,0,0,0,.29.7,1,1,0,0,0,.71.3h1a.88.88,0,0,0,1-1h1c-.16,1.33-.82,2-2,2h-2a2,2,0,0,1-1.41-.59,1.89,1.89,0,0,1-.59-1.41v-3a1.89,1.89,0,0,1,.59-1.41,2,2,0,0,1,1.41-.59h2a2,2,0,0,1,2,2Zm-4-1h2v-1a1,1,0,0,0-.29-.71,1,1,0,0,0-1.71.71Z" transform="translate(-1.74 -15.9)"/><path class="cls-1" d="M102.26,24.9v-7h2v1a1.19,1.19,0,0,1,.32-.75.93.93,0,0,1,.68-.25h1a2,2,0,0,1,2,2v5h-2v-5a1,1,0,0,0-.3-.71,1,1,0,0,0-1.41,0,1,1,0,0,0-.3.71v5Z" transform="translate(-1.74 -15.9)"/><path class="cls-1" d="M111.27,15.9h2v2h1v1h-1v4a.92.92,0,0,0,.33.75,1,1,0,0,0,.59.25h.09v1h-1a2,2,0,0,1-2-2v-4h-1v-1h1Z" transform="translate(-1.74 -15.9)"/><path class="cls-1" d="M123.27,20.9v-1a1,1,0,0,0-.29-.71,1,1,0,0,0-.72-.29h-1c-.59,0-.93.33-1,1h-1c.16-1.33.83-2,2-2h2a1.94,1.94,0,0,1,1.41.59,1.92,1.92,0,0,1,.58,1.41v5h-2v-1c-.08.67-.41,1-1,1h-1a1.93,1.93,0,0,1-1.41-.59,2,2,0,0,1,0-2.82,1.93,1.93,0,0,1,1.41-.59Zm0,1h-1a1,1,0,0,0-.7,1.7,1,1,0,0,0,.7.3,1,1,0,0,0,1-1Z" transform="translate(-1.74 -15.9)"/><path class="cls-1" d="M128.28,15.9h2v2h1v1h-1v4a.94.94,0,0,0,.32.75,1,1,0,0,0,.59.25h.1v1h-1a1.94,1.94,0,0,1-1.41-.59,1.92,1.92,0,0,1-.58-1.41v-4h-1v-1h1Z" transform="translate(-1.74 -15.9)"/><path class="cls-1" d="M136.27,24.9v-9h.47l5.53,5v-5h1v9h-.46l-5.54-5v5Z" transform="translate(-1.74 -15.9)"/><path class="cls-1" d="M151.27,21.9h-4v1a1,1,0,0,0,.3.7.94.94,0,0,0,.7.3h1a.88.88,0,0,0,1-1h1c-.15,1.33-.82,2-2,2h-2a2,2,0,0,1-1.41-.59,1.93,1.93,0,0,1-.59-1.41v-3a1.93,1.93,0,0,1,.59-1.41,2,2,0,0,1,1.41-.59h2a2,2,0,0,1,2,2Zm-4-1h2v-1a1,1,0,0,0-.3-.71,1,1,0,0,0-1.41,0,1,1,0,0,0-.3.71Z" transform="translate(-1.74 -15.9)"/><path class="cls-1" d="M153.27,17.9h2v6h1a1,1,0,0,0,1-1v-5h2v6h1a.94.94,0,0,0,.7-.3,1,1,0,0,0,.3-.7v-5h2v3.58a3.43,3.43,0,0,1-3.42,3.42h-2.58v-.31a2.92,2.92,0,0,1-1.42.31h-2.59Z" transform="translate(-1.74 -15.9)"/><path class="cls-1" d="M170.28,24.9v-4c-1.34-.16-2-.82-2-2v-3h2v3a.93.93,0,0,0,.29.7,1,1,0,0,0,.7.3,1,1,0,0,0,.72-.3,1,1,0,0,0,.29-.7v-3h2v3c0,1.18-.66,1.84-2,2v4Z" transform="translate(-1.74 -15.9)"/><path class="cls-1" d="M178.28,17.9h2a2,2,0,0,1,2,2v3a2,2,0,0,1-.59,1.41,1.93,1.93,0,0,1-1.41.59h-2a2,2,0,0,1-1.41-.59,1.89,1.89,0,0,1-.59-1.41v-3a1.89,1.89,0,0,1,.59-1.41A2,2,0,0,1,178.28,17.9Zm0,2v3a1,1,0,0,0,.29.7,1,1,0,0,0,1.42,0,.94.94,0,0,0,.29-.7v-3a1,1,0,0,0-.29-.71,1,1,0,0,0-1.71.71Z" transform="translate(-1.74 -15.9)"/><path class="cls-1" d="M186.28,24.9h-2v-7h2v2a2.48,2.48,0,0,1,.62-1.5,1.89,1.89,0,0,1,1.39-.5h1v2h-2a.93.93,0,0,0-.7.29,1,1,0,0,0-.3.71Z" transform="translate(-1.74 -15.9)"/><path class="cls-1" d="M190.28,24.9v-9h2v4.5l3-2.5h2l-4.19,3.5,4.19,3.5h-2l-3-2.5v2.5Z" transform="translate(-1.74 -15.9)"/><path class="cls-1" d="M205.29,15.9h2v7a2,2,0,0,1-2,2h-2a1.93,1.93,0,0,1-1.41-.59,1.9,1.9,0,0,1-.6-1.41v-7h2v7a1,1,0,0,0,.29.7,1,1,0,0,0,.7.3,1,1,0,0,0,1-1Z" transform="translate(-1.74 -15.9)"/><path class="cls-1" d="M209.29,24.9v-7h2v1a1.24,1.24,0,0,1,.31-.75,1,1,0,0,1,.69-.25h1a2,2,0,0,1,2,2v5h-2v-5a1,1,0,0,0-.3-.71,1,1,0,0,0-1.41,0,1,1,0,0,0-.3.71v5Z" transform="translate(-1.74 -15.9)"/><path class="cls-1" d="M217.29,16.9v-1h2v1Zm0,8v-7h2v7Z" transform="translate(-1.74 -15.9)"/><path class="cls-1" d="M225.3,17.9h2v3.58a3.43,3.43,0,0,1-3.41,3.42h-2.59v-7h2v6h1a.94.94,0,0,0,.71-.3,1,1,0,0,0,.3-.7Z" transform="translate(-1.74 -15.9)"/><path class="cls-1" d="M235.29,21.9h-4v1a.94.94,0,0,0,.29.7,1,1,0,0,0,.7.3h1a.89.89,0,0,0,1-1h1c-.15,1.33-.81,2-2,2h-2a1.93,1.93,0,0,1-1.41-.59,1.9,1.9,0,0,1-.6-1.41v-3a1.9,1.9,0,0,1,.6-1.41,1.93,1.93,0,0,1,1.41-.59h2a1.92,1.92,0,0,1,1.4.59,1.89,1.89,0,0,1,.59,1.41Zm-4-1h2v-1a1,1,0,0,0-.29-.71,1,1,0,0,0-.72-.29,1,1,0,0,0-.7.29,1,1,0,0,0-.29.71Z" transform="translate(-1.74 -15.9)"/><path class="cls-1" d="M239.3,24.9h-2v-7h2v2a2.48,2.48,0,0,1,.62-1.5,1.87,1.87,0,0,1,1.38-.5h1v2h-2a1,1,0,0,0-.71.29,1,1,0,0,0-.29.71Z" transform="translate(-1.74 -15.9)"/><path class="cls-1" d="M248.3,19.9h-1c-.08-.67-.4-1-.94-1a1.27,1.27,0,0,0-.8.21.76.76,0,0,0-.26.62c0,.29.48.69,1.45,1.21A3.17,3.17,0,0,1,248.12,22a2.26,2.26,0,0,1,.18.9,2,2,0,0,1-2,2h-1a1.77,1.77,0,0,1-2-2h1c.08.67.39,1,.94,1a1.25,1.25,0,0,0,.8-.21.75.75,0,0,0,.27-.63c0-.28-.49-.68-1.45-1.2a3.23,3.23,0,0,1-1.38-1.05,2.26,2.26,0,0,1-.18-.9,1.91,1.91,0,0,1,.59-1.42,2,2,0,0,1,1.41-.59h1C247.55,17.9,248.22,18.57,248.3,19.9Z" transform="translate(-1.74 -15.9)"/><path class="cls-1" d="M250.29,16.9v-1h2v1Zm0,8v-7h2v7Z" transform="translate(-1.74 -15.9)"/><path class="cls-1" d="M255.3,15.9h2v2h1v1h-1v4a.94.94,0,0,0,.32.75,1,1,0,0,0,.59.25h.1v1h-1a2,2,0,0,1-2-2v-4h-1v-1h1Z" transform="translate(-1.74 -15.9)"/><path class="cls-1" d="M261.3,25.9c0,.67.38,1,1,1h1a.94.94,0,0,0,.71-.29,1,1,0,0,0,.3-.71v-2c-.08.67-.42,1-1,1h-1a2,2,0,0,1-1.41-.59,1.93,1.93,0,0,1-.59-1.41v-5h2v5a1,1,0,0,0,.3.7,1,1,0,0,0,1.41,0,1,1,0,0,0,.3-.7v-5h2v8a2,2,0,0,1-.59,1.41,1.92,1.92,0,0,1-1.4.59h-2c-1.17,0-1.84-.67-2-2Z" transform="translate(-1.74 -15.9)"/><path class="cls-1" d="M1.74,32.3h2v6h1a1,1,0,0,0,1-1v-5h2v6h1a1,1,0,0,0,.7-.3,1,1,0,0,0,.29-.7v-5h2v3.58a3.29,3.29,0,0,1-1,2.41,3.27,3.27,0,0,1-2.41,1H5.75V39a3,3,0,0,1-1.42.31H1.74Z" transform="translate(-1.74 -15.9)"/><path class="cls-1" d="M13.74,31.3v-1h2v1Zm0,8v-7h2v7Z" transform="translate(-1.74 -15.9)"/><path class="cls-1" d="M18.74,30.3h2v2h1v1h-1v4a.92.92,0,0,0,.33.75,1,1,0,0,0,.59.25h.09v1h-1a2,2,0,0,1-2-2v-4h-1v-1h1Z" transform="translate(-1.74 -15.9)"/><path class="cls-1" d="M23.73,39.3v-9h2v3a1.18,1.18,0,0,1,.31-.75,1,1,0,0,1,.68-.25h1a1.94,1.94,0,0,1,1.41.59,1.92,1.92,0,0,1,.58,1.41v5h-2v-5a1,1,0,0,0-.29-.71,1,1,0,0,0-.72-.29,1,1,0,0,0-1,1v5Z" transform="translate(-1.74 -15.9)"/><path class="cls-1" d="M38.75,35.3v-1a1,1,0,0,0-.3-.71,1,1,0,0,0-.71-.29h-1c-.59,0-.92.33-1,1h-1c.16-1.33.83-2,2-2h2a2,2,0,0,1,2,2v5h-2v-1c-.08.67-.42,1-1,1h-1a2,2,0,0,1-1.41-.59,2,2,0,0,1,0-2.82,2,2,0,0,1,1.41-.59Zm0,1h-1a1,1,0,0,0-1,1,1,1,0,0,0,.3.7.94.94,0,0,0,.7.3,1,1,0,0,0,1-1Z" transform="translate(-1.74 -15.9)"/><path class="cls-1" d="M42.74,39.3v-7h2v1a1.18,1.18,0,0,1,.31-.75,1,1,0,0,1,.68-.25h1a2,2,0,0,1,2,2v5h-2v-5a1,1,0,0,0-.29-.71,1,1,0,0,0-.72-.29,1,1,0,0,0-.7.29,1,1,0,0,0-.29.71v5Z" transform="translate(-1.74 -15.9)"/><path class="cls-1" d="M57.75,35.3v-1a1,1,0,0,0-.29-.71,1,1,0,0,0-.71-.29h-1c-.59,0-.92.33-1,1h-1c.15-1.33.82-2,2-2h2a2,2,0,0,1,2,2v5h-2v-1c-.08.67-.41,1-1,1h-1a1.94,1.94,0,0,1-1.41-.59,2,2,0,0,1,0-2.82,1.94,1.94,0,0,1,1.41-.59Zm0,1h-1A1,1,0,0,0,56,38a1,1,0,0,0,.71.3,1,1,0,0,0,1-1Z" transform="translate(-1.74 -15.9)"/><path class="cls-1" d="M66.75,34.3h-1c-.08-.67-.42-1-1-1a1,1,0,0,0-1,1v3a1,1,0,0,0,.3.7.94.94,0,0,0,.7.3c.59,0,.93-.33,1-1h1c-.08,1.33-.75,2-2,2h-1a2,2,0,0,1-1.41-.59,1.93,1.93,0,0,1-.59-1.41v-3a1.93,1.93,0,0,1,.59-1.41,2,2,0,0,1,1.41-.59h1A1.83,1.83,0,0,1,66.75,34.3Z" transform="translate(-1.74 -15.9)"/><path class="cls-1" d="M72.75,35.3v-1a1,1,0,0,0-.29-.71,1,1,0,0,0-.71-.29h-1c-.59,0-.92.33-1,1h-1c.15-1.33.82-2,2-2h2a2,2,0,0,1,2,2v5h-2v-1c-.08.67-.41,1-1,1h-1a1.94,1.94,0,0,1-1.41-.59,2,2,0,0,1,0-2.82,1.94,1.94,0,0,1,1.41-.59Zm0,1h-1A1,1,0,0,0,71,38a1,1,0,0,0,.71.3,1,1,0,0,0,1-1Z" transform="translate(-1.74 -15.9)"/><path class="cls-1" d="M82.75,39.3h-2v-1c-.08.67-.42,1-1,1h-1a2,2,0,0,1-1.41-.59,1.93,1.93,0,0,1-.59-1.41v-3a1.93,1.93,0,0,1,.59-1.41,2,2,0,0,1,1.41-.59h2v-2h2Zm-2-6h-1a1,1,0,0,0-1,1v3a1,1,0,0,0,.3.7,1,1,0,0,0,1.41,0,1,1,0,0,0,.3-.7Z" transform="translate(-1.74 -15.9)"/><path class="cls-1" d="M90.75,36.3h-4v1a.94.94,0,0,0,.29.7,1,1,0,0,0,.7.3h1a.89.89,0,0,0,1-1h1c-.15,1.33-.81,2-2,2h-2a1.93,1.93,0,0,1-1.41-.59,1.9,1.9,0,0,1-.6-1.41v-3a1.9,1.9,0,0,1,.6-1.41,1.93,1.93,0,0,1,1.41-.59h2a2,2,0,0,1,1.41.59,1.92,1.92,0,0,1,.58,1.41Zm-4-1h2v-1a1,1,0,0,0-.29-.71,1,1,0,0,0-.72-.29,1,1,0,0,0-.7.29,1,1,0,0,0-.29.71Z" transform="translate(-1.74 -15.9)"/><path class="cls-1" d="M98.76,39.3h-2v-5a1,1,0,0,0-.29-.71,1,1,0,0,0-1.71.71v5h-2v-7h2v1a1.18,1.18,0,0,1,.31-.75,1,1,0,0,1,.69-.25h1a1.69,1.69,0,0,1,1.5.71,1.44,1.44,0,0,1,.62-.53,2,2,0,0,1,.88-.18h1a2,2,0,0,1,1.41.59,1.89,1.89,0,0,1,.59,1.41v5h-2v-5a1,1,0,0,0-.29-.7,1,1,0,0,0-.71-.3,1,1,0,0,0-.7.29,1,1,0,0,0-.3.71Z" transform="translate(-1.74 -15.9)"/><path class="cls-1" d="M104.76,31.3v-1h2v1Zm0,8v-7h2v7Z" transform="translate(-1.74 -15.9)"/><path class="cls-1" d="M113.76,34.3h-1c-.08-.67-.42-1-1-1a1,1,0,0,0-.7.29,1,1,0,0,0-.29.71v3a.94.94,0,0,0,.29.7,1,1,0,0,0,.7.3c.59,0,.93-.33,1-1h1a1.84,1.84,0,0,1-2,2h-1a1.93,1.93,0,0,1-1.41-.59,1.9,1.9,0,0,1-.6-1.41v-3a1.9,1.9,0,0,1,.6-1.41,1.93,1.93,0,0,1,1.41-.59h1C113,32.3,113.68,33,113.76,34.3Z" transform="translate(-1.74 -15.9)"/><path class="cls-1" d="M118.75,39.3v-9h2v3a1.24,1.24,0,0,1,.31-.75,1,1,0,0,1,.69-.25h1a2,2,0,0,1,2,2v3a2,2,0,0,1-.59,1.41,1.92,1.92,0,0,1-1.4.59Zm2-1h1a.94.94,0,0,0,.71-.3,1,1,0,0,0,.3-.7v-3a1,1,0,0,0-.3-.71,1,1,0,0,0-1.41,0,1,1,0,0,0-.3.71Z" transform="translate(-1.74 -15.9)"/><path class="cls-1" d="M130.76,35.3v-1a1,1,0,0,0-.29-.71,1,1,0,0,0-.72-.29h-1c-.6,0-.93.33-1,1h-1c.16-1.33.83-2,2-2h2a1.92,1.92,0,0,1,1.4.59,1.89,1.89,0,0,1,.59,1.41v5h-2v-1c-.08.67-.42,1-1,1h-1a1.93,1.93,0,0,1-1.41-.59,2,2,0,0,1,0-2.82,1.93,1.93,0,0,1,1.41-.59Zm0,1h-1a1,1,0,0,0-.7.29,1,1,0,0,0,.7,1.71,1,1,0,0,0,1-1Z" transform="translate(-1.74 -15.9)"/><path class="cls-1" d="M139.76,34.3h-1c-.08-.67-.41-1-1-1a1,1,0,0,0-1,1v3a1,1,0,0,0,.29.7,1,1,0,0,0,.71.3c.59,0,.92-.33,1-1h1c-.08,1.33-.75,2-2,2h-1a2,2,0,0,1-1.41-.59,1.89,1.89,0,0,1-.59-1.41v-3a1.89,1.89,0,0,1,.59-1.41,2,2,0,0,1,1.41-.59h1A1.83,1.83,0,0,1,139.76,34.3Z" transform="translate(-1.74 -15.9)"/><path class="cls-1" d="M141.75,39.3v-9h2v4.5l3-2.5h2l-4.19,3.5,4.19,3.5h-2l-3-2.5v2.5Z" transform="translate(-1.74 -15.9)"/><path class="cls-1" d="M155.76,32.3v8a2,2,0,0,1-.59,1.41,1.93,1.93,0,0,1-1.41.59h-2c-1.18,0-1.84-.67-2-2h1c.05.67.38,1,1,1h1a1,1,0,0,0,1-1v-2c-.08.67-.41,1-1,1h-1a2,2,0,0,1-1.41-.59,1.89,1.89,0,0,1-.59-1.41v-3a1.89,1.89,0,0,1,.59-1.41,2,2,0,0,1,1.41-.59Zm-2,1h-1a1,1,0,0,0-1,1v3a1,1,0,0,0,.29.7,1,1,0,0,0,1.42,0,.94.94,0,0,0,.29-.7Z" transform="translate(-1.74 -15.9)"/><path class="cls-1" d="M159.76,39.3h-2v-7h2v2a2.48,2.48,0,0,1,.62-1.5,1.89,1.89,0,0,1,1.39-.5h1v2h-2a.93.93,0,0,0-.7.29,1,1,0,0,0-.3.71Z" transform="translate(-1.74 -15.9)"/><path class="cls-1" d="M165.76,32.3h2a2,2,0,0,1,2,2v3a2,2,0,0,1-.59,1.41,1.92,1.92,0,0,1-1.4.59h-2a2,2,0,0,1-1.41-.59,1.93,1.93,0,0,1-.59-1.41v-3a1.93,1.93,0,0,1,.59-1.41A2,2,0,0,1,165.76,32.3Zm0,2v3a1,1,0,0,0,.3.7,1,1,0,0,0,1.41,0,1,1,0,0,0,.3-.7v-3a1,1,0,0,0-.3-.71,1,1,0,0,0-1.41,0A1,1,0,0,0,165.76,34.3Z" transform="translate(-1.74 -15.9)"/><path class="cls-1" d="M177.76,32.3v7h-2v-1c-.08.67-.41,1-1,1h-1a1.93,1.93,0,0,1-1.41-.59,1.9,1.9,0,0,1-.6-1.41v-5h2v5a1,1,0,0,0,.29.7,1,1,0,0,0,.7.3,1,1,0,0,0,1-1v-5Z" transform="translate(-1.74 -15.9)"/><path class="cls-1" d="M179.77,39.3v-7h2v1a1.24,1.24,0,0,1,.31-.75,1,1,0,0,1,.69-.25h1a2,2,0,0,1,2,2v5h-2v-5a1,1,0,0,0-.3-.71,1,1,0,0,0-1.41,0,1,1,0,0,0-.3.71v5Z" transform="translate(-1.74 -15.9)"/><path class="cls-1" d="M193.77,39.3h-2v-1c-.08.67-.42,1-1,1h-1a1.93,1.93,0,0,1-1.41-.59,1.9,1.9,0,0,1-.6-1.41v-3a1.9,1.9,0,0,1,.6-1.41,1.93,1.93,0,0,1,1.41-.59h2v-2h2Zm-2-6h-1a1,1,0,0,0-.7.29,1,1,0,0,0-.29.71v3a.94.94,0,0,0,.29.7,1,1,0,0,0,.7.3,1,1,0,0,0,1-1Z" transform="translate(-1.74 -15.9)"/><path class="cls-1" d="M198.78,31.3v-1h2v1Zm0,8v-7h2v7Z" transform="translate(-1.74 -15.9)"/><path class="cls-1" d="M202.77,39.3v-7h2v1a1.18,1.18,0,0,1,.31-.75,1,1,0,0,1,.68-.25h1a1.92,1.92,0,0,1,1.4.59,1.89,1.89,0,0,1,.59,1.41v5h-2v-5a1,1,0,0,0-.29-.71,1,1,0,0,0-.72-.29,1,1,0,0,0-.7.29,1,1,0,0,0-.29.71v5Z" transform="translate(-1.74 -15.9)"/><path class="cls-1" d="M213.78,39.3v-9h2v3a1.18,1.18,0,0,1,.31-.75,1,1,0,0,1,.69-.25h1a2,2,0,0,1,2,2v3a2,2,0,0,1-.59,1.41,1.93,1.93,0,0,1-1.41.59Zm2-1h1a1,1,0,0,0,.71-.3.94.94,0,0,0,.29-.7v-3a1,1,0,0,0-.29-.71,1,1,0,0,0-1.71.71Z" transform="translate(-1.74 -15.9)"/><path class="cls-1" d="M223.78,32.3h2a2,2,0,0,1,2,2v3a2,2,0,0,1-.59,1.41,1.92,1.92,0,0,1-1.4.59h-2a2,2,0,0,1-1.41-.59,1.93,1.93,0,0,1-.59-1.41v-3a1.93,1.93,0,0,1,.59-1.41A2,2,0,0,1,223.78,32.3Zm0,2v3a1,1,0,0,0,.3.7,1,1,0,0,0,1.41,0,1,1,0,0,0,.3-.7v-3a1,1,0,0,0-.3-.71,1,1,0,0,0-1.41,0A1,1,0,0,0,223.78,34.3Z" transform="translate(-1.74 -15.9)"/><path class="cls-1" d="M230.79,30.3h2v2h1v1h-1v4a.92.92,0,0,0,.33.75,1,1,0,0,0,.59.25h.09v1h-1a2,2,0,0,1-2-2v-4h-1v-1h1Z" transform="translate(-1.74 -15.9)"/><path class="cls-1" d="M235.78,39.3v-9h2v3a1.18,1.18,0,0,1,.31-.75,1,1,0,0,1,.68-.25h1a1.94,1.94,0,0,1,1.41.59,1.92,1.92,0,0,1,.58,1.41v5h-2v-5a1,1,0,0,0-.29-.71,1,1,0,0,0-.72-.29,1,1,0,0,0-1,1v5Z" transform="translate(-1.74 -15.9)"/><path class="cls-1" d="M246.79,39.3v-9h4a1.92,1.92,0,0,1,1.4.59,2,2,0,0,1,.59,1.41v5a2,2,0,0,1-.59,1.41,1.92,1.92,0,0,1-1.4.59Zm2-1h1a.94.94,0,0,0,.71-.3,1,1,0,0,0,.3-.7v-5a1,1,0,0,0-.3-.71.94.94,0,0,0-.71-.29h-1Z" transform="translate(-1.74 -15.9)"/><path class="cls-1" d="M258.8,35.3v-1a1,1,0,0,0-.29-.71,1,1,0,0,0-.72-.29h-1c-.6,0-.93.33-1,1h-1c.16-1.33.83-2,2-2h2a1.92,1.92,0,0,1,1.4.59,1.89,1.89,0,0,1,.59,1.41v5h-2v-1c-.08.67-.42,1-1,1h-1a1.93,1.93,0,0,1-1.41-.59,2,2,0,0,1,0-2.82,1.93,1.93,0,0,1,1.41-.59Zm0,1h-1a1,1,0,0,0-.7.29,1,1,0,0,0,.7,1.71,1,1,0,0,0,1-1Z" transform="translate(-1.74 -15.9)"/><path class="cls-1" d="M263.8,30.3h2v2h1v1h-1v4a.91.91,0,0,0,.32.75,1,1,0,0,0,.59.25h.09v1h-1a2,2,0,0,1-2-2v-4h-1v-1h1Z" transform="translate(-1.74 -15.9)"/><path class="cls-1" d="M272.8,35.3v-1a1,1,0,0,0-.29-.71,1,1,0,0,0-.71-.29h-1c-.59,0-.92.33-1,1h-1c.16-1.33.82-2,2-2h2a2,2,0,0,1,2,2v5h-2v-1c-.08.67-.41,1-1,1h-1a2,2,0,0,1-1.41-.59,2,2,0,0,1,0-2.82,2,2,0,0,1,1.41-.59Zm0,1h-1a1,1,0,0,0-.71,1.7,1,1,0,0,0,1.42,0,.94.94,0,0,0,.29-.7Z" transform="translate(-1.74 -15.9)"/><path class="cls-1" d="M15.76,46.7h-1c-.09-.67-.4-1-.95-1A1.1,1.1,0,0,0,13,46a1,1,0,0,0-.26.75,1.08,1.08,0,0,0,.29.71l2.12,2.38a2.1,2.1,0,0,1,.59,1.41v.5a2,2,0,0,1-.59,1.41,1.93,1.93,0,0,1-1.42.59h-1a2,2,0,0,1-1.5-.5,2,2,0,0,1-.51-1.5h1v.16a.74.74,0,0,0,.31.63,1.22,1.22,0,0,0,.69.21,1,1,0,0,0,.76-.25,1.09,1.09,0,0,0,.23-.75,1,1,0,0,0-.28-.71l-2.13-2.38a2.06,2.06,0,0,1-.59-1.41v-.5a2,2,0,0,1,2-2h1A1.84,1.84,0,0,1,15.76,46.7Z" transform="translate(-1.74 -15.9)"/><path class="cls-1" d="M22.75,48.7h-1c-.08-.67-.42-1-1-1a1,1,0,0,0-1,1v3a1,1,0,0,0,.3.7.94.94,0,0,0,.7.3c.59,0,.93-.33,1-1h1c-.08,1.33-.74,2-2,2h-1a2,2,0,0,1-1.41-.59,1.93,1.93,0,0,1-.59-1.41v-3a1.93,1.93,0,0,1,.59-1.41,2,2,0,0,1,1.41-.59h1A1.83,1.83,0,0,1,22.75,48.7Z" transform="translate(-1.74 -15.9)"/><path class="cls-1" d="M24.75,45.7v-1h2v1Zm0,8v-7h2v7Z" transform="translate(-1.74 -15.9)"/><path class="cls-1" d="M34.74,50.7h-4v1a.94.94,0,0,0,.29.7,1,1,0,0,0,.7.3h1a.88.88,0,0,0,1-1h1c-.15,1.33-.81,2-2,2h-2a1.93,1.93,0,0,1-1.41-.59,1.9,1.9,0,0,1-.6-1.41v-3a1.9,1.9,0,0,1,.6-1.41,1.93,1.93,0,0,1,1.41-.59h2a2,2,0,0,1,1.41.59,1.92,1.92,0,0,1,.58,1.41Zm-4-1h2v-1a1,1,0,0,0-.29-.71,1,1,0,0,0-.72-.29A1,1,0,0,0,31,48a1,1,0,0,0-.29.71Z" transform="translate(-1.74 -15.9)"/><path class="cls-1" d="M36.75,53.7v-7h2v1a1.24,1.24,0,0,1,.31-.75,1,1,0,0,1,.69-.25h1a2,2,0,0,1,2,2v5h-2v-5a1,1,0,0,0-.29-.71,1,1,0,0,0-.71-.29A1,1,0,0,0,39,48a1,1,0,0,0-.29.71v5Z" transform="translate(-1.74 -15.9)"/><path class="cls-1" d="M49.75,48.7h-1c-.08-.67-.42-1-1-1a1,1,0,0,0-1,1v3a1,1,0,0,0,.3.7.94.94,0,0,0,.7.3c.59,0,.93-.33,1-1h1c-.08,1.33-.74,2-2,2h-1a2,2,0,0,1-1.41-.59,1.93,1.93,0,0,1-.59-1.41v-3a1.93,1.93,0,0,1,.59-1.41,2,2,0,0,1,1.41-.59h1A1.83,1.83,0,0,1,49.75,48.7Z" transform="translate(-1.74 -15.9)"/><path class="cls-1" d="M57.75,50.7h-4v1a1,1,0,0,0,1,1h1a.88.88,0,0,0,1-1h1c-.16,1.33-.82,2-2,2h-2a2,2,0,0,1-1.41-.59,1.89,1.89,0,0,1-.59-1.41v-3a1.89,1.89,0,0,1,.59-1.41,2,2,0,0,1,1.41-.59h2a2,2,0,0,1,2,2Zm-4-1h2v-1a1,1,0,0,0-.29-.71,1,1,0,0,0-.71-.29A1,1,0,0,0,54,48a1,1,0,0,0-.29.71Z" transform="translate(-1.74 -15.9)"/><path class="cls-1" d="M66.76,49.7v-1a1,1,0,0,0-.3-.71,1,1,0,0,0-.71-.29h-1c-.59,0-.92.33-1,1h-1c.16-1.33.83-2,2-2h2a2,2,0,0,1,2,2v5h-2v-1c-.08.67-.42,1-1,1h-1a2,2,0,0,1-1.41-.59,2,2,0,0,1,0-2.82,2,2,0,0,1,1.41-.59Zm0,1h-1a1,1,0,0,0-1,1,1,1,0,0,0,.3.7,1,1,0,0,0,1.41,0,1,1,0,0,0,.3-.7Z" transform="translate(-1.74 -15.9)"/><path class="cls-1" d="M70.75,53.7v-7h2v1a1.18,1.18,0,0,1,.31-.75,1,1,0,0,1,.68-.25h1a1.94,1.94,0,0,1,1.41.59,1.92,1.92,0,0,1,.58,1.41v5h-2v-5a1,1,0,0,0-.29-.71,1,1,0,0,0-.72-.29,1,1,0,0,0-1,1v5Z" transform="translate(-1.74 -15.9)"/><path class="cls-1" d="M84.76,53.7h-2v-1c-.08.67-.42,1-1,1h-1a2,2,0,0,1-1.41-.59,1.93,1.93,0,0,1-.59-1.41v-3a1.93,1.93,0,0,1,.59-1.41,2,2,0,0,1,1.41-.59h2v-2h2Zm-2-6h-1a1,1,0,0,0-1,1v3a1,1,0,0,0,.3.7,1,1,0,0,0,1.41,0,1,1,0,0,0,.3-.7Z" transform="translate(-1.74 -15.9)"/><path class="cls-1" d="M90.77,53.7v-9h2v9Z" transform="translate(-1.74 -15.9)"/><path class="cls-1" d="M95.76,53.7v-7h2v1a1.18,1.18,0,0,1,.31-.75,1,1,0,0,1,.68-.25h1a1.92,1.92,0,0,1,1.4.59,1.89,1.89,0,0,1,.59,1.41v5h-2v-5a1,1,0,0,0-.29-.71,1,1,0,0,0-.72-.29,1,1,0,0,0-.7.29,1,1,0,0,0-.29.71v5Z" transform="translate(-1.74 -15.9)"/><path class="cls-1" d="M104.77,44.7h2v2h1v1h-1v4a.91.91,0,0,0,.32.75,1,1,0,0,0,.59.25h.09v1h-1a2,2,0,0,1-2-2v-4h-1v-1h1Z" transform="translate(-1.74 -15.9)"/><path class="cls-1" d="M115.77,50.7h-4v1a1,1,0,0,0,.29.7,1,1,0,0,0,.71.3h1a.88.88,0,0,0,1-1h1c-.16,1.33-.82,2-2,2h-2a2,2,0,0,1-1.41-.59,1.93,1.93,0,0,1-.59-1.41v-3a1.93,1.93,0,0,1,.59-1.41,2,2,0,0,1,1.41-.59h2a2,2,0,0,1,2,2Zm-4-1h2v-1a1,1,0,0,0-.29-.71,1,1,0,0,0-1.71.71Z" transform="translate(-1.74 -15.9)"/><path class="cls-1" d="M119.77,53.7h-2v-7h2v2a2.48,2.48,0,0,1,.62-1.5,1.89,1.89,0,0,1,1.39-.5h1v2h-2a.93.93,0,0,0-.7.29,1,1,0,0,0-.3.71Z" transform="translate(-1.74 -15.9)"/><path class="cls-1" d="M127.78,49.7v-1a1,1,0,0,0-.3-.71,1,1,0,0,0-.71-.29h-1c-.59,0-.92.33-1,1h-1c.16-1.33.83-2,2-2h2a2,2,0,0,1,2,2v5h-2v-1c-.08.67-.42,1-1,1h-1a2,2,0,0,1-1.41-.59,2,2,0,0,1,0-2.82,2,2,0,0,1,1.41-.59Zm0,1h-1a1,1,0,0,0-1,1,1,1,0,0,0,.3.7,1,1,0,0,0,1.41,0,1,1,0,0,0,.3-.7Z" transform="translate(-1.74 -15.9)"/><path class="cls-1" d="M136.78,48.7h-1c-.08-.67-.41-1-1-1a1,1,0,0,0-1,1v3a1,1,0,0,0,.29.7,1,1,0,0,0,.7.3c.6,0,.93-.33,1-1h1a1.84,1.84,0,0,1-2,2h-1a1.93,1.93,0,0,1-1.41-.59,1.9,1.9,0,0,1-.6-1.41v-3a1.9,1.9,0,0,1,.6-1.41,1.93,1.93,0,0,1,1.41-.59h1A1.83,1.83,0,0,1,136.78,48.7Z" transform="translate(-1.74 -15.9)"/><path class="cls-1" d="M139.78,44.7h2v2h1v1h-1v4a.94.94,0,0,0,.32.75,1,1,0,0,0,.59.25h.1v1h-1a1.92,1.92,0,0,1-1.4-.59,1.89,1.89,0,0,1-.59-1.41v-4h-1v-1h1Z" transform="translate(-1.74 -15.9)"/><path class="cls-1" d="M144.77,45.7v-1h2v1Zm0,8v-7h2v7Z" transform="translate(-1.74 -15.9)"/><path class="cls-1" d="M152.77,46.7h2v3.58a3.45,3.45,0,0,1-3.41,3.42h-2.59v-7h2v6h1a1,1,0,0,0,.71-.3.94.94,0,0,0,.29-.7Z" transform="translate(-1.74 -15.9)"/><path class="cls-1" d="M162.77,50.7h-4v1a1,1,0,0,0,.3.7.94.94,0,0,0,.7.3h1a.88.88,0,0,0,1-1h1c-.15,1.33-.82,2-2,2h-2a2,2,0,0,1-1.41-.59,1.93,1.93,0,0,1-.59-1.41v-3a1.93,1.93,0,0,1,.59-1.41,2,2,0,0,1,1.41-.59h2a2,2,0,0,1,2,2Zm-4-1h2v-1a1,1,0,0,0-.3-.71,1,1,0,0,0-1.41,0,1,1,0,0,0-.3.71Z" transform="translate(-1.74 -15.9)"/><path class="cls-1" d="M167.77,53.7v-9h.47L172.51,49l4.26-4.26h1v9h-2V48.2l-3.51,3.51-3.49-3.51v5.5Z" transform="translate(-1.74 -15.9)"/><path class="cls-1" d="M185.77,50.7h-4v1a1,1,0,0,0,.29.7,1,1,0,0,0,.7.3h1a.88.88,0,0,0,1-1h1c-.15,1.33-.81,2-2,2h-2a1.93,1.93,0,0,1-1.41-.59,1.9,1.9,0,0,1-.6-1.41v-3a1.9,1.9,0,0,1,.6-1.41,1.93,1.93,0,0,1,1.41-.59h2a1.94,1.94,0,0,1,1.41.59,1.92,1.92,0,0,1,.58,1.41Zm-4-1h2v-1a1,1,0,0,0-.29-.71,1,1,0,0,0-.72-.29,1,1,0,0,0-1,1Z" transform="translate(-1.74 -15.9)"/><path class="cls-1" d="M193.78,53.7h-2v-1c-.08.67-.42,1-1,1h-1a2,2,0,0,1-1.41-.59,1.93,1.93,0,0,1-.59-1.41v-3a1.93,1.93,0,0,1,.59-1.41,2,2,0,0,1,1.41-.59h2v-2h2Zm-2-6h-1a1,1,0,0,0-1,1v3a1,1,0,0,0,.3.7,1,1,0,0,0,1.41,0,1,1,0,0,0,.3-.7Z" transform="translate(-1.74 -15.9)"/><path class="cls-1" d="M195.78,45.7v-1h2v1Zm0,8v-7h2v7Z" transform="translate(-1.74 -15.9)"/><path class="cls-1" d="M203.79,49.7v-1a1,1,0,0,0-.3-.71,1,1,0,0,0-.71-.29h-1c-.59,0-.92.33-1,1h-1c.16-1.33.83-2,2-2h2a2,2,0,0,1,2,2v5h-2v-1c-.08.67-.42,1-1,1h-1a2,2,0,0,1-1.41-.59,2,2,0,0,1,0-2.82,2,2,0,0,1,1.41-.59Zm0,1h-1a1,1,0,0,0-1,1,1,1,0,0,0,.3.7,1,1,0,0,0,1.41,0,1,1,0,0,0,.3-.7Z" transform="translate(-1.74 -15.9)"/><path class="cls-1" d="M210.78,53.7v-7a1.9,1.9,0,0,1,.6-1.41,1.93,1.93,0,0,1,1.41-.59h2a2,2,0,0,1,2,2v7h-2v-4h-2v4Zm2-5h2v-2a1,1,0,0,0-.29-.71,1,1,0,0,0-.72-.29,1,1,0,0,0-1,1Z" transform="translate(-1.74 -15.9)"/><path class="cls-1" d="M220.79,53.7h-2v-7h2v2a2.48,2.48,0,0,1,.62-1.5,1.87,1.87,0,0,1,1.38-.5h1v2h-2a1,1,0,0,0-.71.29,1,1,0,0,0-.29.71Z" transform="translate(-1.74 -15.9)"/><path class="cls-1" d="M225.79,44.7h2v2h1v1h-1v4a.91.91,0,0,0,.32.75,1,1,0,0,0,.59.25h.09v1h-1a2,2,0,0,1-2-2v-4h-1v-1h1Z" transform="translate(-1.74 -15.9)"/><path class="cls-1" d="M235.79,48.7h-1c-.08-.67-.4-1-.94-1a1.27,1.27,0,0,0-.8.21.76.76,0,0,0-.26.62c0,.29.48.69,1.45,1.21a3.25,3.25,0,0,1,1.37,1.06,2.26,2.26,0,0,1,.18.9,2,2,0,0,1-2,2h-1a1.77,1.77,0,0,1-2-2h1c.08.67.4,1,.94,1a1.25,1.25,0,0,0,.8-.21.75.75,0,0,0,.27-.63c0-.28-.49-.68-1.45-1.2a3.23,3.23,0,0,1-1.38-1,2.26,2.26,0,0,1-.18-.9,1.91,1.91,0,0,1,.59-1.42,2,2,0,0,1,1.41-.59h1C235,46.7,235.71,47.37,235.79,48.7Z" transform="translate(-1.74 -15.9)"/><path class="cls-1" d="M237.78,53.7v-2h2v2Z" transform="translate(-1.74 -15.9)"/><path class="cls-1" d="M244.78,53.7v-9h4a1.92,1.92,0,0,1,1.4.59,2,2,0,0,1,.59,1.41v.54a2.1,2.1,0,0,1-.46,1.29,1.75,1.75,0,0,1-1.53.62h1a1,1,0,0,1,1,1V53.7h-2v-3a1,1,0,0,0-1-1h-1v4Zm2-5h1a1,1,0,0,0,1-1v-1a1,1,0,0,0-.3-.71.94.94,0,0,0-.71-.29h-1Z" transform="translate(-1.74 -15.9)"/><path class="cls-1" d="M258.78,50.7h-4v1a.94.94,0,0,0,.29.7,1,1,0,0,0,.7.3h1a.89.89,0,0,0,1-1h1c-.15,1.33-.81,2-2,2h-2a1.93,1.93,0,0,1-1.41-.59,1.9,1.9,0,0,1-.6-1.41v-3a1.9,1.9,0,0,1,.6-1.41,1.93,1.93,0,0,1,1.41-.59h2a1.92,1.92,0,0,1,1.4.59,1.89,1.89,0,0,1,.59,1.41Zm-4-1h2v-1a1,1,0,0,0-.29-.71,1,1,0,0,0-.72-.29,1,1,0,0,0-.7.29,1,1,0,0,0-.29.71Z" transform="translate(-1.74 -15.9)"/><path class="cls-1" d="M260.79,50.7v-1h5v1Z" transform="translate(-1.74 -15.9)"/><path class="cls-1" d="M18.24,63.1h-1c-.08-.67-.42-1-1-1a1,1,0,0,0-.7.29,1,1,0,0,0-.29.71v3a.94.94,0,0,0,.29.7,1,1,0,0,0,.7.3c.59,0,.93-.33,1-1h1a1.84,1.84,0,0,1-2,2h-1a1.93,1.93,0,0,1-1.41-.59,1.9,1.9,0,0,1-.6-1.41v-3a1.9,1.9,0,0,1,.6-1.41,1.93,1.93,0,0,1,1.41-.59h1A1.83,1.83,0,0,1,18.24,63.1Z" transform="translate(-1.74 -15.9)"/><path class="cls-1" d="M26.23,65.1h-4v1a1,1,0,0,0,.3.7.94.94,0,0,0,.7.3h1a.88.88,0,0,0,1-1h1c-.15,1.33-.82,2-2,2h-2a2,2,0,0,1-1.41-.59,1.93,1.93,0,0,1-.59-1.41v-3a1.93,1.93,0,0,1,.59-1.41,2,2,0,0,1,1.41-.59h2a2,2,0,0,1,2,2Zm-4-1h2v-1a1,1,0,0,0-.3-.71,1,1,0,0,0-1.41,0,1,1,0,0,0-.3.71Z" transform="translate(-1.74 -15.9)"/><path class="cls-1" d="M28.23,60.1v-1h2v1Zm0,8v-7h2v7Z" transform="translate(-1.74 -15.9)"/><path class="cls-1" d="M36.24,61.1h2v3.58a3.43,3.43,0,0,1-3.41,3.42H32.23v-7h2v6h1a.94.94,0,0,0,.71-.3,1,1,0,0,0,.3-.7Z" transform="translate(-1.74 -15.9)"/><path class="cls-1" d="M46.23,65.1h-4v1a.94.94,0,0,0,.29.7,1,1,0,0,0,.7.3h1a.89.89,0,0,0,1-1h1c-.15,1.33-.81,2-2,2h-2a1.93,1.93,0,0,1-1.41-.59,1.9,1.9,0,0,1-.6-1.41v-3a1.9,1.9,0,0,1,.6-1.41,1.93,1.93,0,0,1,1.41-.59h2a2,2,0,0,1,1.41.59,1.92,1.92,0,0,1,.58,1.41Zm-4-1h2v-1a1,1,0,0,0-.29-.71,1,1,0,0,0-.72-.29,1,1,0,0,0-.7.29,1,1,0,0,0-.29.71Z" transform="translate(-1.74 -15.9)"/><path class="cls-1" d="M54.24,68.1h-2v-1c-.08.67-.41,1-1,1h-1a2,2,0,0,1-1.41-.59,1.89,1.89,0,0,1-.59-1.41v-3a1.89,1.89,0,0,1,.59-1.41,2,2,0,0,1,1.41-.59h2v-2h2Zm-2-6h-1a1,1,0,0,0-1,1v3a1,1,0,0,0,.29.7,1,1,0,0,0,1.42,0,.94.94,0,0,0,.29-.7Z" transform="translate(-1.74 -15.9)"/><path class="cls-1" d="M63.25,64.1v-1a1,1,0,0,0-.3-.71,1,1,0,0,0-.71-.29h-1c-.59,0-.92.33-1,1h-1c.16-1.33.83-2,2-2h2a2,2,0,0,1,2,2v5h-2v-1c-.08.67-.42,1-1,1h-1a2,2,0,0,1-1.41-.59,2,2,0,0,1,0-2.82,2,2,0,0,1,1.41-.59Zm0,1h-1a1,1,0,0,0-1,1,1,1,0,0,0,.3.7,1,1,0,0,0,1.41,0,1,1,0,0,0,.3-.7Z" transform="translate(-1.74 -15.9)"/><path class="cls-1" d="M69.25,68.1h-2v-7h2v2a2.42,2.42,0,0,1,.62-1.5,1.87,1.87,0,0,1,1.38-.5h1v2h-2a.94.94,0,0,0-.7.29,1,1,0,0,0-.29.71Z" transform="translate(-1.74 -15.9)"/><path class="cls-1" d="M74.25,59.1h2v2h1v1h-1v4a.92.92,0,0,0,.33.75,1,1,0,0,0,.59.25h.09v1h-1a2,2,0,0,1-2-2v-4h-1v-1h1Z" transform="translate(-1.74 -15.9)"/><path class="cls-1" d="M83.25,59.1h2v2h1v1h-1v4a.92.92,0,0,0,.33.75,1,1,0,0,0,.59.25h.09v1h-1a2,2,0,0,1-2-2v-4h-1v-1h1Z" transform="translate(-1.74 -15.9)"/><path class="cls-1" d="M90.25,68.1h-2v-7h2v2a2.42,2.42,0,0,1,.62-1.5,1.87,1.87,0,0,1,1.38-.5h1v2h-2a.94.94,0,0,0-.7.29,1,1,0,0,0-.29.71Z" transform="translate(-1.74 -15.9)"/><path class="cls-1" d="M98.25,64.1v-1a1,1,0,0,0-.29-.71,1,1,0,0,0-.72-.29h-1c-.59,0-.93.33-1,1h-1c.16-1.33.83-2,2-2h2a1.94,1.94,0,0,1,1.41.59,1.92,1.92,0,0,1,.58,1.41v5h-2v-1c-.08.67-.41,1-1,1h-1a1.93,1.93,0,0,1-1.41-.59,2,2,0,0,1,0-2.82,1.93,1.93,0,0,1,1.41-.59Zm0,1h-1a1,1,0,0,0-.7,1.7,1,1,0,0,0,.7.3,1,1,0,0,0,1-1Z" transform="translate(-1.74 -15.9)"/><path class="cls-1" d="M102.25,60.1v-1h2v1Zm0,8v-7h2v7Z" transform="translate(-1.74 -15.9)"/><path class="cls-1" d="M106.24,68.1v-7h2v1a1.18,1.18,0,0,1,.31-.75,1,1,0,0,1,.68-.25h1a1.94,1.94,0,0,1,1.41.59,1.92,1.92,0,0,1,.58,1.41v5h-2v-5a1,1,0,0,0-.29-.71,1,1,0,0,0-.72-.29,1,1,0,0,0-1,1v5Z" transform="translate(-1.74 -15.9)"/><path class="cls-1" d="M114.25,60.1v-1h2v1Zm0,8v-7h2v7Z" transform="translate(-1.74 -15.9)"/><path class="cls-1" d="M118.24,68.1v-7h2v1a1.18,1.18,0,0,1,.31-.75,1,1,0,0,1,.68-.25h1a1.94,1.94,0,0,1,1.41.59,1.92,1.92,0,0,1,.58,1.41v5h-2v-5a1,1,0,0,0-.29-.71,1,1,0,0,0-.72-.29,1,1,0,0,0-1,1v5Z" transform="translate(-1.74 -15.9)"/><path class="cls-1" d="M132.25,61.1v8a2,2,0,0,1-.59,1.41,1.92,1.92,0,0,1-1.4.59h-2c-1.17,0-1.84-.67-2-2h1c0,.67.38,1,1,1h1a.94.94,0,0,0,.71-.29,1,1,0,0,0,.3-.71v-2c-.08.67-.42,1-1,1h-1a2,2,0,0,1-1.41-.59,1.93,1.93,0,0,1-.59-1.41v-3a1.93,1.93,0,0,1,.59-1.41,2,2,0,0,1,1.41-.59Zm-2,1h-1a1,1,0,0,0-1,1v3a1,1,0,0,0,.3.7,1,1,0,0,0,1.41,0,1,1,0,0,0,.3-.7Z" transform="translate(-1.74 -15.9)"/><path class="cls-1" d="M141.26,64.1v-1a1,1,0,0,0-.29-.71,1,1,0,0,0-.72-.29h-1c-.6,0-.93.33-1,1h-1c.16-1.33.83-2,2-2h2a1.92,1.92,0,0,1,1.4.59,1.89,1.89,0,0,1,.59,1.41v5h-2v-1c-.08.67-.42,1-1,1h-1a1.93,1.93,0,0,1-1.41-.59,2,2,0,0,1,0-2.82,1.93,1.93,0,0,1,1.41-.59Zm0,1h-1a1,1,0,0,0-.7.29,1,1,0,0,0,.7,1.71,1,1,0,0,0,1-1Z" transform="translate(-1.74 -15.9)"/><path class="cls-1" d="M146.26,59.1h2v2h1v1h-1v4a.91.91,0,0,0,.32.75,1,1,0,0,0,.59.25h.09v1h-1a2,2,0,0,1-2-2v-4h-1v-1h1Z" transform="translate(-1.74 -15.9)"/><path class="cls-1" d="M158.26,64.1v-1a1,1,0,0,0-.29-.71,1,1,0,0,0-.71-.29h-1c-.59,0-.92.33-1,1h-1c.16-1.33.82-2,2-2h2a2,2,0,0,1,2,2v5h-2v-1c-.08.67-.41,1-1,1h-1a2,2,0,0,1-1.41-.59,2,2,0,0,1,0-2.82,2,2,0,0,1,1.41-.59Zm0,1h-1a1,1,0,0,0-.71,1.7,1,1,0,0,0,1.42,0,.94.94,0,0,0,.29-.7Z" transform="translate(-1.74 -15.9)"/><path class="cls-1" d="M169.27,61.1h2v3.58a3.43,3.43,0,0,1-3.41,3.42h-2.59v-7h2v6h1a.94.94,0,0,0,.71-.3,1,1,0,0,0,.3-.7Z" transform="translate(-1.74 -15.9)"/><path class="cls-1" d="M179.26,65.1h-4v1a1,1,0,0,0,.29.7,1,1,0,0,0,.7.3h1a.88.88,0,0,0,1-1h1c-.15,1.33-.81,2-2,2h-2a1.93,1.93,0,0,1-1.41-.59,1.9,1.9,0,0,1-.6-1.41v-3a1.9,1.9,0,0,1,.6-1.41,1.93,1.93,0,0,1,1.41-.59h2a1.94,1.94,0,0,1,1.41.59,1.92,1.92,0,0,1,.58,1.41Zm-4-1h2v-1a1,1,0,0,0-.29-.71,1,1,0,0,0-.72-.29,1,1,0,0,0-1,1Z" transform="translate(-1.74 -15.9)"/><path class="cls-1" d="M183.27,68.1h-2v-7h2v2a2.48,2.48,0,0,1,.62-1.5,1.88,1.88,0,0,1,1.39-.5h1v2h-2a.93.93,0,0,0-.7.29,1,1,0,0,0-.3.71Z" transform="translate(-1.74 -15.9)"/><path class="cls-1" d="M188.28,69.1c0,.67.38,1,1,1h1a.94.94,0,0,0,.71-.29,1,1,0,0,0,.3-.71v-2c-.08.67-.42,1-1,1h-1a2,2,0,0,1-1.41-.59,1.93,1.93,0,0,1-.59-1.41v-5h2v5a1,1,0,0,0,.3.7,1,1,0,0,0,1.41,0,1,1,0,0,0,.3-.7v-5h2v8a2,2,0,0,1-.59,1.41,1.92,1.92,0,0,1-1.4.59h-2c-1.17,0-1.84-.67-2-2Z" transform="translate(-1.74 -15.9)"/><path class="cls-1" d="M199.28,69.1c.05.67.38,1,1,1h1a1,1,0,0,0,.72-.29,1,1,0,0,0,.29-.71v-2c-.08.67-.42,1-1,1h-1a1.93,1.93,0,0,1-1.41-.59,1.9,1.9,0,0,1-.6-1.41v-5h2v5a.94.94,0,0,0,.29.7,1,1,0,0,0,.7.3,1,1,0,0,0,1-1v-5h2v8a2,2,0,0,1-2,2h-2c-1.18,0-1.85-.67-2-2Z" transform="translate(-1.74 -15.9)"/><path class="cls-1" d="M208.28,61.1h2a2,2,0,0,1,2,2v3a2,2,0,0,1-.59,1.41,1.93,1.93,0,0,1-1.41.59h-2a2,2,0,0,1-1.41-.59,1.89,1.89,0,0,1-.59-1.41v-3a1.89,1.89,0,0,1,.59-1.41A2,2,0,0,1,208.28,61.1Zm0,2v3a1,1,0,0,0,.29.7,1,1,0,0,0,1.42,0,.94.94,0,0,0,.29-.7v-3a1,1,0,0,0-.29-.71,1,1,0,0,0-1.71.71Z" transform="translate(-1.74 -15.9)"/><path class="cls-1" d="M220.28,61.1v7h-2v-1c-.08.67-.42,1-1,1h-1a2,2,0,0,1-1.41-.59,1.93,1.93,0,0,1-.59-1.41v-5h2v5a1,1,0,0,0,.3.7,1,1,0,0,0,1.41,0,1,1,0,0,0,.3-.7v-5Z" transform="translate(-1.74 -15.9)"/><path class="cls-1" d="M222.28,68.1v-7h2v1a1.18,1.18,0,0,1,.31-.75,1,1,0,0,1,.68-.25h1a1.94,1.94,0,0,1,1.41.59,1.92,1.92,0,0,1,.58,1.41v5h-2v-5a1,1,0,0,0-.29-.71,1,1,0,0,0-.72-.29,1,1,0,0,0-1,1v5Z" transform="translate(-1.74 -15.9)"/><path class="cls-1" d="M236.29,61.1v8a2,2,0,0,1-.59,1.41,1.92,1.92,0,0,1-1.4.59h-2c-1.17,0-1.84-.67-2-2h1c0,.67.38,1,1,1h1a.94.94,0,0,0,.71-.29,1,1,0,0,0,.3-.71v-2c-.08.67-.42,1-1,1h-1a2,2,0,0,1-1.41-.59,1.93,1.93,0,0,1-.59-1.41v-3a1.93,1.93,0,0,1,.59-1.41,2,2,0,0,1,1.41-.59Zm-2,1h-1a1,1,0,0,0-1,1v3a1,1,0,0,0,.3.7,1,1,0,0,0,1.41,0,1,1,0,0,0,.3-.7Z" transform="translate(-1.74 -15.9)"/><path class="cls-1" d="M245.3,64.1v-1a1,1,0,0,0-.29-.71,1,1,0,0,0-.72-.29h-1c-.6,0-.93.33-1,1h-1c.16-1.33.83-2,2-2h2a1.92,1.92,0,0,1,1.4.59,1.89,1.89,0,0,1,.59,1.41v5h-2v-1c-.08.67-.42,1-1,1h-1a1.93,1.93,0,0,1-1.41-.59,2,2,0,0,1,0-2.82,1.93,1.93,0,0,1,1.41-.59Zm0,1h-1a1,1,0,0,0-.7.29,1,1,0,0,0,.7,1.71,1,1,0,0,0,1-1Z" transform="translate(-1.74 -15.9)"/><path class="cls-1" d="M255.3,61.1v8a2,2,0,0,1-2,2h-2c-1.18,0-1.84-.67-2-2h1c0,.67.38,1,1,1h1a1,1,0,0,0,1-1v-2c-.08.67-.41,1-1,1h-1a2,2,0,0,1-1.41-.59,1.89,1.89,0,0,1-.59-1.41v-3a1.89,1.89,0,0,1,.59-1.41,2,2,0,0,1,1.41-.59Zm-2,1h-1a1,1,0,0,0-1,1v3a1,1,0,0,0,.29.7,1,1,0,0,0,1.42,0,.94.94,0,0,0,.29-.7Z" transform="translate(-1.74 -15.9)"/><path class="cls-1" d="M263.3,65.1h-4v1a1,1,0,0,0,.3.7.94.94,0,0,0,.7.3h1a.88.88,0,0,0,1-1h1c-.15,1.33-.82,2-2,2h-2a2,2,0,0,1-1.41-.59,1.93,1.93,0,0,1-.59-1.41v-3a1.93,1.93,0,0,1,.59-1.41,2,2,0,0,1,1.41-.59h2a2,2,0,0,1,2,2Zm-4-1h2v-1a1,1,0,0,0-.3-.71,1,1,0,0,0-1.41,0,1,1,0,0,0-.3.71Z" transform="translate(-1.74 -15.9)"/><path class="cls-1" d="M8.75,78.5v-1a1,1,0,0,0-.29-.71,1,1,0,0,0-.72-.29h-1c-.59,0-.93.33-1,1h-1c.16-1.33.83-2,2-2h2a1.94,1.94,0,0,1,1.41.59,1.92,1.92,0,0,1,.58,1.41v5h-2v-1c-.08.67-.41,1-1,1h-1a1.93,1.93,0,0,1-1.41-.59,2,2,0,0,1,0-2.82,1.93,1.93,0,0,1,1.41-.59Zm0,1h-1A1,1,0,0,0,7,81.2a1,1,0,0,0,.7.3,1,1,0,0,0,1-1Z" transform="translate(-1.74 -15.9)"/><path class="cls-1" d="M12.75,82.5v-7h2v1a1.24,1.24,0,0,1,.31-.75,1,1,0,0,1,.69-.25h1a2,2,0,0,1,2,2v5h-2v-5a1,1,0,0,0-.3-.71,1,1,0,0,0-1.41,0,1,1,0,0,0-.3.71v5Z" transform="translate(-1.74 -15.9)"/><path class="cls-1" d="M26.75,82.5h-2v-1c-.08.67-.42,1-1,1h-1a1.93,1.93,0,0,1-1.41-.59,1.9,1.9,0,0,1-.6-1.41v-3a1.9,1.9,0,0,1,.6-1.41,1.93,1.93,0,0,1,1.41-.59h2v-2h2Zm-2-6h-1a1,1,0,0,0-.7.29,1,1,0,0,0-.29.71v3a.94.94,0,0,0,.29.7,1,1,0,0,0,.7.3,1,1,0,0,0,1-1Z" transform="translate(-1.74 -15.9)"/><path class="cls-1" d="M31.76,82.5v-9h2v3a1.18,1.18,0,0,1,.31-.75,1,1,0,0,1,.69-.25h1a2,2,0,0,1,2,2v5h-2v-5a1,1,0,0,0-.29-.71,1,1,0,0,0-1.71.71v5Z" transform="translate(-1.74 -15.9)"/><path class="cls-1" d="M43.77,78.5v-1a1,1,0,0,0-.3-.71,1,1,0,0,0-.71-.29h-1c-.59,0-.92.33-1,1h-1c.16-1.33.83-2,2-2h2a2,2,0,0,1,2,2v5h-2v-1c-.08.67-.42,1-1,1h-1a2,2,0,0,1-1.41-.59,2,2,0,0,1,0-2.82,2,2,0,0,1,1.41-.59Zm0,1h-1a1,1,0,0,0-1,1,1,1,0,0,0,.3.7,1,1,0,0,0,1.41,0,1,1,0,0,0,.3-.7Z" transform="translate(-1.74 -15.9)"/><path class="cls-1" d="M52.77,77.5h-1c-.09-.67-.4-1-1-1a1.26,1.26,0,0,0-.79.21.76.76,0,0,0-.26.62c0,.29.48.69,1.45,1.21a3.17,3.17,0,0,1,1.37,1.06,2.26,2.26,0,0,1,.18.9,1.93,1.93,0,0,1-.59,1.41,2,2,0,0,1-1.42.59h-1a1.77,1.77,0,0,1-2-2h1c.08.67.39,1,.94,1a1.25,1.25,0,0,0,.8-.21.74.74,0,0,0,.26-.63c0-.28-.48-.68-1.45-1.2a3.17,3.17,0,0,1-1.37-1,2.27,2.27,0,0,1-.19-.9,2,2,0,0,1,2-2h1A1.84,1.84,0,0,1,52.77,77.5Z" transform="translate(-1.74 -15.9)"/><path class="cls-1" d="M61.77,78.5v-1a1,1,0,0,0-.3-.71,1,1,0,0,0-.71-.29h-1c-.59,0-.92.33-1,1h-1c.16-1.33.83-2,2-2h2a2,2,0,0,1,2,2v5h-2v-1c-.08.67-.42,1-1,1h-1a2,2,0,0,1-1.41-.59,2,2,0,0,1,0-2.82,2,2,0,0,1,1.41-.59Zm0,1h-1a1,1,0,0,0-1,1,1,1,0,0,0,.3.7,1,1,0,0,0,1.41,0,1,1,0,0,0,.3-.7Z" transform="translate(-1.74 -15.9)"/><path class="cls-1" d="M73.77,77.5h-1c-.09-.67-.4-1-1-1a1.26,1.26,0,0,0-.79.21.76.76,0,0,0-.26.62c0,.29.48.69,1.45,1.21a3.17,3.17,0,0,1,1.37,1.06,2.26,2.26,0,0,1,.18.9,1.93,1.93,0,0,1-.59,1.41,2,2,0,0,1-1.42.59h-1a1.77,1.77,0,0,1-2-2h1c.08.67.39,1,.94,1a1.25,1.25,0,0,0,.8-.21.74.74,0,0,0,.26-.63c0-.28-.48-.68-1.45-1.2a3.17,3.17,0,0,1-1.37-1,2.27,2.27,0,0,1-.19-.9,2,2,0,0,1,2-2h1A1.84,1.84,0,0,1,73.77,77.5Z" transform="translate(-1.74 -15.9)"/><path class="cls-1" d="M76.77,73.5h2v2h1v1h-1v4a.94.94,0,0,0,.32.75,1,1,0,0,0,.59.25h.1v1h-1a2,2,0,0,1-2-2v-4h-1v-1h1Z" transform="translate(-1.74 -15.9)"/><path class="cls-1" d="M83.76,82.5h-2v-7h2v2a2.48,2.48,0,0,1,.62-1.5,1.89,1.89,0,0,1,1.39-.5h1v2h-2a.93.93,0,0,0-.7.29,1,1,0,0,0-.3.71Z" transform="translate(-1.74 -15.9)"/><path class="cls-1" d="M89.76,75.5h2a2,2,0,0,1,2,2v3a2,2,0,0,1-.59,1.41,1.92,1.92,0,0,1-1.4.59h-2a2,2,0,0,1-1.41-.59,1.93,1.93,0,0,1-.59-1.41v-3a1.93,1.93,0,0,1,.59-1.41A2,2,0,0,1,89.76,75.5Zm0,2v3a1,1,0,0,0,.3.7,1,1,0,0,0,1.41,0,1,1,0,0,0,.3-.7v-3a1,1,0,0,0-.3-.71,1,1,0,0,0-1.41,0A1,1,0,0,0,89.76,77.5Z" transform="translate(-1.74 -15.9)"/><path class="cls-1" d="M95.76,82.5v-7h2v1a1.18,1.18,0,0,1,.31-.75,1,1,0,0,1,.68-.25h1a2,2,0,0,1,1.41.59,1.92,1.92,0,0,1,.58,1.41v5h-2v-5a1,1,0,0,0-.29-.71,1,1,0,0,0-.72-.29,1,1,0,0,0-.7.29,1,1,0,0,0-.29.71v5Z" transform="translate(-1.74 -15.9)"/><path class="cls-1" d="M109.77,75.5v8a2,2,0,0,1-.59,1.41,1.93,1.93,0,0,1-1.41.59h-2c-1.17,0-1.84-.67-2-2h1c0,.67.38,1,1,1h1a1,1,0,0,0,1-1v-2c-.08.67-.41,1-1,1h-1a2,2,0,0,1-1.41-.59,1.89,1.89,0,0,1-.59-1.41v-3a1.89,1.89,0,0,1,.59-1.41,2,2,0,0,1,1.41-.59Zm-2,1h-1a1,1,0,0,0-.71.29,1,1,0,0,0-.29.71v3a1,1,0,0,0,1,1,1,1,0,0,0,.71-.3.94.94,0,0,0,.29-.7Z" transform="translate(-1.74 -15.9)"/><path class="cls-1" d="M119.77,77.5h-1c-.09-.67-.41-1-1-1a1.24,1.24,0,0,0-.79.21.74.74,0,0,0-.27.62c0,.29.49.69,1.46,1.21a3.17,3.17,0,0,1,1.37,1.06,2.25,2.25,0,0,1,.17.9,1.92,1.92,0,0,1-.58,1.41,2,2,0,0,1-1.42.59h-1a1.77,1.77,0,0,1-2-2h1c.08.67.39,1,.94,1a1.29,1.29,0,0,0,.8-.21.77.77,0,0,0,.26-.63c0-.28-.48-.68-1.45-1.2a3.17,3.17,0,0,1-1.37-1,2.11,2.11,0,0,1-.19-.9,2,2,0,0,1,2-2h1C119,75.5,119.69,76.17,119.77,77.5Z" transform="translate(-1.74 -15.9)"/><path class="cls-1" d="M127.77,79.5h-4v1a1,1,0,0,0,.29.7,1,1,0,0,0,.71.3h1a.88.88,0,0,0,1-1h1c-.16,1.33-.82,2-2,2h-2a2,2,0,0,1-1.41-.59,1.93,1.93,0,0,1-.59-1.41v-3a1.93,1.93,0,0,1,.59-1.41,2,2,0,0,1,1.41-.59h2a2,2,0,0,1,2,2Zm-4-1h2v-1a1,1,0,0,0-.29-.71,1,1,0,0,0-1.71.71Z" transform="translate(-1.74 -15.9)"/><path class="cls-1" d="M129.77,82.5v-7h2v1a1.19,1.19,0,0,1,.32-.75,1,1,0,0,1,.68-.25h1a2,2,0,0,1,2,2v5h-2v-5a1,1,0,0,0-.3-.71,1,1,0,0,0-.71-.29,1,1,0,0,0-.7.29,1,1,0,0,0-.3.71v5Z" transform="translate(-1.74 -15.9)"/><path class="cls-1" d="M142.78,77.5h-1c-.09-.67-.4-1-.95-1a1.26,1.26,0,0,0-.79.21.76.76,0,0,0-.26.62c0,.29.48.69,1.45,1.21a3.17,3.17,0,0,1,1.37,1.06,2.26,2.26,0,0,1,.18.9,2,2,0,0,1-2,2h-1a1.77,1.77,0,0,1-2-2h1c.08.67.39,1,.94,1a1.25,1.25,0,0,0,.8-.21.75.75,0,0,0,.27-.63c0-.28-.49-.68-1.46-1.2a3.17,3.17,0,0,1-1.37-1,2.27,2.27,0,0,1-.19-.9,1.92,1.92,0,0,1,.6-1.42,1.94,1.94,0,0,1,1.41-.59h1A1.84,1.84,0,0,1,142.78,77.5Z" transform="translate(-1.74 -15.9)"/><path class="cls-1" d="M150.77,79.5h-4v1a1,1,0,0,0,1,1h1a.88.88,0,0,0,1-1h1c-.15,1.33-.82,2-2,2h-2a2,2,0,0,1-1.41-.59,1.93,1.93,0,0,1-.59-1.41v-3a1.93,1.93,0,0,1,.59-1.41,2,2,0,0,1,1.41-.59h2a2,2,0,0,1,2,2Zm-4-1h2v-1a1,1,0,0,0-.3-.71,1,1,0,0,0-.71-.29,1,1,0,0,0-.7.29,1,1,0,0,0-.3.71Z" transform="translate(-1.74 -15.9)"/><path class="cls-1" d="M157.78,75.5h2a1.94,1.94,0,0,1,1.41.59,1.92,1.92,0,0,1,.58,1.41v3a2,2,0,0,1-2,2h-2a1.94,1.94,0,0,1-1.41-.59,1.9,1.9,0,0,1-.6-1.41v-3a1.9,1.9,0,0,1,.6-1.41A1.94,1.94,0,0,1,157.78,75.5Zm0,2v3a1,1,0,0,0,.29.7,1,1,0,0,0,.7.3,1,1,0,0,0,.72-.3.94.94,0,0,0,.29-.7v-3a1,1,0,0,0-.29-.71,1,1,0,0,0-.72-.29,1,1,0,0,0-1,1Z" transform="translate(-1.74 -15.9)"/><path class="cls-1" d="M164.79,82.5v-6h-1v-1h1v-.09a1.91,1.91,0,0,1,1.9-1.91h2.09v1h-1.09a.92.92,0,0,0-.91.91v.09h1v1h-1v6Z" transform="translate(-1.74 -15.9)"/><path class="cls-1" d="M178.78,82.5h-2v-1c-.08.67-.42,1-1,1h-1a2,2,0,0,1-1.41-.59,1.93,1.93,0,0,1-.59-1.41v-3a1.93,1.93,0,0,1,.59-1.41,2,2,0,0,1,1.41-.59h2v-2h2Zm-2-6h-1a1,1,0,0,0-1,1v3a1,1,0,0,0,.3.7,1,1,0,0,0,1.41,0,1,1,0,0,0,.3-.7Z" transform="translate(-1.74 -15.9)"/><path class="cls-1" d="M186.78,79.5h-4v1a.94.94,0,0,0,.29.7,1,1,0,0,0,.7.3h1a.89.89,0,0,0,1-1h1c-.15,1.33-.81,2-2,2h-2a1.93,1.93,0,0,1-1.41-.59,1.9,1.9,0,0,1-.6-1.41v-3a1.9,1.9,0,0,1,.6-1.41,1.93,1.93,0,0,1,1.41-.59h2a1.92,1.92,0,0,1,1.4.59,1.89,1.89,0,0,1,.59,1.41Zm-4-1h2v-1a1,1,0,0,0-.29-.71,1,1,0,0,0-.72-.29,1,1,0,0,0-.7.29,1,1,0,0,0-.29.71Z" transform="translate(-1.74 -15.9)"/><path class="cls-1" d="M193.79,77.5h-1c-.08-.67-.4-1-.94-1a1.27,1.27,0,0,0-.8.21.76.76,0,0,0-.26.62c0,.29.48.69,1.45,1.21a3.17,3.17,0,0,1,1.37,1.06,2.26,2.26,0,0,1,.18.9,2,2,0,0,1-2,2h-1a1.77,1.77,0,0,1-2-2h1c.08.67.4,1,.94,1a1.25,1.25,0,0,0,.8-.21.75.75,0,0,0,.27-.63c0-.28-.49-.68-1.45-1.2a3.23,3.23,0,0,1-1.38-1,2.26,2.26,0,0,1-.18-.9,1.91,1.91,0,0,1,.59-1.42,2,2,0,0,1,1.41-.59h1C193,75.5,193.71,76.17,193.79,77.5Z" transform="translate(-1.74 -15.9)"/><path class="cls-1" d="M195.78,74.5v-1h2v1Zm0,8v-7h2v7Z" transform="translate(-1.74 -15.9)"/><path class="cls-1" d="M205.78,75.5v8a2,2,0,0,1-.59,1.41,1.92,1.92,0,0,1-1.4.59h-2c-1.17,0-1.84-.67-2-2h1c0,.67.38,1,1,1h1a.94.94,0,0,0,.71-.29,1,1,0,0,0,.3-.71v-2c-.08.67-.42,1-1,1h-1a2,2,0,0,1-1.41-.59,1.93,1.93,0,0,1-.59-1.41v-3a1.93,1.93,0,0,1,.59-1.41,2,2,0,0,1,1.41-.59Zm-2,1h-1a1,1,0,0,0-1,1v3a1,1,0,0,0,.3.7,1,1,0,0,0,1.41,0,1,1,0,0,0,.3-.7Z" transform="translate(-1.74 -15.9)"/><path class="cls-1" d="M207.78,82.5v-7h2v1a1.18,1.18,0,0,1,.31-.75,1,1,0,0,1,.68-.25h1a1.92,1.92,0,0,1,1.4.59,1.89,1.89,0,0,1,.59,1.41v5h-2v-5a1,1,0,0,0-.29-.71,1,1,0,0,0-.72-.29,1,1,0,0,0-.7.29,1,1,0,0,0-.29.71v5Z" transform="translate(-1.74 -15.9)"/><path class="cls-1" d="M215.79,82.5v-2h2v2Z" transform="translate(-1.74 -15.9)"/><path class="cls-1" d="M227.79,75.5h-1c-.09-.67-.4-1-.95-1a1.1,1.1,0,0,0-.79.25,1,1,0,0,0-.26.75,1.07,1.07,0,0,0,.28.71l2.13,2.38a2.1,2.1,0,0,1,.59,1.41v.5a2,2,0,0,1-2,2h-1a2,2,0,0,1-1.5-.5,2,2,0,0,1-.51-1.5h1v.16a.71.71,0,0,0,.31.63,1.22,1.22,0,0,0,.69.21,1,1,0,0,0,.76-.25,1.14,1.14,0,0,0,.23-.75,1,1,0,0,0-.29-.71l-2.12-2.38a2.06,2.06,0,0,1-.59-1.41v-.5a2,2,0,0,1,.59-1.41,1.93,1.93,0,0,1,1.42-.59h1A1.84,1.84,0,0,1,227.79,75.5Z" transform="translate(-1.74 -15.9)"/><path class="cls-1" d="M235.78,79.5h-4v1a1,1,0,0,0,.3.7.94.94,0,0,0,.7.3h1a.88.88,0,0,0,1-1h1c-.15,1.33-.82,2-2,2h-2a2,2,0,0,1-1.41-.59,1.93,1.93,0,0,1-.59-1.41v-3a1.93,1.93,0,0,1,.59-1.41,2,2,0,0,1,1.41-.59h2a2,2,0,0,1,2,2Zm-4-1h2v-1a1,1,0,0,0-.3-.71,1,1,0,0,0-1.41,0,1,1,0,0,0-.3.71Z" transform="translate(-1.74 -15.9)"/><path class="cls-1" d="M243.78,79.5h-4v1a.94.94,0,0,0,.29.7,1,1,0,0,0,.7.3h1a.89.89,0,0,0,1-1h1c-.15,1.33-.81,2-2,2h-2a1.93,1.93,0,0,1-1.41-.59,1.9,1.9,0,0,1-.6-1.41v-3a1.9,1.9,0,0,1,.6-1.41,1.93,1.93,0,0,1,1.41-.59h2a1.92,1.92,0,0,1,1.4.59,1.89,1.89,0,0,1,.59,1.41Zm-4-1h2v-1a1,1,0,0,0-.29-.71,1,1,0,0,0-.72-.29,1,1,0,0,0-.7.29,1,1,0,0,0-.29.71Z" transform="translate(-1.74 -15.9)"/><path class="cls-1" d="M245.79,82.5v-9h2V78l3-2.5h2L248.61,79l4.18,3.5h-2l-3-2.5v2.5Z" transform="translate(-1.74 -15.9)"/><path class="cls-1" d="M253.79,74.5v-1h2v1Zm0,8v-7h2v7Z" transform="translate(-1.74 -15.9)"/><path class="cls-1" d="M257.79,82.5v-7h2v1a1.18,1.18,0,0,1,.31-.75,1,1,0,0,1,.69-.25h1a2,2,0,0,1,2,2v5h-2v-5a1,1,0,0,0-.29-.71,1,1,0,0,0-1.71.71v5Z" transform="translate(-1.74 -15.9)"/><path class="cls-1" d="M271.79,75.5v8a2,2,0,0,1-.59,1.41,1.92,1.92,0,0,1-1.4.59h-2c-1.17,0-1.84-.67-2-2h1c.05.67.38,1,1,1h1a.94.94,0,0,0,.71-.29,1,1,0,0,0,.3-.71v-2c-.08.67-.42,1-1,1h-1a2,2,0,0,1-1.41-.59,1.93,1.93,0,0,1-.59-1.41v-3a1.93,1.93,0,0,1,.59-1.41,2,2,0,0,1,1.41-.59Zm-2,1h-1a1,1,0,0,0-1,1v3a1,1,0,0,0,.3.7,1,1,0,0,0,1.41,0,1,1,0,0,0,.3-.7Z" transform="translate(-1.74 -15.9)"/><path class="cls-1" d="M47.26,92.9v-1a1,1,0,0,0-.3-.71,1,1,0,0,0-.71-.29h-1c-.59,0-.92.33-1,1h-1c.16-1.33.83-2,2-2h2a2,2,0,0,1,2,2v5h-2v-1c-.08.67-.42,1-1,1h-1a2,2,0,0,1-1.41-.59,2,2,0,0,1,0-2.82,2,2,0,0,1,1.41-.59Zm0,1h-1a1,1,0,0,0-1,1,1,1,0,0,0,.3.7,1,1,0,0,0,1.41,0,1,1,0,0,0,.3-.7Z" transform="translate(-1.74 -15.9)"/><path class="cls-1" d="M54.25,89.9h2v1a1,1,0,0,1,.25-.75,1,1,0,0,1,.74-.25h1a1.94,1.94,0,0,1,1.41.59,1.92,1.92,0,0,1,.58,1.41v3a1.92,1.92,0,0,1-.58,1.41,1.94,1.94,0,0,1-1.41.59h-2v2h-2Zm2,6h1a1,1,0,0,0,.72-.29,1,1,0,0,0,.29-.71v-3a1,1,0,0,0-.29-.71,1,1,0,0,0-.72-.29,1,1,0,0,0-1,1Z" transform="translate(-1.74 -15.9)"/><path class="cls-1" d="M66.27,92.9v-1a1,1,0,0,0-.3-.71,1,1,0,0,0-.71-.29h-1c-.59,0-.92.33-1,1h-1c.16-1.33.83-2,2-2h2a2,2,0,0,1,2,2v5h-2v-1c-.08.67-.42,1-1,1h-1a2,2,0,0,1-1.41-.59,2,2,0,0,1,0-2.82,2,2,0,0,1,1.41-.59Zm0,1h-1a1,1,0,0,0-1,1,1,1,0,0,0,.3.7,1,1,0,0,0,1.41,0,1,1,0,0,0,.3-.7Z" transform="translate(-1.74 -15.9)"/><path class="cls-1" d="M71.27,87.9h2v2h1v1h-1v4a.92.92,0,0,0,.33.75,1,1,0,0,0,.58.25h.1v1h-1a2,2,0,0,1-2-2v-4h-1v-1h1Z" transform="translate(-1.74 -15.9)"/><path class="cls-1" d="M76.26,96.9v-9h2v3a1.18,1.18,0,0,1,.31-.75,1,1,0,0,1,.68-.25h1a1.92,1.92,0,0,1,1.4.59,1.89,1.89,0,0,1,.59,1.41v5h-2v-5a1,1,0,0,0-.29-.71,1,1,0,0,0-.72-.29,1,1,0,0,0-.7.29,1,1,0,0,0-.29.71v5Z" transform="translate(-1.74 -15.9)"/><path class="cls-1" d="M92.27,91.9h-1c-.08-.67-.41-1-1-1a1,1,0,0,0-1,1v3a1,1,0,0,0,.29.7,1,1,0,0,0,.71.3c.59,0,.92-.33,1-1h1c-.08,1.33-.75,2-2,2h-1a2,2,0,0,1-1.41-.59,1.89,1.89,0,0,1-.59-1.41v-3a1.89,1.89,0,0,1,.59-1.41,2,2,0,0,1,1.41-.59h1A1.83,1.83,0,0,1,92.27,91.9Z" transform="translate(-1.74 -15.9)"/><path class="cls-1" d="M96.27,89.9h2a1.92,1.92,0,0,1,1.4.59,1.89,1.89,0,0,1,.59,1.41v3a2,2,0,0,1-2,2h-2a1.93,1.93,0,0,1-1.41-.59,1.9,1.9,0,0,1-.6-1.41v-3a1.9,1.9,0,0,1,.6-1.41A1.93,1.93,0,0,1,96.27,89.9Zm0,2v3a.94.94,0,0,0,.29.7,1,1,0,0,0,.7.3,1,1,0,0,0,1-1v-3a1,1,0,0,0-.29-.71,1,1,0,0,0-.72-.29,1,1,0,0,0-.7.29A1,1,0,0,0,96.27,91.9Z" transform="translate(-1.74 -15.9)"/><path class="cls-1" d="M108.27,96.9h-2v-5a1,1,0,0,0-.29-.71,1,1,0,0,0-1.71.71v5h-2v-7h2v1a1.18,1.18,0,0,1,.31-.75,1,1,0,0,1,.69-.25h1a1.69,1.69,0,0,1,1.5.71,1.44,1.44,0,0,1,.62-.53,2,2,0,0,1,.88-.18h1a2,2,0,0,1,1.41.59,1.89,1.89,0,0,1,.59,1.41v5h-2v-5a1,1,0,0,0-.29-.7,1,1,0,0,0-.71-.3,1,1,0,0,0-.7.29,1,1,0,0,0-.3.71Z" transform="translate(-1.74 -15.9)"/><path class="cls-1" d="M114.27,96.9v-9h2v3a1.18,1.18,0,0,1,.31-.75,1,1,0,0,1,.69-.25h1a2,2,0,0,1,2,2v3a2,2,0,0,1-.59,1.41,1.93,1.93,0,0,1-1.41.59Zm2-1h1a1,1,0,0,0,.71-.3.94.94,0,0,0,.29-.7v-3a1,1,0,0,0-.29-.71,1,1,0,0,0-1.71.71Z" transform="translate(-1.74 -15.9)"/><path class="cls-1" d="M122.27,88.9v-1h2v1Zm0,8v-7h2v7Z" transform="translate(-1.74 -15.9)"/><path class="cls-1" d="M126.27,96.9v-7h2v1a1.18,1.18,0,0,1,.31-.75,1,1,0,0,1,.69-.25h1a2,2,0,0,1,2,2v5h-2v-5a1,1,0,0,0-.29-.71,1,1,0,0,0-1.71.71v5Z" transform="translate(-1.74 -15.9)"/><path class="cls-1" d="M140.27,93.9h-4v1a1,1,0,0,0,.3.7.94.94,0,0,0,.7.3h1a.88.88,0,0,0,1-1h1c-.15,1.33-.82,2-2,2h-2a2,2,0,0,1-1.41-.59,1.93,1.93,0,0,1-.59-1.41v-3a1.93,1.93,0,0,1,.59-1.41,2,2,0,0,1,1.41-.59h2a2,2,0,0,1,2,2Zm-4-1h2v-1a1,1,0,0,0-.3-.71,1,1,0,0,0-1.41,0,1,1,0,0,0-.3.71Z" transform="translate(-1.74 -15.9)"/><path class="cls-1" d="M147.28,91.9h-1c-.09-.67-.4-1-.95-1a1.26,1.26,0,0,0-.79.21.76.76,0,0,0-.26.62c0,.29.48.69,1.45,1.21A3.17,3.17,0,0,1,147.1,94a2.26,2.26,0,0,1,.18.9,2,2,0,0,1-2,2h-1a1.77,1.77,0,0,1-2-2h1c.08.67.39,1,.94,1a1.25,1.25,0,0,0,.8-.21.75.75,0,0,0,.27-.63c0-.28-.49-.68-1.46-1.2a3.17,3.17,0,0,1-1.37-1,2.27,2.27,0,0,1-.19-.9,2,2,0,0,1,2-2h1A1.84,1.84,0,0,1,147.28,91.9Z" transform="translate(-1.74 -15.9)"/><path class="cls-1" d="M156.28,92.9v-1a1,1,0,0,0-.3-.71,1,1,0,0,0-.71-.29h-1c-.59,0-.92.33-1,1h-1c.16-1.33.83-2,2-2h2a2,2,0,0,1,2,2v5h-2v-1c-.08.67-.42,1-1,1h-1a2,2,0,0,1-1.41-.59,2,2,0,0,1,0-2.82,2,2,0,0,1,1.41-.59Zm0,1h-1a1,1,0,0,0-1,1,1,1,0,0,0,.3.7,1,1,0,0,0,1.41,0,1,1,0,0,0,.3-.7Z" transform="translate(-1.74 -15.9)"/><path class="cls-1" d="M162.28,96.9h-2v-7h2v2a2.42,2.42,0,0,1,.62-1.5,1.87,1.87,0,0,1,1.38-.5h1v2h-2a.94.94,0,0,0-.7.29,1,1,0,0,0-.29.71Z" transform="translate(-1.74 -15.9)"/><path class="cls-1" d="M167.28,87.9h2v2h1v1h-1v4a.92.92,0,0,0,.33.75,1,1,0,0,0,.59.25h.09v1h-1a2,2,0,0,1-2-2v-4h-1v-1h1Z" transform="translate(-1.74 -15.9)"/><path class="cls-1" d="M179.28,92.9v-1a1,1,0,0,0-.29-.71,1,1,0,0,0-.72-.29h-1c-.59,0-.93.33-1,1h-1c.16-1.33.83-2,2-2h2a1.94,1.94,0,0,1,1.41.59,1.92,1.92,0,0,1,.58,1.41v5h-2v-1c-.08.67-.41,1-1,1h-1a1.93,1.93,0,0,1-1.41-.59,2,2,0,0,1,0-2.82,1.93,1.93,0,0,1,1.41-.59Zm0,1h-1a1,1,0,0,0-.7,1.7,1,1,0,0,0,.7.3,1,1,0,0,0,1-1Z" transform="translate(-1.74 -15.9)"/><path class="cls-1" d="M183.28,96.9v-7h2v1a1.24,1.24,0,0,1,.31-.75,1,1,0,0,1,.69-.25h1a2,2,0,0,1,2,2v5h-2v-5a1,1,0,0,0-.3-.71,1,1,0,0,0-1.41,0,1,1,0,0,0-.3.71v5Z" transform="translate(-1.74 -15.9)"/><path class="cls-1" d="M197.28,96.9h-2v-1c-.08.67-.42,1-1,1h-1a1.93,1.93,0,0,1-1.41-.59,1.9,1.9,0,0,1-.6-1.41v-3a1.9,1.9,0,0,1,.6-1.41,1.93,1.93,0,0,1,1.41-.59h2v-2h2Zm-2-6h-1a1,1,0,0,0-.7.29,1,1,0,0,0-.29.71v3a.94.94,0,0,0,.29.7,1,1,0,0,0,.7.3,1,1,0,0,0,1-1Z" transform="translate(-1.74 -15.9)"/><path class="cls-1" d="M203.29,87.9h2v2h1v1h-1v4a.91.91,0,0,0,.32.75,1,1,0,0,0,.59.25h.09v1h-1a2,2,0,0,1-2-2v-4h-1v-1h1Z" transform="translate(-1.74 -15.9)"/><path class="cls-1" d="M214.29,93.9h-4v1a1,1,0,0,0,.29.7,1,1,0,0,0,.71.3h1a.88.88,0,0,0,1-1h1c-.16,1.33-.82,2-2,2h-2a2,2,0,0,1-1.41-.59,1.89,1.89,0,0,1-.59-1.41v-3a1.89,1.89,0,0,1,.59-1.41,2,2,0,0,1,1.41-.59h2a2,2,0,0,1,2,2Zm-4-1h2v-1a1,1,0,0,0-.29-.71,1,1,0,0,0-1.71.71Z" transform="translate(-1.74 -15.9)"/><path class="cls-1" d="M221.29,91.9h-1c-.08-.67-.42-1-1-1a1,1,0,0,0-1,1v3a1,1,0,0,0,.3.7.94.94,0,0,0,.7.3c.59,0,.93-.33,1-1h1c-.08,1.33-.74,2-2,2h-1a2,2,0,0,1-1.41-.59,1.93,1.93,0,0,1-.59-1.41v-3a1.93,1.93,0,0,1,.59-1.41,2,2,0,0,1,1.41-.59h1A1.83,1.83,0,0,1,221.29,91.9Z" transform="translate(-1.74 -15.9)"/><path class="cls-1" d="M223.29,96.9v-9h2v3a1.18,1.18,0,0,1,.31-.75,1,1,0,0,1,.69-.25h1a2,2,0,0,1,2,2v5h-2v-5a1,1,0,0,0-.29-.71,1,1,0,0,0-1.71.71v5Z" transform="translate(-1.74 -15.9)"/><path class="cls-1" d="M231.29,96.9v-2h2v2Z" transform="translate(-1.74 -15.9)"/><path class="cls-1" d="M24.73,125.7v-9h4a2,2,0,0,1,2,2v1a2,2,0,0,1-.58,1.41,1.9,1.9,0,0,1-1.41.59h-2v4Zm2-5h1a1,1,0,0,0,.72-.3,1,1,0,0,0,.29-.7v-1a1,1,0,0,0-.29-.71,1,1,0,0,0-.72-.29h-1Z" transform="translate(-1.74 -15.9)"/><path class="cls-1" d="M32.74,125.7v-9h2v9Z" transform="translate(-1.74 -15.9)"/><path class="cls-1" d="M42.73,122.7h-4v1a1,1,0,0,0,.29.7,1,1,0,0,0,.7.3h1a.88.88,0,0,0,1-1h1c-.15,1.33-.81,2-2,2h-2a1.93,1.93,0,0,1-1.41-.59,1.9,1.9,0,0,1-.6-1.41v-3a1.9,1.9,0,0,1,.6-1.41,1.93,1.93,0,0,1,1.41-.59h2a1.94,1.94,0,0,1,1.41.59,1.92,1.92,0,0,1,.58,1.41Zm-4-1h2v-1a1,1,0,0,0-.29-.71,1,1,0,0,0-.72-.29,1,1,0,0,0-1,1Z" transform="translate(-1.74 -15.9)"/><path class="cls-1" d="M48.75,121.7v-1a1,1,0,0,0-.3-.71,1,1,0,0,0-.71-.29h-1c-.59,0-.92.33-1,1h-1c.16-1.33.83-2,2-2h2a2,2,0,0,1,2,2v5h-2v-1c-.08.67-.42,1-1,1h-1a2,2,0,0,1-1.41-.59,2,2,0,0,1,0-2.82,2,2,0,0,1,1.41-.59Zm0,1h-1a1,1,0,0,0-1,1,1,1,0,0,0,.3.7,1,1,0,0,0,1.41,0,1,1,0,0,0,.3-.7Z" transform="translate(-1.74 -15.9)"/><path class="cls-1" d="M57.75,120.7h-1c-.09-.67-.4-1-1-1a1.26,1.26,0,0,0-.79.21.74.74,0,0,0-.26.62c0,.29.48.69,1.45,1.21a3.25,3.25,0,0,1,1.37,1.06,2.26,2.26,0,0,1,.18.9,1.93,1.93,0,0,1-.59,1.41,2,2,0,0,1-1.42.59h-1a1.77,1.77,0,0,1-2-2h1c.08.67.39,1,.94,1a1.27,1.27,0,0,0,.8-.21.74.74,0,0,0,.26-.63c0-.28-.48-.68-1.45-1.2a3.17,3.17,0,0,1-1.37-1,2.11,2.11,0,0,1-.19-.9,2,2,0,0,1,2-2h1A1.84,1.84,0,0,1,57.75,120.7Z" transform="translate(-1.74 -15.9)"/><path class="cls-1" d="M65.74,122.7h-4v1a1,1,0,0,0,.3.7.94.94,0,0,0,.7.3h1a.88.88,0,0,0,1-1h1c-.15,1.33-.82,2-2,2h-2a2,2,0,0,1-1.41-.59,1.93,1.93,0,0,1-.59-1.41v-3a1.93,1.93,0,0,1,.59-1.41,2,2,0,0,1,1.41-.59h2a2,2,0,0,1,2,2Zm-4-1h2v-1a1,1,0,0,0-.3-.71A1,1,0,0,0,62,120a1,1,0,0,0-.3.71Z" transform="translate(-1.74 -15.9)"/><path class="cls-1" d="M72.75,125.7h-2v-7h2v2a2.47,2.47,0,0,1,.61-1.5,1.91,1.91,0,0,1,1.39-.5h1v2h-2a1,1,0,0,0-1,1Z" transform="translate(-1.74 -15.9)"/><path class="cls-1" d="M82.74,122.7h-4v1a.94.94,0,0,0,.29.7,1,1,0,0,0,.7.3h1a.89.89,0,0,0,1-1h1c-.15,1.33-.81,2-2,2h-2a1.93,1.93,0,0,1-1.41-.59,1.9,1.9,0,0,1-.6-1.41v-3a1.9,1.9,0,0,1,.6-1.41,1.93,1.93,0,0,1,1.41-.59h2a1.92,1.92,0,0,1,1.4.59,1.89,1.89,0,0,1,.59,1.41Zm-4-1h2v-1a1,1,0,0,0-.29-.71,1,1,0,0,0-.72-.29,1,1,0,0,0-.7.29,1,1,0,0,0-.29.71Z" transform="translate(-1.74 -15.9)"/><path class="cls-1" d="M88.75,121.7v-1a1,1,0,0,0-.29-.71,1,1,0,0,0-.71-.29h-1c-.59,0-.92.33-1,1h-1c.16-1.33.82-2,2-2h2a2,2,0,0,1,2,2v5h-2v-1c-.08.67-.41,1-1,1h-1a2,2,0,0,1-1.41-.59,2,2,0,0,1,0-2.82,2,2,0,0,1,1.41-.59Zm0,1h-1a1,1,0,0,0-.71,1.7,1,1,0,0,0,1.42,0,.94.94,0,0,0,.29-.7Z" transform="translate(-1.74 -15.9)"/><path class="cls-1" d="M97.75,120.7h-1c-.08-.67-.42-1-1-1a1,1,0,0,0-1,1v3a1,1,0,0,0,.3.7.94.94,0,0,0,.7.3c.59,0,.93-.33,1-1h1c-.08,1.33-.74,2-2,2h-1a2,2,0,0,1-1.41-.59,1.93,1.93,0,0,1-.59-1.41v-3a1.93,1.93,0,0,1,.59-1.41,2,2,0,0,1,1.41-.59h1A1.83,1.83,0,0,1,97.75,120.7Z" transform="translate(-1.74 -15.9)"/><path class="cls-1" d="M99.75,125.7v-9h2v3a1.18,1.18,0,0,1,.31-.75,1,1,0,0,1,.69-.25h1a2,2,0,0,1,2,2v5h-2v-5a1,1,0,0,0-.29-.71,1,1,0,0,0-1.71.71v5Z" transform="translate(-1.74 -15.9)"/><path class="cls-1" d="M116.75,125.7h-2v-5a1,1,0,0,0-.3-.71,1,1,0,0,0-1.41,0,1,1,0,0,0-.3.71v5h-2v-7h2v1a1.19,1.19,0,0,1,.32-.75.93.93,0,0,1,.68-.25h1a1.69,1.69,0,0,1,1.5.71,1.41,1.41,0,0,1,.61-.53,2,2,0,0,1,.89-.18h1a1.93,1.93,0,0,1,1.41.59,1.9,1.9,0,0,1,.6,1.41v5h-2v-5a.94.94,0,0,0-.29-.7,1,1,0,0,0-.7-.3,1,1,0,0,0-.71.29,1,1,0,0,0-.3.71Z" transform="translate(-1.74 -15.9)"/><path class="cls-1" d="M128.75,122.7h-4v1a1,1,0,0,0,.3.7.94.94,0,0,0,.7.3h1a.88.88,0,0,0,1-1h1c-.15,1.33-.82,2-2,2h-2a2,2,0,0,1-1.41-.59,1.93,1.93,0,0,1-.59-1.41v-3a1.93,1.93,0,0,1,.59-1.41,2,2,0,0,1,1.41-.59h2a2,2,0,0,1,2,2Zm-4-1h2v-1a1,1,0,0,0-.3-.71,1,1,0,0,0-1.41,0,1,1,0,0,0-.3.71Z" transform="translate(-1.74 -15.9)"/><path class="cls-1" d="M137.76,121.7v-1a1,1,0,0,0-.29-.71,1,1,0,0,0-.72-.29h-1c-.59,0-.93.33-1,1h-1c.16-1.33.83-2,2-2h2a1.94,1.94,0,0,1,1.41.59,1.92,1.92,0,0,1,.58,1.41v5h-2v-1c-.08.67-.41,1-1,1h-1a1.93,1.93,0,0,1-1.41-.59,2,2,0,0,1,0-2.82,1.93,1.93,0,0,1,1.41-.59Zm0,1h-1a1,1,0,0,0-.7,1.7,1,1,0,0,0,.7.3,1,1,0,0,0,1-1Z" transform="translate(-1.74 -15.9)"/><path class="cls-1" d="M142.77,116.7h2v2h1v1h-1v4a.94.94,0,0,0,.32.75,1,1,0,0,0,.59.25h.1v1h-1a1.94,1.94,0,0,1-1.41-.59,1.92,1.92,0,0,1-.58-1.41v-4h-1v-1h1Z" transform="translate(-1.74 -15.9)"/><path class="cls-1" d="M150.76,125.7v-9h2v4.5l3-2.5h2l-4.19,3.5,4.19,3.5h-2l-3-2.5v2.5Z" transform="translate(-1.74 -15.9)"/><path class="cls-1" d="M158.76,125.7v-1.5a1.87,1.87,0,0,1,.51-1.39,2.47,2.47,0,0,1,1.5-.61,2.42,2.42,0,0,1-1.5-.62,1.83,1.83,0,0,1-.51-1.38v-1.5h2v2a1,1,0,0,0,1,1,1,1,0,0,0,.72-.29,1,1,0,0,0,.29-.71v-2h2v1.5a1.83,1.83,0,0,1-.5,1.38,2.42,2.42,0,0,1-1.49.62,2.42,2.42,0,0,1,1.49.62,1.86,1.86,0,0,1,.5,1.38v1.5h-2v-2a1,1,0,0,0-.29-.71,1,1,0,0,0-.72-.29,1,1,0,0,0-.7.29,1,1,0,0,0-.29.71v2Z" transform="translate(-1.74 -15.9)"/><path class="cls-1" d="M166.77,116.7h6v1l-3,2h1a1.79,1.79,0,0,1,1.43.66,2.06,2.06,0,0,1,.57,1.34v2a2,2,0,0,1-2,2h-2c-1.18,0-1.84-.67-2-2h1c0,.67.38,1,1,1h1a1,1,0,0,0,1-1v-2a1.22,1.22,0,0,0-.25-.62.83.83,0,0,0-.75-.38h-2v-1l3-2h-4Z" transform="translate(-1.74 -15.9)"/><path class="cls-1" d="M176.77,116.7h2a1.92,1.92,0,0,1,1.4.59,2,2,0,0,1,.59,1.41v5a2,2,0,0,1-.59,1.41,1.92,1.92,0,0,1-1.4.59h-2a2,2,0,0,1-1.41-.59,1.93,1.93,0,0,1-.59-1.41v-5a1.93,1.93,0,0,1,.59-1.41A2,2,0,0,1,176.77,116.7Zm2,1.82a1,1,0,0,0-1-.82.93.93,0,0,0-.7.29,1,1,0,0,0-.3.71v3.4Zm-2,5.34a1,1,0,0,0,.32.63,1,1,0,0,0,.65.21.94.94,0,0,0,.71-.3,1,1,0,0,0,.3-.7v-3.4Z" transform="translate(-1.74 -15.9)"/><path class="cls-1" d="M186.78,121.2a1.79,1.79,0,0,1,1.5.65,2.18,2.18,0,0,1,.49,1.35v.5a2.05,2.05,0,0,1-.57,1.33,1.8,1.8,0,0,1-1.42.67h-2a1.79,1.79,0,0,1-1.42-.67,2,2,0,0,1-.59-1.33v-.5a2.15,2.15,0,0,1,.51-1.35,1.77,1.77,0,0,1,1.5-.65,2.48,2.48,0,0,1-1.5-.62,1.83,1.83,0,0,1-.51-1.38v-.5a2,2,0,0,1,2-2h2a2,2,0,0,1,2,2v.5a1.86,1.86,0,0,1-.49,1.38A2.5,2.5,0,0,1,186.78,121.2Zm0-1.5v-1a1,1,0,0,0-.29-.71,1,1,0,0,0-.72-.29.94.94,0,0,0-.7.29,1,1,0,0,0-.29.71v1a1,1,0,0,0,.29.7,1,1,0,0,0,.7.3,1,1,0,0,0,.72-.3A1,1,0,0,0,186.78,119.7Zm0,4v-1a1,1,0,1,0-2,0v1a1,1,0,0,0,.29.71.94.94,0,0,0,.7.29,1,1,0,0,0,.72-.29A1,1,0,0,0,186.78,123.7Z" transform="translate(-1.74 -15.9)"/><path class="cls-1" d="M197.79,125.7h-3.51a3.53,3.53,0,0,1-3.5-3.5v-2a3.53,3.53,0,0,1,3.5-3.5h2a3.36,3.36,0,0,1,2.46,1,3.4,3.4,0,0,1,1,2.47v2.5a1,1,0,0,1-.29.7.94.94,0,0,1-.71.3h-2c-.59,0-.92-.34-1-1a1.06,1.06,0,0,1-.33.75,1.31,1.31,0,0,1-.84.25,1.74,1.74,0,0,1-1.23-.59,1.87,1.87,0,0,1-.6-1.41v-1a1.9,1.9,0,0,1,.6-1.41,1.93,1.93,0,0,1,1.41-.59h2v3.5a.44.44,0,0,0,.5.5h1a.44.44,0,0,0,.5-.5v-2a2.41,2.41,0,0,0-.73-1.75,2.38,2.38,0,0,0-1.76-.75h-2a2.41,2.41,0,0,0-1.75.73,2.38,2.38,0,0,0-.74,1.77v2a2.41,2.41,0,0,0,.73,1.75,2.37,2.37,0,0,0,1.76.75h3.51Zm-2-6h-1a1,1,0,0,0-.71.29,1,1,0,0,0-.3.71v1a1,1,0,0,0,.29.71,1,1,0,0,0,.72.29,1,1,0,0,0,1-1Z" transform="translate(-1.74 -15.9)"/><path class="cls-1" d="M201.78,125.7v-7h2v1a1.18,1.18,0,0,1,.31-.75,1,1,0,0,1,.68-.25h1a1.92,1.92,0,0,1,1.4.59,1.89,1.89,0,0,1,.59,1.41v5h-2v-5a1,1,0,0,0-.29-.71,1,1,0,0,0-.72-.29,1,1,0,0,0-.7.29,1,1,0,0,0-.29.71v5Z" transform="translate(-1.74 -15.9)"/><path class="cls-1" d="M210.79,126.7c.05.67.38,1,1,1h1a1,1,0,0,0,1-1v-2c-.08.67-.41,1-1,1h-1a2,2,0,0,1-1.41-.59,1.89,1.89,0,0,1-.59-1.41v-5h2v5a1,1,0,0,0,.29.7,1,1,0,0,0,1.42,0,.94.94,0,0,0,.29-.7v-5h2v8a2,2,0,0,1-.59,1.41,1.93,1.93,0,0,1-1.41.59h-2c-1.18,0-1.84-.67-2-2Z" transform="translate(-1.74 -15.9)"/><path class="cls-1" d="M223.79,118.7v7h-2v-1c-.08.67-.42,1-1,1h-1a2,2,0,0,1-1.41-.59,1.93,1.93,0,0,1-.59-1.41v-5h2v5a1,1,0,0,0,.3.7,1,1,0,0,0,1.41,0,1,1,0,0,0,.3-.7v-5Z" transform="translate(-1.74 -15.9)"/><path class="cls-1" d="M225.79,125.7v-2h2v2Z" transform="translate(-1.74 -15.9)"/><path class="cls-1" d="M235.79,122.7h-4v1a1,1,0,0,0,.3.7.94.94,0,0,0,.7.3h1a.88.88,0,0,0,1-1h1c-.15,1.33-.82,2-2,2h-2a2,2,0,0,1-1.41-.59,1.93,1.93,0,0,1-.59-1.41v-3a1.93,1.93,0,0,1,.59-1.41,2,2,0,0,1,1.41-.59h2a2,2,0,0,1,2,2Zm-4-1h2v-1a1,1,0,0,0-.3-.71,1,1,0,0,0-1.41,0,1,1,0,0,0-.3.71Z" transform="translate(-1.74 -15.9)"/><path class="cls-1" d="M243.79,125.7h-2v-1c-.08.67-.41,1-1,1h-1a1.93,1.93,0,0,1-1.41-.59,1.9,1.9,0,0,1-.6-1.41v-3a1.9,1.9,0,0,1,.6-1.41,1.93,1.93,0,0,1,1.41-.59h2v-2h2Zm-2-6h-1a1,1,0,0,0-1,1v3a1,1,0,0,0,.29.7,1,1,0,0,0,.7.3,1,1,0,0,0,1-1Z" transform="translate(-1.74 -15.9)"/><path class="cls-1" d="M251.8,118.7v7h-2v-1c-.08.67-.42,1-1,1h-1a2,2,0,0,1-1.41-.59,1.93,1.93,0,0,1-.59-1.41v-5h2v5a1,1,0,0,0,.3.7.92.92,0,0,0,.7.3,1,1,0,0,0,1-1v-5Z" transform="translate(-1.74 -15.9)"/></g></g></svg>