<svg xmlns="http://www.w3.org/2000/svg" viewBox="0 0 217.53 56.7"><defs><style>.cls-1{fill:#231815;}</style></defs><title>about2</title><g id="图层_2" data-name="图层 2"><g id="图层_1-2" data-name="图层 1"><path class="cls-1" d="M78.26,15.75V2.25h6a2.88,2.88,0,0,1,2.11.89,2.91,2.91,0,0,1,.88,2.12v7.48a3,3,0,0,1-3,3Zm3-1.49h1.49a1.44,1.44,0,0,0,1.07-.45,1.46,1.46,0,0,0,.44-1.07V5.26a1.52,1.52,0,0,0-1.51-1.52H81.27Z" transform="translate(-30.26 -2.25)"/><path class="cls-1" d="M96.28,9.76V8.24a1.5,1.5,0,0,0-1.51-1.49h-1.5c-.89,0-1.38.5-1.49,1.49H90.27c.24-2,1.24-3,3-3h3a2.85,2.85,0,0,1,2.1.88,2.87,2.87,0,0,1,.89,2.1v7.51h-3V14.26c-.12,1-.63,1.49-1.51,1.49h-1.5a3,3,0,0,1-3-3,2.84,2.84,0,0,1,.89-2.1,2.89,2.89,0,0,1,2.11-.88Zm0,1.49H94.77a1.5,1.5,0,0,0-1.5,1.49,1.5,1.5,0,0,0,.44,1.07,1.49,1.49,0,0,0,2.13,0,1.5,1.5,0,0,0,.44-1.07Z" transform="translate(-30.26 -2.25)"/><path class="cls-1" d="M103.78,2.25h3v3h1.51V6.75h-1.51v6a1.34,1.34,0,0,0,.49,1.13,1.47,1.47,0,0,0,.88.39h.14v1.49h-1.51a2.85,2.85,0,0,1-2.1-.88,2.91,2.91,0,0,1-.89-2.13v-6h-1.51V5.26h1.51Z" transform="translate(-30.26 -2.25)"/><path class="cls-1" d="M117.28,9.76V8.24a1.43,1.43,0,0,0-.44-1,1.46,1.46,0,0,0-1.07-.44h-1.49c-.89,0-1.39.5-1.5,1.49h-1.51c.24-2,1.24-3,3-3h3a3,3,0,0,1,3,3v7.51h-3V14.26c-.12,1-.62,1.49-1.51,1.49h-1.49a3,3,0,0,1-3-3,2.87,2.87,0,0,1,.89-2.1,2.91,2.91,0,0,1,2.12-.88Zm0,1.49h-1.51a1.5,1.5,0,0,0-1.49,1.49,1.46,1.46,0,0,0,.44,1.07,1.41,1.41,0,0,0,1,.45,1.44,1.44,0,0,0,1.07-.45,1.46,1.46,0,0,0,.44-1.07Z" transform="translate(-30.26 -2.25)"/><path class="cls-1" d="M135.28,5.26h-1.49c-.13-1-.61-1.52-1.42-1.52a1.67,1.67,0,0,0-1.19.38,1.52,1.52,0,0,0-.4,1.14,1.62,1.62,0,0,0,.44,1.06l3.18,3.56a3.14,3.14,0,0,1,.88,2.13v.73a3,3,0,0,1-3,3h-1.5a3.09,3.09,0,0,1-2.25-.75,3.05,3.05,0,0,1-.75-2.26h1.51V13a1.07,1.07,0,0,0,.47.93,1.72,1.72,0,0,0,1,.33,1.49,1.49,0,0,0,1.15-.39,1.64,1.64,0,0,0,.35-1.13,1.62,1.62,0,0,0-.43-1.06l-3.19-3.56A3.1,3.1,0,0,1,127.78,6V5.26a2.91,2.91,0,0,1,.88-2.12,2.9,2.9,0,0,1,2.12-.89h1.5Q135.1,2.25,135.28,5.26Z" transform="translate(-30.26 -2.25)"/><path class="cls-1" d="M145.78,8.24h-1.5c-.12-1-.62-1.49-1.51-1.49a1.5,1.5,0,0,0-1.49,1.49v4.5a1.46,1.46,0,0,0,.44,1.07,1.41,1.41,0,0,0,1.05.45c.89,0,1.39-.51,1.51-1.52h1.5q-.18,3-3,3h-1.49a3,3,0,0,1-3-3V8.24a2.87,2.87,0,0,1,.89-2.1,2.91,2.91,0,0,1,2.12-.88h1.49Q145.62,5.26,145.78,8.24Z" transform="translate(-30.26 -2.25)"/><path class="cls-1" d="M148.77,3.74V2.25h3V3.74Zm0,12V5.26h3V15.75Z" transform="translate(-30.26 -2.25)"/><path class="cls-1" d="M163.76,11.25h-6v1.49a1.46,1.46,0,0,0,.44,1.07,1.41,1.41,0,0,0,1,.45h1.51a1.34,1.34,0,0,0,1.5-1.52h1.49c-.23,2-1.22,3-3,3h-3a3,3,0,0,1-3-3V8.24a3,3,0,0,1,3-3h3a3,3,0,0,1,3,3Zm-6-1.49h3V8.24a1.43,1.43,0,0,0-.44-1,1.46,1.46,0,0,0-1.07-.44,1.5,1.5,0,0,0-1.49,1.49Z" transform="translate(-30.26 -2.25)"/><path class="cls-1" d="M166.77,15.75V5.26h3V6.75a1.82,1.82,0,0,1,.47-1.12,1.38,1.38,0,0,1,1-.37h1.51a2.85,2.85,0,0,1,2.1.88,2.87,2.87,0,0,1,.89,2.1v7.51h-3V8.24a1.51,1.51,0,0,0-3,0v7.51Z" transform="translate(-30.26 -2.25)"/><path class="cls-1" d="M186.28,8.24h-1.5c-.12-1-.62-1.49-1.51-1.49a1.5,1.5,0,0,0-1.49,1.49v4.5a1.46,1.46,0,0,0,.44,1.07,1.41,1.41,0,0,0,1.05.45c.89,0,1.39-.51,1.51-1.52h1.5q-.18,3-3,3h-1.49a3,3,0,0,1-3-3V8.24a2.87,2.87,0,0,1,.89-2.1,2.91,2.91,0,0,1,2.12-.88h1.49Q186.12,5.26,186.28,8.24Z" transform="translate(-30.26 -2.25)"/><path class="cls-1" d="M198.27,11.25h-6v1.49a1.5,1.5,0,0,0,.44,1.07,1.44,1.44,0,0,0,1.06.45h1.51a1.33,1.33,0,0,0,1.49-1.52h1.5q-.35,3-3,3h-3a3,3,0,0,1-3-3V8.24a2.84,2.84,0,0,1,.89-2.1,2.89,2.89,0,0,1,2.11-.88h3a2.85,2.85,0,0,1,2.1.88,2.87,2.87,0,0,1,.89,2.1Zm-6-1.49h3V8.24a1.51,1.51,0,0,0-3,0Z" transform="translate(-30.26 -2.25)"/><path class="cls-1" d="M142.78,28.35h1.49v1.49a2.92,2.92,0,0,1-.85,2.16,2.75,2.75,0,0,1-2,.85h-.14v1.49a3,3,0,0,1-.87,2,2.67,2.67,0,0,1-2.12,1h-3a2.72,2.72,0,0,1-2.13-1,3,3,0,0,1-.87-2V32.85a3.35,3.35,0,0,1,.75-2,2.68,2.68,0,0,1,2.25-1c-2-.22-3-1.22-3-3a3,3,0,0,1,3-3h3a3,3,0,0,1,3,3v1.49h-3V26.86a1.46,1.46,0,0,0-.44-1.07,1.44,1.44,0,0,0-1.07-.45,1.41,1.41,0,0,0-1.05.45,1.44,1.44,0,0,0-.45,1.07v.73c0,.89.5,1.4,1.5,1.52V30.6c-1,.13-1.5.63-1.5,1.49v2.25a1.4,1.4,0,0,0,.45,1.14,1.56,1.56,0,0,0,1.05.38,1.59,1.59,0,0,0,1.07-.38,1.43,1.43,0,0,0,.44-1.14v-3h3a1.46,1.46,0,0,0,1.07-.44,1.5,1.5,0,0,0,.44-1.08Z" transform="translate(-30.26 -2.25)"/><path class="cls-1" d="M30.26,59V45.45h3V59Z" transform="translate(-30.26 -2.25)"/><path class="cls-1" d="M37.75,59V48.46h3V50a1.76,1.76,0,0,1,.47-1.12,1.38,1.38,0,0,1,1-.37h1.51a3,3,0,0,1,3,3V59h-3V51.44a1.43,1.43,0,0,0-.44-1A1.46,1.46,0,0,0,42.25,50a1.5,1.5,0,0,0-1.49,1.49V59Z" transform="translate(-30.26 -2.25)"/><path class="cls-1" d="M51.27,45.45h3v3h1.51V50H54.26v6a1.36,1.36,0,0,0,.48,1.13,1.49,1.49,0,0,0,.89.39h.14V59H54.26a3,3,0,0,1-3-3V50H49.76V48.46h1.51Z" transform="translate(-30.26 -2.25)"/><path class="cls-1" d="M67.76,54.45h-6v1.49A1.5,1.5,0,0,0,62.2,57a1.44,1.44,0,0,0,1.06.45h1.51a1.33,1.33,0,0,0,1.49-1.52h1.5c-.23,2-1.23,3-3,3h-3a3,3,0,0,1-3-3v-4.5a2.84,2.84,0,0,1,.89-2.1,2.89,2.89,0,0,1,2.11-.88h3a2.87,2.87,0,0,1,2.11.88,2.9,2.9,0,0,1,.88,2.1Zm-6-1.49h3V51.44a1.51,1.51,0,0,0-3,0Z" transform="translate(-30.26 -2.25)"/><path class="cls-1" d="M73.77,59h-3V48.46h3v3a3.71,3.71,0,0,1,.93-2.24,2.83,2.83,0,0,1,2.08-.74h1.49v3h-3a1.42,1.42,0,0,0-1.05.45A1.46,1.46,0,0,0,73.77,53Z" transform="translate(-30.26 -2.25)"/><path class="cls-1" d="M85.78,53V51.44a1.44,1.44,0,0,0-.45-1A1.46,1.46,0,0,0,84.26,50H82.77c-.89,0-1.39.5-1.49,1.49H79.76c.24-2,1.25-3,3-3h3a3,3,0,0,1,3,3V59h-3V57.46c-.12,1-.63,1.49-1.52,1.49H82.77a3,3,0,0,1-3-3,2.87,2.87,0,0,1,.89-2.1A2.91,2.91,0,0,1,82.77,53Zm0,1.49H84.26a1.45,1.45,0,0,0-1.05.44,1.47,1.47,0,0,0-.44,1A1.5,1.5,0,0,0,83.21,57a1.47,1.47,0,0,0,2.12,0,1.47,1.47,0,0,0,.45-1.07Z" transform="translate(-30.26 -2.25)"/><path class="cls-1" d="M99.28,51.44h-1.5c-.12-1-.62-1.49-1.51-1.49a1.5,1.5,0,0,0-1.49,1.49v4.5A1.46,1.46,0,0,0,95.22,57a1.41,1.41,0,0,0,1,.45c.89,0,1.39-.51,1.51-1.52h1.5c-.12,2-1.13,3-3,3H94.78a3,3,0,0,1-3-3v-4.5a3,3,0,0,1,3-3h1.49Q99.12,48.46,99.28,51.44Z" transform="translate(-30.26 -2.25)"/><path class="cls-1" d="M103.77,45.45h3v3h1.51V50h-1.51v6a1.34,1.34,0,0,0,.49,1.13,1.47,1.47,0,0,0,.88.39h.14V59h-1.51a2.85,2.85,0,0,1-2.1-.88,2.91,2.91,0,0,1-.89-2.13V50h-1.51V48.46h1.51Z" transform="translate(-30.26 -2.25)"/><path class="cls-1" d="M111.26,46.94V45.45h3v1.49Zm0,12V48.46h3V59Z" transform="translate(-30.26 -2.25)"/><path class="cls-1" d="M123.27,48.46h3v5.36a4.94,4.94,0,0,1-1.51,3.62A4.89,4.89,0,0,1,121.14,59h-3.88V48.46h3v9h1.5a1.45,1.45,0,0,0,1.07-.45,1.5,1.5,0,0,0,.44-1.07Z" transform="translate(-30.26 -2.25)"/><path class="cls-1" d="M138.26,54.45h-6v1.49a1.5,1.5,0,0,0,.44,1.07,1.41,1.41,0,0,0,1,.45h1.51a1.34,1.34,0,0,0,1.5-1.52h1.49c-.23,2-1.22,3-3,3h-3a3,3,0,0,1-3-3v-4.5a2.87,2.87,0,0,1,.89-2.1,2.91,2.91,0,0,1,2.12-.88h3a3,3,0,0,1,3,3Zm-6-1.49h3V51.44a1.43,1.43,0,0,0-.44-1,1.46,1.46,0,0,0-1.07-.44,1.44,1.44,0,0,0-1,.44,1.47,1.47,0,0,0-.44,1Z" transform="translate(-30.26 -2.25)"/><path class="cls-1" d="M145.77,59V45.45h.7l6.41,6.39,6.39-6.39h1.51V59h-3V50.71L152.52,56l-5.24-5.25V59Z" transform="translate(-30.26 -2.25)"/><path class="cls-1" d="M172.77,54.45h-6v1.49a1.47,1.47,0,0,0,.45,1.07,1.41,1.41,0,0,0,1.05.45h1.51a1.33,1.33,0,0,0,1.49-1.52h1.5c-.23,2-1.23,3-3,3h-3a3,3,0,0,1-3-3v-4.5a3,3,0,0,1,3-3h3a3,3,0,0,1,3,3Zm-6-1.49h3V51.44A1.5,1.5,0,0,0,168.27,50a1.52,1.52,0,0,0-1.5,1.49Z" transform="translate(-30.26 -2.25)"/><path class="cls-1" d="M184.77,59h-3V57.46c-.12,1-.63,1.49-1.52,1.49h-1.49a3,3,0,0,1-3-3v-4.5a3,3,0,0,1,3-3h3v-3h3Zm-3-9h-1.52a1.5,1.5,0,0,0-1.49,1.49v4.5a1.5,1.5,0,0,0,.44,1.07,1.44,1.44,0,0,0,1.05.45,1.47,1.47,0,0,0,1.08-.45,1.5,1.5,0,0,0,.44-1.07Z" transform="translate(-30.26 -2.25)"/><path class="cls-1" d="M187.78,46.94V45.45h3v1.49Zm0,12V48.46h3V59Z" transform="translate(-30.26 -2.25)"/><path class="cls-1" d="M199.79,53V51.44a1.47,1.47,0,0,0-.44-1,1.5,1.5,0,0,0-1.08-.44h-1.49c-.89,0-1.39.5-1.49,1.49h-1.52q.38-3,3-3h3a3,3,0,0,1,3,3V59h-3V57.46c-.12,1-.63,1.49-1.52,1.49h-1.49a3,3,0,0,1,0-6Zm0,1.49h-1.52a1.5,1.5,0,0,0-1.49,1.49,1.5,1.5,0,0,0,.44,1.07,1.44,1.44,0,0,0,1.05.45,1.47,1.47,0,0,0,1.08-.45,1.5,1.5,0,0,0,.44-1.07Z" transform="translate(-30.26 -2.25)"/><path class="cls-1" d="M210.28,59V48.46a3,3,0,0,1,3-3h3a3,3,0,0,1,3,3V59h-3V53h-3v6Zm3-7.51h3v-3a1.52,1.52,0,0,0-1.51-1.52,1.41,1.41,0,0,0-1.05.45,1.43,1.43,0,0,0-.44,1.07Z" transform="translate(-30.26 -2.25)"/><path class="cls-1" d="M225.29,59h-3V48.46h3v3a3.71,3.71,0,0,1,.93-2.24,2.84,2.84,0,0,1,2.08-.74h1.49v3h-3a1.44,1.44,0,0,0-1.06.45,1.46,1.46,0,0,0-.44,1.07Z" transform="translate(-30.26 -2.25)"/><path class="cls-1" d="M232.8,45.45h3v3h1.51V50h-1.51v6a1.36,1.36,0,0,0,.48,1.13,1.49,1.49,0,0,0,.88.39h.15V59h-1.51a3,3,0,0,1-3-3V50h-1.51V48.46h1.51Z" transform="translate(-30.26 -2.25)"/><path class="cls-1" d="M247.79,51.44H246.3c-.13-1-.61-1.49-1.42-1.49a1.88,1.88,0,0,0-1.19.32,1.08,1.08,0,0,0-.4.92c0,.43.73,1,2.18,1.82a4.77,4.77,0,0,1,2.05,1.58,3.39,3.39,0,0,1,.27,1.35,3,3,0,0,1-3,3h-1.5q-3,0-3-3h1.51c.12,1,.59,1.52,1.4,1.52a1.94,1.94,0,0,0,1.21-.32,1.13,1.13,0,0,0,.39-.94c0-.42-.72-1-2.17-1.8a4.82,4.82,0,0,1-2.06-1.59,3.23,3.23,0,0,1-.28-1.35,2.85,2.85,0,0,1,.89-2.12,2.89,2.89,0,0,1,2.11-.88h1.5C246.67,48.46,247.67,49.45,247.79,51.44Z" transform="translate(-30.26 -2.25)"/></g></g></svg>