<svg xmlns="http://www.w3.org/2000/svg" viewBox="0 0 73.49 12.82"><defs><style>.cls-1{isolation:isolate;}</style></defs><title>clickme</title><g id="图层_2" data-name="图层 2"><g id="图层_1-2" data-name="图层 1"><g class="cls-1"><path d="M7,6.41H5.84c-.1-.77-.49-1.16-1.18-1.16A1.16,1.16,0,0,0,3.5,6.41v3.5a1.15,1.15,0,0,0,.34.83,1.12,1.12,0,0,0,.82.35c.69,0,1.08-.39,1.18-1.18H7q-.13,2.34-2.34,2.34H3.5a2.28,2.28,0,0,1-1.65-.69,2.22,2.22,0,0,1-.69-1.65V6.41a2.25,2.25,0,0,1,.69-1.64A2.31,2.31,0,0,1,3.5,4.09H4.66A2.13,2.13,0,0,1,7,6.41Z" transform="translate(-1.16 -0.59)"/><path d="M9.32,12.25V1.75h2.34v10.5Z" transform="translate(-1.16 -0.59)"/><path d="M14,2.91V1.75h2.33V2.91Zm0,9.34V4.09h2.33v8.16Z" transform="translate(-1.16 -0.59)"/><path d="M24.49,6.41H23.32c-.09-.77-.48-1.16-1.17-1.16A1.16,1.16,0,0,0,21,6.41v3.5a1.15,1.15,0,0,0,.34.83,1.12,1.12,0,0,0,.82.35c.69,0,1.08-.39,1.17-1.18h1.17q-.15,2.34-2.34,2.34H21a2.25,2.25,0,0,1-1.65-.69,2.22,2.22,0,0,1-.69-1.65V6.41a2.25,2.25,0,0,1,.69-1.64A2.28,2.28,0,0,1,21,4.09h1.16A2.13,2.13,0,0,1,24.49,6.41Z" transform="translate(-1.16 -0.59)"/><path d="M26.81,12.25V1.75h2.34V7l3.5-2.91H35L30.1,8.16,35,12.25H32.65l-3.5-2.91v2.91Z" transform="translate(-1.16 -0.59)"/><path d="M46.65,12.25H44.32V6.41A1.11,1.11,0,0,0,44,5.59a1.13,1.13,0,0,0-.83-.34A1.16,1.16,0,0,0,42,6.41v5.84H39.65V4.09H42V5.25a1.35,1.35,0,0,1,.36-.87,1.07,1.07,0,0,1,.8-.29h1.17a2,2,0,0,1,1.75.82,1.79,1.79,0,0,1,.72-.62,2.49,2.49,0,0,1,1-.2H49a2.28,2.28,0,0,1,1.64.68,2.25,2.25,0,0,1,.69,1.64v5.84H49V6.41a1.2,1.2,0,0,0-1.17-1.16,1.13,1.13,0,0,0-.82.34,1.08,1.08,0,0,0-.35.82Z" transform="translate(-1.16 -0.59)"/><path d="M60.65,8.75H56V9.91a1.15,1.15,0,0,0,.34.83,1.12,1.12,0,0,0,.82.35h1.17a1,1,0,0,0,1.17-1.18h1.16c-.18,1.56-.95,2.34-2.33,2.34H56a2.25,2.25,0,0,1-1.65-.69,2.22,2.22,0,0,1-.69-1.65V6.41a2.25,2.25,0,0,1,.69-1.64A2.28,2.28,0,0,1,56,4.09h2.33a2.34,2.34,0,0,1,2.33,2.32ZM56,7.59h2.33V6.41A1.11,1.11,0,0,0,58,5.59a1.13,1.13,0,0,0-.83-.34A1.16,1.16,0,0,0,56,6.41Z" transform="translate(-1.16 -0.59)"/><path d="M66.49,6.41V4.09h2.33V6.41Zm0,5.84V9.91h2.33v2.34Z" transform="translate(-1.16 -0.59)"/><path d="M71.15.59h.1a3.24,3.24,0,0,1,2.33,1.06,3.93,3.93,0,0,1,1.07,2.9v4.9a3.93,3.93,0,0,1-1.07,2.9,3.24,3.24,0,0,1-2.33,1.06h-.1V12.25c.78-.09,1.17-.48,1.17-1.16V2.91c0-.69-.39-1.08-1.17-1.16Z" transform="translate(-1.16 -0.59)"/></g></g></g></svg>