<svg xmlns="http://www.w3.org/2000/svg" viewBox="0 0 656.39 96.6"><title>conculsion2</title><g id="图层_2" data-name="图层 2"><g id="图层_1-2" data-name="图层 1"><path d="M1.74,2.62H5.25v14H7a1.68,1.68,0,0,0,1.25-.52,1.7,1.7,0,0,0,.52-1.24V2.62h3.48v14H14a1.68,1.68,0,0,0,1.23-.52,1.73,1.73,0,0,0,.51-1.24V2.62h3.51v9.77a5.76,5.76,0,0,1-1.76,4.22,5.74,5.74,0,0,1-4.23,1.77H8.76v-.55a5.2,5.2,0,0,1-2.48.55H1.74Z" transform="translate(-1.74 -2.63)"/><path d="M33.24,13.12h-7v1.75a1.7,1.7,0,0,0,.52,1.24,1.64,1.64,0,0,0,1.22.52h1.77a1.55,1.55,0,0,0,1.74-1.76h1.74q-.39,3.51-3.48,3.51H26.25a3.43,3.43,0,0,1-2.47-1,3.39,3.39,0,0,1-1-2.48V9.62a3.37,3.37,0,0,1,1-2.46,3.43,3.43,0,0,1,2.47-1h3.51a3.52,3.52,0,0,1,3.48,3.49Zm-7-1.74h3.51V9.62a1.65,1.65,0,0,0-.52-1.23A1.71,1.71,0,0,0,28,7.88a1.67,1.67,0,0,0-1.22.51,1.65,1.65,0,0,0-.52,1.23Z" transform="translate(-1.74 -2.63)"/><path d="M42,18.38V2.62h3.51V7.88a2.18,2.18,0,0,1,.54-1.32,1.69,1.69,0,0,1,1.2-.43H49A3.52,3.52,0,0,1,52.5,9.62v5.25a3.39,3.39,0,0,1-1,2.47,3.33,3.33,0,0,1-2.46,1Zm3.51-1.75h1.74a1.68,1.68,0,0,0,1.25-.52A1.73,1.73,0,0,0,49,14.87V9.62a1.68,1.68,0,0,0-.51-1.23,1.71,1.71,0,0,0-1.25-.51,1.74,1.74,0,0,0-1.74,1.74Z" transform="translate(-1.74 -2.63)"/><path d="M66.51,13.12h-7v1.75A1.74,1.74,0,0,0,60,16.11a1.65,1.65,0,0,0,1.23.52H63a1.55,1.55,0,0,0,1.74-1.76h1.75Q66.1,18.38,63,18.38H59.51a3.39,3.39,0,0,1-2.46-1,3.35,3.35,0,0,1-1-2.48V9.62a3.33,3.33,0,0,1,1-2.46,3.39,3.39,0,0,1,2.46-1H63a3.52,3.52,0,0,1,3.49,3.49Zm-7-1.74H63V9.62a1.68,1.68,0,0,0-.51-1.23,1.72,1.72,0,0,0-1.25-.51,1.76,1.76,0,0,0-1.75,1.74Z" transform="translate(-1.74 -2.63)"/><path d="M70,18.38V2.62h3.51V18.38Z" transform="translate(-1.74 -2.63)"/><path d="M77,4.37V2.62h3.5V4.37Zm0,14V6.13h3.5V18.38Z" transform="translate(-1.74 -2.63)"/><path d="M94.5,13.12h-7v1.75A1.73,1.73,0,0,0,88,16.11a1.65,1.65,0,0,0,1.23.52H91a1.55,1.55,0,0,0,1.75-1.76H94.5Q94.1,18.38,91,18.38h-3.5A3.53,3.53,0,0,1,84,14.87V9.62a3.37,3.37,0,0,1,1-2.46,3.42,3.42,0,0,1,2.47-1H91A3.52,3.52,0,0,1,94.5,9.62Zm-7-1.74H91V9.62a1.68,1.68,0,0,0-.51-1.23,1.71,1.71,0,0,0-1.25-.51,1.74,1.74,0,0,0-1.74,1.74Z" transform="translate(-1.74 -2.63)"/><path d="M105,6.13h3.49v6.26a5.76,5.76,0,0,1-1.76,4.22,5.71,5.71,0,0,1-4.21,1.77H98V6.13h3.5v10.5h1.75a1.69,1.69,0,0,0,1.25-.52,1.73,1.73,0,0,0,.51-1.24Z" transform="translate(-1.74 -2.63)"/><path d="M122.51,13.12h-7v1.75a1.7,1.7,0,0,0,.52,1.24,1.64,1.64,0,0,0,1.22.52H119a1.55,1.55,0,0,0,1.74-1.76h1.74q-.39,3.51-3.48,3.51h-3.51a3.43,3.43,0,0,1-2.47-1,3.39,3.39,0,0,1-1-2.48V9.62a3.37,3.37,0,0,1,1-2.46,3.43,3.43,0,0,1,2.47-1H119a3.52,3.52,0,0,1,3.48,3.49Zm-7-1.74H119V9.62a1.65,1.65,0,0,0-.52-1.23,1.71,1.71,0,0,0-1.25-.51,1.67,1.67,0,0,0-1.22.51,1.65,1.65,0,0,0-.52,1.23Z" transform="translate(-1.74 -2.63)"/><path d="M131.27,18.38V2.62H140V4.37h-5.25V9.62h3.5v1.76h-3.5v7Z" transform="translate(-1.74 -2.63)"/><path d="M150.53,11.38V9.62A1.65,1.65,0,0,0,150,8.39a1.71,1.71,0,0,0-1.25-.51H147q-1.56,0-1.74,1.74h-1.77q.42-3.49,3.51-3.49h3.51A3.52,3.52,0,0,1,154,9.62v8.76h-3.48V16.63c-.14,1.16-.73,1.75-1.77,1.75H147a3.43,3.43,0,0,1-2.47-1,3.45,3.45,0,0,1,0-4.94,3.43,3.43,0,0,1,2.47-1Zm0,1.74h-1.77a1.68,1.68,0,0,0-1.22.52,1.65,1.65,0,0,0-.52,1.23,1.7,1.7,0,0,0,.52,1.24,1.64,1.64,0,0,0,1.22.52,1.68,1.68,0,0,0,1.25-.52,1.7,1.7,0,0,0,.52-1.24Z" transform="translate(-1.74 -2.63)"/><path d="M166.28,9.62h-1.75c-.14-1.16-.72-1.74-1.76-1.74A1.74,1.74,0,0,0,161,9.62v5.25a1.73,1.73,0,0,0,.51,1.24,1.66,1.66,0,0,0,1.23.52c1,0,1.62-.59,1.76-1.76h1.75q-.21,3.51-3.51,3.51H161a3.53,3.53,0,0,1-3.51-3.51V9.62a3.37,3.37,0,0,1,1-2.46,3.42,3.42,0,0,1,2.47-1h1.74Q166.08,6.13,166.28,9.62Z" transform="translate(-1.74 -2.63)"/><path d="M180.26,13.12h-7v1.75a1.7,1.7,0,0,0,.52,1.24,1.64,1.64,0,0,0,1.22.52h1.77a1.55,1.55,0,0,0,1.74-1.76h1.74q-.39,3.51-3.48,3.51h-3.51a3.43,3.43,0,0,1-2.47-1,3.39,3.39,0,0,1-1-2.48V9.62a3.37,3.37,0,0,1,1-2.46,3.43,3.43,0,0,1,2.47-1h3.51a3.52,3.52,0,0,1,3.48,3.49Zm-7-1.74h3.51V9.62a1.65,1.65,0,0,0-.52-1.23A1.71,1.71,0,0,0,175,7.88a1.67,1.67,0,0,0-1.22.51,1.65,1.65,0,0,0-.52,1.23Z" transform="translate(-1.74 -2.63)"/><path d="M183.77,18.38V14q0-3.09,3.51-3.51-3.51-.42-3.51-3.51V2.62h3.51V7.88a1.75,1.75,0,0,0,3.5,0V2.62h3.49V7q0,3.09-3.49,3.51,3.5.43,3.49,3.51v4.37h-3.49V13.12a1.75,1.75,0,0,0-3.5,0v5.26Z" transform="translate(-1.74 -2.63)"/><path d="M197.78,14.87h3.5v3.51c0,2.07-1.16,3.24-3.5,3.5V20.12a1.61,1.61,0,0,0,1.76-1.74h-1.76Z" transform="translate(-1.74 -2.63)"/><path d="M217,11.38V9.62a1.68,1.68,0,0,0-.51-1.23,1.71,1.71,0,0,0-1.25-.51h-1.74c-1,0-1.62.58-1.75,1.74H210q.42-3.49,3.51-3.49H217a3.52,3.52,0,0,1,3.49,3.49v8.76H217V16.63c-.14,1.16-.72,1.75-1.76,1.75h-1.74A3.53,3.53,0,0,1,210,14.87a3.37,3.37,0,0,1,1-2.46,3.42,3.42,0,0,1,2.47-1Zm0,1.74h-1.76a1.7,1.7,0,0,0-1.23.52,1.68,1.68,0,0,0-.51,1.23,1.73,1.73,0,0,0,.51,1.24,1.74,1.74,0,0,0,2.48,0,1.73,1.73,0,0,0,.51-1.24Z" transform="translate(-1.74 -2.63)"/><path d="M229.28,6.13h3.5v10.5h1.75a1.69,1.69,0,0,0,1.25-.52,1.73,1.73,0,0,0,.51-1.24V6.13h3.49v10.5h1.76a1.65,1.65,0,0,0,1.23-.52,1.73,1.73,0,0,0,.51-1.24V6.13h3.51v6.26A5.75,5.75,0,0,1,245,16.61a5.74,5.74,0,0,1-4.23,1.77h-4.52v-.55a5.2,5.2,0,0,1-2.48.55h-4.53Z" transform="translate(-1.74 -2.63)"/><path d="M260.78,13.12h-7v1.75a1.74,1.74,0,0,0,.52,1.24,1.65,1.65,0,0,0,1.23.52h1.76A1.55,1.55,0,0,0,259,14.87h1.75q-.4,3.51-3.49,3.51h-3.51a3.39,3.39,0,0,1-2.46-1,3.35,3.35,0,0,1-1-2.48V9.62a3.33,3.33,0,0,1,1-2.46,3.39,3.39,0,0,1,2.46-1h3.51a3.52,3.52,0,0,1,3.49,3.49Zm-7-1.74h3.51V9.62a1.68,1.68,0,0,0-.51-1.23,1.72,1.72,0,0,0-1.25-.51,1.76,1.76,0,0,0-1.75,1.74Z" transform="translate(-1.74 -2.63)"/><path d="M264.28,18.38V2.62h3.51V18.38Z" transform="translate(-1.74 -2.63)"/><path d="M271.28,18.38V2.62h3.5V18.38Z" transform="translate(-1.74 -2.63)"/><path d="M278.27,13.12V11.38H287v1.74Z" transform="translate(-1.74 -2.63)"/><path d="M301,18.38h-3.48V16.63c-.14,1.16-.73,1.75-1.77,1.75H294a3.43,3.43,0,0,1-2.47-1,3.39,3.39,0,0,1-1-2.48V9.62a3.37,3.37,0,0,1,1-2.46,3.43,3.43,0,0,1,2.47-1h3.51V2.62H301Zm-3.48-10.5h-1.77a1.67,1.67,0,0,0-1.22.51A1.65,1.65,0,0,0,294,9.62v5.25a1.7,1.7,0,0,0,.52,1.24,1.64,1.64,0,0,0,1.22.52,1.68,1.68,0,0,0,1.25-.52,1.7,1.7,0,0,0,.52-1.24Z" transform="translate(-1.74 -2.63)"/><path d="M315,13.12h-7v1.75a1.73,1.73,0,0,0,.51,1.24,1.66,1.66,0,0,0,1.23.52h1.76a1.55,1.55,0,0,0,1.75-1.76H315q-.4,3.51-3.49,3.51H308a3.53,3.53,0,0,1-3.51-3.51V9.62a3.37,3.37,0,0,1,1-2.46,3.42,3.42,0,0,1,2.47-1h3.5A3.52,3.52,0,0,1,315,9.62Zm-7-1.74h3.5V9.62A1.68,1.68,0,0,0,311,8.39a1.76,1.76,0,0,0-2.48,0A1.68,1.68,0,0,0,308,9.62Z" transform="translate(-1.74 -2.63)"/><path d="M318.53,6.13H322V7.88a1.76,1.76,0,0,1,.45-1.32,1.8,1.8,0,0,1,1.3-.43h1.76A3.52,3.52,0,0,1,329,9.62v5.25a3.52,3.52,0,0,1-3.49,3.51H322v3.5h-3.5Zm3.5,10.5h1.75a1.74,1.74,0,0,0,1.76-1.76V9.62A1.68,1.68,0,0,0,325,8.39a1.72,1.72,0,0,0-1.25-.51A1.76,1.76,0,0,0,322,9.62Z" transform="translate(-1.74 -2.63)"/><path d="M332.53,4.37V2.62H336V4.37Zm0,14V6.13H336V18.38Z" transform="translate(-1.74 -2.63)"/><path d="M348.28,9.62h-1.74c-.14-1.16-.73-1.74-1.76-1.74A1.76,1.76,0,0,0,343,9.62v5.25a1.74,1.74,0,0,0,.52,1.24,1.65,1.65,0,0,0,1.23.52c1,0,1.62-.59,1.76-1.76h1.74c-.14,2.34-1.3,3.51-3.5,3.51H343a3.39,3.39,0,0,1-2.46-1,3.35,3.35,0,0,1-1-2.48V9.62a3.33,3.33,0,0,1,1-2.46,3.39,3.39,0,0,1,2.46-1h1.75Q348.1,6.13,348.28,9.62Z" transform="translate(-1.74 -2.63)"/><path d="M353.53,2.62H357V6.13h1.76V7.88H357v7a1.57,1.57,0,0,0,.57,1.31,1.73,1.73,0,0,0,1,.45h.16v1.75H357a3.52,3.52,0,0,1-3.49-3.51v-7h-1.76V6.13h1.76Z" transform="translate(-1.74 -2.63)"/><path d="M372.77,13.12h-7v1.75a1.73,1.73,0,0,0,.51,1.24,1.66,1.66,0,0,0,1.23.52h1.76A1.55,1.55,0,0,0,371,14.87h1.74q-.4,3.51-3.49,3.51h-3.5a3.53,3.53,0,0,1-3.51-3.51V9.62a3.37,3.37,0,0,1,1-2.46,3.42,3.42,0,0,1,2.47-1h3.5a3.52,3.52,0,0,1,3.49,3.49Zm-7-1.74h3.5V9.62a1.68,1.68,0,0,0-.51-1.23,1.76,1.76,0,0,0-2.48,0,1.68,1.68,0,0,0-.51,1.23Z" transform="translate(-1.74 -2.63)"/><path d="M386.78,18.38h-3.49V16.63c-.14,1.16-.73,1.75-1.76,1.75h-1.75a3.39,3.39,0,0,1-2.46-1,3.35,3.35,0,0,1-1-2.48V9.62a3.33,3.33,0,0,1,1-2.46,3.39,3.39,0,0,1,2.46-1h3.51V2.62h3.49Zm-3.49-10.5h-1.76a1.76,1.76,0,0,0-1.75,1.74v5.25a1.74,1.74,0,0,0,.52,1.24,1.65,1.65,0,0,0,1.23.52,1.69,1.69,0,0,0,1.25-.52,1.73,1.73,0,0,0,.51-1.24Z" transform="translate(-1.74 -2.63)"/><path d="M402.55,11.38V9.62A1.65,1.65,0,0,0,402,8.39a1.71,1.71,0,0,0-1.25-.51H399c-1,0-1.62.58-1.74,1.74h-1.77Q396,6.13,399,6.13h3.51A3.5,3.5,0,0,1,406,9.62v8.76h-3.48V16.63c-.14,1.16-.73,1.75-1.77,1.75H399a3.43,3.43,0,0,1-2.47-1,3.45,3.45,0,0,1,0-4.94,3.43,3.43,0,0,1,2.47-1Zm0,1.74h-1.77a1.68,1.68,0,0,0-1.22.52,1.65,1.65,0,0,0-.52,1.23,1.7,1.7,0,0,0,.52,1.24,1.64,1.64,0,0,0,1.22.52,1.68,1.68,0,0,0,1.25-.52,1.7,1.7,0,0,0,.52-1.24Z" transform="translate(-1.74 -2.63)"/><path d="M409.54,18.38V6.13h3.51V7.88a2.18,2.18,0,0,1,.54-1.32,1.69,1.69,0,0,1,1.2-.43h1.77A3.52,3.52,0,0,1,420,9.62v8.76h-3.48V9.62A1.69,1.69,0,0,0,416,8.39a1.76,1.76,0,0,0-2.48,0,1.68,1.68,0,0,0-.51,1.23v8.76Z" transform="translate(-1.74 -2.63)"/><path d="M434.05,18.38h-3.49V16.63c-.14,1.16-.73,1.75-1.76,1.75h-1.74a3.4,3.4,0,0,1-2.47-1,3.35,3.35,0,0,1-1-2.48V9.62a3.33,3.33,0,0,1,1-2.46,3.4,3.4,0,0,1,2.47-1h3.5V2.62h3.49Zm-3.49-10.5H428.8a1.74,1.74,0,0,0-1.74,1.74v5.25a1.73,1.73,0,0,0,.51,1.24,1.65,1.65,0,0,0,1.23.52,1.69,1.69,0,0,0,1.25-.52,1.73,1.73,0,0,0,.51-1.24Z" transform="translate(-1.74 -2.63)"/><path d="M442.81,6.13h3.5V7.88a1.8,1.8,0,0,1,.44-1.32,1.84,1.84,0,0,1,1.31-.43h1.76a3.52,3.52,0,0,1,3.49,3.49v5.25a3.52,3.52,0,0,1-3.49,3.51h-3.51v3.5h-3.5Zm3.5,10.5h1.75a1.76,1.76,0,0,0,1.76-1.76V9.62a1.65,1.65,0,0,0-.52-1.23,1.7,1.7,0,0,0-1.24-.51,1.68,1.68,0,0,0-1.23.51,1.65,1.65,0,0,0-.52,1.23Z" transform="translate(-1.74 -2.63)"/><path d="M460.32,18.38h-3.51V6.13h3.51V9.62A4.34,4.34,0,0,1,461.4,7a3.28,3.28,0,0,1,2.43-.87h1.74V9.62h-3.51a1.74,1.74,0,0,0-1.74,1.76Z" transform="translate(-1.74 -2.63)"/><path d="M477.81,13.12h-7v1.75a1.73,1.73,0,0,0,.51,1.24,1.68,1.68,0,0,0,1.23.52h1.77a1.55,1.55,0,0,0,1.74-1.76h1.74c-.26,2.34-1.43,3.51-3.48,3.51h-3.51a3.53,3.53,0,0,1-3.51-3.51V9.62a3.37,3.37,0,0,1,1-2.46,3.42,3.42,0,0,1,2.47-1h3.51a3.52,3.52,0,0,1,3.48,3.49Zm-7-1.74h3.51V9.62a1.69,1.69,0,0,0-.52-1.23,1.76,1.76,0,0,0-2.48,0,1.68,1.68,0,0,0-.51,1.23Z" transform="translate(-1.74 -2.63)"/><path d="M490.08,9.62h-1.75c-.14-1.16-.73-1.74-1.76-1.74a1.74,1.74,0,0,0-1.74,1.74v5.25a1.73,1.73,0,0,0,.51,1.24,1.65,1.65,0,0,0,1.23.52c1,0,1.62-.59,1.76-1.76h1.75q-.21,3.51-3.51,3.51h-1.74a3.53,3.53,0,0,1-3.51-3.51V9.62a3.37,3.37,0,0,1,1-2.46,3.4,3.4,0,0,1,2.47-1h1.74Q489.89,6.13,490.08,9.62Z" transform="translate(-1.74 -2.63)"/><path d="M493.56,4.37V2.62h3.51V4.37Zm0,14V6.13h3.51V18.38Z" transform="translate(-1.74 -2.63)"/><path d="M509.31,9.62h-1.74c-.16-1.16-.71-1.74-1.66-1.74a2.24,2.24,0,0,0-1.39.36,1.33,1.33,0,0,0-.46,1.08c0,.51.85,1.22,2.54,2.12a5.63,5.63,0,0,1,2.4,1.85,4,4,0,0,1,.31,1.58,3.52,3.52,0,0,1-3.5,3.51h-1.75c-2.34,0-3.5-1.17-3.5-3.51h1.76c.14,1.17.68,1.76,1.64,1.76a2.17,2.17,0,0,0,1.4-.37,1.31,1.31,0,0,0,.47-1.1q0-.73-2.55-2.1a5.69,5.69,0,0,1-2.4-1.85,3.77,3.77,0,0,1-.32-1.57,3.37,3.37,0,0,1,1-2.48,3.43,3.43,0,0,1,2.47-1h1.75Q509.1,6.13,509.31,9.62Z" transform="translate(-1.74 -2.63)"/><path d="M523.3,13.12h-7v1.75a1.73,1.73,0,0,0,.51,1.24,1.65,1.65,0,0,0,1.23.52h1.76a1.56,1.56,0,0,0,1.75-1.76h1.74q-.4,3.51-3.49,3.51h-3.5a3.4,3.4,0,0,1-2.47-1,3.35,3.35,0,0,1-1-2.48V9.62a3.33,3.33,0,0,1,1-2.46,3.4,3.4,0,0,1,2.47-1h3.5a3.52,3.52,0,0,1,3.49,3.49Zm-7-1.74h3.5V9.62a1.68,1.68,0,0,0-.51-1.23,1.72,1.72,0,0,0-1.25-.51,1.74,1.74,0,0,0-1.74,1.74Z" transform="translate(-1.74 -2.63)"/><path d="M540.81,9.62h-1.74c-.16-1.16-.71-1.74-1.66-1.74a2.24,2.24,0,0,0-1.39.36,1.33,1.33,0,0,0-.46,1.08c0,.51.85,1.22,2.54,2.12a5.63,5.63,0,0,1,2.4,1.85,4,4,0,0,1,.31,1.58,3.52,3.52,0,0,1-3.5,3.51h-1.75c-2.34,0-3.5-1.17-3.5-3.51h1.76c.14,1.17.68,1.76,1.64,1.76a2.17,2.17,0,0,0,1.4-.37,1.31,1.31,0,0,0,.47-1.1q0-.73-2.55-2.1a5.69,5.69,0,0,1-2.4-1.85,3.77,3.77,0,0,1-.32-1.57,3.37,3.37,0,0,1,1-2.48,3.43,3.43,0,0,1,2.47-1h1.75Q540.6,6.13,540.81,9.62Z" transform="translate(-1.74 -2.63)"/><path d="M544.3,18.38V2.62h3.51V10.5l5.25-4.37h3.5l-7.33,6.11,7.33,6.14h-3.5L547.81,14v4.37Z" transform="translate(-1.74 -2.63)"/><path d="M568.81,13.12h-7v1.75a1.7,1.7,0,0,0,.52,1.24,1.65,1.65,0,0,0,1.23.52h1.76a1.55,1.55,0,0,0,1.74-1.76h1.75q-.4,3.51-3.49,3.51h-3.51a3.43,3.43,0,0,1-2.47-1,3.38,3.38,0,0,1-1-2.48V9.62a3.36,3.36,0,0,1,1-2.46,3.43,3.43,0,0,1,2.47-1h3.51a3.52,3.52,0,0,1,3.49,3.49Zm-7-1.74h3.51V9.62a1.65,1.65,0,0,0-.52-1.23,1.7,1.7,0,0,0-1.24-.51,1.68,1.68,0,0,0-1.23.51,1.65,1.65,0,0,0-.52,1.23Z" transform="translate(-1.74 -2.63)"/><path d="M574.08,2.62h3.48V6.13h1.77V7.88h-1.77v7a1.57,1.57,0,0,0,.57,1.31,1.73,1.73,0,0,0,1,.45h.17v1.75h-1.77a3.5,3.5,0,0,1-3.48-3.51v-7h-1.77V6.13h1.77Z" transform="translate(-1.74 -2.63)"/><path d="M591.57,9.62h-1.74q-.21-1.74-1.77-1.74a1.71,1.71,0,0,0-1.23.51,1.68,1.68,0,0,0-.51,1.23v5.25a1.73,1.73,0,0,0,.51,1.24,1.68,1.68,0,0,0,1.23.52c1,0,1.63-.59,1.77-1.76h1.74q-.21,3.51-3.51,3.51h-1.74a3.53,3.53,0,0,1-3.51-3.51V9.62a3.37,3.37,0,0,1,1-2.46,3.42,3.42,0,0,1,2.47-1h1.74Q591.38,6.13,591.57,9.62Z" transform="translate(-1.74 -2.63)"/><path d="M595.06,18.38V2.62h3.5V7.88a2.12,2.12,0,0,1,.55-1.32,1.66,1.66,0,0,1,1.2-.43h1.76a3.52,3.52,0,0,1,3.49,3.49v8.76h-3.49V9.62a1.65,1.65,0,0,0-.52-1.23,1.7,1.7,0,0,0-1.24-.51,1.68,1.68,0,0,0-1.23.51,1.65,1.65,0,0,0-.52,1.23v8.76Z" transform="translate(-1.74 -2.63)"/><path d="M12.24,43.58H8.76V41.83C8.62,43,8,43.58,7,43.58H5.25a3.43,3.43,0,0,1-2.47-1,3.39,3.39,0,0,1-1-2.48V34.82a3.37,3.37,0,0,1,1-2.46,3.43,3.43,0,0,1,2.47-1H8.76v-3.5h3.48ZM8.76,33.08H7a1.67,1.67,0,0,0-1.22.51,1.65,1.65,0,0,0-.52,1.23v5.25a1.7,1.7,0,0,0,.52,1.24A1.64,1.64,0,0,0,7,41.83a1.68,1.68,0,0,0,1.25-.52,1.7,1.7,0,0,0,.52-1.24Z" transform="translate(-1.74 -2.63)"/><path d="M22.76,36.58V34.82a1.68,1.68,0,0,0-.51-1.23A1.71,1.71,0,0,0,21,33.08H19.26c-1,0-1.62.58-1.75,1.74H15.75q.42-3.49,3.51-3.49h3.5a3.52,3.52,0,0,1,3.49,3.49v8.76H22.76V41.83C22.62,43,22,43.58,21,43.58H19.26a3.53,3.53,0,0,1-3.51-3.51,3.37,3.37,0,0,1,1-2.46,3.42,3.42,0,0,1,2.47-1Zm0,1.75H21a1.74,1.74,0,0,0-1.74,1.74,1.73,1.73,0,0,0,.51,1.24,1.65,1.65,0,0,0,1.23.52,1.68,1.68,0,0,0,1.25-.52,1.73,1.73,0,0,0,.51-1.24Z" transform="translate(-1.74 -2.63)"/><path d="M31.52,27.83H35v3.5h1.76v1.75H35v7a1.6,1.6,0,0,0,.56,1.31,1.75,1.75,0,0,0,1,.45h.17v1.75H35a3.52,3.52,0,0,1-3.49-3.51v-7H29.76V31.33h1.76Z" transform="translate(-1.74 -2.63)"/><path d="M47.27,36.58V34.82a1.68,1.68,0,0,0-.51-1.23,1.72,1.72,0,0,0-1.25-.51H43.76q-1.55,0-1.74,1.74H40.26q.42-3.49,3.5-3.49h3.51a3.52,3.52,0,0,1,3.49,3.49v8.76H47.27V41.83c-.14,1.16-.73,1.75-1.76,1.75H43.76a3.39,3.39,0,0,1-2.46-1,3.45,3.45,0,0,1,0-4.94,3.39,3.39,0,0,1,2.46-1Zm0,1.75H45.51a1.76,1.76,0,0,0-1.75,1.74,1.74,1.74,0,0,0,.52,1.24,1.65,1.65,0,0,0,1.23.52,1.69,1.69,0,0,0,1.25-.52,1.73,1.73,0,0,0,.51-1.24Z" transform="translate(-1.74 -2.63)"/><path d="M63,34.82H61.28c-.16-1.16-.71-1.74-1.66-1.74a2.24,2.24,0,0,0-1.39.36,1.33,1.33,0,0,0-.46,1.08c0,.51.85,1.22,2.54,2.13a5.55,5.55,0,0,1,2.4,1.84A4,4,0,0,1,63,40.07a3.52,3.52,0,0,1-3.51,3.51H57.77q-3.51,0-3.51-3.51H56c.14,1.17.68,1.76,1.64,1.76a2.17,2.17,0,0,0,1.4-.37,1.31,1.31,0,0,0,.46-1.1c0-.49-.84-1.19-2.54-2.1a5.69,5.69,0,0,1-2.4-1.85,3.78,3.78,0,0,1-.33-1.57,3.38,3.38,0,0,1,1-2.48,3.43,3.43,0,0,1,2.47-1h1.74Q62.81,31.33,63,34.82Z" transform="translate(-1.74 -2.63)"/><path d="M77,38.33H70v1.74a1.74,1.74,0,0,0,.52,1.24,1.65,1.65,0,0,0,1.23.52h1.76a1.55,1.55,0,0,0,1.74-1.76H77q-.41,3.51-3.49,3.51H70a3.39,3.39,0,0,1-2.46-1,3.35,3.35,0,0,1-1-2.48V34.82a3.33,3.33,0,0,1,1-2.46,3.39,3.39,0,0,1,2.46-1h3.51A3.52,3.52,0,0,1,77,34.82Zm-7-1.75h3.51V34.82A1.68,1.68,0,0,0,73,33.59a1.72,1.72,0,0,0-1.25-.51A1.76,1.76,0,0,0,70,34.82Z" transform="translate(-1.74 -2.63)"/><path d="M82.28,27.83h3.48v3.5h1.77v1.75H85.76v7a1.57,1.57,0,0,0,.57,1.31,1.73,1.73,0,0,0,1,.45h.17v1.75H85.76a3.52,3.52,0,0,1-3.48-3.51v-7H80.51V31.33h1.77Z" transform="translate(-1.74 -2.63)"/><path d="M91,40.07h3.51v3.51q0,3.11-3.51,3.5V45.32a1.61,1.61,0,0,0,1.77-1.74H91Z" transform="translate(-1.74 -2.63)"/><path d="M103.26,31.33h3.5v10.5h1.75a1.69,1.69,0,0,0,1.25-.52,1.73,1.73,0,0,0,.51-1.24V31.33h3.49v10.5h1.76a1.65,1.65,0,0,0,1.23-.52,1.73,1.73,0,0,0,.51-1.24V31.33h3.51v6.26a6,6,0,0,1-6,6h-4.52V43a5.2,5.2,0,0,1-2.48.55h-4.53Z" transform="translate(-1.74 -2.63)"/><path d="M124.26,29.57V27.83h3.5v1.74Zm0,14V31.33h3.5V43.58Z" transform="translate(-1.74 -2.63)"/><path d="M131.25,43.58V27.83h3.51V43.58Z" transform="translate(-1.74 -2.63)"/><path d="M138.24,43.58V27.83h3.51V43.58Z" transform="translate(-1.74 -2.63)"/><path d="M150.49,43.58V27.83H154v5.25a2.18,2.18,0,0,1,.55-1.32,1.66,1.66,0,0,1,1.2-.43h1.76A3.52,3.52,0,0,1,161,34.82v5.25a3.43,3.43,0,0,1-1,2.47,3.37,3.37,0,0,1-2.46,1Zm3.5-1.75h1.75a1.69,1.69,0,0,0,1.25-.52,1.73,1.73,0,0,0,.51-1.24V34.82a1.68,1.68,0,0,0-.51-1.23,1.72,1.72,0,0,0-1.25-.51,1.68,1.68,0,0,0-1.23.51,1.65,1.65,0,0,0-.52,1.23Z" transform="translate(-1.74 -2.63)"/><path d="M175,38.33h-7v1.74a1.7,1.7,0,0,0,.52,1.24,1.64,1.64,0,0,0,1.22.52h1.77a1.55,1.55,0,0,0,1.74-1.76H175q-.39,3.51-3.48,3.51H168a3.43,3.43,0,0,1-2.47-1,3.39,3.39,0,0,1-1-2.48V34.82a3.37,3.37,0,0,1,1-2.46,3.43,3.43,0,0,1,2.47-1h3.51A3.52,3.52,0,0,1,175,34.82Zm-7-1.75h3.51V34.82a1.65,1.65,0,0,0-.52-1.23,1.71,1.71,0,0,0-1.25-.51,1.67,1.67,0,0,0-1.22.51,1.65,1.65,0,0,0-.52,1.23Z" transform="translate(-1.74 -2.63)"/><path d="M187.26,34.82h-1.75c-.14-1.16-.72-1.74-1.76-1.74A1.74,1.74,0,0,0,182,34.82v5.25a1.73,1.73,0,0,0,.51,1.24,1.65,1.65,0,0,0,1.23.52c1,0,1.62-.59,1.76-1.76h1.75q-.21,3.51-3.51,3.51H182a3.53,3.53,0,0,1-3.51-3.51V34.82a3.37,3.37,0,0,1,1-2.46,3.42,3.42,0,0,1,2.47-1h1.74Q187.07,31.33,187.26,34.82Z" transform="translate(-1.74 -2.63)"/><path d="M194.25,31.33h3.51a3.52,3.52,0,0,1,3.48,3.49v5.25a3.39,3.39,0,0,1-1,2.47,3.33,3.33,0,0,1-2.45,1h-3.51a3.43,3.43,0,0,1-2.47-1,3.39,3.39,0,0,1-1-2.48V34.82a3.37,3.37,0,0,1,1-2.46A3.43,3.43,0,0,1,194.25,31.33Zm0,3.49v5.25a1.7,1.7,0,0,0,.52,1.24,1.64,1.64,0,0,0,1.22.52,1.68,1.68,0,0,0,1.25-.52,1.7,1.7,0,0,0,.52-1.24V34.82a1.65,1.65,0,0,0-.52-1.23,1.71,1.71,0,0,0-1.25-.51,1.67,1.67,0,0,0-1.22.51A1.65,1.65,0,0,0,194.25,34.82Z" transform="translate(-1.74 -2.63)"/><path d="M215.25,43.58h-3.49V34.82a1.68,1.68,0,0,0-.51-1.23,1.71,1.71,0,0,0-1.25-.51,1.74,1.74,0,0,0-1.74,1.74v8.76h-3.51V31.33h3.51v1.75a2.18,2.18,0,0,1,.54-1.32,1.69,1.69,0,0,1,1.2-.43h1.76a3,3,0,0,1,2.63,1.24,2.58,2.58,0,0,1,1.07-.93,3.51,3.51,0,0,1,1.55-.31h1.75a3.43,3.43,0,0,1,2.47,1,3.36,3.36,0,0,1,1,2.46v8.76h-3.5V34.82a1.67,1.67,0,0,0-.52-1.22,1.65,1.65,0,0,0-1.23-.52,1.75,1.75,0,0,0-1.24.51,1.69,1.69,0,0,0-.52,1.23Z" transform="translate(-1.74 -2.63)"/><path d="M236.25,38.33h-7v1.74a1.73,1.73,0,0,0,.51,1.24,1.65,1.65,0,0,0,1.23.52h1.76a1.55,1.55,0,0,0,1.75-1.76h1.74q-.41,3.51-3.49,3.51h-3.5a3.53,3.53,0,0,1-3.51-3.51V34.82a3.37,3.37,0,0,1,1-2.46,3.42,3.42,0,0,1,2.47-1h3.5a3.52,3.52,0,0,1,3.49,3.49Zm-7-1.75h3.5V34.82a1.68,1.68,0,0,0-.51-1.23,1.71,1.71,0,0,0-1.25-.51,1.74,1.74,0,0,0-1.74,1.74Z" transform="translate(-1.74 -2.63)"/><path d="M252,36.58V34.82a1.68,1.68,0,0,0-.51-1.23,1.72,1.72,0,0,0-1.25-.51h-1.75q-1.55,0-1.74,1.74H245q.42-3.49,3.5-3.49H252a3.52,3.52,0,0,1,3.49,3.49v8.76H252V41.83c-.14,1.16-.73,1.75-1.76,1.75h-1.75a3.39,3.39,0,0,1-2.46-1,3.45,3.45,0,0,1,0-4.94,3.39,3.39,0,0,1,2.46-1Zm0,1.75h-1.76a1.76,1.76,0,0,0-1.75,1.74,1.74,1.74,0,0,0,.52,1.24,1.65,1.65,0,0,0,1.23.52,1.69,1.69,0,0,0,1.25-.52,1.73,1.73,0,0,0,.51-1.24Z" transform="translate(-1.74 -2.63)"/><path d="M273,34.82h-1.74q-.21-1.74-1.77-1.74a1.67,1.67,0,0,0-1.22.51,1.65,1.65,0,0,0-.52,1.23v5.25a1.7,1.7,0,0,0,.52,1.24,1.64,1.64,0,0,0,1.22.52c1,0,1.63-.59,1.77-1.76H273q-.21,3.51-3.51,3.51h-1.74a3.43,3.43,0,0,1-2.47-1,3.39,3.39,0,0,1-1-2.48V34.82a3.37,3.37,0,0,1,1-2.46,3.43,3.43,0,0,1,2.47-1h1.74C271.73,31.33,272.89,32.49,273,34.82Z" transform="translate(-1.74 -2.63)"/><path d="M280,31.33h3.51A3.52,3.52,0,0,1,287,34.82v5.25a3.43,3.43,0,0,1-1,2.47,3.37,3.37,0,0,1-2.46,1H280a3.39,3.39,0,0,1-2.46-1,3.35,3.35,0,0,1-1-2.48V34.82a3.33,3.33,0,0,1,1-2.46A3.39,3.39,0,0,1,280,31.33Zm0,3.49v5.25a1.74,1.74,0,0,0,.52,1.24,1.65,1.65,0,0,0,1.23.52,1.69,1.69,0,0,0,1.25-.52,1.73,1.73,0,0,0,.51-1.24V34.82a1.68,1.68,0,0,0-.51-1.23,1.72,1.72,0,0,0-1.25-.51A1.76,1.76,0,0,0,280,34.82Z" transform="translate(-1.74 -2.63)"/><path d="M290.51,43.58V31.33H294v1.75a2.12,2.12,0,0,1,.55-1.32,1.65,1.65,0,0,1,1.19-.43h1.77A3.52,3.52,0,0,1,301,34.82v8.76h-3.48V34.82a1.65,1.65,0,0,0-.52-1.23,1.71,1.71,0,0,0-1.25-.51,1.67,1.67,0,0,0-1.22.51,1.65,1.65,0,0,0-.52,1.23v8.76Z" transform="translate(-1.74 -2.63)"/><path d="M311.53,31.33H315v6.26a6,6,0,0,1-6,6h-4.54V31.33H308v10.5h1.74a1.68,1.68,0,0,0,1.25-.52,1.73,1.73,0,0,0,.51-1.24Z" transform="translate(-1.74 -2.63)"/><path d="M329,38.33h-7v1.74a1.74,1.74,0,0,0,.52,1.24,1.65,1.65,0,0,0,1.23.52h1.76a1.55,1.55,0,0,0,1.74-1.76H329q-.4,3.51-3.49,3.51H322a3.39,3.39,0,0,1-2.46-1,3.35,3.35,0,0,1-1-2.48V34.82a3.33,3.33,0,0,1,1-2.46,3.39,3.39,0,0,1,2.46-1h3.51A3.52,3.52,0,0,1,329,34.82Zm-7-1.75h3.51V34.82a1.68,1.68,0,0,0-.51-1.23,1.72,1.72,0,0,0-1.25-.51A1.76,1.76,0,0,0,322,34.82Z" transform="translate(-1.74 -2.63)"/><path d="M332.53,43.58V31.33H336v1.75a2.12,2.12,0,0,1,.55-1.32,1.65,1.65,0,0,1,1.19-.43h1.77A3.5,3.5,0,0,1,343,34.82v8.76h-3.48V34.82a1.65,1.65,0,0,0-.52-1.23,1.71,1.71,0,0,0-1.25-.51,1.67,1.67,0,0,0-1.22.51,1.65,1.65,0,0,0-.52,1.23v8.76Z" transform="translate(-1.74 -2.63)"/><path d="M346.54,29.57V27.83h3.51v1.74Zm0,14V31.33h3.51V43.58Z" transform="translate(-1.74 -2.63)"/><path d="M364,38.33h-7v1.74a1.7,1.7,0,0,0,.52,1.24,1.64,1.64,0,0,0,1.22.52h1.77a1.55,1.55,0,0,0,1.74-1.76H364q-.39,3.51-3.48,3.51H357a3.43,3.43,0,0,1-2.47-1,3.39,3.39,0,0,1-1-2.48V34.82a3.37,3.37,0,0,1,1-2.46,3.43,3.43,0,0,1,2.47-1h3.51A3.5,3.5,0,0,1,364,34.82Zm-7-1.75h3.51V34.82a1.65,1.65,0,0,0-.52-1.23,1.71,1.71,0,0,0-1.25-.51,1.67,1.67,0,0,0-1.22.51,1.65,1.65,0,0,0-.52,1.23Z" transform="translate(-1.74 -2.63)"/><path d="M367.54,43.58V31.33h3.51v1.75a2.18,2.18,0,0,1,.54-1.32,1.69,1.69,0,0,1,1.2-.43h1.77A3.52,3.52,0,0,1,378,34.82v8.76h-3.48V34.82a1.69,1.69,0,0,0-.52-1.23,1.76,1.76,0,0,0-2.48,0,1.68,1.68,0,0,0-.51,1.23v8.76Z" transform="translate(-1.74 -2.63)"/><path d="M383.31,27.83h3.49v3.5h1.76v1.75H386.8v7a1.6,1.6,0,0,0,.56,1.31,1.75,1.75,0,0,0,1,.45h.17v1.75H386.8a3.52,3.52,0,0,1-3.49-3.51v-7h-1.76V31.33h1.76Z" transform="translate(-1.74 -2.63)"/><path d="M404.31,36.58V34.82a1.68,1.68,0,0,0-.51-1.23,1.72,1.72,0,0,0-1.25-.51h-1.74c-1,0-1.62.58-1.75,1.74H397.3q.42-3.49,3.51-3.49h3.5a3.52,3.52,0,0,1,3.49,3.49v8.76h-3.49V41.83c-.14,1.16-.73,1.75-1.76,1.75h-1.74a3.4,3.4,0,0,1-2.47-1,3.45,3.45,0,0,1,0-4.94,3.4,3.4,0,0,1,2.47-1Zm0,1.75h-1.76a1.74,1.74,0,0,0-1.74,1.74,1.73,1.73,0,0,0,.51,1.24,1.65,1.65,0,0,0,1.23.52,1.69,1.69,0,0,0,1.25-.52,1.73,1.73,0,0,0,.51-1.24Z" transform="translate(-1.74 -2.63)"/><path d="M411.31,43.58V31.33h3.5v1.75a2.12,2.12,0,0,1,.55-1.32,1.66,1.66,0,0,1,1.2-.43h1.76a3.52,3.52,0,0,1,3.49,3.49v8.76h-3.49V34.82a1.65,1.65,0,0,0-.52-1.23,1.7,1.7,0,0,0-1.24-.51,1.68,1.68,0,0,0-1.23.51,1.65,1.65,0,0,0-.52,1.23v8.76Z" transform="translate(-1.74 -2.63)"/><path d="M435.81,43.58h-3.48V41.83c-.14,1.16-.73,1.75-1.77,1.75h-1.74a3.53,3.53,0,0,1-3.51-3.51V34.82a3.37,3.37,0,0,1,1-2.46,3.42,3.42,0,0,1,2.47-1h3.51v-3.5h3.48Zm-3.48-10.5h-1.77a1.71,1.71,0,0,0-1.23.51,1.68,1.68,0,0,0-.51,1.23v5.25a1.73,1.73,0,0,0,.51,1.24,1.74,1.74,0,0,0,2.48,0,1.74,1.74,0,0,0,.52-1.24Z" transform="translate(-1.74 -2.63)"/><path d="M448.08,43.58h-3.51V31.33h3.51v3.49a4.34,4.34,0,0,1,1.08-2.62,3.28,3.28,0,0,1,2.42-.87h1.75v3.49h-3.51a1.68,1.68,0,0,0-1.23.51,1.72,1.72,0,0,0-.51,1.25Z" transform="translate(-1.74 -2.63)"/><path d="M465.57,38.33h-7v1.74a1.73,1.73,0,0,0,.51,1.24,1.65,1.65,0,0,0,1.23.52h1.76a1.56,1.56,0,0,0,1.75-1.76h1.74q-.4,3.51-3.49,3.51h-3.5a3.53,3.53,0,0,1-3.51-3.51V34.82a3.37,3.37,0,0,1,1-2.46,3.4,3.4,0,0,1,2.47-1h3.5a3.39,3.39,0,0,1,2.46,1,3.36,3.36,0,0,1,1,2.46Zm-7-1.75h3.5V34.82a1.68,1.68,0,0,0-.51-1.23,1.71,1.71,0,0,0-1.25-.51,1.74,1.74,0,0,0-1.74,1.74Z" transform="translate(-1.74 -2.63)"/><path d="M469.08,43.58V27.83h3.5V43.58Z" transform="translate(-1.74 -2.63)"/><path d="M476.07,29.57V27.83h3.51v1.74Zm0,14V31.33h3.51V43.58Z" transform="translate(-1.74 -2.63)"/><path d="M490.08,36.58V34.82a1.69,1.69,0,0,0-.52-1.23,1.71,1.71,0,0,0-1.25-.51h-1.74q-1.56,0-1.74,1.74h-1.77q.42-3.49,3.51-3.49h3.51a3.52,3.52,0,0,1,3.48,3.49v8.76h-3.48V41.83c-.14,1.16-.73,1.75-1.77,1.75h-1.74a3.53,3.53,0,0,1-3.51-3.51,3.37,3.37,0,0,1,1-2.46,3.42,3.42,0,0,1,2.47-1Zm0,1.75h-1.77a1.71,1.71,0,0,0-1.23.51,1.68,1.68,0,0,0-.51,1.23,1.73,1.73,0,0,0,.51,1.24,1.74,1.74,0,0,0,2.48,0,1.74,1.74,0,0,0,.52-1.24Z" transform="translate(-1.74 -2.63)"/><path d="M497.07,43.58V27.83h3.51v5.25a2.18,2.18,0,0,1,.54-1.32,1.68,1.68,0,0,1,1.2-.43h1.76a3.39,3.39,0,0,1,2.46,1,3.36,3.36,0,0,1,1,2.46v5.25a3.53,3.53,0,0,1-3.49,3.51Zm3.51-1.75h1.74a1.68,1.68,0,0,0,1.25-.52,1.73,1.73,0,0,0,.51-1.24V34.82a1.68,1.68,0,0,0-.51-1.23,1.71,1.71,0,0,0-1.25-.51,1.74,1.74,0,0,0-1.74,1.74Z" transform="translate(-1.74 -2.63)"/><path d="M511.08,43.58V27.83h3.5V43.58Z" transform="translate(-1.74 -2.63)"/><path d="M528.57,38.33h-7v1.74a1.73,1.73,0,0,0,.51,1.24,1.65,1.65,0,0,0,1.23.52h1.76a1.56,1.56,0,0,0,1.75-1.76h1.74q-.41,3.51-3.49,3.51h-3.5a3.53,3.53,0,0,1-3.51-3.51V34.82a3.37,3.37,0,0,1,1-2.46,3.4,3.4,0,0,1,2.47-1h3.5a3.39,3.39,0,0,1,2.46,1,3.36,3.36,0,0,1,1,2.46Zm-7-1.75h3.5V34.82a1.68,1.68,0,0,0-.51-1.23,1.71,1.71,0,0,0-1.25-.51,1.74,1.74,0,0,0-1.74,1.74Z" transform="translate(-1.74 -2.63)"/><path d="M539.09,27.83h3.49v3.5h1.76v1.75h-1.76v7a1.57,1.57,0,0,0,.56,1.31,1.73,1.73,0,0,0,1,.45h.17v1.75h-1.76a3.52,3.52,0,0,1-3.49-3.51v-7h-1.76V31.33h1.76Z" transform="translate(-1.74 -2.63)"/><path d="M551.33,43.58h-3.5V31.33h3.5v3.49a4.34,4.34,0,0,1,1.08-2.62,3.28,3.28,0,0,1,2.43-.87h1.74v3.49h-3.5a1.76,1.76,0,0,0-1.75,1.76Z" transform="translate(-1.74 -2.63)"/><path d="M565.34,36.58V34.82a1.65,1.65,0,0,0-.52-1.23,1.7,1.7,0,0,0-1.24-.51h-1.75q-1.55,0-1.74,1.74h-1.76q.4-3.49,3.5-3.49h3.51a3.52,3.52,0,0,1,3.49,3.49v8.76h-3.49V41.83c-.14,1.16-.73,1.75-1.76,1.75h-1.75a3.43,3.43,0,0,1-2.47-1,3.48,3.48,0,0,1,0-4.94,3.43,3.43,0,0,1,2.47-1Zm0,1.75h-1.76a1.68,1.68,0,0,0-1.23.51,1.65,1.65,0,0,0-.52,1.23,1.7,1.7,0,0,0,.52,1.24,1.65,1.65,0,0,0,1.23.52,1.67,1.67,0,0,0,1.24-.52,1.7,1.7,0,0,0,.52-1.24Z" transform="translate(-1.74 -2.63)"/><path d="M572.33,29.57V27.83h3.51v1.74Zm0,14V31.33h3.51V43.58Z" transform="translate(-1.74 -2.63)"/><path d="M579.33,43.58V31.33h3.5v1.75a2.12,2.12,0,0,1,.55-1.32,1.66,1.66,0,0,1,1.2-.43h1.76a3.52,3.52,0,0,1,3.49,3.49v8.76h-3.49V34.82a1.65,1.65,0,0,0-.52-1.23,1.7,1.7,0,0,0-1.24-.51,1.68,1.68,0,0,0-1.23.51,1.65,1.65,0,0,0-.52,1.23v8.76Z" transform="translate(-1.74 -2.63)"/><path d="M593.33,29.57V27.83h3.51v1.74Zm0,14V31.33h3.51V43.58Z" transform="translate(-1.74 -2.63)"/><path d="M600.33,43.58V31.33h3.5v1.75a2.12,2.12,0,0,1,.55-1.32,1.66,1.66,0,0,1,1.2-.43h1.76a3.52,3.52,0,0,1,3.49,3.49v8.76h-3.49V34.82a1.65,1.65,0,0,0-.52-1.23,1.7,1.7,0,0,0-1.24-.51,1.68,1.68,0,0,0-1.23.51,1.65,1.65,0,0,0-.52,1.23v8.76Z" transform="translate(-1.74 -2.63)"/><path d="M624.83,31.33v14a3.39,3.39,0,0,1-1,2.47,3.33,3.33,0,0,1-2.45,1h-3.51q-3.09,0-3.51-3.51h1.77c.08,1.17.66,1.76,1.74,1.76h1.74a1.71,1.71,0,0,0,1.25-.51,1.73,1.73,0,0,0,.52-1.25V41.83c-.14,1.16-.73,1.75-1.77,1.75h-1.74a3.53,3.53,0,0,1-3.51-3.51V34.82a3.37,3.37,0,0,1,1-2.46,3.42,3.42,0,0,1,2.47-1Zm-3.48,1.75h-1.77a1.71,1.71,0,0,0-1.23.51,1.68,1.68,0,0,0-.51,1.23v5.25a1.73,1.73,0,0,0,.51,1.24,1.74,1.74,0,0,0,2.48,0,1.74,1.74,0,0,0,.52-1.24Z" transform="translate(-1.74 -2.63)"/><path d="M10.5,60H8.76c-.16-1.16-.71-1.75-1.66-1.75a2.24,2.24,0,0,0-1.39.37,1.3,1.3,0,0,0-.46,1.08c0,.51.85,1.22,2.54,2.12a5.63,5.63,0,0,1,2.4,1.85,4.16,4.16,0,0,1,.31,1.58A3.5,3.5,0,0,1,7,68.77H5.25c-2.34,0-3.51-1.16-3.51-3.5H3.51C3.65,66.44,4.19,67,5.14,67a2.2,2.2,0,0,0,1.41-.37A1.31,1.31,0,0,0,7,65.56c0-.49-.84-1.19-2.54-2.1a5.69,5.69,0,0,1-2.4-1.85A3.78,3.78,0,0,1,1.74,60a3.38,3.38,0,0,1,1-2.48,3.43,3.43,0,0,1,2.47-1H7Q10.29,56.53,10.5,60Z" transform="translate(-1.74 -2.63)"/><path d="M17.49,56.53H21A3.52,3.52,0,0,1,24.49,60v5.25a3.43,3.43,0,0,1-1,2.47,3.36,3.36,0,0,1-2.46,1H17.49a3.52,3.52,0,0,1-3.5-3.5V60a3.33,3.33,0,0,1,1-2.46A3.39,3.39,0,0,1,17.49,56.53Zm0,3.49v5.25A1.7,1.7,0,0,0,18,66.51a1.65,1.65,0,0,0,1.23.52,1.69,1.69,0,0,0,1.25-.52A1.73,1.73,0,0,0,21,65.27V60a1.68,1.68,0,0,0-.51-1.23,1.73,1.73,0,0,0-1.25-.52,1.69,1.69,0,0,0-1.23.52A1.65,1.65,0,0,0,17.49,60Z" transform="translate(-1.74 -2.63)"/><path d="M38.49,56.53V68.77H35V67q-.21,1.74-1.77,1.74H31.5A3.52,3.52,0,0,1,28,65.27V56.53H31.5v8.74A1.7,1.7,0,0,0,32,66.51a1.64,1.64,0,0,0,1.22.52,1.68,1.68,0,0,0,1.25-.52A1.7,1.7,0,0,0,35,65.27V56.53Z" transform="translate(-1.74 -2.63)"/><path d="M45.51,68.77H42V56.53h3.51V60a4.34,4.34,0,0,1,1.08-2.62A3.28,3.28,0,0,1,49,56.53h1.75V60H47.25a1.68,1.68,0,0,0-1.23.51,1.72,1.72,0,0,0-.51,1.25Z" transform="translate(-1.74 -2.63)"/><path d="M61.26,60H59.51c-.14-1.16-.72-1.75-1.76-1.75A1.76,1.76,0,0,0,56,60v5.25a1.73,1.73,0,0,0,.51,1.24,1.65,1.65,0,0,0,1.23.52c1,0,1.62-.59,1.76-1.76h1.75c-.14,2.34-1.31,3.5-3.51,3.5H56a3.52,3.52,0,0,1-3.51-3.5V60a3.37,3.37,0,0,1,1-2.46,3.42,3.42,0,0,1,2.47-1h1.74Q61.07,56.53,61.26,60Z" transform="translate(-1.74 -2.63)"/><path d="M75.24,63.52h-7v1.75a1.7,1.7,0,0,0,.52,1.24A1.64,1.64,0,0,0,70,67h1.77a1.55,1.55,0,0,0,1.74-1.76h1.74c-.26,2.34-1.42,3.5-3.48,3.5H68.25a3.52,3.52,0,0,1-3.51-3.5V60a3.37,3.37,0,0,1,1-2.46,3.43,3.43,0,0,1,2.47-1h3.51A3.52,3.52,0,0,1,75.24,60Zm-7-1.74h3.51V60a1.65,1.65,0,0,0-.52-1.23A1.71,1.71,0,0,0,70,58.27a1.68,1.68,0,0,0-1.22.52A1.65,1.65,0,0,0,68.25,60Z" transform="translate(-1.74 -2.63)"/><path d="M85.76,68.77V58.27H84V56.53h1.76v-.17A3.38,3.38,0,0,1,89.1,53h3.66v1.75H90.85a1.6,1.6,0,0,0-1.6,1.59v.17H91v1.74H89.25v10.5Z" transform="translate(-1.74 -2.63)"/><path d="M98,56.53h3.5A3.52,3.52,0,0,1,105,60v5.25a3.39,3.39,0,0,1-1,2.47,3.32,3.32,0,0,1-2.46,1H98a3.52,3.52,0,0,1-3.51-3.5V60a3.37,3.37,0,0,1,1-2.46A3.42,3.42,0,0,1,98,56.53ZM98,60v5.25a1.73,1.73,0,0,0,.51,1.24,1.65,1.65,0,0,0,1.23.52,1.68,1.68,0,0,0,1.25-.52,1.73,1.73,0,0,0,.51-1.24V60a1.68,1.68,0,0,0-.51-1.23,1.71,1.71,0,0,0-1.25-.52A1.76,1.76,0,0,0,98,60Z" transform="translate(-1.74 -2.63)"/><path d="M112,68.77h-3.5V56.53H112V60a4.29,4.29,0,0,1,1.09-2.62,3.26,3.26,0,0,1,2.42-.87h1.74V60h-3.5a1.68,1.68,0,0,0-1.23.51,1.73,1.73,0,0,0-.52,1.25Z" transform="translate(-1.74 -2.63)"/><path d="M133,60h-1.74c-.15-1.16-.71-1.75-1.66-1.75a2.21,2.21,0,0,0-1.38.37,1.31,1.31,0,0,0-.47,1.08c0,.51.85,1.22,2.55,2.12a5.64,5.64,0,0,1,2.39,1.85,4,4,0,0,1,.31,1.58,3.5,3.5,0,0,1-3.5,3.5h-1.75c-2.33,0-3.5-1.16-3.5-3.5H126c.14,1.17.69,1.76,1.64,1.76a2.22,2.22,0,0,0,1.41-.37,1.33,1.33,0,0,0,.46-1.1c0-.49-.85-1.19-2.54-2.1a5.67,5.67,0,0,1-2.41-1.85,3.93,3.93,0,0,1-.32-1.57,3.34,3.34,0,0,1,1-2.48,3.39,3.39,0,0,1,2.46-1h1.75Q132.79,56.53,133,60Z" transform="translate(-1.74 -2.63)"/><path d="M136.5,68.77V53H140V60.9l5.25-4.37h3.5l-7.32,6.11,7.32,6.13h-3.5L140,64.41v4.36Z" transform="translate(-1.74 -2.63)"/><path d="M161,63.52h-7v1.75a1.74,1.74,0,0,0,.52,1.24,1.65,1.65,0,0,0,1.23.52h1.76a1.55,1.55,0,0,0,1.74-1.76H161c-.27,2.34-1.43,3.5-3.49,3.5H154a3.52,3.52,0,0,1-3.5-3.5V60a3.33,3.33,0,0,1,1-2.46,3.39,3.39,0,0,1,2.46-1h3.51A3.52,3.52,0,0,1,161,60Zm-7-1.74h3.51V60a1.68,1.68,0,0,0-.51-1.23,1.73,1.73,0,0,0-1.25-.52A1.78,1.78,0,0,0,154,60Z" transform="translate(-1.74 -2.63)"/><path d="M166.28,53h3.48v3.51h1.77v1.74h-1.77v7a1.57,1.57,0,0,0,.57,1.31,1.73,1.73,0,0,0,1,.45h.17v1.74h-1.77a3.35,3.35,0,0,1-2.45-1,3.38,3.38,0,0,1-1-2.48v-7h-1.77V56.53h1.77Z" transform="translate(-1.74 -2.63)"/><path d="M183.77,60H182c-.14-1.16-.73-1.75-1.77-1.75a1.68,1.68,0,0,0-1.22.52,1.65,1.65,0,0,0-.52,1.23v5.25a1.7,1.7,0,0,0,.52,1.24,1.64,1.64,0,0,0,1.22.52c1,0,1.63-.59,1.77-1.76h1.74c-.14,2.34-1.31,3.5-3.51,3.5h-1.74a3.52,3.52,0,0,1-3.51-3.5V60a3.37,3.37,0,0,1,1-2.46,3.43,3.43,0,0,1,2.47-1h1.74C182.48,56.53,183.64,57.69,183.77,60Z" transform="translate(-1.74 -2.63)"/><path d="M187.26,68.77V53h3.5v5.25a2.18,2.18,0,0,1,.55-1.31,1.66,1.66,0,0,1,1.2-.43h1.76A3.52,3.52,0,0,1,197.76,60v8.75h-3.49V60a1.68,1.68,0,0,0-.51-1.23,1.73,1.73,0,0,0-1.25-.52A1.78,1.78,0,0,0,190.76,60v8.75Z" transform="translate(-1.74 -2.63)"/><path d="M201.26,63.52V61.78H210v1.74Z" transform="translate(-1.74 -2.63)"/><path d="M213.51,68.77V53h7a3.37,3.37,0,0,1,2.46,1,3.43,3.43,0,0,1,1,2.47v.95a3.75,3.75,0,0,1-.8,2.25,3.1,3.1,0,0,1-2.69,1.09h1.74A1.76,1.76,0,0,1,224,62.58v6.19h-3.49V63.52A1.67,1.67,0,0,0,220,62.3a1.69,1.69,0,0,0-1.25-.52H217v7ZM217,60h1.75a1.76,1.76,0,0,0,1.76-1.75V56.53a1.74,1.74,0,0,0-1.76-1.76H217Z" transform="translate(-1.74 -2.63)"/><path d="M227.51,68.77V53h.82L238,61.78V53h1.77V68.77H239L229.28,60v8.75Z" transform="translate(-1.74 -2.63)"/><path d="M243.26,68.77V53h.82l9.68,8.76V53h1.77V68.77h-.8L245,60v8.75Z" transform="translate(-1.74 -2.63)"/><path d="M264.26,68.77V53h3.51v5.25a2.12,2.12,0,0,1,.55-1.31,1.65,1.65,0,0,1,1.19-.43h1.77A3.52,3.52,0,0,1,274.76,60v5.25a3.39,3.39,0,0,1-1,2.47,3.32,3.32,0,0,1-2.45,1ZM267.77,67h1.74a1.68,1.68,0,0,0,1.25-.52,1.7,1.7,0,0,0,.52-1.24V60a1.65,1.65,0,0,0-.52-1.23,1.71,1.71,0,0,0-1.25-.52,1.68,1.68,0,0,0-1.22.52,1.65,1.65,0,0,0-.52,1.23Z" transform="translate(-1.74 -2.63)"/><path d="M285.28,61.78V60a1.68,1.68,0,0,0-.51-1.23,1.71,1.71,0,0,0-1.25-.52h-1.74c-1,0-1.62.59-1.75,1.75h-1.76q.42-3.5,3.51-3.49h3.5A3.52,3.52,0,0,1,288.77,60v8.75h-3.49V67c-.14,1.16-.72,1.74-1.76,1.74h-1.74a3.52,3.52,0,0,1-3.51-3.5,3.53,3.53,0,0,1,3.51-3.49Zm0,1.74h-1.76a1.7,1.7,0,0,0-1.23.52,1.68,1.68,0,0,0-.51,1.23,1.73,1.73,0,0,0,.51,1.24,1.74,1.74,0,0,0,2.48,0,1.73,1.73,0,0,0,.51-1.24Z" transform="translate(-1.74 -2.63)"/><path d="M301,60h-1.74c-.15-1.16-.71-1.75-1.66-1.75a2.21,2.21,0,0,0-1.38.37,1.31,1.31,0,0,0-.47,1.08c0,.51.85,1.22,2.55,2.12a5.64,5.64,0,0,1,2.39,1.85,4,4,0,0,1,.31,1.58,3.48,3.48,0,0,1-3.5,3.5h-1.75c-2.33,0-3.5-1.16-3.5-3.5H294c.14,1.17.69,1.76,1.64,1.76a2.22,2.22,0,0,0,1.41-.37,1.33,1.33,0,0,0,.46-1.1c0-.49-.85-1.19-2.54-2.1a5.67,5.67,0,0,1-2.41-1.85,3.93,3.93,0,0,1-.32-1.57,3.34,3.34,0,0,1,1-2.48,3.39,3.39,0,0,1,2.46-1h1.75C299.73,56.53,300.89,57.69,301,60Z" transform="translate(-1.74 -2.63)"/><path d="M315,63.52h-7v1.75a1.73,1.73,0,0,0,.51,1.24,1.66,1.66,0,0,0,1.23.52h1.76a1.55,1.55,0,0,0,1.75-1.76H315c-.27,2.34-1.43,3.5-3.49,3.5H308a3.52,3.52,0,0,1-3.51-3.5V60a3.37,3.37,0,0,1,1-2.46,3.42,3.42,0,0,1,2.47-1h3.5A3.52,3.52,0,0,1,315,60Zm-7-1.74h3.5V60a1.68,1.68,0,0,0-.51-1.23,1.74,1.74,0,0,0-2.48,0A1.68,1.68,0,0,0,308,60Z" transform="translate(-1.74 -2.63)"/><path d="M329,68.77h-3.49V67c-.14,1.16-.73,1.74-1.76,1.74H322a3.52,3.52,0,0,1-3.5-3.5V60a3.33,3.33,0,0,1,1-2.46,3.39,3.39,0,0,1,2.46-1h3.51V53H329Zm-3.49-10.5h-1.76A1.78,1.78,0,0,0,322,60v5.25a1.74,1.74,0,0,0,.52,1.24,1.65,1.65,0,0,0,1.23.52,1.69,1.69,0,0,0,1.25-.52,1.73,1.73,0,0,0,.51-1.24Z" transform="translate(-1.74 -2.63)"/><path d="M337.78,68.77V56.53h3.51v1.74a2.12,2.12,0,0,1,.55-1.31,1.65,1.65,0,0,1,1.19-.43h1.77A3.5,3.5,0,0,1,348.28,60v8.75H344.8V60a1.65,1.65,0,0,0-.52-1.23,1.71,1.71,0,0,0-1.25-.52,1.68,1.68,0,0,0-1.22.52,1.65,1.65,0,0,0-.52,1.23v8.75Z" transform="translate(-1.74 -2.63)"/><path d="M362.29,63.52h-7v1.75a1.73,1.73,0,0,0,.51,1.24A1.66,1.66,0,0,0,357,67h1.77a1.55,1.55,0,0,0,1.74-1.76h1.74c-.27,2.34-1.43,3.5-3.48,3.5H355.3a3.52,3.52,0,0,1-3.51-3.5V60a3.37,3.37,0,0,1,1-2.46,3.42,3.42,0,0,1,2.47-1h3.51A3.52,3.52,0,0,1,362.29,60Zm-7-1.74h3.51V60a1.69,1.69,0,0,0-.52-1.23,1.74,1.74,0,0,0-2.48,0A1.68,1.68,0,0,0,355.3,60Z" transform="translate(-1.74 -2.63)"/><path d="M376.3,56.53V68.77h-3.49V67c-.14,1.16-.73,1.74-1.76,1.74h-1.74a3.39,3.39,0,0,1-2.47-1,3.35,3.35,0,0,1-1-2.48V56.53h3.51v8.74a1.73,1.73,0,0,0,.51,1.24,1.65,1.65,0,0,0,1.23.52,1.69,1.69,0,0,0,1.25-.52,1.73,1.73,0,0,0,.51-1.24V56.53Z" transform="translate(-1.74 -2.63)"/><path d="M383.31,68.77h-3.5V56.53h3.5V60a4.34,4.34,0,0,1,1.08-2.62,3.28,3.28,0,0,1,2.43-.87h1.74V60h-3.5a1.76,1.76,0,0,0-1.75,1.76Z" transform="translate(-1.74 -2.63)"/><path d="M397.32,61.78V60a1.65,1.65,0,0,0-.52-1.23,1.71,1.71,0,0,0-1.24-.52h-1.75c-1,0-1.62.59-1.74,1.75h-1.76q.4-3.5,3.5-3.49h3.51A3.52,3.52,0,0,1,400.81,60v8.75h-3.49V67c-.14,1.16-.73,1.74-1.76,1.74h-1.75a3.42,3.42,0,0,1-2.47-1,3.5,3.5,0,0,1,2.47-6Zm0,1.74h-1.76a1.69,1.69,0,0,0-1.23.52,1.65,1.65,0,0,0-.52,1.23,1.7,1.7,0,0,0,.52,1.24,1.65,1.65,0,0,0,1.23.52,1.67,1.67,0,0,0,1.24-.52,1.7,1.7,0,0,0,.52-1.24Z" transform="translate(-1.74 -2.63)"/><path d="M404.31,68.77V53h3.51V68.77Z" transform="translate(-1.74 -2.63)"/><path d="M416.56,68.77V56.53h3.5v1.74a2.12,2.12,0,0,1,.55-1.31,1.66,1.66,0,0,1,1.2-.43h1.76A3.52,3.52,0,0,1,427.06,60v8.75h-3.49V60a1.65,1.65,0,0,0-.52-1.23,1.71,1.71,0,0,0-1.24-.52,1.69,1.69,0,0,0-1.23.52,1.65,1.65,0,0,0-.52,1.23v8.75Z" transform="translate(-1.74 -2.63)"/><path d="M441.06,63.52h-7v1.75a1.73,1.73,0,0,0,.51,1.24,1.68,1.68,0,0,0,1.23.52h1.77a1.55,1.55,0,0,0,1.74-1.76h1.74c-.26,2.34-1.43,3.5-3.48,3.5h-3.51a3.52,3.52,0,0,1-3.51-3.5V60a3.37,3.37,0,0,1,1-2.46,3.42,3.42,0,0,1,2.47-1h3.51A3.52,3.52,0,0,1,441.06,60Zm-7-1.74h3.51V60a1.69,1.69,0,0,0-.52-1.23,1.74,1.74,0,0,0-2.48,0,1.68,1.68,0,0,0-.51,1.23Z" transform="translate(-1.74 -2.63)"/><path d="M446.33,53h3.49v3.51h1.76v1.74h-1.76v7a1.57,1.57,0,0,0,.57,1.31,1.7,1.7,0,0,0,1,.45h.17v1.74h-1.76a3.38,3.38,0,0,1-2.46-1,3.42,3.42,0,0,1-1-2.48v-7h-1.76V56.53h1.76Z" transform="translate(-1.74 -2.63)"/><path d="M455.07,56.53h3.51V67h1.74a1.68,1.68,0,0,0,1.25-.52,1.73,1.73,0,0,0,.51-1.24V56.53h3.49V67h1.76a1.65,1.65,0,0,0,1.23-.52,1.74,1.74,0,0,0,.52-1.24V56.53h3.5v6.26a6,6,0,0,1-6,6h-4.52v-.54a5.2,5.2,0,0,1-2.48.54h-4.53Z" transform="translate(-1.74 -2.63)"/><path d="M479.58,56.53h3.5a3.39,3.39,0,0,1,2.46,1,3.36,3.36,0,0,1,1,2.46v5.25a3.39,3.39,0,0,1-1,2.47,3.36,3.36,0,0,1-2.46,1h-3.5a3.52,3.52,0,0,1-3.51-3.5V60a3.37,3.37,0,0,1,1-2.46A3.4,3.4,0,0,1,479.58,56.53Zm0,3.49v5.25a1.73,1.73,0,0,0,.51,1.24,1.65,1.65,0,0,0,1.23.52,1.68,1.68,0,0,0,1.25-.52,1.73,1.73,0,0,0,.51-1.24V60a1.68,1.68,0,0,0-.51-1.23,1.71,1.71,0,0,0-1.25-.52A1.76,1.76,0,0,0,479.58,60Z" transform="translate(-1.74 -2.63)"/><path d="M493.58,68.77h-3.5V56.53h3.5V60a4.34,4.34,0,0,1,1.08-2.62,3.28,3.28,0,0,1,2.43-.87h1.74V60h-3.5a1.76,1.76,0,0,0-1.75,1.76Z" transform="translate(-1.74 -2.63)"/><path d="M500.58,68.77V53h3.5V60.9l5.25-4.37h3.51l-7.33,6.11,7.33,6.13h-3.51l-5.25-4.36v4.36Z" transform="translate(-1.74 -2.63)"/><path d="M526.85,61.78V60a1.69,1.69,0,0,0-.52-1.23,1.71,1.71,0,0,0-1.25-.52h-1.74c-1,0-1.62.59-1.74,1.75h-1.77q.42-3.5,3.51-3.49h3.51A3.52,3.52,0,0,1,530.33,60v8.75h-3.48V67q-.21,1.74-1.77,1.74h-1.74a3.52,3.52,0,0,1-3.51-3.5,3.53,3.53,0,0,1,3.51-3.49Zm0,1.74h-1.77a1.72,1.72,0,0,0-1.23.52,1.68,1.68,0,0,0-.51,1.23,1.73,1.73,0,0,0,.51,1.24,1.74,1.74,0,0,0,2.48,0,1.74,1.74,0,0,0,.52-1.24Z" transform="translate(-1.74 -2.63)"/><path d="M533.84,68.77V56.53h3.51v1.74a2.17,2.17,0,0,1,.54-1.31,1.69,1.69,0,0,1,1.2-.43h1.76A3.52,3.52,0,0,1,544.34,60v8.75h-3.49V60a1.68,1.68,0,0,0-.51-1.23,1.71,1.71,0,0,0-1.25-.52A1.76,1.76,0,0,0,537.35,60v8.75Z" transform="translate(-1.74 -2.63)"/><path d="M558.35,68.77h-3.49V67c-.14,1.16-.73,1.74-1.76,1.74h-1.75a3.52,3.52,0,0,1-3.5-3.5V60a3.33,3.33,0,0,1,1-2.46,3.39,3.39,0,0,1,2.46-1h3.51V53h3.49Zm-3.49-10.5H553.1a1.69,1.69,0,0,0-1.23.52,1.65,1.65,0,0,0-.52,1.23v5.25a1.7,1.7,0,0,0,.52,1.24,1.65,1.65,0,0,0,1.23.52,1.69,1.69,0,0,0,1.25-.52,1.73,1.73,0,0,0,.51-1.24Z" transform="translate(-1.74 -2.63)"/><path d="M567.1,68.77V53h3.51v5.25a2.12,2.12,0,0,1,.55-1.31,1.65,1.65,0,0,1,1.19-.43h1.77A3.52,3.52,0,0,1,577.6,60v8.75h-3.48V60a1.69,1.69,0,0,0-.52-1.23,1.74,1.74,0,0,0-2.48,0,1.68,1.68,0,0,0-.51,1.23v8.75Z" transform="translate(-1.74 -2.63)"/><path d="M591.61,63.52h-7v1.75a1.73,1.73,0,0,0,.51,1.24,1.65,1.65,0,0,0,1.23.52h1.76a1.55,1.55,0,0,0,1.75-1.76h1.74c-.27,2.34-1.43,3.5-3.49,3.5h-3.5a3.52,3.52,0,0,1-3.51-3.5V60a3.37,3.37,0,0,1,1-2.46,3.4,3.4,0,0,1,2.47-1h3.5A3.52,3.52,0,0,1,591.61,60Zm-7-1.74h3.5V60a1.68,1.68,0,0,0-.51-1.23,1.71,1.71,0,0,0-1.25-.52A1.76,1.76,0,0,0,584.62,60Z" transform="translate(-1.74 -2.63)"/><path d="M595.12,68.77V53h3.5V68.77Z" transform="translate(-1.74 -2.63)"/><path d="M602.11,56.53h3.51v1.74a1.75,1.75,0,0,1,.44-1.31,1.82,1.82,0,0,1,1.3-.43h1.76A3.52,3.52,0,0,1,612.61,60v5.25a3.5,3.5,0,0,1-3.49,3.5h-3.5v3.51h-3.51ZM605.62,67h1.74a1.74,1.74,0,0,0,1.76-1.76V60a1.68,1.68,0,0,0-.51-1.23,1.71,1.71,0,0,0-1.25-.52A1.76,1.76,0,0,0,605.62,60Z" transform="translate(-1.74 -2.63)"/><path d="M631.87,68.77h-3.49V67c-.14,1.16-.73,1.74-1.76,1.74h-1.75a3.52,3.52,0,0,1-3.5-3.5V60a3.33,3.33,0,0,1,1-2.46,3.39,3.39,0,0,1,2.46-1h3.51V53h3.49Zm-3.49-10.5h-1.76a1.69,1.69,0,0,0-1.23.52,1.65,1.65,0,0,0-.52,1.23v5.25a1.7,1.7,0,0,0,.52,1.24,1.65,1.65,0,0,0,1.23.52,1.69,1.69,0,0,0,1.25-.52,1.73,1.73,0,0,0,.51-1.24Z" transform="translate(-1.74 -2.63)"/><path d="M645.87,63.52h-7v1.75a1.73,1.73,0,0,0,.51,1.24,1.68,1.68,0,0,0,1.23.52h1.77a1.55,1.55,0,0,0,1.74-1.76h1.74c-.26,2.34-1.42,3.5-3.48,3.5h-3.51a3.52,3.52,0,0,1-3.51-3.5V60a3.37,3.37,0,0,1,1-2.46,3.43,3.43,0,0,1,2.47-1h3.51A3.52,3.52,0,0,1,645.87,60Zm-7-1.74h3.51V60a1.65,1.65,0,0,0-.52-1.23,1.74,1.74,0,0,0-2.48,0,1.68,1.68,0,0,0-.51,1.23Z" transform="translate(-1.74 -2.63)"/><path d="M649.38,63.52V61.78h8.76v1.74Z" transform="translate(-1.74 -2.63)"/><path d="M10.5,85.22H8.76c-.16-1.16-.71-1.74-1.66-1.74a2.24,2.24,0,0,0-1.39.36,1.3,1.3,0,0,0-.46,1.08c0,.51.85,1.22,2.54,2.12a5.63,5.63,0,0,1,2.4,1.85,4.16,4.16,0,0,1,.31,1.58,3.38,3.38,0,0,1-1,2.48A3.39,3.39,0,0,1,7,94H5.25q-3.51,0-3.51-3.51H3.51c.14,1.17.68,1.76,1.63,1.76a2.2,2.2,0,0,0,1.41-.37A1.31,1.31,0,0,0,7,90.76c0-.49-.84-1.19-2.54-2.1a5.69,5.69,0,0,1-2.4-1.85,3.78,3.78,0,0,1-.33-1.57,3.38,3.38,0,0,1,1-2.48,3.43,3.43,0,0,1,2.47-1H7Q10.29,81.73,10.5,85.22Z" transform="translate(-1.74 -2.63)"/><path d="M14,80V78.23h3.5V80Zm0,14V81.73h3.5V94Z" transform="translate(-1.74 -2.63)"/><path d="M31.48,81.73v14a3.39,3.39,0,0,1-1,2.47,3.33,3.33,0,0,1-2.46,1h-3.5q-3.09,0-3.51-3.51h1.76c.09,1.17.67,1.76,1.75,1.76h1.74A1.74,1.74,0,0,0,28,95.72V92.23c-.14,1.16-.72,1.75-1.76,1.75H24.49A3.53,3.53,0,0,1,21,90.47V85.22a3.37,3.37,0,0,1,1-2.46,3.4,3.4,0,0,1,2.47-1ZM28,83.48H26.23a1.74,1.74,0,0,0-1.74,1.74v5.25A1.73,1.73,0,0,0,25,91.71a1.65,1.65,0,0,0,1.23.52,1.68,1.68,0,0,0,1.25-.52A1.73,1.73,0,0,0,28,90.47Z" transform="translate(-1.74 -2.63)"/><path d="M35,94V81.73h3.5v1.75A2.18,2.18,0,0,1,39,82.16a1.66,1.66,0,0,1,1.2-.43H42a3.52,3.52,0,0,1,3.49,3.49V94H42V85.22A1.68,1.68,0,0,0,41.49,84a1.72,1.72,0,0,0-1.25-.51A1.68,1.68,0,0,0,39,84a1.65,1.65,0,0,0-.52,1.23V94Z" transform="translate(-1.74 -2.63)"/><path d="M59.49,88.73h-7v1.74A1.7,1.7,0,0,0,53,91.71a1.64,1.64,0,0,0,1.22.52H56a1.55,1.55,0,0,0,1.74-1.76h1.74Q59.1,94,56,94H52.5A3.43,3.43,0,0,1,50,93a3.39,3.39,0,0,1-1-2.48V85.22a3.37,3.37,0,0,1,1-2.46,3.43,3.43,0,0,1,2.47-1H56a3.52,3.52,0,0,1,3.48,3.49ZM52.5,87H56V85.22A1.65,1.65,0,0,0,55.49,84a1.71,1.71,0,0,0-1.25-.51A1.67,1.67,0,0,0,53,84a1.65,1.65,0,0,0-.52,1.23Z" transform="translate(-1.74 -2.63)"/><path d="M66.51,94H63V81.73h3.51v3.49a4.34,4.34,0,0,1,1.08-2.62A3.28,3.28,0,0,1,70,81.73h1.75v3.49H68.25a1.68,1.68,0,0,0-1.23.51A1.72,1.72,0,0,0,66.51,87Z" transform="translate(-1.74 -2.63)"/><path d="M82.26,85.22H80.51c-.15-1.16-.7-1.74-1.66-1.74a2.23,2.23,0,0,0-1.38.36A1.3,1.3,0,0,0,77,84.92c0,.51.84,1.22,2.54,2.12a5.64,5.64,0,0,1,2.39,1.85,4,4,0,0,1,.32,1.58A3.52,3.52,0,0,1,78.75,94H77q-3.51,0-3.51-3.51h1.76c.14,1.17.69,1.76,1.64,1.76a2.22,2.22,0,0,0,1.41-.37,1.31,1.31,0,0,0,.46-1.1c0-.49-.85-1.19-2.54-2.1a5.55,5.55,0,0,1-2.4-1.85,3.78,3.78,0,0,1-.33-1.57,3.38,3.38,0,0,1,1-2.48,3.42,3.42,0,0,1,2.47-1h1.74Q82.05,81.73,82.26,85.22Z" transform="translate(-1.74 -2.63)"/><path d="M92.76,78.23h3.48v3.5H98v1.75H96.24v7a1.57,1.57,0,0,0,.57,1.31,1.73,1.73,0,0,0,1,.45H98V94H96.24a3.52,3.52,0,0,1-3.48-3.51v-7H91V81.73h1.77Z" transform="translate(-1.74 -2.63)"/><path d="M105,81.73h3.51A3.52,3.52,0,0,1,112,85.22v5.25a3.39,3.39,0,0,1-1,2.47,3.33,3.33,0,0,1-2.45,1H105a3.43,3.43,0,0,1-2.47-1,3.39,3.39,0,0,1-1-2.48V85.22a3.37,3.37,0,0,1,1-2.46A3.43,3.43,0,0,1,105,81.73Zm0,3.49v5.25a1.7,1.7,0,0,0,.52,1.24,1.64,1.64,0,0,0,1.22.52,1.68,1.68,0,0,0,1.25-.52,1.7,1.7,0,0,0,.52-1.24V85.22A1.65,1.65,0,0,0,108,84a1.71,1.71,0,0,0-1.25-.51,1.67,1.67,0,0,0-1.22.51A1.65,1.65,0,0,0,105,85.22Z" transform="translate(-1.74 -2.63)"/><path d="M129.51,85.22h-1.75c-.14-1.16-.72-1.74-1.76-1.74a1.74,1.74,0,0,0-1.74,1.74v5.25a1.73,1.73,0,0,0,.51,1.24,1.65,1.65,0,0,0,1.23.52c1,0,1.62-.59,1.76-1.76h1.75Q129.3,94,126,94h-1.74a3.53,3.53,0,0,1-3.51-3.51V85.22a3.37,3.37,0,0,1,1-2.46,3.42,3.42,0,0,1,2.47-1H126Q129.32,81.73,129.51,85.22Z" transform="translate(-1.74 -2.63)"/><path d="M136.5,94H133V81.73h3.51v3.49a4.34,4.34,0,0,1,1.08-2.62,3.28,3.28,0,0,1,2.43-.87h1.74v3.49h-3.51a1.67,1.67,0,0,0-1.22.51A1.69,1.69,0,0,0,136.5,87Z" transform="translate(-1.74 -2.63)"/><path d="M154,88.73h-7v1.74a1.7,1.7,0,0,0,.52,1.24,1.64,1.64,0,0,0,1.22.52h1.77a1.55,1.55,0,0,0,1.74-1.76H154Q153.6,94,150.51,94H147a3.43,3.43,0,0,1-2.47-1,3.39,3.39,0,0,1-1-2.48V85.22a3.37,3.37,0,0,1,1-2.46,3.43,3.43,0,0,1,2.47-1h3.51A3.52,3.52,0,0,1,154,85.22ZM147,87h3.51V85.22A1.65,1.65,0,0,0,150,84a1.71,1.71,0,0,0-1.25-.51,1.67,1.67,0,0,0-1.22.51,1.65,1.65,0,0,0-.52,1.23Z" transform="translate(-1.74 -2.63)"/><path d="M164.51,87V85.22A1.68,1.68,0,0,0,164,84a1.71,1.71,0,0,0-1.25-.51H161c-1,0-1.62.58-1.75,1.74H157.5q.42-3.5,3.51-3.49h3.5A3.52,3.52,0,0,1,168,85.22V94h-3.49V92.23c-.14,1.16-.72,1.75-1.76,1.75H161a3.53,3.53,0,0,1-3.51-3.51A3.53,3.53,0,0,1,161,87Zm0,1.75h-1.76A1.74,1.74,0,0,0,161,90.47a1.73,1.73,0,0,0,.51,1.24,1.65,1.65,0,0,0,1.23.52,1.68,1.68,0,0,0,1.25-.52,1.73,1.73,0,0,0,.51-1.24Z" transform="translate(-1.74 -2.63)"/><path d="M173.27,78.23h3.49v3.5h1.76v1.75h-1.76v7a1.6,1.6,0,0,0,.56,1.31,1.75,1.75,0,0,0,1,.45h.17V94h-1.76a3.52,3.52,0,0,1-3.49-3.51v-7h-1.76V81.73h1.76Z" transform="translate(-1.74 -2.63)"/><path d="M192.51,88.73h-7v1.74a1.74,1.74,0,0,0,.52,1.24,1.65,1.65,0,0,0,1.23.52H189a1.55,1.55,0,0,0,1.74-1.76h1.75Q192.11,94,189,94h-3.51a3.39,3.39,0,0,1-2.46-1,3.35,3.35,0,0,1-1-2.48V85.22a3.33,3.33,0,0,1,1-2.46,3.39,3.39,0,0,1,2.46-1H189a3.52,3.52,0,0,1,3.49,3.49Zm-7-1.75H189V85.22a1.68,1.68,0,0,0-.51-1.23,1.72,1.72,0,0,0-1.25-.51,1.76,1.76,0,0,0-1.75,1.74Z" transform="translate(-1.74 -2.63)"/><path d="M201.26,94V78.23h3.51v5.25a2.12,2.12,0,0,1,.55-1.32,1.65,1.65,0,0,1,1.19-.43h1.77a3.52,3.52,0,0,1,3.48,3.49v5.25a3.39,3.39,0,0,1-1,2.47,3.33,3.33,0,0,1-2.45,1Zm3.51-1.75h1.74a1.68,1.68,0,0,0,1.25-.52,1.7,1.7,0,0,0,.52-1.24V85.22a1.65,1.65,0,0,0-.52-1.23,1.71,1.71,0,0,0-1.25-.51,1.67,1.67,0,0,0-1.22.51,1.65,1.65,0,0,0-.52,1.23Z" transform="translate(-1.74 -2.63)"/><path d="M225.77,88.73h-7v1.74a1.73,1.73,0,0,0,.51,1.24,1.66,1.66,0,0,0,1.23.52h1.76A1.55,1.55,0,0,0,224,90.47h1.74Q225.37,94,222.28,94h-3.5a3.53,3.53,0,0,1-3.51-3.51V85.22a3.37,3.37,0,0,1,1-2.46,3.42,3.42,0,0,1,2.47-1h3.5a3.52,3.52,0,0,1,3.49,3.49Zm-7-1.75h3.5V85.22a1.68,1.68,0,0,0-.51-1.23,1.76,1.76,0,0,0-2.48,0,1.68,1.68,0,0,0-.51,1.23Z" transform="translate(-1.74 -2.63)"/><path d="M231,78.23h3.49v3.5h1.76v1.75h-1.76v7a1.6,1.6,0,0,0,.56,1.31,1.75,1.75,0,0,0,1,.45h.17V94h-1.76A3.52,3.52,0,0,1,231,90.47v-7h-1.76V81.73H231Z" transform="translate(-1.74 -2.63)"/><path d="M241.54,78.23H245v3.5h1.76v1.75H245v7a1.6,1.6,0,0,0,.56,1.31,1.75,1.75,0,0,0,1,.45h.17V94H245a3.52,3.52,0,0,1-3.49-3.51v-7h-1.76V81.73h1.76Z" transform="translate(-1.74 -2.63)"/><path d="M260.78,88.73h-7v1.74a1.74,1.74,0,0,0,.52,1.24,1.65,1.65,0,0,0,1.23.52h1.76A1.55,1.55,0,0,0,259,90.47h1.75q-.4,3.51-3.49,3.51h-3.51a3.39,3.39,0,0,1-2.46-1,3.35,3.35,0,0,1-1-2.48V85.22a3.33,3.33,0,0,1,1-2.46,3.39,3.39,0,0,1,2.46-1h3.51a3.52,3.52,0,0,1,3.49,3.49Zm-7-1.75h3.51V85.22a1.68,1.68,0,0,0-.51-1.23,1.72,1.72,0,0,0-1.25-.51,1.76,1.76,0,0,0-1.75,1.74Z" transform="translate(-1.74 -2.63)"/><path d="M267.79,94h-3.51V81.73h3.51v3.49a4.34,4.34,0,0,1,1.08-2.62,3.28,3.28,0,0,1,2.43-.87H273v3.49h-3.51a1.67,1.67,0,0,0-1.22.51,1.69,1.69,0,0,0-.52,1.25Z" transform="translate(-1.74 -2.63)"/><path d="M288.79,85.22h-1.74c-.16-1.16-.71-1.74-1.66-1.74a2.24,2.24,0,0,0-1.39.36,1.33,1.33,0,0,0-.46,1.08c0,.51.85,1.22,2.54,2.12a5.63,5.63,0,0,1,2.4,1.85,4,4,0,0,1,.31,1.58A3.52,3.52,0,0,1,285.28,94h-1.74Q280,94,280,90.47h1.77c.14,1.17.68,1.76,1.64,1.76a2.17,2.17,0,0,0,1.4-.37,1.31,1.31,0,0,0,.47-1.1q0-.74-2.55-2.1a5.69,5.69,0,0,1-2.4-1.85,3.78,3.78,0,0,1-.33-1.57,3.38,3.38,0,0,1,1-2.48,3.43,3.43,0,0,1,2.47-1h1.74Q288.58,81.73,288.79,85.22Z" transform="translate(-1.74 -2.63)"/><path d="M294,78.23h3.49v3.5h1.76v1.75h-1.76v7a1.6,1.6,0,0,0,.56,1.31,1.75,1.75,0,0,0,1,.45h.17V94h-1.76A3.52,3.52,0,0,1,294,90.47v-7h-1.76V81.73H294Z" transform="translate(-1.74 -2.63)"/><path d="M306.28,81.73h3.51a3.52,3.52,0,0,1,3.49,3.49v5.25a3.43,3.43,0,0,1-1,2.47,3.37,3.37,0,0,1-2.46,1h-3.51a3.39,3.39,0,0,1-2.46-1,3.35,3.35,0,0,1-1-2.48V85.22a3.33,3.33,0,0,1,1-2.46A3.39,3.39,0,0,1,306.28,81.73Zm0,3.49v5.25a1.74,1.74,0,0,0,.52,1.24,1.65,1.65,0,0,0,1.23.52,1.69,1.69,0,0,0,1.25-.52,1.73,1.73,0,0,0,.51-1.24V85.22a1.68,1.68,0,0,0-.51-1.23,1.72,1.72,0,0,0-1.25-.51,1.76,1.76,0,0,0-1.75,1.74Z" transform="translate(-1.74 -2.63)"/><path d="M320.29,94h-3.51V81.73h3.51v3.49a4.34,4.34,0,0,1,1.08-2.62,3.28,3.28,0,0,1,2.43-.87h1.74v3.49H322a1.67,1.67,0,0,0-1.22.51,1.69,1.69,0,0,0-.52,1.25Z" transform="translate(-1.74 -2.63)"/><path d="M329.05,95.72c.08,1.17.66,1.76,1.74,1.76h1.74a1.76,1.76,0,0,0,1.77-1.76V92.23c-.14,1.16-.73,1.75-1.77,1.75h-1.74a3.43,3.43,0,0,1-2.47-1,3.39,3.39,0,0,1-1-2.48V81.73h3.51v8.74a1.7,1.7,0,0,0,.52,1.24,1.64,1.64,0,0,0,1.22.52,1.68,1.68,0,0,0,1.25-.52,1.7,1.7,0,0,0,.52-1.24V81.73h3.48v14a3.42,3.42,0,0,1-1,2.47,3.37,3.37,0,0,1-2.46,1h-3.51q-3.09,0-3.51-3.51Z" transform="translate(-1.74 -2.63)"/><path d="M341.29,94V78.23h3.51v5.25a2.18,2.18,0,0,1,.54-1.32,1.69,1.69,0,0,1,1.2-.43h1.77a3.52,3.52,0,0,1,3.48,3.49v5.25a3.39,3.39,0,0,1-1,2.47,3.33,3.33,0,0,1-2.45,1Zm3.51-1.75h1.74a1.68,1.68,0,0,0,1.25-.52,1.74,1.74,0,0,0,.52-1.24V85.22a1.69,1.69,0,0,0-.52-1.23,1.76,1.76,0,0,0-2.48,0,1.68,1.68,0,0,0-.51,1.23Z" transform="translate(-1.74 -2.63)"/><path d="M358.81,81.73h3.5a3.52,3.52,0,0,1,3.49,3.49v5.25a3.43,3.43,0,0,1-1,2.47,3.37,3.37,0,0,1-2.46,1h-3.5a3.4,3.4,0,0,1-2.47-1,3.35,3.35,0,0,1-1-2.48V85.22a3.33,3.33,0,0,1,1-2.46A3.4,3.4,0,0,1,358.81,81.73Zm0,3.49v5.25a1.73,1.73,0,0,0,.51,1.24,1.65,1.65,0,0,0,1.23.52,1.69,1.69,0,0,0,1.25-.52,1.73,1.73,0,0,0,.51-1.24V85.22A1.68,1.68,0,0,0,361.8,84a1.72,1.72,0,0,0-1.25-.51,1.74,1.74,0,0,0-1.74,1.74Z" transform="translate(-1.74 -2.63)"/><path d="M376.32,87V85.22A1.65,1.65,0,0,0,375.8,84a1.7,1.7,0,0,0-1.24-.51h-1.75c-1,0-1.62.58-1.74,1.74h-1.76q.4-3.5,3.5-3.49h3.51a3.52,3.52,0,0,1,3.49,3.49V94h-3.49V92.23c-.14,1.16-.73,1.75-1.76,1.75h-1.75a3.43,3.43,0,0,1-2.47-1,3.5,3.5,0,0,1,2.47-6Zm0,1.75h-1.76a1.68,1.68,0,0,0-1.23.51,1.65,1.65,0,0,0-.52,1.23,1.7,1.7,0,0,0,.52,1.24,1.65,1.65,0,0,0,1.23.52,1.67,1.67,0,0,0,1.24-.52,1.7,1.7,0,0,0,.52-1.24Z" transform="translate(-1.74 -2.63)"/><path d="M386.82,94h-3.51V81.73h3.51v3.49a4.34,4.34,0,0,1,1.08-2.62,3.28,3.28,0,0,1,2.43-.87h1.74v3.49h-3.51A1.74,1.74,0,0,0,386.82,87Z" transform="translate(-1.74 -2.63)"/><path d="M404.31,94h-3.48V92.23c-.14,1.16-.73,1.75-1.77,1.75h-1.74a3.53,3.53,0,0,1-3.51-3.51V85.22a3.37,3.37,0,0,1,1-2.46,3.42,3.42,0,0,1,2.47-1h3.51v-3.5h3.48Zm-3.48-10.5h-1.77a1.71,1.71,0,0,0-1.23.51,1.68,1.68,0,0,0-.51,1.23v5.25a1.73,1.73,0,0,0,.51,1.24,1.74,1.74,0,0,0,2.48,0,1.74,1.74,0,0,0,.52-1.24Z" transform="translate(-1.74 -2.63)"/><path d="M416.58,85.22h-1.75c-.15-1.16-.7-1.74-1.66-1.74a2.23,2.23,0,0,0-1.38.36,1.3,1.3,0,0,0-.46,1.08c0,.51.84,1.22,2.54,2.12a5.64,5.64,0,0,1,2.39,1.85,4,4,0,0,1,.32,1.58A3.52,3.52,0,0,1,413.07,94h-1.74q-3.51,0-3.51-3.51h1.76c.14,1.17.69,1.76,1.64,1.76a2.22,2.22,0,0,0,1.41-.37,1.31,1.31,0,0,0,.46-1.1c0-.49-.85-1.19-2.54-2.1a5.67,5.67,0,0,1-2.41-1.85,3.93,3.93,0,0,1-.32-1.57,3.53,3.53,0,0,1,3.51-3.51h1.74Q416.37,81.73,416.58,85.22Z" transform="translate(-1.74 -2.63)"/><path d="M420.06,94V90.47h3.51V94Z" transform="translate(-1.74 -2.63)"/></g></g></svg>