<svg xmlns="http://www.w3.org/2000/svg" viewBox="0 0 119 15.75"><title>conclusion</title><g id="图层_2" data-name="图层 2"><g id="图层_1-2" data-name="图层 1"><path d="M12.24,14.87Q12,18.38,8.76,18.38H5.25a3.43,3.43,0,0,1-2.47-1,3.39,3.39,0,0,1-1-2.48V6.13a3.42,3.42,0,0,1,1-2.47,3.37,3.37,0,0,1,2.49-1H8.76c2.19,0,3.36,1.17,3.48,3.51H10.5C10.36,5,9.78,4.37,8.76,4.37H7A1.74,1.74,0,0,0,5.25,6.13v8.74a1.73,1.73,0,0,0,.51,1.24A1.68,1.68,0,0,0,7,16.63H8.76c1,0,1.61-.59,1.74-1.76Z" transform="translate(-1.74 -2.63)"/><path d="M19.26,6.13h3.5a3.52,3.52,0,0,1,3.49,3.49v5.25a3.39,3.39,0,0,1-1,2.47,3.35,3.35,0,0,1-2.46,1h-3.5a3.53,3.53,0,0,1-3.51-3.51V9.62a3.37,3.37,0,0,1,1-2.46A3.4,3.4,0,0,1,19.26,6.13Zm0,3.49v5.25a1.73,1.73,0,0,0,.51,1.24,1.65,1.65,0,0,0,1.23.52,1.68,1.68,0,0,0,1.25-.52,1.73,1.73,0,0,0,.51-1.24V9.62a1.68,1.68,0,0,0-.51-1.23A1.71,1.71,0,0,0,21,7.88a1.74,1.74,0,0,0-1.74,1.74Z" transform="translate(-1.74 -2.63)"/><path d="M29.76,18.38V6.13h3.5V7.88a2.18,2.18,0,0,1,.55-1.32A1.66,1.66,0,0,1,35,6.13h1.76a3.52,3.52,0,0,1,3.49,3.49v8.76H36.77V9.62a1.68,1.68,0,0,0-.51-1.23A1.72,1.72,0,0,0,35,7.88a1.76,1.76,0,0,0-1.75,1.74v8.76Z" transform="translate(-1.74 -2.63)"/><path d="M52.52,9.62H50.78Q50.57,7.88,49,7.88a1.67,1.67,0,0,0-1.22.51,1.65,1.65,0,0,0-.52,1.23v5.25a1.7,1.7,0,0,0,.52,1.24,1.64,1.64,0,0,0,1.22.52c1,0,1.63-.59,1.77-1.76h1.74q-.21,3.51-3.51,3.51H47.27a3.43,3.43,0,0,1-2.47-1,3.39,3.39,0,0,1-1-2.48V9.62a3.37,3.37,0,0,1,1-2.46,3.43,3.43,0,0,1,2.47-1H49C51.23,6.13,52.39,7.29,52.52,9.62Z" transform="translate(-1.74 -2.63)"/><path d="M56,18.38V2.62h3.5V18.38Z" transform="translate(-1.74 -2.63)"/><path d="M73.5,6.13V18.38H70V16.63c-.14,1.16-.73,1.75-1.76,1.75H66.51A3.53,3.53,0,0,1,63,14.87V6.13h3.51v8.74A1.73,1.73,0,0,0,67,16.11a1.65,1.65,0,0,0,1.23.52,1.68,1.68,0,0,0,1.25-.52A1.73,1.73,0,0,0,70,14.87V6.13Z" transform="translate(-1.74 -2.63)"/><path d="M85.76,9.62H84c-.15-1.16-.71-1.74-1.66-1.74A2.24,2.24,0,0,0,81,8.24a1.33,1.33,0,0,0-.46,1.08c0,.51.85,1.22,2.54,2.12a5.63,5.63,0,0,1,2.4,1.85,4,4,0,0,1,.31,1.58,3.52,3.52,0,0,1-3.5,3.51H80.51c-2.34,0-3.5-1.17-3.5-3.51h1.76c.14,1.17.69,1.76,1.64,1.76a2.17,2.17,0,0,0,1.4-.37,1.31,1.31,0,0,0,.47-1.1c0-.49-.85-1.19-2.54-2.1a5.67,5.67,0,0,1-2.41-1.85A3.77,3.77,0,0,1,77,9.64a3.34,3.34,0,0,1,1-2.48,3.39,3.39,0,0,1,2.46-1h1.75Q85.55,6.13,85.76,9.62Z" transform="translate(-1.74 -2.63)"/><path d="M89.25,4.37V2.62h3.51V4.37Zm0,14V6.13h3.51V18.38Z" transform="translate(-1.74 -2.63)"/><path d="M99.75,6.13h3.5a3.52,3.52,0,0,1,3.49,3.49v5.25a3.39,3.39,0,0,1-1,2.47,3.33,3.33,0,0,1-2.46,1h-3.5a3.53,3.53,0,0,1-3.51-3.51V9.62a3.37,3.37,0,0,1,1-2.46A3.42,3.42,0,0,1,99.75,6.13Zm0,3.49v5.25a1.73,1.73,0,0,0,.51,1.24,1.74,1.74,0,0,0,2.48,0,1.73,1.73,0,0,0,.51-1.24V9.62a1.68,1.68,0,0,0-.51-1.23,1.76,1.76,0,0,0-2.48,0A1.68,1.68,0,0,0,99.75,9.62Z" transform="translate(-1.74 -2.63)"/><path d="M110.25,18.38V6.13h3.5V7.88a2.18,2.18,0,0,1,.55-1.32,1.66,1.66,0,0,1,1.2-.43h1.76a3.52,3.52,0,0,1,3.49,3.49v8.76h-3.49V9.62a1.68,1.68,0,0,0-.51-1.23,1.72,1.72,0,0,0-1.25-.51,1.76,1.76,0,0,0-1.75,1.74v8.76Z" transform="translate(-1.74 -2.63)"/></g></g></svg>