<svg xmlns="http://www.w3.org/2000/svg" viewBox="0 0 305.27 122.87"><title>CR2</title><g id="图层_2" data-name="图层 2"><g id="图层_1-2" data-name="图层 1"><path d="M2.3,12.08V1.73H4.6V12.08Z" transform="translate(-1 -1.73)"/><path d="M8.05,12.08V4h2.3V5.18a1.46,1.46,0,0,1,.36-.87A1.08,1.08,0,0,1,11.5,4h1.16a2.21,2.21,0,0,1,1.61.68A2.21,2.21,0,0,1,15,6.32v5.76H12.66V6.32A1.14,1.14,0,0,0,11.5,5.18a1.14,1.14,0,0,0-1.15,1.14v5.76Z" transform="translate(-1 -1.73)"/><path d="M18.41,12.08V5.18H17.25V4h1.16V3.92a2.1,2.1,0,0,1,.65-1.55,2.09,2.09,0,0,1,1.54-.64H23V2.87H21.75a1,1,0,0,0-.74.31,1,1,0,0,0-.31.74V4h1.16V5.18H20.7v6.9Z" transform="translate(-1 -1.73)"/><path d="M26.46,4h2.3a2.21,2.21,0,0,1,1.61.68,2.17,2.17,0,0,1,.68,1.61V9.77a2.34,2.34,0,0,1-2.29,2.31h-2.3a2.25,2.25,0,0,1-1.63-.68,2.22,2.22,0,0,1-.68-1.63V6.32a2.21,2.21,0,0,1,.68-1.61A2.25,2.25,0,0,1,26.46,4Zm0,2.29V9.77a1.16,1.16,0,0,0,.33.82,1.15,1.15,0,0,0,1.63,0,1.13,1.13,0,0,0,.34-.82V6.32a1.1,1.1,0,0,0-.34-.81,1.15,1.15,0,0,0-2,.81Z" transform="translate(-1 -1.73)"/><path d="M40.25,4v9.19A2.32,2.32,0,0,1,38,15.53h-2.3q-2,0-2.31-2.31h1.16c.06.77.44,1.16,1.15,1.16H36.8a1.08,1.08,0,0,0,.82-.34,1.09,1.09,0,0,0,.34-.82V10.93c-.09.76-.47,1.15-1.16,1.15H35.66A2.21,2.21,0,0,1,34,11.4a2.19,2.19,0,0,1-.69-1.63V6.32A2.18,2.18,0,0,1,34,4.71,2.21,2.21,0,0,1,35.66,4ZM38,5.18H36.8a1.14,1.14,0,0,0-1.14,1.14V9.77a1.13,1.13,0,0,0,.34.82,1.07,1.07,0,0,0,.8.34,1.08,1.08,0,0,0,.82-.34A1.13,1.13,0,0,0,38,9.77Z" transform="translate(-1 -1.73)"/><path d="M44.86,12.08h-2.3V4h2.3V6.32a2.91,2.91,0,0,1,.71-1.72A2.19,2.19,0,0,1,47.17,4h1.14V6.32H46a1.1,1.1,0,0,0-.81.34,1.15,1.15,0,0,0-.34.82Z" transform="translate(-1 -1.73)"/><path d="M54.07,7.48V6.32a1.1,1.1,0,0,0-.34-.81,1.14,1.14,0,0,0-.82-.33H51.76q-1,0-1.14,1.14H49.46c.18-1.53.95-2.29,2.3-2.29h2.31a2.21,2.21,0,0,1,1.61.68,2.21,2.21,0,0,1,.68,1.61v5.76H54.07V10.93c-.09.76-.48,1.15-1.16,1.15H51.76a2.25,2.25,0,0,1-1.62-.68,2.27,2.27,0,0,1,0-3.24,2.25,2.25,0,0,1,1.62-.68Zm0,1.15H52.91a1.14,1.14,0,0,0-1.15,1.14,1.17,1.17,0,0,0,.34.82,1.15,1.15,0,0,0,1.63,0,1.13,1.13,0,0,0,.34-.82Z" transform="translate(-1 -1.73)"/><path d="M58.66,4H61V5.18a1.14,1.14,0,0,1,.29-.87A1.16,1.16,0,0,1,62.11,4h1.16a2.3,2.3,0,0,1,2.29,2.29V9.77a2.3,2.3,0,0,1-2.29,2.31H61v2.3H58.66ZM61,10.93h1.14a1.16,1.16,0,0,0,1.16-1.16V6.32a1.1,1.1,0,0,0-.34-.81,1.12,1.12,0,0,0-.82-.33A1.14,1.14,0,0,0,61,6.32Z" transform="translate(-1 -1.73)"/><path d="M67.87,12.08V1.73h2.3V5.18a1.46,1.46,0,0,1,.36-.87A1.08,1.08,0,0,1,71.32,4h1.16a2.21,2.21,0,0,1,1.61.68,2.21,2.21,0,0,1,.68,1.61v5.76H72.48V6.32a1.14,1.14,0,0,0-1.16-1.14,1.12,1.12,0,0,0-.81.33,1.1,1.1,0,0,0-.34.81v5.76Z" transform="translate(-1 -1.73)"/><path d="M77.07,2.87V1.73h2.31V2.87Zm0,9.21V4h2.31v8.05Z" transform="translate(-1 -1.73)"/><path d="M87.42,6.32H86.28c-.1-.76-.48-1.14-1.16-1.14a1.12,1.12,0,0,0-.81.33,1.1,1.1,0,0,0-.34.81V9.77a1.13,1.13,0,0,0,.34.82,1.09,1.09,0,0,0,.81.34c.68,0,1.06-.39,1.16-1.16h1.14c-.09,1.54-.86,2.31-2.3,2.31H84a2.25,2.25,0,0,1-1.62-.68,2.18,2.18,0,0,1-.68-1.63V6.32a2.17,2.17,0,0,1,.68-1.61A2.25,2.25,0,0,1,84,4h1.15A2.1,2.1,0,0,1,87.42,6.32Z" transform="translate(-1 -1.73)"/><path d="M1,26.48v-9H5a1.89,1.89,0,0,1,1.41.59A2,2,0,0,1,7,19.48v5a1.93,1.93,0,0,1-.59,1.41,1.9,1.9,0,0,1-1.41.6Zm2-1H4a1,1,0,0,0,1-1v-5a.94.94,0,0,0-.29-.71,1,1,0,0,0-.71-.3H3Z" transform="translate(-1 -1.73)"/><path d="M15,23.48H11v1a1,1,0,0,0,.3.71.94.94,0,0,0,.7.3h1a.89.89,0,0,0,1-1h1c-.15,1.34-.82,2-2,2H11a2,2,0,0,1-2-2v-3a1.92,1.92,0,0,1,.59-1.4A2,2,0,0,1,11,19.48h2a2,2,0,0,1,2,2Zm-4-1h2v-1a1,1,0,0,0-.3-.7,1,1,0,0,0-1.41,0,1,1,0,0,0-.3.7Z" transform="translate(-1 -1.73)"/><path d="M22,21.47H21c-.09-.66-.4-1-1-1a1.26,1.26,0,0,0-.79.21.74.74,0,0,0-.26.61c0,.29.48.7,1.45,1.22a3.17,3.17,0,0,1,1.37,1.05,2.26,2.26,0,0,1,.18.9,2,2,0,0,1-2,2H19a1.78,1.78,0,0,1-2-2h1c.08.67.39,1,.94,1a1.25,1.25,0,0,0,.8-.21.75.75,0,0,0,.27-.63c0-.28-.49-.68-1.46-1.2a3.17,3.17,0,0,1-1.37-1.06,2.27,2.27,0,0,1-.19-.9,1.9,1.9,0,0,1,.6-1.41A1.93,1.93,0,0,1,19,19.48h1A1.83,1.83,0,0,1,22,21.47Z" transform="translate(-1 -1.73)"/><path d="M24,18.47v-1h2v1Zm0,8v-7h2v7Z" transform="translate(-1 -1.73)"/><path d="M34,19.48v8a1.93,1.93,0,0,1-.59,1.41,1.9,1.9,0,0,1-1.41.6H30c-1.18,0-1.84-.67-2-2h1c.05.67.38,1,1,1h1a1,1,0,0,0,.71-.29,1,1,0,0,0,.29-.72v-2c-.08.66-.41,1-1,1H30a2,2,0,0,1-1.41-.59A1.91,1.91,0,0,1,28,24.47v-3a1.88,1.88,0,0,1,.59-1.4A2,2,0,0,1,30,19.48Zm-2,1H31a1,1,0,0,0-.71.29,1,1,0,0,0-.29.7v3a1,1,0,0,0,.29.71A1,1,0,0,0,32,24.47Z" transform="translate(-1 -1.73)"/><path d="M36,26.48v-7h2v1a1.19,1.19,0,0,1,.32-.75.89.89,0,0,1,.68-.25h1a2,2,0,0,1,2,2v5H40v-5a1,1,0,0,0-.3-.7,1,1,0,0,0-1.41,0,1,1,0,0,0-.3.7v5Z" transform="translate(-1 -1.73)"/><path d="M50,23.48H46v1a1,1,0,0,0,.29.71,1,1,0,0,0,.7.3h1a.89.89,0,0,0,1-1h1c-.15,1.34-.81,2-2,2H46a2,2,0,0,1-2-2v-3a1.89,1.89,0,0,1,.6-1.4A1.93,1.93,0,0,1,46,19.48h2a1.94,1.94,0,0,1,1.41.59,1.91,1.91,0,0,1,.58,1.4Zm-4-1h2v-1a1,1,0,0,0-.29-.7,1,1,0,0,0-.72-.29.94.94,0,0,0-.7.29,1,1,0,0,0-.29.7Z" transform="translate(-1 -1.73)"/><path d="M58,26.48H56v-1c-.08.66-.42,1-1,1H54a2,2,0,0,1-2-2v-3a1.92,1.92,0,0,1,.59-1.4A2,2,0,0,1,54,19.48h2v-2h2Zm-2-6H55a.93.93,0,0,0-.7.29,1,1,0,0,0-.3.7v3a1,1,0,0,0,.3.71,1,1,0,0,0,1.41,0,1,1,0,0,0,.3-.71Z" transform="translate(-1 -1.73)"/><path d="M64,26.48v-6H63v-1h1v-.1a1.91,1.91,0,0,1,1.91-1.9H68v1h-1.1a.92.92,0,0,0-.91.91v.1h1v1H66v6Z" transform="translate(-1 -1.73)"/><path d="M71,19.48h2a1.92,1.92,0,0,1,1.4.59,1.88,1.88,0,0,1,.59,1.4v3a2,2,0,0,1-2,2H71a2,2,0,0,1-2-2v-3a1.89,1.89,0,0,1,.6-1.4A1.93,1.93,0,0,1,71,19.48Zm0,2v3a1,1,0,0,0,.29.71,1,1,0,0,0,.7.3,1,1,0,0,0,.72-.3,1,1,0,0,0,.29-.71v-3a1,1,0,0,0-.29-.7,1,1,0,0,0-.72-.29,1,1,0,0,0-1,1Z" transform="translate(-1 -1.73)"/><path d="M79,26.48H77v-7h2v2A2.47,2.47,0,0,1,79.64,20a1.87,1.87,0,0,1,1.38-.5h1v2H80a1,1,0,0,0-.71.3,1,1,0,0,0-.29.71Z" transform="translate(-1 -1.73)"/><path d="M92,24.47c-.08,1.34-.75,2-2,2H88a2,2,0,0,1-1.41-.59A1.91,1.91,0,0,1,86,24.47v-5a2,2,0,0,1,.58-1.41A1.89,1.89,0,0,1,88,17.48h2c1.26,0,1.92.66,2,2H91c-.08-.67-.41-1-1-1H89a1,1,0,0,0-.71.3,1,1,0,0,0-.29.71v5a1,1,0,0,0,.29.71,1,1,0,0,0,.71.3h1c.6,0,.93-.34,1-1Z" transform="translate(-1 -1.73)"/><path d="M96,19.48h2a2,2,0,0,1,2,2v3a1.93,1.93,0,0,1-.59,1.41,1.89,1.89,0,0,1-1.4.6H96a2,2,0,0,1-2-2v-3a1.92,1.92,0,0,1,.59-1.4A2,2,0,0,1,96,19.48Zm0,2v3a1,1,0,0,0,.3.71,1,1,0,0,0,1.41,0,1,1,0,0,0,.3-.71v-3a1,1,0,0,0-.3-.7,1,1,0,0,0-1.41,0A1,1,0,0,0,96,21.47Z" transform="translate(-1 -1.73)"/><path d="M102,26.48v-9h2v9Z" transform="translate(-1 -1.73)"/><path d="M106,26.48v-9h2v9Z" transform="translate(-1 -1.73)"/><path d="M116,23.48h-4v1a1,1,0,0,0,.29.71,1,1,0,0,0,.71.3h1a.89.89,0,0,0,1-1h1c-.16,1.34-.82,2-2,2h-2a2,2,0,0,1-1.41-.59,1.91,1.91,0,0,1-.59-1.42v-3a1.88,1.88,0,0,1,.59-1.4,2,2,0,0,1,1.41-.59h2a2,2,0,0,1,2,2Zm-4-1h2v-1a1,1,0,0,0-1.71-.7,1,1,0,0,0-.29.7Z" transform="translate(-1 -1.73)"/><path d="M123,21.47h-1c-.08-.66-.42-1-1-1a.93.93,0,0,0-.7.29,1,1,0,0,0-.3.7v3a1,1,0,0,0,.3.71.94.94,0,0,0,.7.3c.59,0,.93-.34,1-1h1c-.08,1.34-.74,2-2,2h-1a2,2,0,0,1-2-2v-3a1.92,1.92,0,0,1,.59-1.4,2,2,0,0,1,1.41-.59h1A1.82,1.82,0,0,1,123,21.47Z" transform="translate(-1 -1.73)"/><path d="M126,17.48h2v2h1v1h-1v4a.88.88,0,0,0,.32.75,1,1,0,0,0,.59.26H129v1h-1a1.93,1.93,0,0,1-1.41-.59,2,2,0,0,1-.59-1.42v-4h-1v-1h1Z" transform="translate(-1 -1.73)"/><path d="M131,18.47v-1h2v1Zm0,8v-7h2v7Z" transform="translate(-1 -1.73)"/><path d="M139,19.48h2v3.58a3.43,3.43,0,0,1-3.41,3.42H135v-7h2v6h1a1,1,0,0,0,.72-.3,1,1,0,0,0,.29-.71Z" transform="translate(-1 -1.73)"/><path d="M149,23.48h-4v1a1,1,0,0,0,.29.71,1,1,0,0,0,.71.3h1a.89.89,0,0,0,1-1h1c-.16,1.34-.82,2-2,2h-2a2,2,0,0,1-1.41-.59,1.91,1.91,0,0,1-.59-1.42v-3a1.88,1.88,0,0,1,.59-1.4,2,2,0,0,1,1.41-.59h2a2,2,0,0,1,2,2Zm-4-1h2v-1a1,1,0,0,0-1.71-.7,1,1,0,0,0-.29.7Z" transform="translate(-1 -1.73)"/><path d="M154,26.48v-9h4a1.88,1.88,0,0,1,1.4.59,2,2,0,0,1,.59,1.41V20a2.1,2.1,0,0,1-.46,1.29,1.77,1.77,0,0,1-1.53.62h1a1,1,0,0,1,1,1v3.54h-2v-3a1,1,0,0,0-.3-.71,1,1,0,0,0-.71-.29h-1v4Zm2-5h1a1,1,0,0,0,.71-.29,1,1,0,0,0,.3-.7v-1a1,1,0,0,0-1-1h-1Z" transform="translate(-1 -1.73)"/><path d="M168,23.48h-4v1a1,1,0,0,0,.29.71,1,1,0,0,0,.7.3h1a.89.89,0,0,0,1-1h1c-.15,1.34-.81,2-2,2h-2a2,2,0,0,1-2-2v-3a1.89,1.89,0,0,1,.6-1.4,1.93,1.93,0,0,1,1.41-.59h2a1.94,1.94,0,0,1,1.41.59,1.91,1.91,0,0,1,.58,1.4Zm-4-1h2v-1a1,1,0,0,0-.29-.7,1,1,0,0,0-.72-.29,1,1,0,0,0-1,1Z" transform="translate(-1 -1.73)"/><path d="M175,21.47h-1c-.09-.66-.41-1-.95-1a1.29,1.29,0,0,0-.8.21.74.74,0,0,0-.26.61c0,.29.49.7,1.45,1.22a3.11,3.11,0,0,1,1.37,1.05,2.26,2.26,0,0,1,.18.9,2,2,0,0,1-.59,1.42,1.93,1.93,0,0,1-1.41.59h-1a1.77,1.77,0,0,1-2-2h1c.08.67.39,1,.93,1a1.31,1.31,0,0,0,.81-.21.77.77,0,0,0,.26-.63c0-.28-.49-.68-1.45-1.2a3.22,3.22,0,0,1-1.38-1.06,2.26,2.26,0,0,1-.18-.9,1.93,1.93,0,0,1,.59-1.41,2,2,0,0,1,1.41-.59h1A1.83,1.83,0,0,1,175,21.47Z" transform="translate(-1 -1.73)"/><path d="M177,19.48h2v1a1,1,0,0,1,.25-.75,1,1,0,0,1,.74-.25h1a1.94,1.94,0,0,1,1.41.59,1.91,1.91,0,0,1,.58,1.4v3a2,2,0,0,1-2,2h-2v2h-2Zm2,6h1a1,1,0,0,0,1-1v-3a1,1,0,0,0-.29-.7,1,1,0,0,0-.72-.29,1,1,0,0,0-1,1Z" transform="translate(-1 -1.73)"/><path d="M187,19.48h2a2,2,0,0,1,2,2v3a1.93,1.93,0,0,1-.59,1.41,1.89,1.89,0,0,1-1.4.6h-2a2,2,0,0,1-2-2v-3a1.92,1.92,0,0,1,.59-1.4A2,2,0,0,1,187,19.48Zm0,2v3a1,1,0,0,0,.3.71.92.92,0,0,0,.7.3,1,1,0,0,0,.71-.3,1,1,0,0,0,.3-.71v-3a1,1,0,0,0-1-1,.91.91,0,0,0-.7.29A1,1,0,0,0,187,21.47Z" transform="translate(-1 -1.73)"/><path d="M193,26.48v-7h2v1a1.18,1.18,0,0,1,.31-.75.91.91,0,0,1,.68-.25h1a2,2,0,0,1,2,2v5h-2v-5a1,1,0,0,0-.29-.7,1,1,0,0,0-.72-.29,1,1,0,0,0-1,1v5Z" transform="translate(-1 -1.73)"/><path d="M206,21.47h-1c-.08-.66-.4-1-.95-1a1.26,1.26,0,0,0-.79.21.74.74,0,0,0-.26.61c0,.29.48.7,1.45,1.22a3.17,3.17,0,0,1,1.37,1.05,2.26,2.26,0,0,1,.18.9,2,2,0,0,1-.59,1.42,1.93,1.93,0,0,1-1.41.59h-1a1.77,1.77,0,0,1-2-2h1c.08.67.39,1,.94,1a1.25,1.25,0,0,0,.8-.21.75.75,0,0,0,.27-.63c0-.28-.49-.68-1.46-1.2a3.17,3.17,0,0,1-1.37-1.06,2.26,2.26,0,0,1-.18-.9,1.89,1.89,0,0,1,.59-1.41,2,2,0,0,1,1.41-.59h1A1.83,1.83,0,0,1,206,21.47Z" transform="translate(-1 -1.73)"/><path d="M208,18.47v-1h2v1Zm0,8v-7h2v7Z" transform="translate(-1 -1.73)"/><path d="M212,26.48v-9h2v3a1.18,1.18,0,0,1,.31-.75.93.93,0,0,1,.69-.25h1a2,2,0,0,1,2,2v3a1.93,1.93,0,0,1-.59,1.41,1.89,1.89,0,0,1-1.4.6Zm2-1h1a1,1,0,0,0,.71-.3,1,1,0,0,0,.3-.71v-3a1,1,0,0,0-1-1,.91.91,0,0,0-.7.29,1,1,0,0,0-.3.7Z" transform="translate(-1 -1.73)"/><path d="M220,18.47v-1h2v1Zm0,8v-7h2v7Z" transform="translate(-1 -1.73)"/><path d="M224,26.48v-9h2v9Z" transform="translate(-1 -1.73)"/><path d="M228,18.47v-1h2v1Zm0,8v-7h2v7Z" transform="translate(-1 -1.73)"/><path d="M233,17.48h2v2h1v1h-1v4a.91.91,0,0,0,.32.75,1,1,0,0,0,.59.26h.1v1h-1a2,2,0,0,1-2-2v-4h-1v-1h1Z" transform="translate(-1 -1.73)"/><path d="M239,27.47c.05.67.38,1,1,1h1a1,1,0,0,0,1-1v-2c-.08.66-.42,1-1,1h-1a2,2,0,0,1-2-2v-5h2v5a1,1,0,0,0,.3.71,1,1,0,0,0,1.41,0,1,1,0,0,0,.3-.71v-5h2v8a1.93,1.93,0,0,1-.59,1.41,1.89,1.89,0,0,1-1.4.6h-2c-1.17,0-1.84-.67-2-2Z" transform="translate(-1 -1.73)"/><path d="M6.7,56.76a4.21,4.21,0,0,1-2.3.8c-2.37,0-2.17-2.87-1.78-4.7S4,48.11,6.32,48.11a2.07,2.07,0,0,1,2,1.48l-.92.49A1.39,1.39,0,0,0,6.07,49c-1.53,0-2.26,2.81-2.5,3.9-.67,3.16.11,3.81,1,3.81a2.51,2.51,0,0,0,1.3-.43l.59-2.77H4.76l.18-.83H7.59Z" transform="translate(-1 -1.73)"/><path d="M12.16,50.25h.92l-1.35,6.36h3.76l-.17.83h-4.7Z" transform="translate(-1 -1.73)"/><path d="M24,53.85c-.13.58-.83,3.71-3.34,3.71-1.16,0-2.37-.83-1.76-3.71s2.16-3.73,3.35-3.73S24.63,51,24,53.85Zm-4.14,0c-.22,1-.41,2.84,1,2.84s2-1.79,2.19-2.84.42-2.86-1-2.86S20.11,52.79,19.87,53.85Z" transform="translate(-1 -1.73)"/><path d="M26.52,57.44l.18-.83h.75l1.17-5.53h-.74l.17-.83h2.27c1.82,0,2.45.69,2.19,1.92a2,2,0,0,1-1.13,1.47,1.39,1.39,0,0,1,.87,1.74,2.6,2.6,0,0,1-2.8,2.06Zm2.93-.83c.81,0,1.61-.18,1.82-1.16a1,1,0,0,0-1.08-1.3H28.9l-.53,2.46Zm.65-3.29a1.4,1.4,0,0,0,1.44-1.15c.18-.86-.37-1.09-1-1.09h-1l-.48,2.24Z" transform="translate(-1 -1.73)"/><path d="M36.4,55.48l-1.13,2.13-.84-.33,3.77-7h1.18l.76,7-1,.33L39,55.48Zm2.16-4.16-1.73,3.33h2Z" transform="translate(-1 -1.73)"/><path d="M45.28,50.25h.92l-1.35,6.36h3.77l-.18.83H43.75Z" transform="translate(-1 -1.73)"/><path d="M65,56.06a3.64,3.64,0,0,1-2.7,1.5c-2.4,0-2.14-2.9-1.76-4.72s1.37-4.73,3.77-4.73a1.93,1.93,0,0,1,1.93,1.49l-.88.47A1.31,1.31,0,0,0,64.09,49c-1.69,0-2.35,2.65-2.61,3.86s-.72,3.85,1,3.85a2.71,2.71,0,0,0,1.87-1.16Z" transform="translate(-1 -1.73)"/><path d="M73.69,53.85c-.12.58-.83,3.71-3.34,3.71-1.16,0-2.37-.83-1.76-3.71s2.16-3.73,3.35-3.73S74.31,51,73.69,53.85Zm-4.14,0c-.22,1-.41,2.84,1,2.84s2-1.79,2.2-2.84.41-2.86-1-2.86S69.79,52.79,69.55,53.85Z" transform="translate(-1 -1.73)"/><path d="M78.29,51.61h0l-1.42,5.83h-1l1.82-7.19H78.9l.63,3.12,2-3.12H82.7l-1.24,7.19h-1l1.06-5.83h0l-2.43,3.8Z" transform="translate(-1 -1.73)"/><path d="M85.92,55.16c0,.88.28,1.53,1.24,1.53a1.56,1.56,0,0,0,1.62-1.21c.19-.89-.51-1.11-1.15-1.4-1-.44-1.89-.71-1.6-2.07a2.48,2.48,0,0,1,2.51-1.89,1.67,1.67,0,0,1,1.81,1.81l-.94.26c0-.7-.29-1.2-1.08-1.2A1.32,1.32,0,0,0,87,52c-.15.67.22.88.72,1.11l1.39.68a1.46,1.46,0,0,1,.63,1.68A2.65,2.65,0,0,1,87,57.56,1.82,1.82,0,0,1,85,55.42Z" transform="translate(-1 -1.73)"/><path d="M95.43,50.25l-1.05,4.9c-.22,1,0,1.54.92,1.54,1.16,0,1.52-.51,1.74-1.54l1-4.9H99l-1.14,5.34a2.6,2.6,0,0,1-2.68,2c-1.56,0-2-1-1.82-2l1.13-5.28Z" transform="translate(-1 -1.73)"/><path d="M103.13,51.61h0l-1.42,5.83h-1l1.82-7.19h1.22l.63,3.12,2-3.12h1.21l-1.24,7.19h-1l1.06-5.83h0l-2.43,3.8Z" transform="translate(-1 -1.73)"/><path d="M110.8,57.44h-.92l1.53-7.19h2.23c1.67,0,2.13.91,1.91,2A2.59,2.59,0,0,1,113,54.35h-1.55Zm2.1-3.92a1.5,1.5,0,0,0,1.65-1.24c.21-1-.37-1.2-1.13-1.2h-1.27l-.52,2.44Z" transform="translate(-1 -1.73)"/><path d="M121,51.08h-2l.18-.83H124l-.18.83H121.9l-1.36,6.36h-.92Z" transform="translate(-1 -1.73)"/><path d="M127.05,56.61h1l1.17-5.53h-1l.18-.83h2.95l-.18.83h-1L129,56.61h1l-.18.83h-2.95Z" transform="translate(-1 -1.73)"/><path d="M139.93,53.85c-.12.58-.82,3.71-3.34,3.71-1.15,0-2.37-.83-1.76-3.71s2.17-3.73,3.35-3.73S140.55,51,139.93,53.85Zm-4.14,0c-.22,1-.41,2.84,1,2.84s2-1.79,2.2-2.84.41-2.86-1-2.86S136,52.79,135.79,53.85Z" transform="translate(-1 -1.73)"/><path d="M144,50.25h1.15l1.49,6,0,0,.32-1.87.88-4.16h.92l-1.53,7.19h-1.14l-1.51-6.06,0,0-.32,1.87-.88,4.16h-.93Z" transform="translate(-1 -1.73)"/><path d="M164.77,53.85c-.12.58-.82,3.71-3.33,3.71-1.16,0-2.38-.83-1.77-3.71s2.17-3.73,3.35-3.73S165.39,51,164.77,53.85Zm-4.13,0c-.22,1-.42,2.84,1,2.84s2-1.79,2.19-2.84.41-2.86-1-2.86S160.87,52.79,160.64,53.85Z" transform="translate(-1 -1.73)"/><path d="M169.56,50.25h4.53l-.18.83h-3.6l-.46,2.15h3l-.18.83h-3L169,57.44H168Z" transform="translate(-1 -1.73)"/><path d="M189.59,48.23h1.16l-1.69,9.21h-1l1.45-7.67h0L187,54.39l-.59-4.62h0l-1.81,7.67h-1l2.23-9.21h1.15l.5,3.91Z" transform="translate(-1 -1.73)"/><path d="M194.14,50.25h4.49l-.18.83h-3.56l-.46,2.15h2.94l-.18.83h-2.94l-.53,2.55h3.55l-.18.83h-4.48Z" transform="translate(-1 -1.73)"/><path d="M202,55.48l-1.13,2.13-.84-.33,3.76-7H205l.76,7-1,.33-.21-2.13Zm2.15-4.16-1.72,3.33h2Z" transform="translate(-1 -1.73)"/><path d="M212.06,51.08h-2l.18-.83h4.85l-.18.83H213l-1.35,6.36h-.93Z" transform="translate(-1 -1.73)"/><path d="M226.85,55.48l-1.13,2.13-.84-.33,3.76-7h1.19l.76,7-1,.33-.21-2.13ZM229,51.32l-1.72,3.33h2Z" transform="translate(-1 -1.73)"/><path d="M235.12,50.25h1.14l1.49,6,0,0,.32-1.87.88-4.16h.93l-1.53,7.19h-1.15l-1.5-6.06,0,0-.32,1.87-.88,4.16h-.92Z" transform="translate(-1 -1.73)"/><path d="M243.3,50.25h2.4c2,0,2.79.84,2.22,3.5-.48,2.25-1.17,3.69-3.75,3.69h-2.4l.18-.83h.74l1.18-5.53h-.75Zm.32,6.36h1c1.21,0,1.89-.69,2.33-2.76s0-2.77-1.19-2.77h-1Z" transform="translate(-1 -1.73)"/><path d="M264.11,48.23h1.16l-1.68,9.21h-1l1.44-7.67h0l-2.56,4.62-.59-4.62h0l-1.8,7.67h-1l2.24-9.21h1.14l.5,3.91Z" transform="translate(-1 -1.73)"/><path d="M267.81,56.61h1L270,51.08h-1l.18-.83h2.95l-.18.83h-1l-1.17,5.53h1l-.18.83h-2.95Z" transform="translate(-1 -1.73)"/><path d="M277.12,50.25h.93l-1.35,6.36h3.76l-.18.83h-4.69Z" transform="translate(-1 -1.73)"/><path d="M285.57,53.31h.35l3.15-3.24.58.55-3,3L288.7,57l-.82.59-2.16-3.54h-.31l-.72,3.37h-.93l1.53-7.19h.93Z" transform="translate(-1 -1.73)"/><path d="M3.16,74H2.23l2-9.2h2c1.63,0,2.35.86,2,2.44a3,3,0,0,1-2.8,2.66H4Zm1-4.93H5.5c.86,0,1.49-.67,1.74-1.82S7,65.62,6,65.62H4.94Z" transform="translate(-1 -1.73)"/><path d="M11.87,66.81h2.44c1.2,0,2,.56,1.74,2a2.85,2.85,0,0,1-1.89,2l1.14,2.91-.91.49-1.14-3.26H11.91L11.26,74h-.92Zm1.43,3.28a1.71,1.71,0,0,0,1.78-1.32c.14-.65-.15-1.13-1-1.13H12.61l-.52,2.45Z" transform="translate(-1 -1.73)"/><path d="M24,70.41c-.13.58-.83,3.71-3.34,3.71-1.16,0-2.37-.83-1.76-3.71s2.16-3.73,3.35-3.73S24.63,67.51,24,70.41Zm-4.14,0c-.22,1-.41,2.84,1,2.84s2-1.79,2.19-2.84.42-2.86-1-2.86S20.11,69.35,19.87,70.41Z" transform="translate(-1 -1.73)"/><path d="M28,66.81h2.4c2.05,0,2.79.84,2.22,3.5C32.15,72.56,31.46,74,28.88,74h-2.4l.18-.83h.75l1.17-5.53h-.75Zm.32,6.36h1c1.21,0,1.89-.69,2.33-2.76s0-2.77-1.18-2.77h-1Z" transform="translate(-1 -1.73)"/><path d="M37.47,66.81l-1,4.9c-.22,1,0,1.54.92,1.54,1.16,0,1.52-.51,1.74-1.54l1.05-4.9h.92l-1.14,5.34a2.6,2.6,0,0,1-2.68,2c-1.56,0-2-1-1.82-2l1.13-5.28Z" transform="translate(-1 -1.73)"/><path d="M48.41,72.62a3.49,3.49,0,0,1-2.7,1.5c-2.1,0-2.35-1.93-2-3.71.61-2.87,2.32-3.73,3.48-3.73a1.86,1.86,0,0,1,1.94,1.54l-.93.42c-.18-.58-.49-1.09-1.19-1.09-1.44,0-2.1,1.74-2.33,2.85s-.35,2.85,1.12,2.85a2.56,2.56,0,0,0,1.94-1.16Z" transform="translate(-1 -1.73)"/><path d="M54.73,67.64h-2l.18-.83h4.86l-.18.83h-2L54.3,74h-.92Z" transform="translate(-1 -1.73)"/><path d="M61.08,71.72c0,.88.28,1.53,1.24,1.53A1.54,1.54,0,0,0,63.93,72c.2-.89-.51-1.11-1.14-1.4-1-.44-1.89-.71-1.6-2.07a2.48,2.48,0,0,1,2.51-1.89,1.67,1.67,0,0,1,1.81,1.81l-.94.26c0-.7-.29-1.2-1.08-1.2a1.32,1.32,0,0,0-1.36,1c-.15.67.22.88.71,1.11l1.4.68A1.46,1.46,0,0,1,64.87,72a2.65,2.65,0,0,1-2.73,2.14A1.82,1.82,0,0,1,60.2,72Z" transform="translate(-1 -1.73)"/><path d="M81.93,65.21a7.94,7.94,0,0,0-2.68,4.58A5.46,5.46,0,0,0,80,74.37l-.66.55a5.82,5.82,0,0,1-1-5.13,8.69,8.69,0,0,1,3.21-5.12Z" transform="translate(-1 -1.73)"/><path d="M88.28,65.62h-2l.18-.82h4.86l-.18.82h-2L87.42,74H86.5Z" transform="translate(-1 -1.73)"/><path d="M98.53,70.41c-.12.58-.83,3.71-3.34,3.71-1.15,0-2.37-.83-1.76-3.71s2.16-3.73,3.35-3.73S99.15,67.51,98.53,70.41Zm-4.14,0c-.22,1-.41,2.84,1,2.84s2-1.79,2.2-2.84.41-2.86-1-2.86S94.63,69.35,94.39,70.41Z" transform="translate(-1 -1.73)"/><path d="M102.52,74h-.92l1.53-7.19h2.23c1.67,0,2.13.91,1.91,2a2.58,2.58,0,0,1-2.54,2.14h-1.55Zm2.1-3.92a1.5,1.5,0,0,0,1.65-1.24c.21-1-.37-1.2-1.13-1.2h-1.27l-.52,2.44Z" transform="translate(-1 -1.73)"/><path d="M119.52,69.8a2.33,2.33,0,0,1,1.87-3.56,1.44,1.44,0,0,1,1.43,1.88c-.18.88-.72,1.42-2,2.15l1,1.84a3.44,3.44,0,0,0,.69-1.36l.87.18a5.07,5.07,0,0,1-1.14,2l.4.79-.82.51-.35-.68a3.16,3.16,0,0,1-1.78.61,1.66,1.66,0,0,1-1.74-2.1,3.22,3.22,0,0,1,1.72-1.94Zm.51.94A1.92,1.92,0,0,0,118.92,72a1,1,0,0,0,1,1.24,2,2,0,0,0,1.2-.45Zm.8-1.35a2.06,2.06,0,0,0,1.11-1.23c.12-.61-.13-1-.77-1a1.13,1.13,0,0,0-1.09,1,2,2,0,0,0,.42,1.54Z" transform="translate(-1 -1.73)"/><path d="M139.91,64.8h1.15L139.38,74h-1l1.45-7.67h0L137.27,71l-.59-4.62h0L134.84,74h-1l2.23-9.2h1.15l.49,3.9Z" transform="translate(-1 -1.73)"/><path d="M143.61,73.17h1l1.18-5.53h-1l.18-.83h2.95l-.18.83h-1l-1.17,5.53h1l-.18.83h-2.95Z" transform="translate(-1 -1.73)"/><path d="M152.22,66.81h2.4c2,0,2.78.84,2.22,3.5-.48,2.25-1.17,3.69-3.75,3.69h-2.4l.18-.83h.74l1.17-5.53H152Zm.32,6.36h1c1.22,0,1.89-.69,2.34-2.76s0-2.77-1.19-2.77h-.95Z" transform="translate(-1 -1.73)"/><path d="M162.59,64.67a5.76,5.76,0,0,1,1,5.12,8.84,8.84,0,0,1-3.21,5.13l-.45-.55a7.9,7.9,0,0,0,2.69-4.58,5.39,5.39,0,0,0-.74-4.58Z" transform="translate(-1 -1.73)"/><path d="M4.29,97.92h.92l-1.78,8.37H7.21l-.17.83H2.33Z" transform="translate(-1 -1.73)"/><path d="M12,99.93h4.48l-.18.83H12.72l-.45,2.15h2.94l-.18.83H12.09l-.54,2.55h3.56l-.18.83H10.45Z" transform="translate(-1 -1.73)"/><path d="M20.52,99.93H25l-.18.83h-3.6l-.45,2.15h3l-.18.83h-3l-.72,3.38H19Z" transform="translate(-1 -1.73)"/><path d="M29.89,100.76h-2l.18-.83h4.86l-.18.83H30.81l-1.35,6.36h-.92Z" transform="translate(-1 -1.73)"/><path d="M36.58,103.09h3.07l-.18.87H36.4Z" transform="translate(-1 -1.73)"/><path d="M43.08,107.12l.18-.83H44l1.6-7.55h-.75l.18-.82h2.82c1,0,1.86.84,1.54,2.31A2.51,2.51,0,0,1,48.05,102c.94.46,1.15,1.24.91,2.35-.41,1.91-1.64,2.76-2.91,2.76Zm3.11-.83c.83,0,1.52-.61,1.81-2s-.29-1.82-1.26-1.82h-1l-.8,3.77Zm.55-4.6a1.6,1.6,0,0,0,1.7-1.46c.23-1.13-.25-1.49-1.37-1.49h-.54l-.62,3Z" transform="translate(-1 -1.73)"/><path d="M53.38,99.93h4.48l-.18.83H54.12l-.45,2.15h2.94l-.18.83H53.49L53,106.29h3.56l-.18.83H51.85Z" transform="translate(-1 -1.73)"/><path d="M61.29,99.93h.92l-.63,3h2.84l.63-3H66l-1.53,7.19h-.93l.72-3.38H61.4l-.72,3.38h-.93Z" transform="translate(-1 -1.73)"/><path d="M69.08,106.29h1l1.17-5.53h-1l.18-.83h3l-.18.83h-1L71,106.29h1l-.18.83h-3Z" transform="translate(-1 -1.73)"/><path d="M77.79,99.93h1.15l1.49,6,0,0,.32-1.86.88-4.17h.92l-1.53,7.19H79.92l-1.51-6.06,0,0L78.07,103l-.89,4.16h-.92Z" transform="translate(-1 -1.73)"/><path d="M86,99.93h2.4c2,0,2.78.84,2.22,3.5-.49,2.25-1.18,3.69-3.76,3.69h-2.4l.18-.83h.75l1.17-5.53H85.8Zm.31,6.36h1c1.22,0,1.89-.69,2.33-2.76s0-2.77-1.18-2.77h-1Z" transform="translate(-1 -1.73)"/><path d="M106.37,105.74a3.64,3.64,0,0,1-2.7,1.5c-2.4,0-2.14-2.9-1.75-4.72s1.36-4.73,3.76-4.73a1.93,1.93,0,0,1,1.93,1.49l-.88.47a1.31,1.31,0,0,0-1.24-1.09c-1.69,0-2.35,2.65-2.61,3.86s-.72,3.85,1,3.85a2.71,2.71,0,0,0,1.87-1.16Z" transform="translate(-1 -1.73)"/><path d="M111,99.93h.92l-.63,3h2.84l.63-3h.93l-1.53,7.19h-.93l.72-3.38h-2.84l-.72,3.38h-.92Z" transform="translate(-1 -1.73)"/><path d="M118.77,106.29h1l1.18-5.53h-1l.18-.83h2.95l-.18.83h-1l-1.17,5.53h1l-.18.83h-3Z" transform="translate(-1 -1.73)"/><path d="M128.08,99.93H129l-1.35,6.36h3.77l-.18.83h-4.69Z" transform="translate(-1 -1.73)"/><path d="M135.66,99.93h2.4c2,0,2.78.84,2.22,3.5-.49,2.25-1.17,3.69-3.75,3.69h-2.4l.17-.83h.75l1.17-5.53h-.74Zm.31,6.36h1c1.22,0,1.89-.69,2.34-2.76s0-2.77-1.19-2.77h-.95Z" transform="translate(-1 -1.73)"/><path d="M144.35,99.93h2.44c1.2,0,2,.56,1.74,2a2.81,2.81,0,0,1-1.89,2l1.15,2.91-.91.49L145.73,104h-1.34l-.65,3.08h-.92Zm1.44,3.28a1.71,1.71,0,0,0,1.78-1.32c.13-.65-.16-1.13-1-1.13H145.1l-.53,2.45Z" transform="translate(-1 -1.73)"/><path d="M152.74,99.93h4.48l-.18.83h-3.55l-.46,2.15H156l-.18.83h-2.94l-.54,2.55h3.56l-.18.83h-4.48Z" transform="translate(-1 -1.73)"/><path d="M160.59,99.93h1.15l1.49,6,0,0,.32-1.86.88-4.17h.92l-1.53,7.19h-1.14l-1.51-6.06,0,0-.32,1.87-.88,4.16h-.93Z" transform="translate(-1 -1.73)"/><path d="M178.08,97.92h2.48c.91,0,1.89.78,1.53,2.44A3.28,3.28,0,0,1,180,103l1.06,3.94-.91.41L179,103h-1l-.87,4.1h-.92Zm0,4.27h1.35c.82,0,1.43-.59,1.69-1.83s-.24-1.62-1.17-1.62h-1.14Z" transform="translate(-1 -1.73)"/><path d="M185.86,99.93h4.49l-.18.83h-3.56l-.46,2.15h2.94l-.18.83H186l-.53,2.55H189l-.18.83h-4.48Z" transform="translate(-1 -1.73)"/><path d="M193.56,104.84c0,.88.28,1.53,1.24,1.53a1.56,1.56,0,0,0,1.62-1.21c.19-.89-.51-1.11-1.15-1.4-1-.44-1.89-.71-1.6-2.07a2.47,2.47,0,0,1,2.51-1.88,1.65,1.65,0,0,1,1.81,1.8l-.94.26c0-.7-.29-1.2-1.07-1.2a1.32,1.32,0,0,0-1.37,1c-.15.67.22.88.72,1.11l1.39.68a1.47,1.47,0,0,1,.64,1.68,2.66,2.66,0,0,1-2.73,2.14,1.83,1.83,0,0,1-1.95-2.14Z" transform="translate(-1 -1.73)"/><path d="M202.42,99.93h4.49l-.18.83h-3.56l-.46,2.15h2.94l-.18.83h-2.94l-.53,2.55h3.55l-.17.83h-4.49Z" transform="translate(-1 -1.73)"/><path d="M210.29,105.16l-1.13,2.14-.84-.34,3.76-7h1.19l.76,7-1,.34-.21-2.14Zm2.15-4.15-1.72,3.32h2Z" transform="translate(-1 -1.73)"/><path d="M218.87,99.93h2.45c1.2,0,2,.56,1.73,2a2.81,2.81,0,0,1-1.89,2l1.15,2.91-.91.49L220.25,104h-1.33l-.65,3.08h-.93Zm1.44,3.28a1.71,1.71,0,0,0,1.78-1.32c.14-.65-.15-1.13-1-1.13h-1.49l-.53,2.45Z" transform="translate(-1 -1.73)"/><path d="M230.57,105.74a3.47,3.47,0,0,1-2.7,1.5c-2.1,0-2.34-1.93-2-3.71.61-2.87,2.32-3.72,3.48-3.72a1.86,1.86,0,0,1,1.94,1.53l-.94.42c-.18-.58-.48-1.09-1.18-1.09-1.44,0-2.1,1.74-2.34,2.85s-.34,2.85,1.12,2.85a2.59,2.59,0,0,0,2-1.16Z" transform="translate(-1 -1.73)"/><path d="M235.17,99.93h.93l-.64,3h2.84l.64-3h.92l-1.53,7.19h-.92l.71-3.38h-2.84l-.71,3.38h-.93Z" transform="translate(-1 -1.73)"/><path d="M255.82,98.33a7.89,7.89,0,0,0-2.68,4.58,5.39,5.39,0,0,0,.73,4.58l-.66.55a5.82,5.82,0,0,1-1-5.13,8.75,8.75,0,0,1,3.22-5.12Z" transform="translate(-1 -1.73)"/><path d="M258.37,107.12l.18-.83h.75l1.6-7.55h-.75l.18-.82h2.81c1,0,1.87.84,1.55,2.31a2.54,2.54,0,0,1-1.35,1.78c.94.46,1.14,1.24.91,2.35-.42,1.91-1.64,2.76-2.91,2.76Zm3.1-.83c.83,0,1.52-.61,1.81-2s-.29-1.82-1.25-1.82h-1l-.8,3.77Zm.56-4.6a1.59,1.59,0,0,0,1.69-1.46c.24-1.13-.25-1.49-1.36-1.49h-.54l-.62,3Z" transform="translate(-1 -1.73)"/><path d="M272.42,103.53c-.13.58-.83,3.71-3.34,3.71-1.16,0-2.37-.83-1.77-3.71s2.17-3.72,3.36-3.72S273,100.63,272.42,103.53Zm-4.14,0c-.22,1-.41,2.84,1,2.84s2-1.79,2.19-2.84.42-2.86-1-2.86S268.51,102.47,268.28,103.53Z" transform="translate(-1 -1.73)"/><path d="M278.3,100.76h-2l.18-.83h4.86l-.18.83h-1.95l-1.35,6.36H277Z" transform="translate(-1 -1.73)"/><path d="M286.58,100.76h-2l.18-.83h4.86l-.18.83H287.5l-1.35,6.36h-.92Z" transform="translate(-1 -1.73)"/><path d="M297.26,103.53c-.13.58-.83,3.71-3.34,3.71-1.16,0-2.37-.83-1.77-3.71s2.17-3.72,3.36-3.72S297.88,100.63,297.26,103.53Zm-4.14,0c-.22,1-.41,2.84,1,2.84s2-1.79,2.19-2.84.42-2.86-1-2.86S293.35,102.47,293.12,103.53Z" transform="translate(-1 -1.73)"/><path d="M301.86,101.29h0l-1.42,5.83h-1l1.82-7.19h1.21l.64,3.12,2-3.12h1.21L305,107.12h-1l1.06-5.83h0l-2.42,3.8Z" transform="translate(-1 -1.73)"/><path d="M4.29,114.47h.92l-1.78,8.38H7.21l-.17.83H2.33Z" transform="translate(-1 -1.73)"/><path d="M12,116.49h4.48l-.18.83H12.72l-.45,2.15h2.94l-.18.83H12.09l-.54,2.55h3.56l-.18.83H10.45Z" transform="translate(-1 -1.73)"/><path d="M20.52,116.49H25l-.18.83h-3.6l-.45,2.15h3l-.18.83h-3l-.72,3.38H19Z" transform="translate(-1 -1.73)"/><path d="M29.89,117.32h-2l.18-.83h4.86l-.18.83H30.81l-1.35,6.36h-.92Z" transform="translate(-1 -1.73)"/><path d="M45,119.48a2.27,2.27,0,0,1-.32-1.68,2.25,2.25,0,0,1,2.18-1.88,1.44,1.44,0,0,1,1.44,1.88c-.18.88-.72,1.42-2,2.15l1,1.84a3.58,3.58,0,0,0,.69-1.36l.87.18a5.2,5.2,0,0,1-1.14,2l.4.79-.82.51-.36-.68a3.18,3.18,0,0,1-1.78.61,1.65,1.65,0,0,1-1.73-2.1,3.19,3.19,0,0,1,1.72-1.94Zm.51.94a2,2,0,0,0-1.12,1.27,1,1,0,0,0,1,1.24,2,2,0,0,0,1.2-.46Zm.8-1.35a2.06,2.06,0,0,0,1.11-1.23c.12-.61-.13-1-.78-1a1.15,1.15,0,0,0-1.09.95,2.05,2.05,0,0,0,.43,1.53Z" transform="translate(-1 -1.73)"/><path d="M53.88,114.47h2.48c.91,0,1.89.79,1.53,2.45a3.31,3.31,0,0,1-2.14,2.59l1.06,3.94-.91.4-1.16-4.27h-1l-.87,4.1h-.92Zm0,4.28h1.35c.81,0,1.42-.59,1.68-1.83s-.23-1.62-1.17-1.62H54.62Z" transform="translate(-1 -1.73)"/><path d="M60.8,122.85h1L63,117.32H62l.18-.83h3l-.18.83h-1l-1.18,5.53h1l-.18.83h-3Z" transform="translate(-1 -1.73)"/><path d="M73,123a4.65,4.65,0,0,1-2.38.79c-2.11,0-2.3-2-1.93-3.72s1.44-3.72,3.49-3.72a2.08,2.08,0,0,1,2,1.38l-.88.51a1.46,1.46,0,0,0-1.37-1c-1.42,0-2,1.78-2.27,2.87s-.36,2.83,1.09,2.83a3,3,0,0,0,1.42-.37l.4-1.89H70.79l.18-.83h2.65Z" transform="translate(-1 -1.73)"/><path d="M77.85,116.49h.92l-.63,3H81l.63-3h.93L81,123.68h-.93l.72-3.38H78l-.72,3.38h-.92Z" transform="translate(-1 -1.73)"/><path d="M87.85,117.32h-2l.17-.83H90.9l-.18.83H88.78l-1.36,6.36H86.5Z" transform="translate(-1 -1.73)"/><path d="M96.35,114.35c1.19,1.21,1.42,3.3,1,5.12a8.8,8.8,0,0,1-3.22,5.13l-.44-.55a7.9,7.9,0,0,0,2.69-4.58,5.39,5.39,0,0,0-.74-4.58Z" transform="translate(-1 -1.73)"/></g></g></svg>