<svg xmlns="http://www.w3.org/2000/svg" viewBox="0 0 107.34 17.25"><title>features</title><g id="图层_2" data-name="图层 2"><g id="图层_1_复制" data-name="图层 1_复制"><path d="M1.91,20.13V2.88H11.5v1.9H5.75v5.75H9.59v1.94H5.75v7.66Z" transform="translate(-1.91 -2.88)"/><path d="M15.32,20.13V2.88h9.59v1.9H19.16v5.75H23v1.94H19.16v5.75h5.75v1.91Z" transform="translate(-1.91 -2.88)"/><path d="M28.73,20.13V6.72A3.69,3.69,0,0,1,29.87,4a3.68,3.68,0,0,1,2.7-1.12h3.84A3.64,3.64,0,0,1,39.1,4a3.73,3.73,0,0,1,1.13,2.71V20.13H36.41V12.47H32.57v7.66Zm3.84-9.6h3.84V6.72a1.84,1.84,0,0,0-.57-1.37,1.92,1.92,0,0,0-3.27,1.37Z" transform="translate(-1.91 -2.88)"/><path d="M46,20.13V4.78H42.16V2.88h11.5v1.9H49.82V20.13Z" transform="translate(-1.91 -2.88)"/><path d="M63.25,2.88h3.82v13.4A3.73,3.73,0,0,1,65.94,19a3.65,3.65,0,0,1-2.69,1.14H59.41a3.88,3.88,0,0,1-3.84-3.85V2.88h3.84v13.4A1.88,1.88,0,0,0,60,17.64a1.86,1.86,0,0,0,1.35.58,1.95,1.95,0,0,0,1.93-1.94Z" transform="translate(-1.91 -2.88)"/><path d="M70.91,20.13V2.88h7.68A3.64,3.64,0,0,1,81.28,4a3.73,3.73,0,0,1,1.13,2.71v1a4.06,4.06,0,0,1-.88,2.47,3.41,3.41,0,0,1-2.94,1.19H80.5a1.84,1.84,0,0,1,1.34.56,1.86,1.86,0,0,1,.57,1.37v6.79H78.59V14.38a1.91,1.91,0,0,0-1.93-1.91H74.75v7.66Zm3.84-9.6h1.91a1.91,1.91,0,0,0,1.93-1.9V6.72a1.93,1.93,0,0,0-1.93-1.94H74.75Z" transform="translate(-1.91 -2.88)"/><path d="M86.25,20.13V2.88h9.59v1.9H90.09v5.75h3.84v1.94H90.09v5.75h5.75v1.91Z" transform="translate(-1.91 -2.88)"/><path d="M109.25,6.72h-1.91c-.17-1.29-.77-1.94-1.82-1.94a2.11,2.11,0,0,0-1.52.49,1.93,1.93,0,0,0-.5,1.45,2,2,0,0,0,.55,1.35l4.07,4.56a4,4,0,0,1,1.13,2.71v.94A3.73,3.73,0,0,1,108.12,19a3.66,3.66,0,0,1-2.71,1.14H103.5a3.94,3.94,0,0,1-2.88-1,3.92,3.92,0,0,1-1-2.89h1.93v.33a1.35,1.35,0,0,0,.6,1.19,2.22,2.22,0,0,0,1.31.42,1.89,1.89,0,0,0,1.46-.5,2.07,2.07,0,0,0,.45-1.44,2,2,0,0,0-.55-1.35l-4.07-4.56a3.9,3.9,0,0,1-1.13-2.71V6.72A3.69,3.69,0,0,1,100.79,4a3.66,3.66,0,0,1,2.71-1.13h1.91C107.81,2.88,109.1,4.16,109.25,6.72Z" transform="translate(-1.91 -2.88)"/></g></g></svg>