<svg xmlns="http://www.w3.org/2000/svg" viewBox="0 0 87.86 10.43"><title>gmailadd</title><g id="图层_2" data-name="图层 2"><g id="图层_2-2" data-name="图层 2"><path d="M.87,9.13V1.3H2.61V5.22L5.22,3.05H7l-3.64,3L7,9.13H5.22L2.61,7V9.13Z" transform="translate(-0.87 -1.3)"/><path d="M7.83,9.13V7.83a1.63,1.63,0,0,1,.43-1.21,2.2,2.2,0,0,1,1.31-.54,2.13,2.13,0,0,1-1.31-.53,1.62,1.62,0,0,1-.43-1.2V3.05H9.57V4.78a.87.87,0,0,0,.86.88.86.86,0,0,0,.63-.26.84.84,0,0,0,.25-.62V3.05H13v1.3a1.62,1.62,0,0,1-.43,1.2,2.08,2.08,0,0,1-1.3.53,2.09,2.09,0,0,1,1.3.55A1.62,1.62,0,0,1,13,7.83v1.3H11.31V7.39a.82.82,0,0,0-.25-.61.86.86,0,0,0-.63-.26.85.85,0,0,0-.61.26.82.82,0,0,0-.25.61V9.13Z" transform="translate(-0.87 -1.3)"/><path d="M14.79,1.3H20v.87L17.39,3.91h.88a1.53,1.53,0,0,1,1.24.58A1.77,1.77,0,0,1,20,5.66V7.39a1.74,1.74,0,0,1-1.73,1.74H16.53q-1.53,0-1.74-1.74h.87q.06.87.87.87h.86a.85.85,0,0,0,.88-.87V5.66a1.09,1.09,0,0,0-.22-.55.73.73,0,0,0-.66-.33H15.66V3.91l2.61-1.74H14.79Z" transform="translate(-0.87 -1.3)"/><path d="M23.49,1.3h1.74a1.68,1.68,0,0,1,1.22.52A1.69,1.69,0,0,1,27,3.05V7.39a1.67,1.67,0,0,1-.51,1.22,1.64,1.64,0,0,1-1.22.52H23.49a1.71,1.71,0,0,1-1.23-.51,1.68,1.68,0,0,1-.51-1.23V3.05a1.68,1.68,0,0,1,.51-1.23A1.68,1.68,0,0,1,23.49,1.3Zm1.73,1.59a.83.83,0,0,0-.87-.72.85.85,0,0,0-.61.26.83.83,0,0,0-.25.62V6ZM23.51,7.53a.88.88,0,0,0,.28.55.84.84,0,0,0,.56.18A.82.82,0,0,0,25,8a.84.84,0,0,0,.25-.61v-3Z" transform="translate(-0.87 -1.3)"/><path d="M32.19,5.22a1.55,1.55,0,0,1,1.3.56A1.91,1.91,0,0,1,33.92,7v.43a1.73,1.73,0,0,1-.5,1.16,1.54,1.54,0,0,1-1.23.58H30.45a1.58,1.58,0,0,1-1.24-.58,1.73,1.73,0,0,1-.5-1.16V7a1.91,1.91,0,0,1,.43-1.18,1.58,1.58,0,0,1,1.31-.56,2.2,2.2,0,0,1-1.31-.54,1.63,1.63,0,0,1-.43-1.21V3.05a1.69,1.69,0,0,1,.51-1.23,1.72,1.72,0,0,1,1.23-.52h1.74a1.68,1.68,0,0,1,1.22.52,1.69,1.69,0,0,1,.51,1.23v.42a1.63,1.63,0,0,1-.43,1.21A2.14,2.14,0,0,1,32.19,5.22Zm0-1.31V3.05a.83.83,0,0,0-.25-.62.86.86,0,0,0-.63-.26.85.85,0,0,0-.61.26.83.83,0,0,0-.25.62v.86a.82.82,0,0,0,.25.61.85.85,0,0,0,.61.26.86.86,0,0,0,.63-.26A.82.82,0,0,0,32.19,3.91Zm0,3.48V6.52a.87.87,0,0,0-1.74,0v.87a.87.87,0,1,0,1.74,0Z" transform="translate(-0.87 -1.3)"/><path d="M41.76,9.13h-3a2.92,2.92,0,0,1-2.14-.9,2.92,2.92,0,0,1-.9-2.15V4.35a2.94,2.94,0,0,1,.9-2.15,2.92,2.92,0,0,1,2.14-.9h1.75a2.9,2.9,0,0,1,2.13.9,2.94,2.94,0,0,1,.9,2.15V6.52a.82.82,0,0,1-.25.61.83.83,0,0,1-.61.26H40.88c-.5,0-.79-.29-.86-.87a1,1,0,0,1-.29.65,1.09,1.09,0,0,1-.74.22,1.55,1.55,0,0,1-1.07-.51,1.65,1.65,0,0,1-.51-1.22V4.78a1.67,1.67,0,0,1,.51-1.22,1.71,1.71,0,0,1,1.23-.51h1.73v3a.39.39,0,0,0,.44.44h.87a.39.39,0,0,0,.44-.44V4.35A2.16,2.16,0,0,0,42,2.82a2.1,2.1,0,0,0-1.53-.65H38.71a2.08,2.08,0,0,0-1.52.64,2.09,2.09,0,0,0-.65,1.54V6.08a2.09,2.09,0,0,0,.64,1.53,2,2,0,0,0,1.53.65h3ZM40,3.91h-.87a.83.83,0,0,0-.61.26.8.8,0,0,0-.27.61v.88a.87.87,0,0,0,.88.86.82.82,0,0,0,.61-.25A.85.85,0,0,0,40,5.66Z" transform="translate(-0.87 -1.3)"/><path d="M45.23,9.13V3.05H47v.86a1,1,0,0,1,.27-.65.8.8,0,0,1,.59-.21h.88a1.74,1.74,0,0,1,1.73,1.73V9.13H48.72V4.78a.89.89,0,0,0-.88-.87.85.85,0,0,0-.61.26.82.82,0,0,0-.25.61V9.13Z" transform="translate(-0.87 -1.3)"/><path d="M53.07,10q.06.87.87.87h.86a.83.83,0,0,0,.62-.25.85.85,0,0,0,.26-.62V8.26c-.07.58-.36.87-.88.87h-.86a1.76,1.76,0,0,1-1.75-1.74V3.05h1.75V7.39a.84.84,0,0,0,.25.61.81.81,0,0,0,.61.26A.8.8,0,0,0,55.42,8a.85.85,0,0,0,.26-.61V3.05h1.73v7a1.67,1.67,0,0,1-.51,1.22,1.64,1.64,0,0,1-1.22.52H53.94c-1,0-1.61-.58-1.75-1.74Z" transform="translate(-0.87 -1.3)"/><path d="M64.37,3.05V9.13H62.64V8.26c-.07.58-.36.87-.88.87H60.9a1.76,1.76,0,0,1-1.75-1.74V3.05H60.9V7.39a.84.84,0,0,0,.25.61.81.81,0,0,0,.61.26A.8.8,0,0,0,62.38,8a.85.85,0,0,0,.26-.61V3.05Z" transform="translate(-0.87 -1.3)"/><path d="M66.11,9.13V7.39h1.75V9.13Z" transform="translate(-0.87 -1.3)"/><path d="M74.81,6.52H71.33v.87a.85.85,0,0,0,.26.61.8.8,0,0,0,.61.26h.87a.77.77,0,0,0,.87-.87h.87c-.14,1.16-.71,1.74-1.74,1.74H71.33a1.67,1.67,0,0,1-1.22-.51,1.65,1.65,0,0,1-.52-1.23V4.78a1.64,1.64,0,0,1,.52-1.22,1.67,1.67,0,0,1,1.22-.51h1.74a1.65,1.65,0,0,1,1.22.51,1.64,1.64,0,0,1,.52,1.22Zm-3.48-.86h1.74V4.78a.82.82,0,0,0-.25-.61.85.85,0,0,0-.62-.26.89.89,0,0,0-.87.87Z" transform="translate(-0.87 -1.3)"/><path d="M81.77,9.13H80V8.26q-.11.87-.87.87h-.87a1.67,1.67,0,0,1-1.22-.51,1.65,1.65,0,0,1-.52-1.23V4.78a1.64,1.64,0,0,1,.52-1.22,1.67,1.67,0,0,1,1.22-.51H80V1.3h1.74ZM80,3.91h-.87a.89.89,0,0,0-.87.87V7.39a.85.85,0,0,0,.26.61.8.8,0,0,0,.61.26A.82.82,0,0,0,79.78,8,.84.84,0,0,0,80,7.39Z" transform="translate(-0.87 -1.3)"/><path d="M88.73,3.05V9.13H87V8.26q-.1.87-.87.87h-.87A1.67,1.67,0,0,1,84,8.62a1.65,1.65,0,0,1-.52-1.23V3.05h1.74V7.39a.85.85,0,0,0,.26.61.8.8,0,0,0,.61.26A.82.82,0,0,0,86.74,8,.84.84,0,0,0,87,7.39V3.05Z" transform="translate(-0.87 -1.3)"/></g></g></svg>