<svg xmlns="http://www.w3.org/2000/svg" viewBox="0 0 181.53 63.91"><title>pianoText</title><g id="图层_2" data-name="图层 2"><g id="图层_1-2" data-name="图层 1"><path d="M.91,6.88V6H5.5v.92Z" transform="translate(-0.91 -0.46)"/><path d="M7.33,9.63V1.38H11a1.76,1.76,0,0,1,1.29.54,1.76,1.76,0,0,1,.54,1.29v.92a1.79,1.79,0,0,1-.54,1.29A1.76,1.76,0,0,1,11,6H9.16V9.63ZM9.16,5h.92A.92.92,0,0,0,11,4.13V3.21a.92.92,0,0,0-.92-.92H9.16Z" transform="translate(-0.91 -0.46)"/><path d="M16.5,9.63H14.66V3.21H16.5V5a2.2,2.2,0,0,1,.57-1.37,1.68,1.68,0,0,1,1.27-.46h.91V5H17.41a.87.87,0,0,0-.64.27A.89.89,0,0,0,16.5,6Z" transform="translate(-0.91 -0.46)"/><path d="M25.66,6.88H22v.91a.91.91,0,0,0,.27.65.87.87,0,0,0,.64.27h.93a.81.81,0,0,0,.91-.92h.91c-.14,1.22-.74,1.84-1.82,1.84H22a1.76,1.76,0,0,1-1.29-.54,1.79,1.79,0,0,1-.55-1.3V5a1.77,1.77,0,0,1,.55-1.29A1.76,1.76,0,0,1,22,3.21h1.84a1.72,1.72,0,0,1,1.28.54A1.76,1.76,0,0,1,25.66,5ZM22,6h1.84V5a.91.91,0,0,0-.93-.91.86.86,0,0,0-.64.26A.89.89,0,0,0,22,5Z" transform="translate(-0.91 -0.46)"/><path d="M28.42,9.63V4.13H27.5V3.21h.92V3.12a1.72,1.72,0,0,1,.52-1.23,1.71,1.71,0,0,1,1.23-.51h1.92v.91h-1a.78.78,0,0,0-.59.25.77.77,0,0,0-.25.58v.09h.92v.92h-.92v5.5Z" transform="translate(-0.91 -0.46)"/><path d="M36.67,6V5a.89.89,0,0,0-.27-.65.85.85,0,0,0-.65-.26h-.91c-.55,0-.85.3-.92.91H33c.15-1.22.76-1.83,1.84-1.83h1.83A1.84,1.84,0,0,1,38.5,5V9.63H36.67V8.71c-.07.61-.38.92-.92.92h-.91A1.84,1.84,0,0,1,33,7.79a1.76,1.76,0,0,1,.54-1.29A1.8,1.8,0,0,1,34.84,6Zm0,.92h-.92a.86.86,0,0,0-.64.26.89.89,0,0,0-.27.65.91.91,0,0,0,.27.65.87.87,0,0,0,.64.27.86.86,0,0,0,.65-.27.91.91,0,0,0,.27-.65Z" transform="translate(-0.91 -0.46)"/><path d="M44.92,5H44c-.07-.61-.38-.91-.92-.91a.88.88,0,0,0-.65.26.89.89,0,0,0-.27.65V7.79a.91.91,0,0,0,.27.65.89.89,0,0,0,.65.27c.54,0,.85-.31.92-.92h.91c-.07,1.22-.68,1.84-1.83,1.84h-.92a1.84,1.84,0,0,1-1.83-1.84V5a1.84,1.84,0,0,1,1.83-1.83h.92A1.67,1.67,0,0,1,44.92,5Z" transform="translate(-0.91 -0.46)"/><path d="M52.25,6.88H48.59v.91a.91.91,0,0,0,.27.65.87.87,0,0,0,.64.27h.92a.82.82,0,0,0,.92-.92h.91C52.11,9,51.5,9.63,50.42,9.63H48.59a1.84,1.84,0,0,1-1.84-1.84V5a1.76,1.76,0,0,1,.54-1.29,1.8,1.8,0,0,1,1.3-.54h1.83A1.84,1.84,0,0,1,52.25,5ZM48.59,6h1.83V5a.89.89,0,0,0-.27-.65.93.93,0,0,0-1.29,0,.89.89,0,0,0-.27.65Z" transform="translate(-0.91 -0.46)"/><path d="M59.59,10.54h-.07a2.56,2.56,0,0,1-1.84-.84,3.07,3.07,0,0,1-.84-2.28V3.58a3.07,3.07,0,0,1,.84-2.28A2.56,2.56,0,0,1,59.52.46h.07v.92c-.61.07-.92.37-.92.91V8.71c0,.55.31.85.92.92Z" transform="translate(-0.91 -0.46)"/><path d="M61.42,9.63V1.38H65.1a1.76,1.76,0,0,1,1.29.54,1.79,1.79,0,0,1,.53,1.29v.5a2,2,0,0,1-.41,1.18,1.64,1.64,0,0,1-1.41.57H66a.85.85,0,0,1,.64.27.88.88,0,0,1,.27.65V9.63H65.1V6.88A.92.92,0,0,0,64.17,6h-.91V9.63ZM63.26,5h.91a.9.9,0,0,0,.66-.27.89.89,0,0,0,.27-.64V3.21a.92.92,0,0,0-.93-.92h-.91Z" transform="translate(-0.91 -0.46)"/><path d="M68.76,2.29V1.38H70.6v.91Zm0,7.34V3.21H70.6V9.63Z" transform="translate(-0.91 -0.46)"/><path d="M77.92,3.21v7.33a1.79,1.79,0,0,1-.53,1.29,1.77,1.77,0,0,1-1.29.55H74.26c-1.08,0-1.69-.62-1.84-1.84h.93c0,.61.35.92.91.92h.91a.92.92,0,0,0,.93-.92V8.71c-.08.61-.38.92-.93.92h-.91A1.76,1.76,0,0,1,73,9.09a1.79,1.79,0,0,1-.55-1.3V5A1.77,1.77,0,0,1,73,3.75a1.76,1.76,0,0,1,1.29-.54Zm-1.82.92h-.93a.88.88,0,0,0-.64.26.89.89,0,0,0-.27.65V7.79a.91.91,0,0,0,.27.65.89.89,0,0,0,.64.27.9.9,0,0,0,.66-.27.91.91,0,0,0,.27-.65Z" transform="translate(-0.91 -0.46)"/><path d="M79.76,9.63V1.38H81.6V4.13a1.1,1.1,0,0,1,.28-.69.89.89,0,0,1,.63-.23h.93a1.75,1.75,0,0,1,1.28.54A1.76,1.76,0,0,1,85.26,5V9.63H83.44V5a.91.91,0,0,0-.93-.91.86.86,0,0,0-.64.26A.89.89,0,0,0,81.6,5V9.63Z" transform="translate(-0.91 -0.46)"/><path d="M88,1.38h1.83V3.21h.92v.92h-.92V7.79a.83.83,0,0,0,.3.69.9.9,0,0,0,.53.23h.09v.92h-.92a1.76,1.76,0,0,1-1.29-.54A1.78,1.78,0,0,1,88,7.79V4.13H87.1V3.21H88Z" transform="translate(-0.91 -0.46)"/><path d="M96.27,9.63V2.29H94.44V1.38h5.5v.91H98.1V9.63Z" transform="translate(-0.91 -0.46)"/><path d="M102.69,3.21h1.83A1.84,1.84,0,0,1,106.35,5V7.79a1.86,1.86,0,0,1-1.83,1.84h-1.83a1.84,1.84,0,0,1-1.84-1.84V5a1.76,1.76,0,0,1,.54-1.29A1.8,1.8,0,0,1,102.69,3.21Zm0,1.83V7.79a.91.91,0,0,0,1.56.65.91.91,0,0,0,.27-.65V5a.89.89,0,0,0-.27-.65.91.91,0,0,0-1.56.65Z" transform="translate(-0.91 -0.46)"/><path d="M108.19,3.21H110v.92a.94.94,0,0,1,.23-.69,1,1,0,0,1,.69-.23h.92A1.84,1.84,0,0,1,113.69,5V7.79a1.78,1.78,0,0,1-.54,1.3,1.76,1.76,0,0,1-1.29.54H110v1.83h-1.83ZM110,8.71h.92a.89.89,0,0,0,.65-.27.88.88,0,0,0,.27-.65V5a.89.89,0,0,0-.27-.65.94.94,0,0,0-1.3,0A.89.89,0,0,0,110,5Z" transform="translate(-0.91 -0.46)"/><path d="M115.52.46h.08a2.56,2.56,0,0,1,1.84.84,3.1,3.1,0,0,1,.83,2.28V7.42a3.1,3.1,0,0,1-.83,2.28,2.56,2.56,0,0,1-1.84.84h-.08V9.63c.62-.08.93-.38.93-.92V2.29c0-.54-.31-.85-.93-.91Z" transform="translate(-0.91 -0.46)"/><path d="M.91,32.88V32H5.5v.92Z" transform="translate(-0.91 -0.46)"/><path d="M12.83,33.79c-.08,1.22-.68,1.84-1.83,1.84H9.16a1.76,1.76,0,0,1-1.29-.54,1.78,1.78,0,0,1-.54-1.3V29.21a1.83,1.83,0,0,1,1.83-1.83H11q1.73,0,1.83,1.83h-.92c-.07-.61-.37-.92-.91-.92h-.92a.92.92,0,0,0-.92.92v4.58a.91.91,0,0,0,.27.65.89.89,0,0,0,.65.27H11c.54,0,.85-.31.91-.92Z" transform="translate(-0.91 -0.46)"/><path d="M18.34,32V31a.91.91,0,0,0-.93-.91H16.5c-.54,0-.85.3-.91.91h-.93c.15-1.22.76-1.83,1.84-1.83h1.84a1.72,1.72,0,0,1,1.28.54A1.76,1.76,0,0,1,20.16,31v4.59H18.34v-.92c-.08.61-.38.92-.93.92H16.5a1.76,1.76,0,0,1-1.29-.54,1.79,1.79,0,0,1-.55-1.3A1.86,1.86,0,0,1,16.5,32Zm0,.92h-.93a.86.86,0,0,0-.64.26.89.89,0,0,0-.27.65.91.91,0,0,0,.27.65.87.87,0,0,0,.64.27.9.9,0,0,0,.66-.27.91.91,0,0,0,.27-.65Z" transform="translate(-0.91 -0.46)"/><path d="M22.92,27.38h1.83v1.83h.92v.92h-.92v3.66a.83.83,0,0,0,.3.69,1,1,0,0,0,.54.23h.08v.92h-.92a1.76,1.76,0,0,1-1.29-.54,1.78,1.78,0,0,1-.54-1.3V30.13H22v-.92h.92Z" transform="translate(-0.91 -0.46)"/><path d="M31.17,32V31a.89.89,0,0,0-.27-.65.85.85,0,0,0-.65-.26h-.91c-.55,0-.85.3-.92.91H27.5c.15-1.22.76-1.83,1.84-1.83h1.83A1.84,1.84,0,0,1,33,31v4.59H31.17v-.92c-.07.61-.38.92-.92.92h-.91a1.84,1.84,0,0,1-1.84-1.84A1.76,1.76,0,0,1,28,32.5a1.8,1.8,0,0,1,1.3-.54Zm0,.92h-.92a.86.86,0,0,0-.64.26.89.89,0,0,0-.27.65.91.91,0,0,0,.27.65.87.87,0,0,0,.64.27.86.86,0,0,0,.65-.27.91.91,0,0,0,.27-.65Z" transform="translate(-0.91 -0.46)"/><path d="M34.84,35.63V27.38h1.83v8.25Z" transform="translate(-0.91 -0.46)"/><path d="M40.34,29.21h1.83A1.84,1.84,0,0,1,44,31v2.75a1.86,1.86,0,0,1-1.83,1.84H40.34a1.84,1.84,0,0,1-1.84-1.84V31A1.76,1.76,0,0,1,39,29.75,1.8,1.8,0,0,1,40.34,29.21Zm0,1.83v2.75a.91.91,0,0,0,.27.65.87.87,0,0,0,.64.27.86.86,0,0,0,.65-.27.91.91,0,0,0,.27-.65V31a.89.89,0,0,0-.27-.65.93.93,0,0,0-1.29,0A.89.89,0,0,0,40.34,31Z" transform="translate(-0.91 -0.46)"/><path d="M51.34,29.21v7.33a1.86,1.86,0,0,1-1.83,1.84H47.67c-1.07,0-1.69-.62-1.83-1.84h.92c.05.61.35.92.91.92h.92a.92.92,0,0,0,.92-.92V34.71c-.07.61-.38.92-.92.92h-.92a1.84,1.84,0,0,1-1.83-1.84V31a1.84,1.84,0,0,1,1.83-1.83Zm-1.83.92h-.92a.88.88,0,0,0-.65.26.89.89,0,0,0-.27.65v2.75a.91.91,0,0,0,.27.65.92.92,0,0,0,1.3,0,.91.91,0,0,0,.27-.65Z" transform="translate(-0.91 -0.46)"/><path d="M58.67,36.54h-.06a2.56,2.56,0,0,1-1.84-.84,3,3,0,0,1-.85-2.28V29.58a3,3,0,0,1,.85-2.28,2.56,2.56,0,0,1,1.84-.84h.06v.92c-.6.07-.91.37-.91.91v6.42c0,.55.31.85.91.92Z" transform="translate(-0.91 -0.46)"/><path d="M60.51,35.63V27.38h3.68A1.84,1.84,0,0,1,66,29.21v.5a2,2,0,0,1-.42,1.18,1.62,1.62,0,0,1-1.4.57h.91a.92.92,0,0,1,.91.92v3.25H64.19V32.88a.92.92,0,0,0-.93-.92h-.91v3.67ZM62.35,31h.91a.9.9,0,0,0,.66-.27.89.89,0,0,0,.27-.64v-.92a.92.92,0,0,0-.93-.92h-.91Z" transform="translate(-0.91 -0.46)"/><path d="M67.85,28.29v-.91h1.84v.91Zm0,7.34V29.21h1.84v6.42Z" transform="translate(-0.91 -0.46)"/><path d="M77,29.21v7.33a1.86,1.86,0,0,1-1.82,1.84H73.35c-1.08,0-1.69-.62-1.84-1.84h.93c0,.61.34.92.91.92h.91a.92.92,0,0,0,.93-.92V34.71c-.08.61-.39.92-.93.92h-.91a1.86,1.86,0,0,1-1.84-1.84V31a1.73,1.73,0,0,1,.55-1.29,1.76,1.76,0,0,1,1.29-.54Zm-1.82.92h-.93a.86.86,0,0,0-.64.26.89.89,0,0,0-.27.65v2.75a.91.91,0,0,0,.27.65.87.87,0,0,0,.64.27.9.9,0,0,0,.66-.27.91.91,0,0,0,.27-.65Z" transform="translate(-0.91 -0.46)"/><path d="M78.85,35.63V27.38h1.84v2.75a1.1,1.1,0,0,1,.28-.69.87.87,0,0,1,.63-.23h.92A1.84,1.84,0,0,1,84.35,31v4.59H82.52V31a.89.89,0,0,0-.27-.65.91.91,0,0,0-1.56.65v4.59Z" transform="translate(-0.91 -0.46)"/><path d="M87.11,27.38h1.83v1.83h.92v.92h-.92v3.66a.83.83,0,0,0,.29.69,1,1,0,0,0,.54.23h.09v.92h-.92a1.76,1.76,0,0,1-1.29-.54,1.78,1.78,0,0,1-.54-1.3V30.13h-.92v-.92h.92Z" transform="translate(-0.91 -0.46)"/><path d="M94.44,35.63V27.38h3.67a1.84,1.84,0,0,1,1.83,1.83v.45a1.72,1.72,0,0,1-.46,1.27,2.22,2.22,0,0,1-1.37.57,1.65,1.65,0,0,1,1.37.56,2,2,0,0,1,.46,1.28v.45a1.86,1.86,0,0,1-1.83,1.84ZM96.27,31h.92a.92.92,0,0,0,.92-.91v-.92a.92.92,0,0,0-.92-.92h-.92Zm0,3.67h.92a.89.89,0,0,0,.65-.27.91.91,0,0,0,.27-.65v-.91a.82.82,0,0,0-.92-.92h-.92Z" transform="translate(-0.91 -0.46)"/><path d="M103.61,29.21h1.84A1.84,1.84,0,0,1,107.27,31v2.75a1.86,1.86,0,0,1-1.82,1.84h-1.84a1.86,1.86,0,0,1-1.84-1.84V31a1.73,1.73,0,0,1,.55-1.29A1.76,1.76,0,0,1,103.61,29.21Zm0,1.83v2.75a.91.91,0,0,0,.27.65.87.87,0,0,0,.64.27.9.9,0,0,0,.66-.27.91.91,0,0,0,.27-.65V31a.91.91,0,0,0-.93-.91.86.86,0,0,0-.64.26A.89.89,0,0,0,103.61,31Z" transform="translate(-0.91 -0.46)"/><path d="M110,27.38h1.83v1.83h.92v.92h-.92v3.66a.83.83,0,0,0,.3.69.9.9,0,0,0,.53.23h.09v.92h-.92a1.76,1.76,0,0,1-1.29-.54,1.78,1.78,0,0,1-.54-1.3V30.13h-.92v-.92H110Z" transform="translate(-0.91 -0.46)"/><path d="M115.53,27.38h1.83v1.83h.92v.92h-.92v3.66a.83.83,0,0,0,.3.69.9.9,0,0,0,.53.23h.09v.92h-.92a1.76,1.76,0,0,1-1.29-.54,1.78,1.78,0,0,1-.54-1.3V30.13h-.92v-.92h.92Z" transform="translate(-0.91 -0.46)"/><path d="M122,29.21h1.83A1.84,1.84,0,0,1,125.61,31v2.75a1.86,1.86,0,0,1-1.83,1.84H122a1.84,1.84,0,0,1-1.84-1.84V31a1.76,1.76,0,0,1,.54-1.29A1.8,1.8,0,0,1,122,29.21ZM122,31v2.75a.91.91,0,0,0,.27.65.91.91,0,0,0,1.29,0,.91.91,0,0,0,.27-.65V31a.89.89,0,0,0-.27-.65.93.93,0,0,0-1.29,0A.89.89,0,0,0,122,31Z" transform="translate(-0.91 -0.46)"/><path d="M133,35.63h-1.83V31a.89.89,0,0,0-.27-.65.94.94,0,0,0-1.3,0,.89.89,0,0,0-.27.65v4.59h-1.83V29.21h1.83v.92a1.1,1.1,0,0,1,.29-.69.85.85,0,0,1,.63-.23h.92a1.54,1.54,0,0,1,1.37.65,1.41,1.41,0,0,1,.57-.49,1.8,1.8,0,0,1,.81-.16h.91a1.8,1.8,0,0,1,1.3.54,1.76,1.76,0,0,1,.54,1.29v4.59h-1.84V31a.89.89,0,0,0-.27-.64.87.87,0,0,0-.64-.27.88.88,0,0,0-.65.26A.89.89,0,0,0,133,31Z" transform="translate(-0.91 -0.46)"/><path d="M138.45,26.46h.07a2.56,2.56,0,0,1,1.84.84,3.07,3.07,0,0,1,.84,2.28v3.84a3.07,3.07,0,0,1-.84,2.28,2.56,2.56,0,0,1-1.84.84h-.07v-.91c.61-.08.92-.38.92-.92V28.29c0-.54-.31-.85-.92-.91Z" transform="translate(-0.91 -0.46)"/><path d="M.91,58.88V58H5.5v.92Z" transform="translate(-0.91 -0.46)"/><path d="M12.83,59.79c-.08,1.22-.68,1.84-1.83,1.84H9.16a1.76,1.76,0,0,1-1.29-.54,1.78,1.78,0,0,1-.54-1.3V55.21a1.83,1.83,0,0,1,1.83-1.83H11q1.73,0,1.83,1.83h-.92c-.07-.61-.37-.92-.91-.92h-.92a.92.92,0,0,0-.92.92v4.58a.91.91,0,0,0,.27.65.89.89,0,0,0,.65.27H11c.54,0,.85-.31.91-.92Z" transform="translate(-0.91 -0.46)"/><path d="M16.5,55.21h1.84a1.72,1.72,0,0,1,1.28.54A1.76,1.76,0,0,1,20.16,57v2.75a1.76,1.76,0,0,1-.54,1.29,1.73,1.73,0,0,1-1.28.55H16.5a1.76,1.76,0,0,1-1.29-.54,1.79,1.79,0,0,1-.55-1.3V57a1.86,1.86,0,0,1,1.84-1.83Zm0,1.83v2.75a.91.91,0,0,0,.27.65.87.87,0,0,0,.64.27.9.9,0,0,0,.66-.27.91.91,0,0,0,.27-.65V57a.91.91,0,0,0-.93-.91.86.86,0,0,0-.64.26A.89.89,0,0,0,16.5,57Z" transform="translate(-0.91 -0.46)"/><path d="M22,61.63V55.21h1.84v.92a1.1,1.1,0,0,1,.28-.69.89.89,0,0,1,.63-.23h.92A1.84,1.84,0,0,1,27.5,57v4.59H25.67V57a.89.89,0,0,0-.27-.65.93.93,0,0,0-1.29,0,.89.89,0,0,0-.27.65v4.59Z" transform="translate(-0.91 -0.46)"/><path d="M30.26,53.38h1.83v1.83H33v.92h-.92v3.66a.85.85,0,0,0,.29.69,1,1,0,0,0,.54.23H33v.92h-.92a1.76,1.76,0,0,1-1.29-.54,1.78,1.78,0,0,1-.54-1.3V56.13h-.92v-.92h.92Z" transform="translate(-0.91 -0.46)"/><path d="M40.34,58.88H36.67v.91a.91.91,0,0,0,.27.65.89.89,0,0,0,.65.27h.92a.81.81,0,0,0,.91-.92h.92c-.14,1.22-.75,1.84-1.83,1.84H36.67a1.84,1.84,0,0,1-1.83-1.84V57a1.84,1.84,0,0,1,1.83-1.83h1.84A1.84,1.84,0,0,1,40.34,57ZM36.67,58h1.84V57a.89.89,0,0,0-.27-.65.94.94,0,0,0-1.3,0,.89.89,0,0,0-.27.65Z" transform="translate(-0.91 -0.46)"/><path d="M42.17,61.63V55.21H44v.92a1.1,1.1,0,0,1,.29-.69.85.85,0,0,1,.62-.23h.93a1.76,1.76,0,0,1,1.29.54A1.79,1.79,0,0,1,47.67,57v4.59H45.85V57a.91.91,0,0,0-.93-.91.88.88,0,0,0-.64.26A.89.89,0,0,0,44,57v4.59Z" transform="translate(-0.91 -0.46)"/><path d="M50.44,53.38h1.82v1.83h.93v.92h-.93v3.66a.83.83,0,0,0,.3.69,1,1,0,0,0,.54.23h.09v.92h-.93a1.83,1.83,0,0,1-1.82-1.84V56.13h-.93v-.92h.93Z" transform="translate(-0.91 -0.46)"/><path d="M60.51,62.54h-.07a2.57,2.57,0,0,1-1.84-.84,3.07,3.07,0,0,1-.84-2.28V55.58a3.07,3.07,0,0,1,.84-2.28,2.57,2.57,0,0,1,1.84-.84h.07v.92c-.61.07-.91.37-.91.91v6.42c0,.55.3.85.91.92Z" transform="translate(-0.91 -0.46)"/><path d="M62.35,61.63V53.38H66a1.84,1.84,0,0,1,1.83,1.83v.45a1.68,1.68,0,0,1-.46,1.27A2.2,2.2,0,0,1,66,57.5a1.64,1.64,0,0,1,1.37.56,1.92,1.92,0,0,1,.46,1.28v.45A1.86,1.86,0,0,1,66,61.63ZM64.19,57h.91a.92.92,0,0,0,.92-.91v-.92a.92.92,0,0,0-.92-.92h-.91Zm0,3.67h.91a.89.89,0,0,0,.65-.27.91.91,0,0,0,.27-.65v-.91A.82.82,0,0,0,65.1,58h-.91Z" transform="translate(-0.91 -0.46)"/><path d="M71.52,55.21h1.84A1.84,1.84,0,0,1,75.19,57v2.75a1.86,1.86,0,0,1-1.83,1.84H71.52a1.76,1.76,0,0,1-1.29-.54,1.78,1.78,0,0,1-.54-1.3V57a1.84,1.84,0,0,1,1.83-1.83Zm0,1.83v2.75a.91.91,0,0,0,.27.65.92.92,0,0,0,1.3,0,.91.91,0,0,0,.27-.65V57a.89.89,0,0,0-.27-.65.94.94,0,0,0-1.3,0A.89.89,0,0,0,71.52,57Z" transform="translate(-0.91 -0.46)"/><path d="M78,53.38h1.82v1.83h.93v.92h-.93v3.66a.83.83,0,0,0,.3.69,1,1,0,0,0,.54.23h.09v.92h-.93a1.76,1.76,0,0,1-1.29-.54,1.81,1.81,0,0,1-.53-1.3V56.13H77v-.92H78Z" transform="translate(-0.91 -0.46)"/><path d="M83.45,53.38h1.82v1.83h.93v.92h-.93v3.66a.83.83,0,0,0,.3.69,1,1,0,0,0,.54.23h.09v.92h-.93A1.76,1.76,0,0,1,84,61.09a1.81,1.81,0,0,1-.53-1.3V56.13h-.93v-.92h.93Z" transform="translate(-0.91 -0.46)"/><path d="M89.86,55.21H91.7A1.84,1.84,0,0,1,93.52,57v2.75a1.86,1.86,0,0,1-1.82,1.84H89.86A1.86,1.86,0,0,1,88,59.79V57a1.73,1.73,0,0,1,.55-1.29A1.76,1.76,0,0,1,89.86,55.21Zm0,1.83v2.75a.91.91,0,0,0,.27.65.87.87,0,0,0,.64.27.9.9,0,0,0,.66-.27.91.91,0,0,0,.27-.65V57a.91.91,0,0,0-.93-.91.86.86,0,0,0-.64.26A.89.89,0,0,0,89.86,57Z" transform="translate(-0.91 -0.46)"/><path d="M100.86,61.63H99V57a.89.89,0,0,0-.27-.65.93.93,0,0,0-1.29,0,.89.89,0,0,0-.27.65v4.59H95.36V55.21H97.2v.92a1.1,1.1,0,0,1,.28-.69.89.89,0,0,1,.63-.23H99a1.56,1.56,0,0,1,1.38.65,1.33,1.33,0,0,1,.56-.49,1.86,1.86,0,0,1,.81-.16h.92A1.84,1.84,0,0,1,104.53,57v4.59H102.7V57a.92.92,0,0,0-.92-.91.9.9,0,0,0-.92.91Z" transform="translate(-0.91 -0.46)"/><path d="M109.11,61.63V53.38H111v7.33h2.75v.92Z" transform="translate(-0.91 -0.46)"/><path d="M121,58.88h-3.66v.91a.91.91,0,0,0,.27.65.87.87,0,0,0,.64.27h.93a.81.81,0,0,0,.91-.92H121c-.14,1.22-.75,1.84-1.82,1.84h-1.84a1.86,1.86,0,0,1-1.84-1.84V57a1.73,1.73,0,0,1,.55-1.29,1.76,1.76,0,0,1,1.29-.54h1.84A1.84,1.84,0,0,1,121,57ZM117.36,58h1.84V57a.91.91,0,0,0-.93-.91.86.86,0,0,0-.64.26.89.89,0,0,0-.27.65Z" transform="translate(-0.91 -0.46)"/><path d="M123.78,61.63v-5.5h-.92v-.92h.92v-.09a1.76,1.76,0,0,1,1.75-1.74h1.92v.91h-1a.85.85,0,0,0-.83.83v.09h.92v.92h-.92v5.5Z" transform="translate(-0.91 -0.46)"/><path d="M129.28,53.38h1.83v1.83H132v.92h-.92v3.66a.83.83,0,0,0,.3.69.9.9,0,0,0,.53.23H132v.92h-.92a1.76,1.76,0,0,1-1.29-.54,1.78,1.78,0,0,1-.54-1.3V56.13h-.92v-.92h.92Z" transform="translate(-0.91 -0.46)"/><path d="M143,56.13H144V57a1.77,1.77,0,0,1-.53,1.31,1.67,1.67,0,0,1-1.22.53h-.09v.91a1.87,1.87,0,0,1-.53,1.22,1.64,1.64,0,0,1-1.3.62h-1.83a1.68,1.68,0,0,1-1.31-.62,1.87,1.87,0,0,1-.53-1.22v-.91a2,2,0,0,1,.46-1.23,1.62,1.62,0,0,1,1.38-.61c-1.23-.14-1.84-.75-1.84-1.83a1.76,1.76,0,0,1,.54-1.29,1.8,1.8,0,0,1,1.3-.54h1.83a1.84,1.84,0,0,1,1.83,1.83v.92h-1.83v-.92a.89.89,0,0,0-.27-.65.91.91,0,0,0-1.29,0,.89.89,0,0,0-.27.65v.45c0,.55.3.85.91.93v.91c-.61.08-.91.38-.91.91v1.38a.85.85,0,0,0,.27.69,1,1,0,0,0,1.29,0,.85.85,0,0,0,.27-.69V58h1.83A.92.92,0,0,0,143,57Z" transform="translate(-0.91 -0.46)"/><path d="M148.52,61.63V53.38h3.68A1.84,1.84,0,0,1,154,55.21v.5a2,2,0,0,1-.42,1.18,1.62,1.62,0,0,1-1.4.57h.91a.92.92,0,0,1,.91.92v3.25H152.2V58.88a.92.92,0,0,0-.93-.92h-.91v3.67ZM150.36,57h.91a.9.9,0,0,0,.66-.27.89.89,0,0,0,.27-.64v-.92a.92.92,0,0,0-.93-.92h-.91Z" transform="translate(-0.91 -0.46)"/><path d="M155.86,54.29v-.91h1.84v.91Zm0,7.34V55.21h1.84v6.42Z" transform="translate(-0.91 -0.46)"/><path d="M165,55.21v7.33a1.86,1.86,0,0,1-1.82,1.84h-1.84c-1.08,0-1.69-.62-1.84-1.84h.93c0,.61.34.92.91.92h.91a.92.92,0,0,0,.93-.92V60.71c-.08.61-.39.92-.93.92h-.91a1.86,1.86,0,0,1-1.84-1.84V57a1.73,1.73,0,0,1,.55-1.29,1.76,1.76,0,0,1,1.29-.54Zm-1.82.92h-.93a.86.86,0,0,0-.64.26.89.89,0,0,0-.27.65v2.75a.91.91,0,0,0,.27.65.87.87,0,0,0,.64.27.9.9,0,0,0,.66-.27.91.91,0,0,0,.27-.65Z" transform="translate(-0.91 -0.46)"/><path d="M166.86,61.63V53.38h1.84v2.75a1.1,1.1,0,0,1,.28-.69.89.89,0,0,1,.63-.23h.92A1.84,1.84,0,0,1,172.36,57v4.59h-1.83V57a.89.89,0,0,0-.27-.65.93.93,0,0,0-1.29,0,.89.89,0,0,0-.27.65v4.59Z" transform="translate(-0.91 -0.46)"/><path d="M175.12,53.38H177v1.83h.92v.92H177v3.66a.83.83,0,0,0,.29.69,1,1,0,0,0,.54.23h.09v.92H177a1.76,1.76,0,0,1-1.29-.54,1.78,1.78,0,0,1-.54-1.3V56.13h-.92v-.92h.92Z" transform="translate(-0.91 -0.46)"/><path d="M179.7,52.46h.07a2.56,2.56,0,0,1,1.84.84,3.07,3.07,0,0,1,.84,2.28v3.84a3.07,3.07,0,0,1-.84,2.28,2.56,2.56,0,0,1-1.84.84h-.07v-.91c.61-.08.92-.38.92-.92V54.29c0-.54-.31-.85-.92-.91Z" transform="translate(-0.91 -0.46)"/></g></g></svg>