<svg xmlns="http://www.w3.org/2000/svg" viewBox="0 0 180.81 27.09"><title>pianoconsert</title><g id="图层_2" data-name="图层 2"><g id="图层_1-2" data-name="图层 1"><path d="M1.15,12.08V1.73H5.76a2.17,2.17,0,0,1,1.61.68A2.21,2.21,0,0,1,8.05,4V5.18A2.25,2.25,0,0,1,7.37,6.8a2.21,2.21,0,0,1-1.61.68H3.45v4.6Zm2.3-5.76H4.6A1.16,1.16,0,0,0,5.76,5.18V4a1.13,1.13,0,0,0-.34-.82,1.11,1.11,0,0,0-.82-.34H3.45Z" transform="translate(-1.15 -1.73)"/><path d="M10.35,2.87V1.73h2.3V2.87Zm0,9.21V4h2.3v8.05Z" transform="translate(-1.15 -1.73)"/><path d="M19.56,7.48V6.32A1.14,1.14,0,0,0,18.4,5.18H17.25c-.68,0-1.06.38-1.15,1.14H15c.18-1.53,1-2.29,2.3-2.29h2.31a2.21,2.21,0,0,1,1.61.68,2.21,2.21,0,0,1,.68,1.61v5.76H19.56V10.93c-.1.76-.48,1.15-1.16,1.15H17.25a2.21,2.21,0,0,1-1.62-.68,2.27,2.27,0,0,1,0-3.24,2.21,2.21,0,0,1,1.62-.68Zm0,1.14H18.4a1.16,1.16,0,0,0-1.15,1.15,1.09,1.09,0,0,0,.34.81,1,1,0,0,0,.81.35,1.08,1.08,0,0,0,.82-.35,1.13,1.13,0,0,0,.34-.81Z" transform="translate(-1.15 -1.73)"/><path d="M24.15,12.08V4h2.3V5.18a1.46,1.46,0,0,1,.36-.87A1.09,1.09,0,0,1,27.6,4h1.16a2.21,2.21,0,0,1,1.61.68,2.21,2.21,0,0,1,.68,1.61v5.76H28.76V6.32a1.1,1.1,0,0,0-.34-.81,1.17,1.17,0,0,0-1.63,0,1.14,1.14,0,0,0-.34.81v5.76Z" transform="translate(-1.15 -1.73)"/><path d="M35.66,4H38a2.3,2.3,0,0,1,2.29,2.29V9.77A2.32,2.32,0,0,1,38,12.08h-2.3A2.21,2.21,0,0,1,34,11.4a2.19,2.19,0,0,1-.69-1.63V6.32A2.18,2.18,0,0,1,34,4.71,2.21,2.21,0,0,1,35.66,4Zm0,2.29V9.77a1.09,1.09,0,0,0,.34.81,1,1,0,0,0,.8.35,1.05,1.05,0,0,0,.82-.35A1.09,1.09,0,0,0,38,9.77V6.32a1.15,1.15,0,0,0-2.3,0Z" transform="translate(-1.15 -1.73)"/><path d="M52.91,9.77c-.09,1.54-.86,2.31-2.29,2.31H48.31a2.25,2.25,0,0,1-1.62-.68A2.22,2.22,0,0,1,46,9.77V4a2.2,2.2,0,0,1,.67-1.62,2.17,2.17,0,0,1,1.63-.68h2.31c1.44,0,2.21.76,2.29,2.3H51.76c-.09-.77-.47-1.16-1.14-1.16H49.46a1.1,1.1,0,0,0-.81.34,1.13,1.13,0,0,0-.34.82V9.77a1.13,1.13,0,0,0,.34.81,1.08,1.08,0,0,0,.81.35h1.16c.68,0,1.06-.39,1.14-1.16Z" transform="translate(-1.15 -1.73)"/><path d="M57.52,4h2.3a2.23,2.23,0,0,1,1.62.68,2.2,2.2,0,0,1,.67,1.61V9.77a2.32,2.32,0,0,1-2.29,2.31h-2.3a2.21,2.21,0,0,1-1.62-.68,2.19,2.19,0,0,1-.69-1.63V6.32a2.18,2.18,0,0,1,.69-1.61A2.21,2.21,0,0,1,57.52,4Zm0,2.29V9.77a1.12,1.12,0,0,0,.33.81,1.12,1.12,0,0,0,1.63,0,1.09,1.09,0,0,0,.34-.81V6.32a1.1,1.1,0,0,0-.34-.81,1.15,1.15,0,0,0-2,.81Z" transform="translate(-1.15 -1.73)"/><path d="M64.42,12.08V4h2.3V5.18a1.46,1.46,0,0,1,.36-.87A1.08,1.08,0,0,1,67.87,4H69a2.21,2.21,0,0,1,1.61.68,2.21,2.21,0,0,1,.68,1.61v5.76H69V6.32a1.14,1.14,0,0,0-1.16-1.14,1.14,1.14,0,0,0-1.15,1.14v5.76Z" transform="translate(-1.15 -1.73)"/><path d="M79.38,6.32H78.23c-.09-.76-.48-1.14-1.16-1.14a1.13,1.13,0,0,0-1.14,1.14V9.77a1.12,1.12,0,0,0,.33.81,1.08,1.08,0,0,0,.81.35c.68,0,1.07-.39,1.16-1.16h1.15c-.1,1.54-.86,2.31-2.31,2.31H75.93a2.25,2.25,0,0,1-1.63-.68,2.22,2.22,0,0,1-.68-1.63V6.32a2.21,2.21,0,0,1,.68-1.61A2.25,2.25,0,0,1,75.93,4h1.14A2.11,2.11,0,0,1,79.38,6.32Z" transform="translate(-1.15 -1.73)"/><path d="M88.56,8.62H84V9.77a1.09,1.09,0,0,0,.34.81,1,1,0,0,0,.81.35h1.15a1,1,0,0,0,1.15-1.16h1.14c-.17,1.54-.93,2.31-2.29,2.31H84a2.21,2.21,0,0,1-1.62-.68,2.18,2.18,0,0,1-.68-1.63V6.32a2.17,2.17,0,0,1,.68-1.61A2.21,2.21,0,0,1,84,4h2.3a2.3,2.3,0,0,1,2.29,2.29ZM84,7.48h2.3V6.32a1.13,1.13,0,0,0-1.15-1.14A1.14,1.14,0,0,0,84,6.32Z" transform="translate(-1.15 -1.73)"/><path d="M93.17,12.08h-2.3V4h2.3V6.32a2.85,2.85,0,0,1,.72-1.72A2.15,2.15,0,0,1,95.48,4h1.14V6.32h-2.3a1.1,1.1,0,0,0-.81.34,1.13,1.13,0,0,0-.34.82Z" transform="translate(-1.15 -1.73)"/><path d="M98.93,1.73h2.29V4h1.16V5.18h-1.16V9.77a1,1,0,0,0,.37.86,1.14,1.14,0,0,0,.68.3h.11v1.15h-1.16a2.3,2.3,0,0,1-2.29-2.31V5.18H97.77V4h1.16Z" transform="translate(-1.15 -1.73)"/><path d="M7.42,19.43H8.58L6.9,28.63h-1L7.37,21h0L4.79,25.59,4.19,21h0L2.36,28.63h-1l2.24-9.2H4.77l.5,3.91Z" transform="translate(-1.15 -1.73)"/><path d="M11.56,26.68l-1.13,2.13-.84-.33,3.77-7h1.18l.76,7-1,.33-.2-2.13Zm2.16-4.16L12,25.85h2Z" transform="translate(-1.15 -1.73)"/><path d="M23.27,28a4.65,4.65,0,0,1-2.38.79c-2.11,0-2.3-2-1.93-3.72s1.44-3.72,3.49-3.72a2.09,2.09,0,0,1,2,1.38l-.88.51a1.44,1.44,0,0,0-1.37-1c-1.42,0-2,1.78-2.27,2.87s-.36,2.83,1.09,2.83a3,3,0,0,0,1.42-.37l.4-1.89H21.11l.18-.83h2.65Z" transform="translate(-1.15 -1.73)"/><path d="M28.12,26.68,27,28.81l-.84-.33,3.77-7H31.1l.76,7-1,.33-.2-2.13Zm2.16-4.16-1.73,3.33h2Z" transform="translate(-1.15 -1.73)"/><path d="M39.67,22.28H36.31l.18-.83h4.89l-5.09,6.36h3.85l-.18.82h-5.4Z" transform="translate(-1.15 -1.73)"/><path d="M44.24,27.81h1l1.17-5.53h-1l.18-.83h2.95l-.18.83h-1l-1.18,5.53h1l-.17.82h-3Z" transform="translate(-1.15 -1.73)"/><path d="M53,21.45H54.1l1.49,6.05,0,0,.31-1.87.89-4.16h.92l-1.53,7.18H55.08l-1.51-6.05,0,0-.31,1.87-.89,4.15h-.92Z" transform="translate(-1.15 -1.73)"/><path d="M61.66,21.45h4.48l-.18.83H62.4L62,24.43h2.94l-.18.83H61.77l-.54,2.55h3.56l-.18.82H60.13Z" transform="translate(-1.15 -1.73)"/><path d="M78.4,21.45h.92L78,27.81h3.77l-.18.82H76.87Z" transform="translate(-1.15 -1.73)"/><path d="M86.09,26.68,85,28.81l-.84-.33,3.77-7h1.19l.75,7-1,.33-.21-2.13Zm2.15-4.16-1.73,3.33h2Z" transform="translate(-1.15 -1.73)"/><path d="M98.71,21.27l.76.45-3.2,4.14-.59,2.77h-.93l.6-2.77L93.9,21.72l1-.45L96,25Z" transform="translate(-1.15 -1.73)"/><path d="M106.81,25.05c-.12.58-.83,3.71-3.34,3.71-1.15,0-2.37-.83-1.76-3.71s2.16-3.73,3.35-3.73S107.43,22.15,106.81,25.05Zm-4.14,0c-.22,1.05-.41,2.84,1,2.84s2-1.79,2.2-2.84.41-2.86-1-2.86S102.91,24,102.67,25.05Z" transform="translate(-1.15 -1.73)"/><path d="M112,21.45l-1,4.9c-.22,1,0,1.54.92,1.54,1.16,0,1.52-.51,1.74-1.54l1.05-4.9h.93l-1.15,5.34a2.6,2.6,0,0,1-2.68,2c-1.55,0-2-1-1.82-2l1.13-5.28Z" transform="translate(-1.15 -1.73)"/><path d="M121,22.28h-2l.18-.83H124l-.18.83H121.9l-1.35,6.35h-.93Z" transform="translate(-1.15 -1.73)"/><path d="M135.66,21.45h2.4c2,0,2.78.84,2.22,3.5-.48,2.25-1.17,3.68-3.75,3.68h-2.4l.18-.82h.74l1.17-5.53h-.74Zm.32,6.36h1c1.22,0,1.89-.69,2.34-2.76s0-2.77-1.19-2.77h-.95Z" transform="translate(-1.15 -1.73)"/><path d="M144.46,21.45h4.48l-.17.83h-3.56l-.46,2.15h2.94l-.18.83h-2.94L144,27.81h3.56l-.18.82h-4.48Z" transform="translate(-1.15 -1.73)"/><path d="M152.16,26.36c0,.88.28,1.53,1.24,1.53A1.56,1.56,0,0,0,155,26.68c.19-.89-.51-1.11-1.15-1.4-1-.44-1.89-.71-1.6-2.07a2.48,2.48,0,0,1,2.51-1.89,1.66,1.66,0,0,1,1.81,1.81l-.94.26c0-.7-.29-1.2-1.07-1.2a1.32,1.32,0,0,0-1.37,1c-.15.67.22.88.72,1.11l1.39.68a1.47,1.47,0,0,1,.64,1.68,2.66,2.66,0,0,1-2.73,2.14,1.83,1.83,0,0,1-1.95-2.14Z" transform="translate(-1.15 -1.73)"/><path d="M160.17,27.81h1l1.18-5.53h-1l.18-.83h2.95l-.18.83h-1l-1.17,5.53h1l-.18.82H160Z" transform="translate(-1.15 -1.73)"/><path d="M172.31,28a4.62,4.62,0,0,1-2.37.79c-2.11,0-2.31-2-1.93-3.72s1.43-3.72,3.49-3.72a2.1,2.1,0,0,1,2,1.38l-.89.51a1.43,1.43,0,0,0-1.36-1c-1.42,0-2,1.78-2.28,2.87s-.36,2.83,1.09,2.83a3,3,0,0,0,1.42-.37l.4-1.89h-1.72l.18-.83H173Z" transform="translate(-1.15 -1.73)"/><path d="M177.16,21.45h1.14l1.49,6.05,0,0,.32-1.87.88-4.16H182l-1.54,7.18h-1.14l-1.5-6.05,0,0-.32,1.87-.88,4.15h-.93Z" transform="translate(-1.15 -1.73)"/></g></g></svg>