<svg xmlns="http://www.w3.org/2000/svg" viewBox="0 0 918 692.25"><defs><style>.cls-1{fill:#fff;}.cls-2{fill:none;stroke:#000;stroke-miterlimit:10;stroke-width:21px;}</style></defs><title>portfolioDesign41</title><g id="图层_1" data-name="图层 1"><rect class="cls-1" x="17.5" y="16.79" width="884" height="657.75"/><path d="M943,65.31V702.06H80V65.31H943m21-21H59V723.06H964V44.31Z" transform="translate(-52 -38.02)"/><line class="cls-2" x1="137.36" y1="6.73" x2="137.5" y2="675.48"/><line class="cls-2" x1="266.39" y1="6.73" x2="266.5" y2="679.48"/><line class="cls-2" x1="395.43" y1="6.73" x2="395.5" y2="676.98"/><line class="cls-2" x1="524.46" y1="6.73" x2="524.5" y2="677.98"/><line class="cls-2" x1="653.49" y1="6.73" x2="653.5" y2="678.98"/><line class="cls-2" x1="782.52" y1="6.73" x2="782.5" y2="676.98"/><path d="M967,41V727.27H55V41H967m3-3H52V730.27H970V38Z" transform="translate(-52 -38.02)"/><rect class="cls-1" x="230" y="220.98" width="87" height="20"/><rect class="cls-1" x="610" y="487.98" width="87" height="20"/></g><g id="图层_2" data-name="图层 2"><circle cx="459.5" cy="102.26" r="19.5"/><polygon points="244.33 96.48 220.94 96.52 127.33 357.48 152.27 357.16 244.33 96.48"/><polygon points="244.33 617.48 220.94 617.45 127.33 356.48 152.27 356.8 244.33 617.48"/><rect x="266" y="95.98" width="116" height="19"/><rect x="266" y="346.98" width="116" height="19"/><rect x="266" y="597.98" width="116" height="19"/><rect x="524" y="96.98" width="116" height="19"/><rect x="524" y="347.98" width="116" height="19"/><polygon points="793 602.98 772 602.98 643 95.98 664 95.98 793 602.98"/><path d="M847,462" transform="translate(-52 -38.02)"/><polygon points="912 602.98 895 602.98 773 95.98 793 95.98 912 602.98"/><path d="M92.71,103.4V92.91a2.84,2.84,0,0,1,.9-2.12,2.88,2.88,0,0,1,2.11-.89h3a3,3,0,0,1,3,3V103.4h-3v-6h-3v6Zm3-7.5h3v-3a1.46,1.46,0,0,0-.44-1.07,1.5,1.5,0,0,0-1.08-.44,1.5,1.5,0,0,0-1.49,1.51Z" transform="translate(-52 -38.02)"/><path d="M92.71,121.4V107.9h6a3,3,0,0,1,3,3v.74a2.8,2.8,0,0,1-.74,2.08,3.7,3.7,0,0,1-2.24.92,2.76,2.76,0,0,1,2.24.91,3.21,3.21,0,0,1,.74,2.1v.74a2.89,2.89,0,0,1-.88,2.11,2.84,2.84,0,0,1-2.1.89Zm3-7.5h1.49a1.5,1.5,0,0,0,1.08-.44,1.47,1.47,0,0,0,.44-1.06v-1.49a1.46,1.46,0,0,0-.44-1.07,1.5,1.5,0,0,0-1.08-.44H95.72Zm0,6h1.49a1.52,1.52,0,0,0,1.52-1.51v-1.5a1.33,1.33,0,0,0-1.52-1.49H95.72Z" transform="translate(-52 -38.02)"/><path d="M95.72,125.9h3a3,3,0,0,1,3,3v7.49a2.89,2.89,0,0,1-.88,2.11,2.84,2.84,0,0,1-2.1.89h-3a3,3,0,0,1-3-3v-7.49a2.84,2.84,0,0,1,.9-2.12A2.88,2.88,0,0,1,95.72,125.9Zm0,3v7.49a1.47,1.47,0,0,0,.44,1.06,1.44,1.44,0,0,0,1,.45,1.52,1.52,0,0,0,1.52-1.51v-7.49a1.46,1.46,0,0,0-.44-1.07,1.5,1.5,0,0,0-1.08-.44,1.5,1.5,0,0,0-1.49,1.51Z" transform="translate(-52 -38.02)"/><path d="M98.73,143.9h3v10.5a2.89,2.89,0,0,1-.88,2.11,2.84,2.84,0,0,1-2.1.89h-3a3,3,0,0,1-3-3V143.9h3v10.5a1.47,1.47,0,0,0,.44,1.06,1.44,1.44,0,0,0,1,.45,1.52,1.52,0,0,0,1.52-1.51Z" transform="translate(-52 -38.02)"/><path d="M95.73,175.4v-12h-3v-1.5h9v1.5h-3v12Z" transform="translate(-52 -38.02)"/><path d="M144.07,100.74q-.18,3-3,3h-3a3,3,0,0,1-3-3V93.25a2.92,2.92,0,0,1,.87-2.11,2.86,2.86,0,0,1,2.14-.89h3c1.89,0,2.88,1,3,3h-1.49c-.12-1-.62-1.51-1.5-1.51h-1.51a1.5,1.5,0,0,0-1.49,1.51v7.49a1.44,1.44,0,0,0,.44,1.06,1.41,1.41,0,0,0,1,.45h1.51c.89,0,1.39-.5,1.5-1.51Z" transform="translate(-52 -38.02)"/><path d="M138.08,108.25h3a2.84,2.84,0,0,1,2.11.89,2.89,2.89,0,0,1,.88,2.11v7.49a3,3,0,0,1-3,3h-3a3,3,0,0,1-3-3v-7.49a3,3,0,0,1,3-3Zm0,3v7.49a1.44,1.44,0,0,0,.44,1.06,1.41,1.41,0,0,0,1,.45,1.44,1.44,0,0,0,1.07-.45,1.47,1.47,0,0,0,.44-1.06v-7.49a1.48,1.48,0,0,0-.44-1.07,1.46,1.46,0,0,0-1.07-.44,1.5,1.5,0,0,0-1.49,1.51Z" transform="translate(-52 -38.02)"/><path d="M134.32,139.75v-13.5h.7l8.3,7.5v-7.5h1.51v13.5h-.68l-8.32-7.51v7.51Z" transform="translate(-52 -38.02)"/><path d="M138.08,157.75v-12h-3v-1.49h9v1.49h-3v12Z" transform="translate(-52 -38.02)"/><path d="M135.07,175.75v-10.5a3,3,0,0,1,3-3h3a2.84,2.84,0,0,1,2.11.89,2.89,2.89,0,0,1,.88,2.11v10.5h-3v-6h-3v6Zm3-7.51h3v-3a1.48,1.48,0,0,0-.44-1.07,1.46,1.46,0,0,0-1.07-.44,1.5,1.5,0,0,0-1.49,1.51Z" transform="translate(-52 -38.02)"/><path d="M144.07,190.74q-.18,3-3,3h-3a3,3,0,0,1-3-3v-7.49a2.92,2.92,0,0,1,.87-2.11,2.86,2.86,0,0,1,2.14-.89h3c1.89,0,2.88,1,3,3h-1.49c-.12-1-.62-1.51-1.5-1.51h-1.51a1.5,1.5,0,0,0-1.49,1.51v7.49a1.44,1.44,0,0,0,.44,1.06,1.41,1.41,0,0,0,1,.45h1.51c.89,0,1.39-.5,1.5-1.51Z" transform="translate(-52 -38.02)"/><path d="M138.08,211.75v-12h-3v-1.49h9v1.49h-3v12Z" transform="translate(-52 -38.02)"/><path d="M156.82,104.11V90.61h6a2.84,2.84,0,0,1,2.11.89,2.93,2.93,0,0,1,.88,2.11v1.5a2.93,2.93,0,0,1-.88,2.11,2.88,2.88,0,0,1-2.11.89h-3v6Zm3-7.51h1.5a1.5,1.5,0,0,0,1.51-1.49v-1.5a1.5,1.5,0,0,0-1.51-1.51h-1.5Z" transform="translate(-52 -38.02)"/><path d="M159.82,108.61h3a2.84,2.84,0,0,1,2.11.89,2.93,2.93,0,0,1,.88,2.11v7.49a2.91,2.91,0,0,1-.88,2.11,2.85,2.85,0,0,1-2.11.9h-3a3,3,0,0,1-3-3v-7.49a3,3,0,0,1,3-3Zm0,3v7.49a1.44,1.44,0,0,0,.45,1.06,1.41,1.41,0,0,0,1,.45,1.44,1.44,0,0,0,1.07-.45,1.47,1.47,0,0,0,.44-1.06v-7.49a1.5,1.5,0,0,0-1.51-1.51,1.52,1.52,0,0,0-1.5,1.51Z" transform="translate(-52 -38.02)"/><path d="M156.82,140.11v-13.5h6a2.84,2.84,0,0,1,2.11.89,2.93,2.93,0,0,1,.88,2.11v.81a3.22,3.22,0,0,1-.69,1.94,2.68,2.68,0,0,1-2.3.92h1.49a1.47,1.47,0,0,1,1.06.44,1.5,1.5,0,0,1,.44,1.08v5.31h-3v-4.5a1.5,1.5,0,0,0-1.51-1.5h-1.5v6Zm3-7.51h1.5a1.5,1.5,0,0,0,1.51-1.49v-1.5a1.5,1.5,0,0,0-1.51-1.51h-1.5Z" transform="translate(-52 -38.02)"/><path d="M159.83,158.11v-12h-3v-1.49h9v1.49h-3v12Z" transform="translate(-52 -38.02)"/><path d="M157.57,176.11v-13.5h7.51v1.49h-4.5v4.5h3v1.51h-3v6Z" transform="translate(-52 -38.02)"/><path d="M159.82,180.61h3a2.84,2.84,0,0,1,2.11.89,2.93,2.93,0,0,1,.88,2.11v7.49a2.91,2.91,0,0,1-.88,2.11,2.85,2.85,0,0,1-2.11.9h-3a3,3,0,0,1-3-3v-7.49a3,3,0,0,1,3-3Zm0,3v7.49a1.44,1.44,0,0,0,.45,1.06,1.41,1.41,0,0,0,1,.45,1.44,1.44,0,0,0,1.07-.45,1.47,1.47,0,0,0,.44-1.06v-7.49a1.5,1.5,0,0,0-1.51-1.51,1.52,1.52,0,0,0-1.5,1.51Z" transform="translate(-52 -38.02)"/><path d="M157.57,212.11v-13.5h3v12h4.5v1.5Z" transform="translate(-52 -38.02)"/><path d="M159.83,230.11v-13.5h3v13.5Z" transform="translate(-52 -38.02)"/><path d="M159.82,234.61h3a2.84,2.84,0,0,1,2.11.89,2.93,2.93,0,0,1,.88,2.11v7.49a2.91,2.91,0,0,1-.88,2.11,2.85,2.85,0,0,1-2.11.9h-3a3,3,0,0,1-3-3v-7.49a3,3,0,0,1,3-3Zm0,3v7.49a1.44,1.44,0,0,0,.45,1.06,1.41,1.41,0,0,0,1,.45,1.44,1.44,0,0,0,1.07-.45,1.47,1.47,0,0,0,.44-1.06v-7.49a1.5,1.5,0,0,0-1.51-1.51,1.52,1.52,0,0,0-1.5,1.51Z" transform="translate(-52 -38.02)"/><rect x="791.5" y="167.5" width="87" height="20" transform="translate(605.5 974.48) rotate(-90)"/><path d="M494.43,235.31v-45h10v18.38l16.17-18.38h8.86l-20,22.5,20,22.5h-10l-15-17.48v17.48Z" transform="translate(-52 -38.02)"/><path d="M499.42,295.31v-45h25v5h-15v15h10v5h-10v15h15v5Z" transform="translate(-52 -38.02)"/><path d="M499.42,355.31v-45h25v5h-15v15h10v5h-10v20Z" transform="translate(-52 -38.02)"/><path d="M496.94,415.31v-35a10,10,0,0,1,10-10h10a10.06,10.06,0,0,1,10,10v35H517v-20h-10v20Zm10-25h10v-10a4.77,4.77,0,0,0-1.49-3.5,5,5,0,0,0-8.55,3.5Z" transform="translate(-52 -38.02)"/><path d="M494.43,475.31v-45h2.28l27.72,25v-25h5v45h-2.3l-27.7-25v25Z" transform="translate(-52 -38.02)"/><path d="M496.92,564.61V552.09q0-8.8,10-10-10-1.17-10-10V519.61h10v15a5,5,0,0,0,10,0v-15h10v12.51q0,8.82-10,10,10,1.21,10,10v12.49h-10v-15a5,5,0,0,0-10,0v15Z" transform="translate(-52 -38.02)"/><path d="M517,579.61h10v35a10.09,10.09,0,0,1-10,10h-10a10,10,0,0,1-10-10v-35h10v35a5,5,0,0,0,10,0Z" transform="translate(-52 -38.02)"/><path d="M97.5,83a4.5,4.5,0,1,1,4.5-4.5A4.49,4.49,0,0,1,97.5,83Z" transform="translate(-52 -38.02)"/><circle cx="45.5" cy="40.48" r="4.28"/><g id="news_tag" data-name="news tag"><path d="M114.1,103.73V90.23h6a3,3,0,0,1,3,3v.81a3.22,3.22,0,0,1-.68,1.93,2.69,2.69,0,0,1-2.31.93h1.5a1.44,1.44,0,0,1,1,.44,1.48,1.48,0,0,1,.44,1.07v5.31h-3v-4.5a1.41,1.41,0,0,0-.44-1,1.46,1.46,0,0,0-1.07-.44h-1.49v6Zm3-7.5h1.49a1.46,1.46,0,0,0,1.07-.44,1.44,1.44,0,0,0,.44-1.06V93.24a1.5,1.5,0,0,0-1.51-1.51h-1.49Z" transform="translate(-52 -38.02)"/><path d="M114.86,121.73v-13.5h7.5v1.5h-4.5v4.5h3v1.51h-3v4.5h4.5v1.49Z" transform="translate(-52 -38.02)"/><path d="M122.36,129.24h-1.49c-.13-1-.61-1.51-1.42-1.51a1.66,1.66,0,0,0-1.19.37,1.53,1.53,0,0,0-.4,1.14,1.6,1.6,0,0,0,.44,1.06l3.18,3.56a3.14,3.14,0,0,1,.88,2.13v.74a2.89,2.89,0,0,1-.88,2.11,2.85,2.85,0,0,1-2.12.89h-1.5a3.13,3.13,0,0,1-2.25-.74,3.08,3.08,0,0,1-.75-2.26h1.51V137a1.06,1.06,0,0,0,.47.94,1.79,1.79,0,0,0,1,.32,1.49,1.49,0,0,0,1.15-.39,1.63,1.63,0,0,0,.35-1.12,1.58,1.58,0,0,0-.43-1.06l-3.19-3.57a3.08,3.08,0,0,1-.88-2.12v-.74a3,3,0,0,1,3-3h1.5Q122.18,126.23,122.36,129.24Z" transform="translate(-52 -38.02)"/><path d="M120.11,144.23h3v10.5a2.89,2.89,0,0,1-.88,2.11,2.84,2.84,0,0,1-2.11.89h-3a3,3,0,0,1-3-3v-10.5h3v10.5a1.45,1.45,0,0,0,.44,1.06,1.41,1.41,0,0,0,1,.45,1.44,1.44,0,0,0,1.07-.45,1.45,1.45,0,0,0,.44-1.06Z" transform="translate(-52 -38.02)"/><path d="M111.1,175.73v-13.5h.71l6.4,6.39,6.39-6.39h1.52v13.5h-3v-8.24l-5.26,5.26-5.23-5.26v8.24Z" transform="translate(-52 -38.02)"/><path d="M114.86,193.73v-13.5h7.5v1.5h-4.5v4.5h3v1.51h-3v4.5h4.5v1.49Z" transform="translate(-52 -38.02)"/><path d="M118.5,83a4.5,4.5,0,1,1,4.5-4.5A4.49,4.49,0,0,1,118.5,83Z" transform="translate(-52 -38.02)"/><circle cx="66.5" cy="40.48" r="4.28"/></g><path d="M139.5,83a4.5,4.5,0,1,1,4.5-4.5A4.49,4.49,0,0,1,139.5,83Z" transform="translate(-52 -38.02)"/><circle cx="87.5" cy="40.48" r="4.28"/><path d="M161.5,83a4.5,4.5,0,1,1,4.5-4.5A4.49,4.49,0,0,1,161.5,83Z" transform="translate(-52 -38.02)"/><circle cx="109.5" cy="40.48" r="4.28"/></g></svg>