<?xml version="1.0" encoding="utf-8"?>
<!-- Generator: Adobe Illustrator 23.0.1, SVG Export Plug-In . SVG Version: 6.00 Build 0)  -->
<svg version="1.1" id="图层_1" xmlns="http://www.w3.org/2000/svg" xmlns:xlink="http://www.w3.org/1999/xlink" x="0px" y="0px"
	 viewBox="0 0 918 692.2" style="enable-background:new 0 0 918 692.2;" xml:space="preserve">
<style type="text/css">
	.st0{enable-background:new    ;}
	.st1{fill:#FFFFFF;}
	.st2{display:none;}
	.st3{display:inline;}
	.st4{fill:none;stroke:#000000;stroke-width:21;stroke-miterlimit:10;}
	.st5{font-family:'Silom';}
	.st6{font-size:10.4348px;}
</style>
<g>
	<title>portfolioDesign42</title>
	<path d="M915,3v686.2H3V3H915 M918,0H0v692.2h918V0z"/>
	<rect x="7" y="6.3" width="21" height="21"/>
	<rect x="116.1" y="6.3" width="21" height="129.7"/>
	<rect x="516.8" y="6.3" width="21" height="128.6"/>
	<rect x="516.8" y="205.3" width="21" height="308.8"/>
	<rect x="115.3" y="224" width="21" height="147.4"/>
	<rect x="115.3" y="613.5" width="21" height="71.5"/>
	<rect x="115.3" y="379.5" width="21" height="228.6"/>
	<rect x="516.8" y="519.3" width="21" height="120.1"/>
	<rect x="516.8" y="645.5" width="21" height="39.5"/>
	<rect x="516.8" y="145.7" width="21" height="50.5"/>
	<rect x="116.1" y="145.6" width="21" height="68.7"/>
	<rect x="891" y="6.3" width="21" height="21"/>
	<rect x="7" y="664" width="21" height="21"/>
	<rect x="891" y="664" width="21" height="21"/>
	<path d="M8.1,64.4V36.2h12.5c1.6,0,3.2,0.7,4.4,1.9c1.2,1.2,1.9,2.7,1.8,4.4v3.1c0,1.6-0.7,3.2-1.8,4.4c-1.1,1.2-2.7,1.9-4.4,1.9
		h-6.3v12.6H8.1V64.4z M14.4,48.8h3.1c0.8,0,1.7-0.3,2.2-0.9c0.6-0.6,0.9-1.4,0.9-2.2v-3.1c0-1.7-1.4-3.1-3.1-3.2l0,0h-3.1V48.8z"/>
	<path d="M14.4,73.8h6.3c1.6,0,3.2,0.7,4.4,1.9c1.2,1.2,1.9,2.7,1.8,4.4v15.6c0,1.7-0.6,3.3-1.8,4.4c-1.1,1.2-2.7,1.9-4.4,1.9h-6.3
		c-1.6,0-3.2-0.7-4.4-1.9c-1.2-1.2-1.9-2.8-1.9-4.4V80.1c0-1.7,0.7-3.3,1.9-4.4C11.1,74.5,12.7,73.8,14.4,73.8z M14.4,80.1v15.6
		c0,0.8,0.3,1.6,0.9,2.2c0.6,0.6,1.4,0.9,2.2,0.9c0.8,0,1.7-0.3,2.2-0.9c0.6-0.6,0.9-1.4,0.9-2.2V80.1c0-1.7-1.4-3.1-3.1-3.1
		c-0.8,0-1.6,0.3-2.2,0.9C14.7,78.4,14.3,79.2,14.4,80.1z"/>
	<path d="M8.1,139.5v-28.2h12.5c1.6,0,3.2,0.7,4.4,1.9c1.2,1.2,1.9,2.8,1.8,4.4v1.7c0,1.5-0.5,2.9-1.4,4c-1,1.3-2.6,1.9-4.8,1.9h3.1
		c0.8,0,1.6,0.3,2.2,0.9s0.9,1.4,0.9,2.2v11.1h-6.2V130c0-0.8-0.3-1.6-0.9-2.2s-1.4-0.9-2.2-0.9h-3.1v12.5L8.1,139.5z M14.4,123.9
		h3.1c0.8,0,1.7-0.3,2.2-0.9c0.6-0.6,0.9-1.4,0.9-2.2v-3.1c0-1.7-1.4-3.1-3.1-3.2l0,0h-3.1V123.9z"/>
	<path d="M14.4,177.1V152H8.1v-3.1h18.8v3.1h-6.3v25.1H14.4z"/>
	<path d="M9.7,214.6v-28.2h15.7v3.1H16v9.4h6.3v3.2H16v12.5H9.7z"/>
	<path d="M14.4,224h6.3c1.6,0,3.2,0.7,4.4,1.9c1.2,1.2,1.9,2.7,1.8,4.4v15.6c0,1.7-0.6,3.3-1.8,4.4c-1.1,1.2-2.7,1.9-4.4,1.9h-6.3
		c-1.6,0-3.2-0.7-4.4-1.8c-1.2-1.2-1.9-2.8-1.9-4.4v-15.6c0-1.7,0.7-3.3,1.9-4.4C11.1,224.7,12.7,224,14.4,224z M14.4,230.3v15.6
		c0,0.8,0.3,1.6,0.9,2.2c0.6,0.6,1.4,0.9,2.2,0.9c0.8,0,1.7-0.3,2.2-0.9c0.6-0.6,0.9-1.4,0.9-2.2v-15.6c0-1.7-1.4-3.1-3.1-3.2l0,0
		c-0.8,0-1.6,0.3-2.2,0.9C14.7,228.6,14.3,229.4,14.4,230.3z"/>
	<path d="M9.7,289.7v-28.2H16v25.1h9.4v3.1H9.7z"/>
	<path d="M14.4,327.3v-28.2h6.2v28.2H14.4z"/>
	<path d="M14.4,336.7h6.3c1.6,0,3.2,0.7,4.4,1.9c1.2,1.2,1.9,2.7,1.8,4.4v15.6c0,1.7-0.6,3.3-1.8,4.4c-1.1,1.2-2.7,1.9-4.4,1.9h-6.3
		c-1.6,0-3.2-0.7-4.4-1.9c-1.2-1.2-1.9-2.8-1.9-4.4V343c0-1.7,0.7-3.3,1.9-4.4C11.1,337.3,12.7,336.7,14.4,336.7z M14.4,342.9v15.6
		c0,0.8,0.3,1.6,0.9,2.2c0.6,0.6,1.4,0.9,2.2,0.9c0.8,0,1.7-0.3,2.2-0.9c0.6-0.6,0.9-1.4,0.9-2.2v-15.6c0-1.7-1.4-3.1-3.1-3.1
		c-0.8,0-1.6,0.3-2.2,0.9C14.7,341.3,14.3,342.1,14.4,342.9L14.4,342.9z"/>
	<g class="st0">
		<path d="M164.4,76.9V61.2h3.5V77L164.4,76.9L164.4,76.9z"/>
		<path d="M173.1,76.9V61.2h0.8l9.7,8.8v-8.8h1.8V77h-0.8l-9.7-8.8V77L173.1,76.9L173.1,76.9z"/>
		<path d="M190.6,76.9v-14h-3.5v-1.7h10.5v1.7h-3.5v14H190.6z"/>
		<path d="M199.4,76.9V61.2h8.8v1.7h-5.3v5.2h3.5v1.8h-3.5v5.2h5.2v1.7h-8.7V76.9z"/>
		<path d="M211.6,76.9V61.2h7c1,0,1.8,0.3,2.5,1s1,1.5,1,2.5v0.9c0,0.8-0.3,1.5-0.8,2.3c-0.5,0.7-1.4,1.1-2.7,1.1h1.7
			c0.5,0,0.9,0.2,1.2,0.5s0.5,0.8,0.5,1.2v6.2h-3.5v-5.2c0-0.5-0.2-0.9-0.5-1.2s-0.8-0.5-1.2-0.5h-1.7v7L211.6,76.9L211.6,76.9z
			 M215.1,68.2h1.7c0.5,0,0.9-0.2,1.2-0.5s0.5-0.8,0.5-1.2v-1.7c0-0.5-0.2-0.9-0.5-1.2s-0.8-0.5-1.2-0.5h-1.7V68.2z"/>
		<path d="M225.6,76.9V64.7c0-1,0.3-1.8,1-2.5s1.5-1,2.5-1h3.5c1,0,1.8,0.3,2.5,1s1,1.5,1,2.5v12.2h-3.5v-7h-3.5v7
			C229.1,76.9,225.6,76.9,225.6,76.9z M229.1,68.2h3.5v-3.5c0-0.5-0.2-0.9-0.5-1.2s-0.8-0.5-1.2-0.5c-0.5,0-0.9,0.2-1.2,0.5
			s-0.5,0.8-0.5,1.2v3.5H229.1z"/>
		<path d="M250.1,73.4c-0.1,2.3-1.3,3.5-3.5,3.5h-3.5c-1,0-1.8-0.3-2.5-1s-1-1.5-1-2.5v-8.7c0-1,0.3-1.8,1-2.5s1.5-1,2.5-1h3.5
			c2.2,0,3.4,1.2,3.5,3.5h-1.7c-0.1-1.2-0.7-1.8-1.7-1.8h-1.8c-0.5,0-0.9,0.2-1.2,0.5s-0.5,0.8-0.5,1.2v8.7c0,0.5,0.2,0.9,0.5,1.2
			s0.8,0.5,1.2,0.5h1.8c1,0,1.6-0.6,1.7-1.8h1.7V73.4z"/>
		<path d="M255.4,76.9v-14h-3.5v-1.7h10.5v1.7h-3.5v14H255.4z"/>
		<path d="M265.9,76.9V61.2h3.5V77L265.9,76.9L265.9,76.9z"/>
		<path d="M281.6,61.2h3.5V71c0,1.6-0.6,3-1.8,4.2c-1.2,1.2-2.6,1.8-4.2,1.8h-4.5V61.2h3.5v14h1.7c0.5,0,0.9-0.2,1.2-0.5
			c0.3-0.4,0.5-0.8,0.5-1.2L281.6,61.2L281.6,61.2z"/>
		<path d="M288.6,76.9V61.2h8.8v1.7h-5.2v5.2h3.5v1.8h-3.5v5.2h5.2v1.7h-8.8V76.9z"/>
		<path d="M306.1,76.9V61.2h7c1,0,1.8,0.3,2.5,1s1,1.5,1,2.5v1.7c0,1-0.3,1.8-1,2.5s-1.5,1-2.5,1h-3.5v7
			C309.6,76.9,306.1,76.9,306.1,76.9z M309.6,68.2h1.7c0.5,0,0.9-0.2,1.2-0.5c0.3-0.3,0.5-0.8,0.5-1.2v-1.7c0-0.5-0.2-0.9-0.5-1.2
			s-0.8-0.5-1.2-0.5h-1.7V68.2z"/>
		<path d="M320.1,76.9V61.2h7c1,0,1.8,0.3,2.5,1s1,1.5,1,2.5v0.9c0,0.8-0.3,1.5-0.8,2.3c-0.5,0.7-1.4,1.1-2.7,1.1h1.7
			c0.5,0,0.9,0.2,1.2,0.5c0.3,0.3,0.5,0.8,0.5,1.2v6.2H327v-5.2c0-0.5-0.2-0.9-0.5-1.2s-0.8-0.5-1.2-0.5h-1.7v7L320.1,76.9
			L320.1,76.9L320.1,76.9z M323.6,68.2h1.7c0.5,0,0.9-0.2,1.2-0.5c0.3-0.3,0.5-0.8,0.5-1.2v-1.7c0-0.5-0.2-0.9-0.5-1.2
			s-0.8-0.5-1.2-0.5h-1.7V68.2z"/>
		<path d="M337.6,61.2h3.5c1,0,1.8,0.3,2.5,1s1,1.5,1,2.5v8.7c0,1-0.3,1.8-1,2.5s-1.5,1-2.5,1h-3.5c-1,0-1.8-0.3-2.5-1s-1-1.5-1-2.5
			v-8.7c0-1,0.3-1.8,1-2.5C335.9,61.5,336.7,61.2,337.6,61.2z M337.6,64.7v8.7c0,0.5,0.2,0.9,0.5,1.2s0.8,0.5,1.2,0.5
			c0.5,0,0.9-0.2,1.2-0.5c0.3-0.4,0.5-0.8,0.5-1.2v-8.7c0-0.5-0.2-0.9-0.5-1.2s-0.8-0.5-1.2-0.5c-0.5,0-0.9,0.2-1.2,0.5
			C337.8,63.8,337.6,64.2,337.6,64.7z"/>
		<path d="M356.9,61.2v12.2c0,1.2-0.3,2.1-0.9,2.6s-1.5,0.9-2.6,0.9h-3.5c-1.2,0-2.1-0.3-2.6-0.9c-0.6-0.6-0.9-1.5-0.9-2.6v-3.5h3.5
			v3.5c0,0.5,0.2,0.9,0.5,1.2s0.8,0.5,1.2,0.5c0.5,0,0.9-0.2,1.2-0.5c0.3-0.3,0.5-0.8,0.5-1.2V61.2H356.9z"/>
		<path d="M360.4,76.9V61.2h8.8v1.7h-5.3v5.2h3.5v1.8h-3.5v5.2h5.2v1.7h-8.7V76.9z"/>
		<path d="M383.1,73.4c-0.1,2.3-1.3,3.5-3.5,3.5h-3.5c-1,0-1.8-0.3-2.5-1s-1-1.5-1-2.5v-8.7c0-1,0.3-1.8,1-2.5s1.5-1,2.5-1h3.5
			c2.2,0,3.4,1.2,3.5,3.5h-1.7c-0.1-1.2-0.7-1.8-1.7-1.8h-1.8c-0.5,0-0.9,0.2-1.2,0.5c-0.3,0.3-0.5,0.8-0.5,1.2v8.7
			c0,0.5,0.2,0.9,0.5,1.2s0.8,0.5,1.2,0.5h1.8c1,0,1.6-0.6,1.7-1.8h1.7V73.4z"/>
		<path d="M388.4,76.9v-14h-3.5v-1.7h10.5v1.7h-3.5v14H388.4z"/>
	</g>
	<g class="st0">
		<path d="M164.4,170.6v-15.7h8.8v1.7H168v5.2h3.5v1.8H168v7H164.4z"/>
		<path d="M176.7,170.6v-12.2c0-1,0.3-1.8,1-2.5s1.5-1,2.5-1h3.5c1,0,1.8,0.3,2.5,1s1,1.5,1,2.5v12.2h-3.5v-7h-3.5v7H176.7z
			 M180.2,161.9h3.5v-3.5c0-0.5-0.2-0.9-0.5-1.2s-0.8-0.5-1.2-0.5c-0.5,0-0.9,0.2-1.2,0.5s-0.5,0.8-0.5,1.2v3.5H180.2z"/>
		<path d="M201.2,167.1c-0.1,2.3-1.3,3.5-3.5,3.5h-3.5c-1,0-1.8-0.3-2.5-1s-1-1.5-1-2.5v-8.7c0-1,0.3-1.8,1-2.5s1.5-1,2.5-1h3.5
			c2.2,0,3.4,1.2,3.5,3.5h-1.7c-0.1-1.2-0.7-1.8-1.7-1.8H196c-0.5,0-0.9,0.2-1.2,0.5s-0.5,0.8-0.5,1.2v8.7c0,0.5,0.2,0.9,0.5,1.2
			s0.8,0.5,1.2,0.5h1.8c1,0,1.6-0.6,1.7-1.8h1.7V167.1z"/>
		<path d="M206.4,170.6v-15.7h3.5v15.8h-3.5V170.6z"/>
		<path d="M215.2,170.6v-12.2c0-1,0.3-1.8,1-2.5s1.5-1,2.5-1h3.5c1,0,1.8,0.3,2.5,1s1,1.5,1,2.5v12.2h-3.5v-7h-3.5v7H215.2z
			 M218.7,161.9h3.5v-3.5c0-0.5-0.2-0.9-0.5-1.2s-0.8-0.5-1.2-0.5c-0.5,0-0.9,0.2-1.2,0.5s-0.5,0.8-0.5,1.2v3.5H218.7z"/>
		<path d="M229.2,170.6v-15.7h3.5v14h5.2v1.7H229.2z"/>
		<path d="M255.4,158.4h-1.7c-0.2-1.2-0.7-1.8-1.7-1.8c-0.6,0-1.1,0.1-1.4,0.4s-0.5,0.7-0.5,1.3c0,0.4,0.2,0.8,0.5,1.2l3.7,4.2
			c0.7,0.8,1,1.6,1,2.5v0.9c0,1-0.3,1.8-1,2.5s-1.5,1-2.5,1h-1.7c-1.2,0-2-0.3-2.6-0.9s-0.9-1.5-0.9-2.6h1.8c0,0.1,0,0.2,0,0.3
			c0,0.5,0.2,0.8,0.5,1.1c0.4,0.3,0.8,0.4,1.2,0.4c0.6,0,1.1-0.2,1.3-0.5s0.4-0.7,0.4-1.3c0-0.4-0.2-0.9-0.5-1.2l-3.7-4.2
			c-0.7-0.8-1-1.6-1-2.5v-0.9c0-1,0.3-1.8,1-2.5s1.5-1,2.5-1h1.7C254.1,154.9,255.3,156,255.4,158.4z"/>
		<path d="M258.9,170.6v-15.7h3.5v6.4l5.7-6.4h3.1l-7,7.9l7,7.9h-3.5l-5.2-6.1v6.1L258.9,170.6L258.9,170.6z"/>
		<path d="M274.7,170.6v-15.7h8.8v1.7h-5.2v5.2h3.5v1.8h-3.5v5.2h5.2v1.7h-8.8V170.6z"/>
		<path d="M288.7,170.6v-14h-3.5v-1.7h10.5v1.7h-3.5v14H288.7z"/>
		<path d="M307.9,167.1c-0.1,2.3-1.3,3.5-3.5,3.5h-3.5c-1,0-1.8-0.3-2.5-1s-1-1.5-1-2.5v-8.7c0-1,0.3-1.8,1-2.5s1.5-1,2.5-1h3.5
			c2.2,0,3.4,1.2,3.5,3.5h-1.7c-0.1-1.2-0.7-1.8-1.7-1.8h-1.8c-0.5,0-0.9,0.2-1.2,0.5s-0.5,0.8-0.5,1.2v8.7c0,0.5,0.2,0.9,0.5,1.2
			s0.8,0.5,1.2,0.5h1.8c1,0,1.6-0.6,1.7-1.8h1.7V167.1z"/>
		<path d="M311.4,170.6v-15.7h3.5v7h3.5v-7h3.5v15.8h-3.5v-7h-3.5v7h-3.5V170.6z"/>
		<path d="M330.7,170.6v-15.7h7c1,0,1.8,0.3,2.5,1s1,1.5,1,2.5v8.7c0,1-0.3,1.8-1,2.5s-1.5,1-2.5,1H330.7z M334.2,168.9h1.7
			c0.5,0,0.9-0.2,1.2-0.5c0.3-0.4,0.5-0.8,0.5-1.2v-8.7c0-0.5-0.2-0.9-0.5-1.2s-0.8-0.5-1.2-0.5h-1.7V168.9z"/>
		<path d="M344.7,170.6v-12.2c0-1,0.3-1.8,1-2.5s1.5-1,2.5-1h3.5c1,0,1.8,0.3,2.5,1s1,1.5,1,2.5v12.2h-3.5v-7h-3.5v7H344.7z
			 M348.2,161.9h3.5v-3.5c0-0.5-0.2-0.9-0.5-1.2s-0.8-0.5-1.2-0.5c-0.5,0-0.9,0.2-1.2,0.5s-0.5,0.8-0.5,1.2L348.2,161.9L348.2,161.9
			z"/>
		<path d="M360.4,170.6v-14h-3.5v-1.7h10.5v1.7h-3.5v14H360.4z"/>
		<path d="M369.2,170.6v-12.2c0-1,0.3-1.8,1-2.5s1.5-1,2.5-1h3.5c1,0,1.8,0.3,2.5,1s1,1.5,1,2.5v12.2h-3.5v-7h-3.5v7H369.2z
			 M372.7,161.9h3.5v-3.5c0-0.5-0.2-0.9-0.5-1.2s-0.8-0.5-1.2-0.5c-0.5,0-0.9,0.2-1.2,0.5s-0.5,0.8-0.5,1.2L372.7,161.9L372.7,161.9
			z"/>
		<path d="M391.9,158.4h-1.7c-0.2-1.2-0.7-1.8-1.7-1.8c-0.6,0-1.1,0.1-1.4,0.4s-0.5,0.7-0.5,1.3c0,0.4,0.2,0.8,0.5,1.2l3.7,4.2
			c0.7,0.8,1,1.6,1,2.5v0.9c0,1-0.3,1.8-1,2.5s-1.5,1-2.5,1h-1.6c-1.2,0-2-0.3-2.6-0.9c-0.6-0.6-0.9-1.5-0.9-2.6h1.8
			c0,0.1,0,0.2,0,0.3c0,0.5,0.2,0.8,0.5,1.1c0.4,0.3,0.8,0.4,1.2,0.4c0.6,0,1.1-0.2,1.3-0.5c0.2-0.3,0.4-0.7,0.4-1.3
			c0-0.4-0.2-0.9-0.5-1.2l-3.7-4.2c-0.7-0.8-1-1.6-1-2.5v-0.9c0-1,0.3-1.8,1-2.5s1.5-1,2.5-1h1.7C390.6,154.9,391.8,156,391.9,158.4
			z"/>
		<path d="M395.4,170.6v-15.7h8.8v1.7H399v5.2h3.5v1.8H399v5.2h5.2v1.7h-8.8L395.4,170.6L395.4,170.6z"/>
		<path d="M409.4,170.6v-14h-3.5v-1.7h10.5v1.7h-3.5v14H409.4z"/>
	</g>
	<g class="st0">
		<path d="M585.7,68.2h5.2v5.2c0,1.2-0.4,2.1-1.1,2.6s-1.5,0.9-2.4,0.9h-3.5c-1,0-1.8-0.3-2.5-1s-1-1.5-1-2.5v-8.7
			c0-1,0.3-1.8,1-2.5s1.5-1,2.5-1h3.5c2.2,0,3.4,1.2,3.5,3.5h-1.7c-0.1-1.2-0.7-1.8-1.7-1.8h-1.8c-0.5,0-0.9,0.2-1.2,0.5
			s-0.5,0.8-0.5,1.2v8.7c0,0.5,0.2,0.9,0.5,1.2s0.8,0.5,1.2,0.5c1.1-0.1,1.7-0.6,1.8-1.8v-3.5h-1.8V68.2z"/>
		<path d="M594.5,76.9V64.7c0-1,0.3-1.8,1-2.5s1.5-1,2.5-1h3.5c1,0,1.8,0.3,2.5,1s1,1.5,1,2.5v12.2h-3.5v-7H598v7
			C598,76.9,594.5,76.9,594.5,76.9z M598,68.2h3.5v-3.5c0-0.5-0.2-0.9-0.5-1.2s-0.8-0.5-1.2-0.5c-0.5,0-0.9,0.2-1.2,0.5
			s-0.5,0.8-0.5,1.2L598,68.2L598,68.2z"/>
		<path d="M608.5,76.9V61.2h0.8l7.5,7.5l7.5-7.5h1.8V77h-3.5v-9.6l-6.1,6.1l-6.1-6.1V77L608.5,76.9L608.5,76.9z"/>
		<path d="M629.5,76.9V61.2h8.8v1.7h-5.2v5.2h3.5v1.8h-3.5v5.2h5.2v1.7h-8.8V76.9z"/>
		<path d="M647,76.9V64.7c0-1,0.3-1.8,1-2.5s1.5-1,2.5-1h3.5c1,0,1.8,0.3,2.5,1s1,1.5,1,2.5v12.2H654v-7h-3.5v7
			C650.5,76.9,647,76.9,647,76.9z M650.5,68.2h3.5v-3.5c0-0.5-0.2-0.9-0.5-1.2s-0.8-0.5-1.2-0.5c-0.5,0-0.9,0.2-1.2,0.5
			s-0.5,0.8-0.5,1.2L650.5,68.2L650.5,68.2z"/>
		<path d="M661,76.9V61.2h7c1,0,1.8,0.3,2.5,1s1,1.5,1,2.5v0.9c0,0.8-0.3,1.5-0.8,2.3c-0.5,0.7-1.4,1.1-2.7,1.1h1.7
			c0.5,0,0.9,0.2,1.2,0.5s0.5,0.8,0.5,1.2v6.2h-3.5v-5.2c0-0.5-0.2-0.9-0.5-1.2s-0.8-0.5-1.2-0.5h-1.7v7L661,76.9L661,76.9z
			 M664.5,68.2h1.7c0.5,0,0.9-0.2,1.2-0.5s0.5-0.8,0.5-1.2v-1.7c0-0.5-0.2-0.9-0.5-1.2s-0.8-0.5-1.2-0.5h-1.7V68.2z"/>
		<path d="M676.8,76.9v-14h-3.5v-1.7h10.5v1.7h-3.5v14H676.8z"/>
		<path d="M690.8,76.9V61.2h7c1,0,1.8,0.3,2.5,1s1,1.5,1,2.5v8.7c0,1-0.3,1.8-1,2.5s-1.5,1-2.5,1C697.8,76.9,690.8,76.9,690.8,76.9z
			 M694.3,75.2h1.7c0.5,0,0.9-0.2,1.2-0.5c0.3-0.4,0.5-0.8,0.5-1.2v-8.7c0-0.5-0.2-0.9-0.5-1.2s-0.8-0.5-1.2-0.5h-1.7V75.2z"/>
		<path d="M704.8,76.9V61.2h8.8v1.7h-5.2v5.2h3.5v1.8h-3.5v5.2h5.2v1.7h-8.8V76.9z"/>
		<path d="M725.8,64.7h-1.7c-0.2-1.2-0.7-1.8-1.7-1.8c-0.6,0-1.1,0.1-1.4,0.4c-0.3,0.3-0.5,0.7-0.5,1.3c0,0.4,0.2,0.8,0.5,1.2
			l3.7,4.2c0.7,0.8,1,1.6,1,2.5v0.9c0,1-0.3,1.8-1,2.5s-1.5,1-2.5,1h-1.7c-1.2,0-2-0.3-2.6-0.9s-0.9-1.5-0.9-2.6h1.8
			c0,0.1,0,0.2,0,0.3c0,0.5,0.2,0.8,0.5,1.1s0.8,0.4,1.2,0.4c0.6,0,1.1-0.2,1.3-0.5c0.3-0.3,0.4-0.7,0.4-1.3c0-0.4-0.2-0.9-0.5-1.2
			L718,68c-0.7-0.8-1-1.6-1-2.5v-0.9c0-1,0.3-1.8,1-2.5s1.5-1,2.5-1h1.7C724.5,61.2,725.6,62.4,725.8,64.7z"/>
		<path d="M731,76.9V61.2h3.5V77L731,76.9L731,76.9z"/>
		<path d="M745,68.2h5.2v5.2c0,1.2-0.4,2.1-1.1,2.6s-1.5,0.9-2.4,0.9h-3.5c-1,0-1.8-0.3-2.5-1s-1-1.5-1-2.5v-8.7c0-1,0.3-1.8,1-2.5
			s1.5-1,2.5-1h3.5c2.2,0,3.4,1.2,3.5,3.5h-1.7c-0.1-1.2-0.7-1.8-1.7-1.8H745c-0.5,0-0.9,0.2-1.2,0.5s-0.5,0.8-0.5,1.2v8.7
			c0,0.5,0.2,0.9,0.5,1.2s0.8,0.5,1.2,0.5c1.1-0.1,1.7-0.6,1.8-1.8v-3.5H745V68.2z"/>
		<path d="M753.8,76.9V61.2h0.8l9.7,8.8v-8.8h1.8V77h-0.8l-9.7-8.8V77L753.8,76.9L753.8,76.9z"/>
	</g>
	<g class="st0">
		<path d="M164.5,623.4h3.5v14h1.7c0.5,0,0.9-0.2,1.2-0.5c0.3-0.4,0.5-0.8,0.5-1.2v-12.2h3.5v14h1.8c0.5,0,0.9-0.2,1.2-0.5
			c0.3-0.4,0.5-0.8,0.5-1.2v-12.2h3.5v9.8c0,1.6-0.6,3-1.8,4.2s-2.6,1.8-4.2,1.8h-4.5v-0.5c-0.7,0.4-1.5,0.5-2.5,0.5h-4.5v-16
			L164.5,623.4L164.5,623.4z"/>
		<path d="M185.5,639.2v-15.8h8.8v1.7h-5.2v5.2h3.5v1.8h-3.5v5.2h5.2v1.7h-8.8V639.2z"/>
		<path d="M197.8,639.2v-15.8h7c1,0,1.8,0.3,2.5,1s1,1.5,1,2.5v0.9c0,1-0.3,1.8-0.9,2.4c-0.6,0.6-1.5,0.9-2.6,1.1
			c1.2,0,2,0.4,2.6,1.1s0.9,1.5,0.9,2.4v0.9c0,1-0.3,1.8-1,2.5s-1.5,1-2.5,1L197.8,639.2L197.8,639.2z M201.3,630.4h1.7
			c0.5,0,0.9-0.2,1.2-0.5s0.5-0.8,0.5-1.2V627c0-0.5-0.2-0.9-0.5-1.2s-0.8-0.5-1.2-0.5h-1.7V630.4z M201.3,637.4h1.7
			c0.5,0,0.9-0.2,1.2-0.5c0.3-0.4,0.5-0.8,0.5-1.2V634c0-1.2-0.6-1.7-1.8-1.7h-1.7v5.1L201.3,637.4L201.3,637.4z"/>
		<path d="M217,639.2v-15.8h7c1,0,1.8,0.3,2.5,1s1,1.5,1,2.5v1.7c0,1-0.3,1.8-1,2.5s-1.5,1-2.5,1h-3.5v7L217,639.2L217,639.2z
			 M220.5,630.4h1.7c0.5,0,0.9-0.2,1.2-0.5s0.5-0.8,0.5-1.2V627c0-0.5-0.2-0.9-0.5-1.2s-0.8-0.5-1.2-0.5h-1.7V630.4z"/>
		<path d="M231,639.2v-15.8h7c1,0,1.8,0.3,2.5,1s1,1.5,1,2.5v0.9c0,0.8-0.3,1.5-0.8,2.3c-0.5,0.7-1.4,1.1-2.7,1.1h1.7
			c0.5,0,0.9,0.2,1.2,0.5s0.5,0.8,0.5,1.2v6.2h-3.5v-5.2c0-0.5-0.2-0.9-0.5-1.2s-0.8-0.5-1.2-0.5h-1.7v7H231z M234.5,630.4h1.7
			c0.5,0,0.9-0.2,1.2-0.5s0.5-0.8,0.5-1.2V627c0-0.5-0.2-0.9-0.5-1.2s-0.8-0.5-1.2-0.5h-1.7V630.4z"/>
		<path d="M248.5,623.4h3.5c1,0,1.8,0.3,2.5,1s1,1.5,1,2.5v8.7c0,1-0.3,1.8-1,2.5s-1.5,1-2.5,1h-3.5c-1,0-1.8-0.3-2.5-1
			s-1-1.5-1-2.5v-8.7c0-1,0.3-1.8,1-2.5C246.8,623.7,247.6,623.4,248.5,623.4z M248.5,626.9v8.7c0,0.5,0.2,0.9,0.5,1.2
			s0.8,0.5,1.2,0.5c0.5,0,0.9-0.2,1.2-0.5c0.3-0.4,0.5-0.8,0.5-1.2v-8.7c0-0.5-0.2-0.9-0.5-1.2s-0.8-0.5-1.2-0.5
			c-0.5,0-0.9,0.2-1.2,0.5S248.5,626.4,248.5,626.9z"/>
		<path d="M267.8,623.4v12.2c0,1.2-0.3,2.1-0.9,2.6s-1.5,0.9-2.6,0.9h-3.5c-1.2,0-2.1-0.3-2.6-0.9c-0.6-0.6-0.9-1.5-0.9-2.6v-3.5
			h3.5v3.5c0,0.5,0.2,0.9,0.5,1.2s0.8,0.5,1.2,0.5c0.5,0,0.9-0.2,1.2-0.5c0.3-0.3,0.5-0.8,0.5-1.2v-12.2H267.8z"/>
		<path d="M271.3,639.2v-15.8h8.8v1.7h-5.3v5.2h3.5v1.8h-3.5v5.2h5.2v1.7h-8.7V639.2z"/>
		<path d="M294,635.6c-0.1,2.3-1.3,3.5-3.5,3.5H287c-1,0-1.8-0.3-2.5-1s-1-1.5-1-2.5v-8.7c0-1,0.3-1.8,1-2.5s1.5-1,2.5-1h3.5
			c2.2,0,3.4,1.2,3.5,3.5h-1.7c-0.1-1.2-0.7-1.8-1.7-1.8h-1.8c-0.5,0-0.9,0.2-1.2,0.5c-0.3,0.3-0.5,0.8-0.5,1.2v8.7
			c0,0.5,0.2,0.9,0.5,1.2s0.8,0.5,1.2,0.5h1.8c1,0,1.6-0.6,1.7-1.8h1.7V635.6z"/>
		<path d="M299.3,639.2v-14h-3.5v-1.7h10.5v1.7h-3.5v14H299.3z"/>
	</g>
	<g class="st0">
		<path d="M580.4,171.2V159c0-1,0.3-1.8,1-2.5s1.5-1,2.5-1h3.5c1,0,1.8,0.3,2.5,1s1,1.5,1,2.5v12.2h-3.5v-7h-3.5v7H580.4z
			 M583.9,162.5h3.5V159c0-0.5-0.2-0.9-0.5-1.2s-0.8-0.5-1.2-0.5c-0.5,0-0.9,0.2-1.2,0.5s-0.5,0.8-0.5,1.2L583.9,162.5L583.9,162.5z
			"/>
		<path d="M594.4,171.2v-15.7h0.8l9.7,8.8v-8.8h1.8v15.8h-0.8l-9.7-8.8v8.8h-1.8V171.2z"/>
		<path d="M611.9,171.2v-15.7h3.5v15.8h-3.5V171.2z"/>
		<path d="M620.6,171.2v-15.7h0.8l7.5,7.5l7.5-7.5h1.8v15.8h-3.5v-9.6l-6.1,6.1l-6.1-6.1v9.6h-1.9V171.2z"/>
		<path d="M641.6,171.2V159c0-1,0.3-1.8,1-2.5s1.5-1,2.5-1h3.5c1,0,1.8,0.3,2.5,1s1,1.5,1,2.5v12.2h-3.5v-7h-3.5v7H641.6z
			 M645.1,162.5h3.5V159c0-0.5-0.2-0.9-0.5-1.2s-0.8-0.5-1.2-0.5c-0.5,0-0.9,0.2-1.2,0.5s-0.5,0.8-0.5,1.2L645.1,162.5L645.1,162.5z
			"/>
		<path d="M657.4,171.2v-14h-3.5v-1.7h10.5v1.7h-3.5v14H657.4z"/>
		<path d="M667.9,171.2v-15.7h3.5v15.8h-3.5V171.2z"/>
		<path d="M680.1,155.5h3.5c1,0,1.8,0.3,2.5,1s1,1.5,1,2.5v8.7c0,1-0.3,1.8-1,2.5s-1.5,1-2.5,1h-3.5c-1,0-1.8-0.3-2.5-1
			s-1-1.5-1-2.5V159c0-1,0.3-1.8,1-2.5C678.4,155.8,679.2,155.5,680.1,155.5z M680.1,159v8.7c0,0.5,0.2,0.9,0.5,1.2s0.8,0.5,1.2,0.5
			c0.5,0,0.9-0.2,1.2-0.5c0.3-0.4,0.5-0.8,0.5-1.2V159c0-0.5-0.2-0.9-0.5-1.2s-0.8-0.5-1.2-0.5c-0.5,0-0.9,0.2-1.2,0.5
			S680.1,158.5,680.1,159z"/>
		<path d="M690.6,171.2v-15.7h0.8l9.7,8.8v-8.8h1.8v15.8h-0.8l-9.7-8.8v8.8h-1.8V171.2z"/>
	</g>
	<g class="st0">
		<path d="M585.7,351.2h5.2v5.2c0,1.2-0.4,2.1-1.1,2.6s-1.5,0.9-2.4,0.9h-3.5c-1,0-1.8-0.3-2.5-1s-1-1.5-1-2.5v-8.7
			c0-1,0.3-1.8,1-2.5s1.5-1,2.5-1h3.5c2.2,0,3.4,1.2,3.5,3.5h-1.7c-0.1-1.2-0.7-1.8-1.7-1.8h-1.8c-0.5,0-0.9,0.2-1.2,0.5
			s-0.5,0.8-0.5,1.2v8.7c0,0.5,0.2,0.9,0.5,1.2c0.3,0.3,0.8,0.5,1.2,0.5c1.1-0.1,1.7-0.6,1.8-1.8v-3.5h-1.8V351.2z"/>
		<path d="M594.4,360v-15.8h7c1,0,1.8,0.3,2.5,1s1,1.5,1,2.5v0.9c0,0.8-0.3,1.5-0.8,2.3c-0.5,0.7-1.4,1.1-2.7,1.1h1.7
			c0.5,0,0.9,0.2,1.2,0.5s0.5,0.8,0.5,1.2v6.2h-3.5v-5.2c0-0.5-0.2-0.9-0.5-1.2c-0.3-0.3-0.8-0.5-1.2-0.5h-1.7v7H594.4z
			 M597.9,351.2h1.7c0.5,0,0.9-0.2,1.2-0.5s0.5-0.8,0.5-1.2v-1.7c0-0.5-0.2-0.9-0.5-1.2c-0.3-0.3-0.8-0.5-1.2-0.5h-1.7V351.2z"/>
		<path d="M608.4,360v-12.2c0-1,0.3-1.8,1-2.5s1.5-1,2.5-1h3.5c1,0,1.8,0.3,2.5,1s1,1.5,1,2.5V360h-3.5v-7h-3.5v7H608.4z
			 M611.9,351.2h3.5v-3.5c0-0.5-0.2-0.9-0.5-1.2c-0.3-0.3-0.8-0.5-1.2-0.5c-0.5,0-0.9,0.2-1.2,0.5s-0.5,0.8-0.5,1.2L611.9,351.2
			L611.9,351.2z"/>
		<path d="M622.4,360v-15.8h7c1,0,1.8,0.3,2.5,1s1,1.5,1,2.5v1.7c0,1-0.3,1.8-1,2.5s-1.5,1-2.5,1h-3.5v7L622.4,360L622.4,360z
			 M625.9,351.2h1.7c0.5,0,0.9-0.2,1.2-0.5s0.5-0.8,0.5-1.2v-1.7c0-0.5-0.2-0.9-0.5-1.2c-0.3-0.3-0.8-0.5-1.2-0.5h-1.7V351.2z"/>
		<path d="M636.4,360v-15.8h3.5v7h3.5v-7h3.5V360h-3.5v-7h-3.5v7H636.4z"/>
		<path d="M652.2,360v-15.8h3.5V360H652.2z"/>
		<path d="M671.4,356.5c-0.1,2.3-1.3,3.5-3.5,3.5h-3.5c-1,0-1.8-0.3-2.5-1s-1-1.5-1-2.5v-8.7c0-1,0.3-1.8,1-2.5s1.5-1,2.5-1h3.5
			c2.2,0,3.4,1.2,3.5,3.5h-1.7c-0.1-1.2-0.7-1.8-1.7-1.8h-1.8c-0.5,0-0.9,0.2-1.2,0.5s-0.5,0.8-0.5,1.2v8.7c0,0.5,0.2,0.9,0.5,1.2
			c0.3,0.3,0.8,0.5,1.2,0.5h1.8c1,0,1.6-0.6,1.7-1.8h1.7V356.5z"/>
		<path d="M680.2,360v-15.8h7c1,0,1.8,0.3,2.5,1s1,1.5,1,2.5v8.7c0,1-0.3,1.8-1,2.5s-1.5,1-2.5,1L680.2,360L680.2,360z M683.7,358.2
			h1.7c0.5,0,0.9-0.2,1.2-0.5c0.3-0.4,0.5-0.8,0.5-1.2v-8.7c0-0.5-0.2-0.9-0.5-1.2c-0.3-0.3-0.8-0.5-1.2-0.5h-1.7V358.2z"/>
		<path d="M694.2,360v-15.8h8.8v1.7h-5.2v5.2h3.5v1.8h-3.5v5.2h5.2v1.7h-8.8V360z"/>
		<path d="M715.2,347.7h-1.7c-0.2-1.2-0.7-1.8-1.7-1.8c-0.6,0-1.1,0.1-1.4,0.4c-0.3,0.3-0.5,0.7-0.5,1.3c0,0.4,0.2,0.8,0.5,1.2
			l3.7,4.2c0.7,0.8,1,1.6,1,2.5v0.9c0,1-0.3,1.8-1,2.5s-1.5,1-2.5,1h-1.7c-1.2,0-2-0.3-2.6-0.9s-0.9-1.5-0.9-2.6h1.8
			c0,0.1,0,0.2,0,0.3c0,0.5,0.2,0.8,0.5,1.1s0.8,0.4,1.2,0.4c0.6,0,1.1-0.2,1.3-0.5c0.3-0.3,0.4-0.7,0.4-1.3c0-0.4-0.2-0.9-0.5-1.2
			l-3.7-4.2c-0.7-0.8-1-1.6-1-2.5v-0.9c0-1,0.3-1.8,1-2.5s1.5-1,2.5-1h1.7C713.9,344.2,715.1,345.4,715.2,347.7z"/>
		<path d="M720.5,360v-15.8h3.5V360H720.5z"/>
		<path d="M734.4,351.2h5.2v5.2c0,1.2-0.4,2.1-1.1,2.6s-1.5,0.9-2.4,0.9h-3.5c-1,0-1.8-0.3-2.5-1s-1-1.5-1-2.5v-8.7
			c0-1,0.3-1.8,1-2.5s1.5-1,2.5-1h3.5c2.2,0,3.4,1.2,3.5,3.5h-1.7c-0.1-1.2-0.7-1.8-1.7-1.8h-1.8c-0.5,0-0.9,0.2-1.2,0.5
			s-0.5,0.8-0.5,1.2v8.7c0,0.5,0.2,0.9,0.5,1.2c0.3,0.3,0.8,0.5,1.2,0.5c1.1-0.1,1.7-0.6,1.8-1.8v-3.5h-1.8V351.2z"/>
		<path d="M743.2,360v-15.8h0.8l9.7,8.8v-8.8h1.8V360h-0.8l-9.7-8.8v8.8H743.2z"/>
		<path d="M767.7,347.7H766c-0.2-1.2-0.7-1.8-1.7-1.8c-0.6,0-1.1,0.1-1.4,0.4c-0.3,0.3-0.5,0.7-0.5,1.3c0,0.4,0.2,0.8,0.5,1.2
			l3.7,4.2c0.7,0.8,1,1.6,1,2.5v0.9c0,1-0.3,1.8-1,2.5s-1.5,1-2.5,1h-1.7c-1.2,0-2-0.3-2.6-0.9s-0.9-1.5-0.9-2.6h1.8
			c0,0.1,0,0.2,0,0.3c0,0.5,0.2,0.8,0.5,1.1s0.8,0.4,1.2,0.4c0.6,0,1.1-0.2,1.3-0.5c0.3-0.3,0.4-0.7,0.4-1.3c0-0.4-0.2-0.9-0.5-1.2
			l-3.7-4.2c-0.7-0.8-1-1.6-1-2.5v-0.9c0-1,0.3-1.8,1-2.5s1.5-1,2.5-1h1.7C766.4,344.2,767.6,345.4,767.7,347.7z"/>
	</g>
	<g class="st0">
		<path d="M580.4,454.3v-15.8h7c1,0,1.8,0.3,2.5,1s1,1.5,1,2.5v1.7c0,1-0.3,1.8-1,2.5s-1.5,1-2.5,1h-3.5v7L580.4,454.3L580.4,454.3z
			 M583.9,445.5h1.7c0.5,0,0.9-0.2,1.2-0.5s0.5-0.8,0.5-1.2v-1.7c0-0.5-0.2-0.9-0.5-1.2s-0.8-0.5-1.2-0.5h-1.7V445.5z"/>
		<path d="M594.4,454.3v-15.8h3.5v7h3.5v-7h3.5v15.8h-3.5v-7h-3.5v7H594.4z"/>
		<path d="M611.9,438.5h3.5c1,0,1.8,0.3,2.5,1s1,1.5,1,2.5v8.7c0,1-0.3,1.8-1,2.5s-1.5,1-2.5,1h-3.5c-1,0-1.8-0.3-2.5-1
			s-1-1.5-1-2.5V442c0-1,0.3-1.8,1-2.5C610.2,438.8,611,438.5,611.9,438.5z M611.9,442v8.7c0,0.5,0.2,0.9,0.5,1.2s0.8,0.5,1.2,0.5
			c0.5,0,0.9-0.2,1.2-0.5c0.3-0.4,0.5-0.8,0.5-1.2V442c0-0.5-0.2-0.9-0.5-1.2s-0.8-0.5-1.2-0.5c-0.5,0-0.9,0.2-1.2,0.5
			S611.9,441.5,611.9,442z"/>
		<path d="M624.2,454.3v-14h-3.5v-1.7h10.5v1.7h-3.5v14H624.2z"/>
		<path d="M636.5,438.5h3.5c1,0,1.8,0.3,2.5,1s1,1.5,1,2.5v8.7c0,1-0.3,1.8-1,2.5s-1.5,1-2.5,1h-3.5c-1,0-1.8-0.3-2.5-1
			s-1-1.5-1-2.5V442c0-1,0.3-1.8,1-2.5S635.5,438.5,636.5,438.5z M636.5,442v8.7c0,0.5,0.2,0.9,0.5,1.2s0.8,0.5,1.2,0.5
			c0.5,0,0.9-0.2,1.2-0.5c0.3-0.4,0.5-0.8,0.5-1.2V442c0-0.5-0.2-0.9-0.5-1.2s-0.8-0.5-1.2-0.5c-0.5,0-0.9,0.2-1.2,0.5
			S636.5,441.5,636.5,442z"/>
		<path d="M652.2,445.5h5.2v5.2c0,1.2-0.4,2.1-1.1,2.6s-1.5,0.9-2.4,0.9h-3.5c-1,0-1.8-0.3-2.5-1s-1-1.5-1-2.5V442
			c0-1,0.3-1.8,1-2.5s1.5-1,2.5-1h3.5c2.2,0,3.4,1.2,3.5,3.5h-1.7c-0.1-1.2-0.7-1.8-1.7-1.8h-1.8c-0.5,0-0.9,0.2-1.2,0.5
			s-0.5,0.8-0.5,1.2v8.7c0,0.5,0.2,0.9,0.5,1.2s0.8,0.5,1.2,0.5c1.1-0.1,1.7-0.6,1.8-1.8V447h-1.8V445.5z"/>
		<path d="M661,454.3v-15.8h7c1,0,1.8,0.3,2.5,1s1,1.5,1,2.5v0.9c0,0.8-0.3,1.5-0.8,2.3c-0.5,0.7-1.4,1.1-2.7,1.1h1.7
			c0.5,0,0.9,0.2,1.2,0.5s0.5,0.8,0.5,1.2v6.2h-3.5V449c0-0.5-0.2-0.9-0.5-1.2s-0.8-0.5-1.2-0.5h-1.7v7H661z M664.5,445.5h1.7
			c0.5,0,0.9-0.2,1.2-0.5s0.5-0.8,0.5-1.2v-1.7c0-0.5-0.2-0.9-0.5-1.2s-0.8-0.5-1.2-0.5h-1.7V445.5z"/>
		<path d="M675,454.3v-12.2c0-1,0.3-1.8,1-2.5s1.5-1,2.5-1h3.5c1,0,1.8,0.3,2.5,1s1,1.5,1,2.5v12.2H682v-7h-3.5v7H675z M678.5,445.5
			h3.5V442c0-0.5-0.2-0.9-0.5-1.2s-0.8-0.5-1.2-0.5c-0.5,0-0.9,0.2-1.2,0.5s-0.5,0.8-0.5,1.2L678.5,445.5L678.5,445.5z"/>
		<path d="M689,454.3v-15.8h7c1,0,1.8,0.3,2.5,1s1,1.5,1,2.5v1.7c0,1-0.3,1.8-1,2.5s-1.5,1-2.5,1h-3.5v7L689,454.3L689,454.3z
			 M692.5,445.5h1.7c0.5,0,0.9-0.2,1.2-0.5s0.5-0.8,0.5-1.2v-1.7c0-0.5-0.2-0.9-0.5-1.2s-0.8-0.5-1.2-0.5h-1.7V445.5z"/>
		<path d="M703,454.3v-15.8h3.5v7h3.5v-7h3.5v15.8H710v-7h-3.5v7H703z"/>
		<path d="M720.5,454.3v-7c-2.3-0.3-3.5-1.4-3.5-3.5v-5.2h3.5v5.2c0,0.5,0.2,0.9,0.5,1.2s0.8,0.5,1.2,0.5c0.5,0,0.9-0.2,1.2-0.5
			s0.5-0.8,0.5-1.2v-5.2h3.5v5.2c0,2.1-1.2,3.2-3.5,3.5v7H720.5z"/>
	</g>
	<g class="st0">
		<path class="st1" d="M133.6,602h-15.8v-0.8l7.5-7.5l-7.5-7.5v-1.8h15.8v3.5H124l6.1,6.1l-6.1,6.1h9.6V602z"/>
		<path class="st1" d="M133.6,581h-12.2c-1,0-1.8-0.3-2.5-1s-1-1.5-1-2.5V574c0-1,0.3-1.8,1-2.5s1.5-1,2.5-1h12.2v3.5h-7v3.5h7V581z
			 M124.8,577.5V574h-3.5c-0.5,0-0.9,0.2-1.2,0.5c-0.3,0.3-0.5,0.8-0.5,1.2c0,0.5,0.2,0.9,0.5,1.2s0.8,0.5,1.2,0.5L124.8,577.5
			L124.8,577.5z"/>
		<path class="st1" d="M130.1,556.5c2.3,0.1,3.5,1.3,3.5,3.5v3.5c0,1-0.3,1.8-1,2.5s-1.5,1-2.5,1h-8.7c-1,0-1.8-0.3-2.5-1
			s-1-1.5-1-2.5V560c0-2.2,1.2-3.4,3.5-3.5v1.7c-1.2,0.1-1.8,0.7-1.8,1.7v1.8c0,0.5,0.2,0.9,0.5,1.2s0.8,0.5,1.2,0.5h8.7
			c0.5,0,0.9-0.2,1.2-0.5s0.5-0.8,0.5-1.2v-1.8c0-1-0.6-1.6-1.8-1.7v-1.7H130.1z"/>
		<path class="st1" d="M133.6,553h-15.8v-3.5h7V546h-7v-3.5h15.8v3.5h-7v3.5h7V553z"/>
		<path class="st1" d="M133.6,537.2h-15.8v-3.5h15.8V537.2z"/>
		<path class="st1" d="M133.6,528.5h-15.8v-0.8l8.8-9.7h-8.8v-1.8h15.8v0.8l-8.8,9.7h8.8V528.5z"/>
		<path class="st1" d="M133.6,512.7h-15.8v-8.8h1.7v5.2h5.2v-3.5h1.8v3.5h5.2v-5.2h1.7v8.8H133.6z"/>
		<path class="st1" d="M133.6,495.2h-15.8v-3.5h14v-5.2h1.7L133.6,495.2L133.6,495.2z"/>
		<path class="st1" d="M133.6,483h-15.8v-8.8h1.7v5.2h5.2v-3.5h1.8v3.5h5.2v-5.2h1.7v8.8H133.6L133.6,483z"/>
		<path class="st1" d="M133.6,470.6h-12.2c-1,0-1.8-0.3-2.5-1s-1-1.5-1-2.5v-3.5c0-1,0.3-1.8,1-2.5s1.5-1,2.5-1h12.2v3.5h-7v3.5h7
			V470.6z M124.8,467.1v-3.5h-3.5c-0.5,0-0.9,0.2-1.2,0.5c-0.3,0.3-0.5,0.8-0.5,1.2c0,0.5,0.2,0.9,0.5,1.2s0.8,0.5,1.2,0.5
			L124.8,467.1L124.8,467.1z"/>
		<path class="st1" d="M133.6,456.6h-15.8v-7c0-1,0.3-1.8,1-2.5s1.5-1,2.5-1h0.9c0.8,0,1.5,0.3,2.3,0.8c0.7,0.5,1.1,1.4,1.1,2.7
			v-1.7c0-0.5,0.2-0.9,0.5-1.2c0.3-0.3,0.8-0.5,1.2-0.5h6.2v3.4h-5.2c-0.5,0-0.9,0.2-1.2,0.5c-0.3,0.3-0.5,0.8-0.5,1.2v1.7h7V456.6z
			 M124.8,453.1v-1.7c0-0.5-0.2-0.9-0.5-1.2c-0.3-0.3-0.8-0.5-1.2-0.5h-1.7c-0.5,0-0.9,0.2-1.2,0.5c-0.3,0.3-0.5,0.8-0.5,1.2v1.7
			H124.8z"/>
		<path class="st1" d="M133.6,442.6h-15.8v-0.8l8.8-9.7h-8.8v-1.8h15.8v0.8l-8.8,9.7h8.8V442.6z"/>
		<path class="st1" d="M133.6,425.1h-15.8v-3.5h15.8V425.1z"/>
		<path class="st1" d="M133.6,416.5h-15.8v-0.8l8.8-9.7h-8.8v-1.8h15.8v0.8l-8.8,9.7h8.8V416.5z"/>
		<path class="st1" d="M124.8,395.5v-5.2h5.2c1.2,0,2.1,0.4,2.6,1.1s0.9,1.5,0.9,2.4v3.5c0,1-0.3,1.8-1,2.5s-1.5,1-2.5,1h-8.7
			c-1,0-1.8-0.3-2.5-1s-1-1.5-1-2.5v-3.5c0-2.2,1.2-3.4,3.5-3.5v1.7c-1.2,0.1-1.8,0.7-1.8,1.7v1.8c0,0.5,0.2,0.9,0.5,1.2
			s0.8,0.5,1.2,0.5h8.7c0.5,0,0.9-0.2,1.2-0.5s0.5-0.8,0.5-1.2c-0.1-1.1-0.6-1.7-1.8-1.8h-3.5v1.8H124.8z"/>
	</g>
	<g class="st0">
		<path d="M164.4,358.1v-15.8h3.5v15.8H164.4z"/>
		<path d="M173.1,358.1v-15.8h0.8l9.7,8.8v-8.8h1.8v15.8h-0.8l-9.7-8.8v8.8H173.1z"/>
		<path d="M188.9,358.1v-15.8h8.8v1.7h-5.2v5.3h3.5v1.8h-3.5v7H188.9z"/>
		<path d="M204.6,342.3h3.5c1,0,1.8,0.3,2.5,1s1,1.5,1,2.5v8.7c0,1-0.3,1.8-1,2.5s-1.5,1-2.5,1h-3.5c-1,0-1.8-0.3-2.5-1
			s-1-1.5-1-2.5v-8.7c0-1,0.3-1.8,1-2.5C202.8,342.7,203.7,342.3,204.6,342.3z M204.6,345.9v8.7c0,0.5,0.2,0.9,0.5,1.2
			c0.3,0.3,0.8,0.5,1.2,0.5c0.5,0,0.9-0.2,1.2-0.5c0.3-0.4,0.5-0.8,0.5-1.2v-8.7c0-0.5-0.2-0.9-0.5-1.2c-0.3-0.3-0.8-0.5-1.2-0.5
			c-0.5,0-0.9,0.2-1.2,0.5C204.8,345,204.6,345.4,204.6,345.9z"/>
		<path d="M215.1,358.1v-15.8h7c1,0,1.8,0.3,2.5,1s1,1.5,1,2.5v0.9c0,0.8-0.3,1.5-0.8,2.3c-0.5,0.7-1.4,1.1-2.7,1.1h1.7
			c0.5,0,0.9,0.2,1.2,0.5s0.5,0.8,0.5,1.2v6.2H222v-5.2c0-0.5-0.2-0.9-0.5-1.2c-0.3-0.3-0.8-0.5-1.2-0.5h-1.7v7H215.1z M218.6,349.3
			h1.7c0.5,0,0.9-0.2,1.2-0.5s0.5-0.8,0.5-1.2v-1.7c0-0.5-0.2-0.9-0.5-1.2c-0.3-0.3-0.8-0.5-1.2-0.5h-1.7V349.3z"/>
		<path d="M229.1,358.1v-15.8h0.8l7.5,7.5l7.5-7.5h1.8v15.8h-3.5v-9.6l-6.1,6.1l-6.1-6.1v9.6H229.1z"/>
		<path d="M250.1,358.1v-12.2c0-1,0.3-1.8,1-2.5s1.5-1,2.5-1h3.5c1,0,1.8,0.3,2.5,1s1,1.5,1,2.5v12.2h-3.5v-7h-3.5v7H250.1z
			 M253.6,349.3h3.5v-3.5c0-0.5-0.2-0.9-0.5-1.2c-0.3-0.3-0.8-0.5-1.2-0.5c-0.5,0-0.9,0.2-1.2,0.5s-0.5,0.8-0.5,1.2v3.5H253.6z"/>
		<path d="M265.9,358.1v-14h-3.5v-1.7h10.5v1.7h-3.5v14H265.9z"/>
		<path d="M276.4,358.1v-15.8h3.5v15.8H276.4z"/>
		<path d="M288.6,342.3h3.5c1,0,1.8,0.3,2.5,1s1,1.5,1,2.5v8.7c0,1-0.3,1.8-1,2.5s-1.5,1-2.5,1h-3.5c-1,0-1.8-0.3-2.5-1
			s-1-1.5-1-2.5v-8.7c0-1,0.3-1.8,1-2.5C286.9,342.7,287.7,342.3,288.6,342.3z M288.6,345.9v8.7c0,0.5,0.2,0.9,0.5,1.2
			c0.3,0.3,0.8,0.5,1.2,0.5c0.5,0,0.9-0.2,1.2-0.5c0.3-0.4,0.5-0.8,0.5-1.2v-8.7c0-0.5-0.2-0.9-0.5-1.2c-0.3-0.3-0.8-0.5-1.2-0.5
			c-0.5,0-0.9,0.2-1.2,0.5C288.8,345,288.6,345.4,288.6,345.9z"/>
		<path d="M299.1,358.1v-15.8h0.8l9.7,8.8v-8.8h1.8v15.8h-0.8l-9.7-8.8v8.8H299.1z"/>
		<path d="M327.1,342.3h3.5v9.8c0,1.6-0.6,3-1.8,4.2c-1.2,1.2-2.6,1.8-4.2,1.8h-4.5v-15.8h3.5v14h1.7c0.5,0,0.9-0.2,1.2-0.5
			c0.3-0.4,0.5-0.8,0.5-1.2L327.1,342.3L327.1,342.3z"/>
		<path d="M335.9,358.1v-15.8h3.5v15.8H335.9z"/>
		<path d="M353.4,345.9h-1.7c-0.2-1.2-0.7-1.8-1.7-1.8c-0.6,0-1.1,0.1-1.4,0.4s-0.5,0.7-0.5,1.3c0,0.4,0.2,0.8,0.5,1.2l3.7,4.2
			c0.7,0.8,1,1.6,1,2.5v0.9c0,1-0.3,1.8-1,2.5s-1.5,1-2.5,1h-1.7c-1.2,0-2-0.3-2.6-0.9s-0.9-1.5-0.9-2.6h1.8c0,0.1,0,0.2,0,0.3
			c0,0.5,0.2,0.8,0.5,1.1c0.4,0.3,0.8,0.4,1.2,0.4c0.6,0,1.1-0.2,1.3-0.5s0.4-0.7,0.4-1.3c0-0.4-0.2-0.9-0.5-1.2l-3.7-4.2
			c-0.7-0.8-1-1.6-1-2.5v-0.9c0-1,0.3-1.8,1-2.5s1.5-1,2.5-1h1.7C352.1,342.3,353.3,343.5,353.4,345.9z"/>
		<path d="M363.9,342.3h3.5v12.2c0,1-0.3,1.8-1,2.5s-1.5,1-2.5,1h-3.5c-1,0-1.8-0.3-2.5-1s-1-1.5-1-2.5v-12.2h3.5v12.2
			c0,0.5,0.2,0.9,0.5,1.2c0.3,0.3,0.8,0.5,1.2,0.5c0.5,0,0.9-0.2,1.2-0.5c0.3-0.4,0.5-0.8,0.5-1.2L363.9,342.3L363.9,342.3z"/>
		<path d="M370.9,358.1v-12.2c0-1,0.3-1.8,1-2.5s1.5-1,2.5-1h3.5c1,0,1.8,0.3,2.5,1s1,1.5,1,2.5v12.2h-3.5v-7h-3.5v7H370.9z
			 M374.4,349.3h3.5v-3.5c0-0.5-0.2-0.9-0.5-1.2c-0.3-0.3-0.8-0.5-1.2-0.5c-0.5,0-0.9,0.2-1.2,0.5c-0.3,0.3-0.5,0.8-0.5,1.2
			L374.4,349.3L374.4,349.3z"/>
		<path d="M384.9,358.1v-15.8h3.5v14h5.2v1.7L384.9,358.1L384.9,358.1z"/>
		<path d="M398.9,358.1v-15.8h3.5v15.8H398.9z"/>
		<path d="M407.6,342.3h10.5v1.7l-7,12.3h7v1.7h-10.5v-1.6l7-12.3h-7V342.3z"/>
		<path d="M421.6,358.1v-12.2c0-1,0.3-1.8,1-2.5s1.5-1,2.5-1h3.5c1,0,1.8,0.3,2.5,1s1,1.5,1,2.5v12.2h-3.5v-7h-3.5v7H421.6z
			 M425.1,349.3h3.5v-3.5c0-0.5-0.2-0.9-0.5-1.2c-0.3-0.3-0.8-0.5-1.2-0.5c-0.5,0-0.9,0.2-1.2,0.5c-0.3,0.3-0.5,0.8-0.5,1.2
			L425.1,349.3L425.1,349.3z"/>
		<path d="M437.4,358.1v-14h-3.5v-1.7h10.5v1.7h-3.5v14H437.4z"/>
		<path d="M447.9,358.1v-15.8h3.5v15.8H447.9z"/>
		<path d="M460.2,342.3h3.5c1,0,1.8,0.3,2.5,1s1,1.5,1,2.5v8.7c0,1-0.3,1.8-1,2.5s-1.5,1-2.5,1h-3.5c-1,0-1.8-0.3-2.5-1
			s-1-1.5-1-2.5v-8.7c0-1,0.3-1.8,1-2.5C458.4,342.7,459.2,342.3,460.2,342.3z M460.2,345.9v8.7c0,0.5,0.2,0.9,0.5,1.2
			c0.3,0.3,0.8,0.5,1.2,0.5c0.5,0,0.9-0.2,1.2-0.5c0.3-0.4,0.5-0.8,0.5-1.2v-8.7c0-0.5-0.2-0.9-0.5-1.2c-0.3-0.3-0.8-0.5-1.2-0.5
			c-0.5,0-0.9,0.2-1.2,0.5C460.3,345,460.2,345.4,460.2,345.9z"/>
		<path d="M470.7,358.1v-15.8h0.8l9.7,8.8v-8.8h1.8v15.8h-0.8l-9.7-8.8v8.8H470.7z"/>
	</g>
	<g class="st0">
		<path d="M580.4,265.6v-15.7h0.8l7.5,7.5l7.5-7.5h1.8v15.7h-3.5V256l-6.1,6.1l-6.1-6.1v9.6H580.4z"/>
		<path d="M604.9,249.8h3.5c1,0,1.8,0.3,2.5,1s1,1.5,1,2.5v8.7c0,1-0.3,1.8-1,2.5s-1.5,1-2.5,1h-3.5c-1,0-1.8-0.3-2.5-1
			s-1-1.5-1-2.5v-8.7c0-1,0.3-1.8,1-2.5C603.2,250.2,604,249.8,604.9,249.8z M604.9,253.4v8.7c0,0.5,0.2,0.9,0.5,1.2
			c0.3,0.3,0.8,0.5,1.2,0.5c0.5,0,0.9-0.2,1.2-0.5c0.3-0.4,0.5-0.8,0.5-1.2v-8.7c0-0.5-0.2-0.9-0.5-1.2s-0.8-0.5-1.2-0.5
			c-0.5,0-0.9,0.2-1.2,0.5C605.1,252.5,604.9,252.9,604.9,253.4z"/>
		<path d="M617.2,265.6v-14h-3.5v-1.7h10.5v1.7h-3.5v14H617.2z"/>
		<path d="M627.7,265.6v-15.7h3.5v15.7H627.7z"/>
		<path d="M640,249.8h3.5c1,0,1.8,0.3,2.5,1s1,1.5,1,2.5v8.7c0,1-0.3,1.8-1,2.5s-1.5,1-2.5,1H640c-1,0-1.8-0.3-2.5-1s-1-1.5-1-2.5
			v-8.7c0-1,0.3-1.8,1-2.5C638.2,250.2,639,249.8,640,249.8z M640,253.4v8.7c0,0.5,0.2,0.9,0.5,1.2c0.3,0.3,0.8,0.5,1.2,0.5
			c0.5,0,0.9-0.2,1.2-0.5c0.3-0.4,0.5-0.8,0.5-1.2v-8.7c0-0.5-0.2-0.9-0.5-1.2s-0.8-0.5-1.2-0.5c-0.5,0-0.9,0.2-1.2,0.5
			C640.1,252.5,640,252.9,640,253.4z"/>
		<path d="M650.5,265.6v-15.7h0.8l9.7,8.8v-8.8h1.8v15.7H662l-9.7-8.8v8.8H650.5z"/>
		<path d="M671.5,265.6v-15.7h7c1,0,1.8,0.3,2.5,1s1,1.5,1,2.5v8.7c0,1-0.3,1.8-1,2.5s-1.5,1-2.5,1H671.5z M675,263.9h1.7
			c0.5,0,0.9-0.2,1.2-0.5c0.3-0.4,0.5-0.8,0.5-1.2v-8.7c0-0.5-0.2-0.9-0.5-1.2s-0.8-0.5-1.2-0.5H675V263.9z"/>
		<path d="M685.5,265.6v-15.7h8.8v1.7H689v5.2h3.5v1.8H689v5.2h5.2v1.7L685.5,265.6L685.5,265.6z"/>
		<path d="M706.5,253.4h-1.7c-0.2-1.2-0.7-1.8-1.7-1.8c-0.6,0-1.1,0.1-1.4,0.4c-0.3,0.3-0.5,0.7-0.5,1.3c0,0.4,0.2,0.8,0.5,1.2
			l3.7,4.2c0.7,0.8,1,1.6,1,2.5v0.9c0,1-0.3,1.8-1,2.5s-1.5,1-2.5,1h-1.7c-1.2,0-2-0.3-2.6-0.9s-0.9-1.5-0.9-2.6h1.8
			c0,0.1,0,0.2,0,0.3c0,0.5,0.2,0.8,0.5,1.1c0.4,0.3,0.8,0.4,1.2,0.4c0.6,0,1.1-0.2,1.3-0.5c0.3-0.3,0.4-0.7,0.4-1.3
			c0-0.4-0.2-0.9-0.5-1.2l-3.7-4.2c-0.7-0.8-1-1.6-1-2.5v-0.9c0-1,0.3-1.8,1-2.5s1.5-1,2.5-1h1.7C705.2,249.8,706.3,251,706.5,253.4
			z"/>
		<path d="M711.7,265.6v-15.7h3.5v15.7H711.7z"/>
		<path d="M725.7,256.8h5.2v5.2c0,1.2-0.4,2.1-1.1,2.6s-1.5,0.9-2.4,0.9H724c-1,0-1.8-0.3-2.5-1s-1-1.5-1-2.5v-8.7
			c0-1,0.3-1.8,1-2.5s1.5-1,2.5-1h3.5c2.2,0,3.4,1.2,3.5,3.5h-1.7c-0.1-1.2-0.7-1.8-1.7-1.8h-1.8c-0.5,0-0.9,0.2-1.2,0.5
			s-0.5,0.8-0.5,1.2v8.7c0,0.5,0.2,0.9,0.5,1.2c0.3,0.3,0.8,0.5,1.2,0.5c1.1-0.1,1.7-0.6,1.8-1.8v-3.5h-1.8L725.7,256.8L725.7,256.8
			z"/>
		<path d="M734.5,265.6v-15.7h0.8l9.7,8.8v-8.8h1.8v15.7H746l-9.7-8.8v8.8H734.5z"/>
	</g>
	<g>
		<path class="st1" d="M117.6,154.1h16v-4h2v12h-2v-4h-16C117.6,158.1,117.6,154.1,117.6,154.1z"/>
		<path class="st1" d="M117.6,164.1h18v10h-2v-6h-6v4h-2v-4h-6v6h-2C117.6,174.1,117.6,164.1,117.6,164.1z"/>
		<path class="st1" d="M121.6,190.1c-2.7-0.2-4-1.5-4-4v-4c0-1.1,0.4-2,1.2-2.8c0.8-0.8,1.7-1.2,2.8-1.2h10c1.1,0,2,0.4,2.8,1.2
			s1.2,1.7,1.2,2.8v4c0,2.5-1.3,3.8-4,4v-2c1.3-0.2,2-0.8,2-2v-2c0-0.5-0.2-1-0.6-1.4c-0.4-0.4-0.9-0.6-1.4-0.6h-10
			c-0.5,0-1,0.2-1.4,0.6c-0.4,0.4-0.6,0.9-0.6,1.4v2c0,1.2,0.7,1.8,2,2C121.6,188.1,121.6,190.1,121.6,190.1z"/>
		<path class="st1" d="M117.6,194.1h18v4h-8v4h8v4h-18v-4h8v-4h-8C117.6,198.1,117.6,194.1,117.6,194.1z"/>
	</g>
	<g>
		<path class="st1" d="M518.3,150.8h14c1.1,0,2,0.4,2.8,1.2s1.2,1.7,1.2,2.8v4c0,1.1-0.4,2-1.2,2.8s-1.7,1.2-2.8,1.2h-14v-4h8v-4h-8
			V150.8z M528.3,154.8v4h4c0.6,0,1-0.2,1.4-0.6s0.6-0.9,0.6-1.4s-0.2-1-0.6-1.4c-0.4-0.4-0.9-0.6-1.4-0.6H528.3z"/>
		<path class="st1" d="M518.3,166.8h18v8c0,1.1-0.4,2-1.2,2.8s-1.7,1.2-2.8,1.2h-1.1c-0.9,0-1.8-0.3-2.6-0.9
			c-0.8-0.6-1.2-1.6-1.2-3.1v2c0,0.5-0.2,1-0.6,1.4c-0.4,0.4-0.9,0.6-1.4,0.6h-7.1v-4h6c0.5,0,1-0.2,1.4-0.6
			c0.4-0.4,0.6-0.9,0.6-1.4v-2h-8L518.3,166.8L518.3,166.8z M528.3,170.8v2c0,0.6,0.2,1,0.6,1.4c0.4,0.4,0.9,0.6,1.4,0.6h2
			c0.6,0,1-0.2,1.4-0.6s0.6-0.9,0.6-1.4v-2H528.3z"/>
		<path class="st1" d="M518.3,184.8h16v-4h2v12h-2v-4h-16V184.8z"/>
	</g>
	<g>
		<path class="st1" d="M516.9,628.2v-3.5h12.2c1,0,1.8,0.3,2.5,1s1,1.5,1,2.5v3.5c0,1-0.3,1.8-1,2.5s-1.5,1-2.5,1h-12.2v-3.5h12.2
			c0.5,0,0.9-0.2,1.2-0.5s0.5-0.8,0.5-1.2c0-0.5-0.2-0.9-0.5-1.2c-0.4-0.3-0.8-0.5-1.2-0.5L516.9,628.2L516.9,628.2z"/>
		<path class="st1" d="M532.7,621.2h-4.4c-2.1,0-3.2-1.2-3.5-3.5c-0.3,2.3-1.4,3.5-3.5,3.5h-4.4v-3.5h5.2c0.5,0,0.9-0.2,1.2-0.5
			s0.5-0.8,0.5-1.2c0-0.5-0.2-0.9-0.5-1.2s-0.8-0.5-1.2-0.5h-5.2v-3.5h4.4c2.1,0,3.2,1.2,3.5,3.5c0.3-2.3,1.5-3.5,3.5-3.5h4.4v3.5
			h-5.2c-0.5,0-0.9,0.2-1.2,0.5s-0.5,0.8-0.5,1.2c0,0.5,0.2,0.9,0.5,1.2s0.8,0.5,1.2,0.5h5.2V621.2z"/>
		<path class="st1" d="M532.7,601.9h-15.8v-7c0-1,0.3-1.8,1-2.5s1.5-1,2.5-1h8.7c1,0,1.8,0.3,2.5,1s1,1.5,1,2.5L532.7,601.9
			L532.7,601.9z M531,598.4v-1.7c0-0.5-0.2-0.9-0.5-1.2c-0.4-0.3-0.8-0.5-1.2-0.5h-8.7c-0.5,0-0.9,0.2-1.2,0.5s-0.5,0.8-0.5,1.2v1.7
			H531z"/>
		<path class="st1" d="M527.4,577.4v7h1.7c0.5,0,0.9-0.2,1.2-0.5s0.5-0.8,0.5-1.2v-1.8c0-1.2-0.6-1.7-1.8-1.7v-1.7
			c2.3,0.3,3.5,1.4,3.5,3.5v3.5c0,1-0.3,1.8-1,2.5s-1.5,1-2.5,1h-5.2c-1,0-1.8-0.3-2.5-1s-1-1.5-1-2.5V581c0-1,0.3-1.8,1-2.5
			s1.5-1,2.5-1L527.4,577.4L527.4,577.4z M525.7,584.4v-3.5h-1.8c-0.5,0-0.9,0.2-1.2,0.5s-0.5,0.8-0.5,1.2c0,0.5,0.2,0.9,0.5,1.2
			s0.8,0.5,1.2,0.5L525.7,584.4L525.7,584.4z"/>
		<path class="st1" d="M523.9,565.2v1.7c-1.2,0.2-1.7,0.7-1.7,1.7c0,0.6,0.1,1.1,0.4,1.4c0.2,0.3,0.6,0.5,1.1,0.5s1.2-0.8,2.1-2.5
			c0.7-1.4,1.4-2.2,1.8-2.4c0.4-0.2,1-0.3,1.6-0.3c1,0,1.8,0.3,2.5,1s1,1.5,1,2.5v1.7c0,2.3-1.2,3.5-3.5,3.5v-1.8
			c1.2-0.1,1.8-0.7,1.8-1.6c0-0.6-0.1-1.1-0.4-1.4s-0.6-0.5-1.1-0.5s-1.2,0.8-2.1,2.5c-0.7,1.4-1.4,2.2-1.8,2.4
			c-0.5,0.2-1,0.3-1.6,0.3c-1,0-1.8-0.3-2.5-1s-1-1.5-1-2.5v-1.7C520.5,566.5,521.6,565.2,523.9,565.2z"/>
		<path class="st1" d="M518.7,561.7H517v-3.5h1.7V561.7z M532.7,561.7h-12.2v-3.5h12.2V561.7z"/>
		<path class="st1" d="M520.5,544.2h14c1,0,1.8,0.3,2.5,1s1,1.5,1,2.5v3.5c0,2.1-1.2,3.2-3.5,3.5v-1.8c1.2-0.1,1.8-0.7,1.8-1.7v-1.7
			c0-0.5-0.2-0.9-0.5-1.2s-0.8-0.5-1.2-0.5h-3.5c1.2,0.1,1.7,0.7,1.7,1.8v1.7c0,1-0.3,1.8-1,2.5s-1.5,1-2.5,1h-5.2
			c-1,0-1.8-0.3-2.5-1s-1-1.5-1-2.5L520.5,544.2L520.5,544.2z M522.2,547.7v1.8c0,0.5,0.2,0.9,0.5,1.2s0.8,0.5,1.2,0.5h5.2
			c0.5,0,0.9-0.2,1.2-0.5s0.5-0.8,0.5-1.2c0-0.5-0.2-0.9-0.5-1.2c-0.4-0.3-0.8-0.5-1.2-0.5L522.2,547.7L522.2,547.7z"/>
		<path class="st1" d="M532.7,540.7h-12.2v-3.5h1.7c-0.6-0.1-1-0.3-1.3-0.5s-0.4-0.7-0.4-1.2v-1.8c0-1,0.3-1.8,1-2.5s1.5-1,2.5-1
			h8.8v3.5H524c-0.5,0-0.9,0.2-1.2,0.5s-0.5,0.8-0.5,1.2c0,0.5,0.2,0.9,0.5,1.2s0.8,0.5,1.2,0.5h8.8L532.7,540.7L532.7,540.7z"/>
	</g>
	<g class="st0">
		<path d="M584.2,545.1v-15.3h-3.8v-1.9h11.5v1.9h-3.8v15.3H584.2z"/>
		<path d="M601.5,537.4v-1.9c0-0.5-0.2-1-0.6-1.3s-0.8-0.6-1.4-0.6h-1.9c-1.1,0-1.8,0.6-1.9,1.9h-1.9c0.3-2.5,1.6-3.8,3.8-3.8h3.8
			c1,0,1.9,0.4,2.7,1.1c0.8,0.8,1.1,1.6,1.1,2.7v9.6h-3.8v-1.9c-0.2,1.3-0.8,1.9-1.9,1.9h-1.9c-1,0-1.9-0.4-2.7-1.1
			s-1.1-1.7-1.1-2.7c0-1,0.4-1.9,1.1-2.7c0.8-0.8,1.7-1.1,2.7-1.1H601.5z M601.5,539.3h-1.9c-0.5,0-1,0.2-1.3,0.6s-0.6,0.8-0.6,1.3
			s0.2,1,0.6,1.4c0.4,0.4,0.8,0.6,1.3,0.6c0.5,0,1-0.2,1.4-0.6c0.4-0.4,0.6-0.8,0.6-1.4V539.3z"/>
		<path d="M609.1,531.7h3.8v1.9c0-0.6,0.2-1.1,0.5-1.4s0.8-0.5,1.4-0.5h1.9c1,0,1.9,0.4,2.7,1.1c0.8,0.8,1.1,1.6,1.1,2.7v5.8
			c0,1.1-0.4,2-1.1,2.7s-1.6,1.1-2.7,1.1H613v3.8h-3.8V531.7z M613,543.2h1.9c0.5,0,1-0.2,1.4-0.6c0.4-0.4,0.6-0.8,0.6-1.4v-5.8
			c0-0.5-0.2-1-0.6-1.3s-0.8-0.6-1.4-0.6c-0.5,0-1,0.2-1.3,0.6s-0.6,0.8-0.6,1.3V543.2z"/>
		<path d="M626.4,545.1v-15.3h-3.8v-1.9h11.5v1.9h-3.8v15.3H626.4z"/>
		<path d="M639.8,531.7h3.8c1,0,1.9,0.4,2.7,1.1c0.8,0.8,1.1,1.6,1.1,2.7v5.8c0,1-0.4,1.9-1.1,2.7s-1.6,1.1-2.7,1.1h-3.8
			c-1,0-1.9-0.4-2.7-1.1s-1.1-1.7-1.1-2.7v-5.8c0-1,0.4-1.9,1.1-2.7C637.9,532,638.8,531.7,639.8,531.7z M639.8,535.5v5.8
			c0,0.5,0.2,1,0.6,1.4c0.4,0.4,0.8,0.6,1.3,0.6c0.5,0,1-0.2,1.4-0.6c0.4-0.4,0.6-0.8,0.6-1.4v-5.8c0-0.5-0.2-1-0.6-1.3
			s-0.8-0.6-1.4-0.6c-0.5,0-1,0.2-1.3,0.6S639.8,535,639.8,535.5z"/>
	</g>
	<g class="st0">
		<path d="M166.3,448.3v-17.2h7.7c1,0,1.9,0.4,2.7,1.1c0.8,0.8,1.1,1.7,1.1,2.7v1.9c0,1-0.4,1.9-1.1,2.7c-0.8,0.8-1.6,1.1-2.7,1.1
			h-3.8v7.7H166.3z M170.2,438.7h1.9c0.5,0,1-0.2,1.4-0.6c0.4-0.4,0.6-0.8,0.6-1.3v-1.9c0-0.5-0.2-1-0.6-1.4
			c-0.4-0.4-0.8-0.6-1.4-0.6h-1.9V438.7z"/>
		<path d="M183.6,434.9h-1.9c0.3-2.6,1.6-3.8,3.8-3.8h3.8c1,0,1.9,0.4,2.7,1.1c0.8,0.8,1.1,1.7,1.1,2.7v0.9c0,1.3-1.2,3.1-3.7,5.2
			l-0.3,0.2c-2.5,2.1-3.7,3.8-3.7,5v0.2h7.7v1.9h-11.5v-1.9c0-1.3,1.2-3.1,3.7-5.2l0.3-0.2c2.5-2.1,3.7-3.8,3.7-5.2v-0.9
			c0-0.5-0.2-1-0.6-1.4c-0.4-0.4-0.8-0.6-1.4-0.6h-1.9C184.3,433,183.7,433.6,183.6,434.9z"/>
		<path d="M197,448.3v-17.2h7.7c1,0,1.9,0.4,2.7,1.1c0.8,0.8,1.1,1.7,1.1,2.7v1.9c0,1-0.4,1.9-1.1,2.7c-0.8,0.8-1.6,1.1-2.7,1.1
			h-3.8v7.7H197z M200.8,438.7h1.9c0.5,0,1-0.2,1.4-0.6c0.4-0.4,0.6-0.8,0.6-1.3v-1.9c0-0.5-0.2-1-0.6-1.4c-0.4-0.4-0.8-0.6-1.4-0.6
			h-1.9V438.7z"/>
		<path d="M218.1,448.3v-17.2h7.7c1,0,1.9,0.4,2.7,1.1c0.8,0.8,1.1,1.7,1.1,2.7v1c0,0.9-0.3,1.7-0.9,2.5c-0.6,0.8-1.6,1.2-2.9,1.2
			h1.9c0.5,0,1,0.2,1.3,0.6c0.4,0.4,0.6,0.8,0.6,1.4v6.8h-3.8v-5.8c0-0.5-0.2-1-0.6-1.3c-0.4-0.4-0.8-0.6-1.4-0.6h-1.9v7.7H218.1z
			 M221.9,438.7h1.9c0.5,0,1-0.2,1.4-0.6c0.4-0.4,0.6-0.8,0.6-1.3v-1.9c0-0.5-0.2-1-0.6-1.4c-0.4-0.4-0.8-0.6-1.4-0.6h-1.9V438.7z"
			/>
		<path d="M233.4,433v-1.9h3.8v1.9H233.4z M233.4,448.3v-13.4h3.8v13.4H233.4z"/>
		<path d="M250.7,438.7h-1.9c-0.2-1.3-0.8-1.9-1.8-1.9c-0.7,0-1.2,0.1-1.5,0.4c-0.3,0.3-0.5,0.7-0.5,1.2c0,0.6,0.9,1.3,2.8,2.3
			c1.5,0.8,2.4,1.5,2.6,2c0.2,0.5,0.3,1.1,0.3,1.7c0,1.1-0.4,2-1.1,2.7c-0.8,0.8-1.7,1.1-2.7,1.1h-1.9c-2.6,0-3.8-1.3-3.8-3.8h1.9
			c0.2,1.3,0.8,1.9,1.8,1.9c0.7,0,1.2-0.1,1.5-0.4s0.5-0.7,0.5-1.2c0-0.5-0.9-1.3-2.8-2.3c-1.5-0.8-2.4-1.5-2.6-2
			c-0.2-0.5-0.4-1.1-0.4-1.7c0-1.1,0.4-2,1.1-2.7c0.8-0.8,1.7-1.1,2.7-1.1h1.9C249.2,434.9,250.5,436.2,250.7,438.7z"/>
		<path d="M254.5,448.3v-17.2h3.8v8.6l5.8-4.8h3.8l-8,6.7l8,6.7h-3.8l-5.8-4.8v4.8H254.5z"/>
		<path d="M275.6,448.3v-17.2h9.6v1.9h-5.8v5.8h3.8v1.9h-3.8v5.8h5.8v1.9H275.6z"/>
		<path d="M296.7,434.9h3.8v6.9c0,1.8-0.6,3.3-1.9,4.6s-2.8,1.9-4.6,1.9h-5v-13.4h3.8v11.5h1.9c0.5,0,1-0.2,1.4-0.6
			c0.4-0.4,0.6-0.8,0.6-1.4V434.9z"/>
		<path d="M312,440.7v-1.9c0-0.5-0.2-1-0.6-1.3c-0.4-0.4-0.8-0.6-1.4-0.6h-1.9c-1.1,0-1.8,0.6-1.9,1.9h-1.9c0.3-2.5,1.6-3.8,3.8-3.8
			h3.8c1,0,1.9,0.4,2.7,1.1c0.8,0.8,1.1,1.6,1.1,2.7v9.6H312v-1.9c-0.2,1.3-0.8,1.9-1.9,1.9h-1.9c-1,0-1.9-0.4-2.7-1.1
			c-0.8-0.8-1.1-1.7-1.1-2.7c0-1,0.4-1.9,1.1-2.7c0.8-0.8,1.7-1.1,2.7-1.1H312z M312,442.6h-1.9c-0.5,0-1,0.2-1.3,0.6
			c-0.4,0.4-0.6,0.8-0.6,1.3s0.2,1,0.6,1.4c0.4,0.4,0.8,0.6,1.3,0.6c0.5,0,1-0.2,1.4-0.6c0.4-0.4,0.6-0.8,0.6-1.4V442.6z"/>
		<path d="M319.7,448.3v-17.2h3.8v17.2H319.7z"/>
		<path d="M338.8,434.9v13.4H335v-1.9c-0.2,1.3-0.8,1.9-1.9,1.9h-1.9c-1,0-1.9-0.4-2.7-1.1c-0.8-0.8-1.1-1.7-1.1-2.7v-9.6h3.8v9.6
			c0,0.5,0.2,1,0.6,1.4c0.4,0.4,0.8,0.6,1.3,0.6c0.5,0,1-0.2,1.4-0.6c0.4-0.4,0.6-0.8,0.6-1.4v-9.6H338.8z"/>
		<path d="M350.4,440.7v-1.9c0-0.5-0.2-1-0.6-1.3c-0.4-0.4-0.8-0.6-1.4-0.6h-1.9c-1.1,0-1.8,0.6-1.9,1.9h-1.9
			c0.3-2.5,1.6-3.8,3.8-3.8h3.8c1,0,1.9,0.4,2.7,1.1c0.8,0.8,1.1,1.6,1.1,2.7v9.6h-3.8v-1.9c-0.2,1.3-0.8,1.9-1.9,1.9h-1.9
			c-1,0-1.9-0.4-2.7-1.1c-0.8-0.8-1.1-1.7-1.1-2.7c0-1,0.4-1.9,1.1-2.7c0.8-0.8,1.7-1.1,2.7-1.1H350.4z M350.4,442.6h-1.9
			c-0.5,0-1,0.2-1.3,0.6c-0.4,0.4-0.6,0.8-0.6,1.3s0.2,1,0.6,1.4c0.4,0.4,0.8,0.6,1.3,0.6c0.5,0,1-0.2,1.4-0.6
			c0.4-0.4,0.6-0.8,0.6-1.4V442.6z"/>
		<path d="M359.9,431.1h3.8v3.8h1.9v1.9h-1.9v7.7c0,0.6,0.2,1.1,0.6,1.4c0.4,0.3,0.8,0.5,1.1,0.5h0.2v1.9h-1.9c-1,0-1.9-0.4-2.7-1.1
			s-1.1-1.7-1.1-2.7v-7.7H358v-1.9h1.9V431.1z"/>
		<path d="M369.5,433v-1.9h3.8v1.9H369.5z M369.5,448.3v-13.4h3.8v13.4H369.5z"/>
		<path d="M381,434.9h3.8c1,0,1.9,0.4,2.7,1.1c0.8,0.8,1.1,1.6,1.1,2.7v5.8c0,1-0.4,1.9-1.1,2.7c-0.8,0.8-1.6,1.1-2.7,1.1H381
			c-1,0-1.9-0.4-2.7-1.1c-0.8-0.8-1.1-1.7-1.1-2.7v-5.8c0-1,0.4-1.9,1.1-2.7C379.1,435.3,380,434.9,381,434.9z M381,438.7v5.8
			c0,0.5,0.2,1,0.6,1.4c0.4,0.4,0.8,0.6,1.3,0.6c0.5,0,1-0.2,1.4-0.6c0.4-0.4,0.6-0.8,0.6-1.4v-5.8c0-0.5-0.2-1-0.6-1.3
			c-0.4-0.4-0.8-0.6-1.4-0.6c-0.5,0-1,0.2-1.3,0.6C381.2,437.8,381,438.2,381,438.7z"/>
		<path d="M392.5,448.3v-13.4h3.8v1.9c0.1-0.6,0.3-1.1,0.6-1.4c0.3-0.3,0.8-0.5,1.3-0.5h1.9c1,0,1.9,0.4,2.7,1.1
			c0.8,0.8,1.1,1.6,1.1,2.7v9.6h-3.8v-9.6c0-0.5-0.2-1-0.6-1.3c-0.4-0.4-0.8-0.6-1.4-0.6c-0.5,0-1,0.2-1.3,0.6
			c-0.4,0.4-0.6,0.8-0.6,1.3v9.6H392.5z"/>
	</g>
	<g class="st0">
		<path d="M175.9,528.6H174c-0.2-1.3-0.8-1.9-1.8-1.9c-0.7,0-1.2,0.2-1.5,0.5c-0.3,0.3-0.5,0.8-0.5,1.4c0,0.5,0.2,0.9,0.6,1.4
			l4.1,4.6c0.8,0.8,1.1,1.7,1.1,2.7v0.9c0,1-0.4,1.9-1.1,2.7c-0.8,0.8-1.7,1.1-2.7,1.1h-1.9c-1.3,0-2.2-0.3-2.9-1
			c-0.6-0.6-1-1.6-1-2.9h1.9c0,0.1,0,0.2,0,0.3c0,0.5,0.2,0.9,0.6,1.2c0.4,0.3,0.8,0.4,1.3,0.4c0.7,0,1.2-0.2,1.5-0.5
			s0.4-0.8,0.4-1.4c0-0.5-0.2-0.9-0.6-1.4l-4.1-4.6c-0.8-0.8-1.1-1.7-1.1-2.7v-0.9c0-1,0.4-1.9,1.1-2.7c0.8-0.8,1.7-1.1,2.7-1.1h1.9
			C174.5,524.8,175.7,526.1,175.9,528.6z"/>
		<path d="M179.7,542v-17.2h3.8v5.8c0.1-0.6,0.3-1.1,0.6-1.4c0.3-0.3,0.8-0.5,1.3-0.5h1.9c1,0,1.9,0.4,2.7,1.1
			c0.8,0.8,1.1,1.6,1.1,2.7v9.6h-3.8v-9.6c0-0.5-0.2-1-0.6-1.3c-0.4-0.4-0.8-0.6-1.4-0.6c-0.5,0-1,0.2-1.3,0.6
			c-0.4,0.4-0.6,0.8-0.6,1.3v9.6H179.7z"/>
		<path d="M206.6,528.6V542h-3.8v-1.9c-0.2,1.3-0.8,1.9-1.9,1.9h-1.9c-1,0-1.9-0.4-2.7-1.1c-0.8-0.8-1.1-1.7-1.1-2.7v-9.6h3.8v9.6
			c0,0.5,0.2,1,0.6,1.4c0.4,0.4,0.8,0.6,1.3,0.6c0.5,0,1-0.2,1.4-0.6c0.4-0.4,0.6-0.8,0.6-1.4v-9.6H206.6z"/>
		<path d="M216.1,542v-17.2h3.8v7.7h3.8v-7.7h3.8V542h-3.8v-7.7H220v7.7H216.1z"/>
		<path d="M243,528.6V542h-3.8v-1.9c-0.2,1.3-0.8,1.9-1.9,1.9h-1.9c-1,0-1.9-0.4-2.7-1.1c-0.8-0.8-1.1-1.7-1.1-2.7v-9.6h3.8v9.6
			c0,0.5,0.2,1,0.6,1.4c0.4,0.4,0.8,0.6,1.3,0.6c0.5,0,1-0.2,1.4-0.6c0.4-0.4,0.6-0.8,0.6-1.4v-9.6H243z"/>
		<path d="M254.5,534.4v-1.9c0-0.5-0.2-1-0.6-1.3c-0.4-0.4-0.8-0.6-1.4-0.6h-1.9c-1.1,0-1.8,0.6-1.9,1.9h-1.9
			c0.3-2.5,1.6-3.8,3.8-3.8h3.8c1,0,1.9,0.4,2.7,1.1c0.8,0.8,1.1,1.6,1.1,2.7v9.6h-3.8v-1.9c-0.2,1.3-0.8,1.9-1.9,1.9h-1.9
			c-1,0-1.9-0.4-2.7-1.1c-0.8-0.8-1.1-1.7-1.1-2.7c0-1,0.4-1.9,1.1-2.7c0.8-0.8,1.7-1.1,2.7-1.1H254.5z M254.5,536.3h-1.9
			c-0.5,0-1,0.2-1.3,0.6c-0.4,0.4-0.6,0.8-0.6,1.3s0.2,1,0.6,1.4c0.4,0.4,0.8,0.6,1.3,0.6c0.5,0,1-0.2,1.4-0.6
			c0.4-0.4,0.6-0.8,0.6-1.4V536.3z"/>
	</g>
	<g class="st0">
		<path d="M166.3,260.9v-17.2h7.7c1,0,1.9,0.4,2.7,1.1c0.8,0.8,1.1,1.7,1.1,2.7v9.6c0,1-0.4,1.9-1.1,2.7c-0.8,0.8-1.6,1.1-2.7,1.1
			H166.3z M170.1,259h1.9c0.5,0,1-0.2,1.4-0.6c0.4-0.4,0.6-0.8,0.6-1.4v-9.6c0-0.5-0.2-1-0.6-1.4c-0.4-0.4-0.8-0.6-1.4-0.6h-1.9V259
			z"/>
		<path d="M185.5,247.5h3.8c1,0,1.9,0.4,2.7,1.1c0.8,0.8,1.1,1.6,1.1,2.7v5.7c0,1-0.4,1.9-1.1,2.7c-0.8,0.8-1.6,1.1-2.7,1.1h-3.8
			c-1,0-1.9-0.4-2.7-1.1c-0.8-0.8-1.1-1.7-1.1-2.7v-5.7c0-1,0.4-1.9,1.1-2.7C183.5,247.8,184.4,247.5,185.5,247.5z M185.5,251.3v5.7
			c0,0.5,0.2,1,0.6,1.4c0.4,0.4,0.8,0.6,1.3,0.6c0.5,0,1-0.2,1.4-0.6c0.4-0.4,0.6-0.8,0.6-1.4v-5.7c0-0.5-0.2-1-0.6-1.3
			c-0.4-0.4-0.8-0.6-1.4-0.6c-0.5,0-1,0.2-1.3,0.6C185.7,250.3,185.5,250.8,185.5,251.3z"/>
		<path d="M200.8,247.5h3.8c1,0,1.9,0.4,2.7,1.1c0.8,0.8,1.1,1.6,1.1,2.7v5.7c0,1-0.4,1.9-1.1,2.7c-0.8,0.8-1.6,1.1-2.7,1.1h-3.8
			c-1,0-1.9-0.4-2.7-1.1c-0.8-0.8-1.1-1.7-1.1-2.7v-5.7c0-1,0.4-1.9,1.1-2.7C198.9,247.8,199.8,247.5,200.8,247.5z M200.8,251.3v5.7
			c0,0.5,0.2,1,0.6,1.4c0.4,0.4,0.8,0.6,1.3,0.6c0.5,0,1-0.2,1.4-0.6c0.4-0.4,0.6-0.8,0.6-1.4v-5.7c0-0.5-0.2-1-0.6-1.3
			c-0.4-0.4-0.8-0.6-1.4-0.6c-0.5,0-1,0.2-1.3,0.6C201,250.3,200.8,250.8,200.8,251.3z"/>
		<path d="M223.8,260.9H220V259c-0.2,1.3-0.8,1.9-1.9,1.9h-1.9c-1,0-1.9-0.4-2.7-1.1c-0.8-0.8-1.1-1.7-1.1-2.7v-5.7
			c0-1,0.4-1.9,1.1-2.7c0.8-0.8,1.7-1.1,2.7-1.1h3.8v-3.8h3.8V260.9z M220,249.4h-1.9c-0.5,0-1,0.2-1.3,0.6
			c-0.4,0.4-0.6,0.8-0.6,1.3v5.7c0,0.5,0.2,1,0.6,1.4c0.4,0.4,0.8,0.6,1.3,0.6c0.5,0,1-0.2,1.4-0.6c0.4-0.4,0.6-0.8,0.6-1.4V249.4z"
			/>
		<path d="M227.7,260.9v-17.2h3.8v17.2H227.7z"/>
		<path d="M235.3,245.5v-1.9h3.8v1.9H235.3z M235.3,260.9v-13.4h3.8v13.4H235.3z"/>
		<path d="M243,260.9v-13.4h3.8v1.9c0.1-0.6,0.3-1.1,0.6-1.4c0.3-0.3,0.8-0.5,1.3-0.5h1.9c1,0,1.9,0.4,2.7,1.1
			c0.8,0.8,1.1,1.6,1.1,2.7v9.6h-3.8v-9.6c0-0.5-0.2-1-0.6-1.3c-0.4-0.4-0.8-0.6-1.4-0.6c-0.5,0-1,0.2-1.3,0.6
			c-0.4,0.4-0.6,0.8-0.6,1.3v9.6H243z"/>
		<path d="M269.8,247.5v15.3c0,1-0.4,1.9-1.1,2.7c-0.8,0.8-1.6,1.1-2.7,1.1h-3.8c-2.3,0-3.5-1.3-3.8-3.8h1.9
			c0.1,1.3,0.7,1.9,1.9,1.9h1.9c0.5,0,1-0.2,1.4-0.6c0.4-0.4,0.6-0.8,0.6-1.4V259c-0.2,1.3-0.8,1.9-1.9,1.9h-1.9
			c-1,0-1.9-0.4-2.7-1.1c-0.8-0.8-1.1-1.7-1.1-2.7v-5.7c0-1,0.4-1.9,1.1-2.7c0.8-0.8,1.7-1.1,2.7-1.1H269.8z M266,249.4h-1.9
			c-0.5,0-1,0.2-1.3,0.6c-0.4,0.4-0.6,0.8-0.6,1.3v5.7c0,0.5,0.2,1,0.6,1.4c0.4,0.4,0.8,0.6,1.3,0.6c0.5,0,1-0.2,1.4-0.6
			c0.4-0.4,0.6-0.8,0.6-1.4V249.4z"/>
		<path d="M279.4,255.1v-1.9h3.8v-3.8h1.9v3.8h3.8v1.9h-3.8v3.8h-1.9v-3.8H279.4z"/>
	</g>
	<g class="st0">
		<path d="M582.3,639.4v-17.2h0.9l8.2,8.2l8.2-8.2h1.9v17.2h-3.8v-10.5l-6.7,6.7l-6.7-6.7v10.5H582.3z"/>
		<path d="M609.2,626h3.8c1,0,1.9,0.4,2.7,1.1c0.8,0.8,1.1,1.6,1.1,2.7v5.8c0,1-0.4,1.9-1.1,2.7c-0.8,0.8-1.6,1.1-2.7,1.1h-3.8
			c-1,0-1.9-0.4-2.7-1.1c-0.8-0.8-1.1-1.7-1.1-2.7v-5.8c0-1,0.4-1.9,1.1-2.7C607.2,626.4,608.1,626,609.2,626z M609.2,629.8v5.8
			c0,0.5,0.2,1,0.6,1.4c0.4,0.4,0.8,0.6,1.3,0.6c0.5,0,1-0.2,1.4-0.6c0.4-0.4,0.6-0.8,0.6-1.4v-5.8c0-0.5-0.2-1-0.6-1.3
			c-0.4-0.4-0.8-0.6-1.4-0.6c-0.5,0-1,0.2-1.3,0.6C609.3,628.9,609.2,629.3,609.2,629.8z"/>
		<path d="M620.7,639.4v-17.2h3.8v5.8c0.1-0.6,0.3-1.1,0.6-1.4s0.8-0.5,1.3-0.5h1.9c1,0,1.9,0.4,2.7,1.1c0.8,0.8,1.1,1.6,1.1,2.7
			v5.8c0,1-0.4,1.9-1.1,2.7c-0.8,0.8-1.6,1.1-2.7,1.1H620.7z M624.5,637.5h1.9c0.5,0,1-0.2,1.4-0.6c0.4-0.4,0.6-0.8,0.6-1.4v-5.8
			c0-0.5-0.2-1-0.6-1.3c-0.4-0.4-0.8-0.6-1.4-0.6c-0.5,0-1,0.2-1.3,0.6c-0.4,0.4-0.6,0.8-0.6,1.3V637.5z"/>
		<path d="M636,624.1v-1.9h3.8v1.9H636z M636,639.4V626h3.8v13.4H636z"/>
		<path d="M643.6,639.4v-17.2h3.8v17.2H643.6z"/>
		<path d="M662.8,633.7h-7.7v1.9c0,0.5,0.2,1,0.6,1.4c0.4,0.4,0.8,0.6,1.3,0.6h1.9c1.3,0,1.9-0.6,1.9-1.9h1.9
			c-0.3,2.6-1.6,3.8-3.8,3.8h-3.8c-1,0-1.9-0.4-2.7-1.1c-0.8-0.8-1.1-1.7-1.1-2.7v-5.8c0-1,0.4-1.9,1.1-2.7s1.7-1.1,2.7-1.1h3.8
			c1,0,1.9,0.4,2.7,1.1s1.1,1.6,1.1,2.7V633.7z M655.1,631.8h3.8v-1.9c0-0.5-0.2-1-0.6-1.3c-0.4-0.4-0.8-0.6-1.4-0.6
			c-0.5,0-1,0.2-1.3,0.6c-0.4,0.4-0.6,0.8-0.6,1.3V631.8z"/>
		<path d="M674.3,639.4v-17.2h3.8v17.2H674.3z"/>
		<path d="M683.9,639.4V626h3.8v1.9c0.1-0.6,0.3-1.1,0.6-1.4c0.3-0.3,0.8-0.5,1.3-0.5h1.9c1,0,1.9,0.4,2.7,1.1s1.1,1.6,1.1,2.7v9.6
			h-3.8v-9.6c0-0.5-0.2-1-0.6-1.3c-0.4-0.4-0.8-0.6-1.4-0.6c-0.5,0-1,0.2-1.3,0.6c-0.4,0.4-0.6,0.8-0.6,1.3v9.6H683.9z"/>
		<path d="M701.2,622.2h3.8v3.8h1.9v1.9H705v7.7c0,0.6,0.2,1.1,0.6,1.4s0.8,0.5,1.1,0.5h0.2v1.9H705c-1,0-1.9-0.4-2.7-1.1
			c-0.8-0.8-1.1-1.7-1.1-2.7v-7.7h-1.9V626h1.9V622.2z"/>
		<path d="M722.2,633.7h-7.7v1.9c0,0.5,0.2,1,0.6,1.4c0.4,0.4,0.8,0.6,1.3,0.6h1.9c1.3,0,1.9-0.6,1.9-1.9h1.9
			c-0.3,2.6-1.6,3.8-3.8,3.8h-3.8c-1,0-1.9-0.4-2.7-1.1c-0.8-0.8-1.1-1.7-1.1-2.7v-5.8c0-1,0.4-1.9,1.1-2.7s1.7-1.1,2.7-1.1h3.8
			c1,0,1.9,0.4,2.7,1.1s1.1,1.6,1.1,2.7V633.7z M714.6,631.8h3.8v-1.9c0-0.5-0.2-1-0.6-1.3c-0.4-0.4-0.8-0.6-1.4-0.6
			c-0.5,0-1,0.2-1.3,0.6c-0.4,0.4-0.6,0.8-0.6,1.3V631.8z"/>
		<path d="M729.9,639.4h-3.8V626h3.8v3.8c0.2-1.3,0.5-2.2,1.2-2.9c0.6-0.6,1.5-1,2.7-1h1.9v3.8h-3.8c-0.5,0-1,0.2-1.3,0.6
			c-0.4,0.4-0.6,0.8-0.6,1.4V639.4z"/>
		<path d="M745.3,631.8v-1.9c0-0.5-0.2-1-0.6-1.3c-0.4-0.4-0.8-0.6-1.4-0.6h-1.9c-1.1,0-1.8,0.6-1.9,1.9h-1.9
			c0.3-2.5,1.6-3.8,3.8-3.8h3.8c1,0,1.9,0.4,2.7,1.1s1.1,1.6,1.1,2.7v9.6h-3.8v-1.9c-0.2,1.3-0.8,1.9-1.9,1.9h-1.9
			c-1,0-1.9-0.4-2.7-1.1c-0.8-0.8-1.1-1.7-1.1-2.7c0-1,0.4-1.9,1.1-2.7s1.7-1.1,2.7-1.1H745.3z M745.3,633.7h-1.9
			c-0.5,0-1,0.2-1.3,0.6c-0.4,0.4-0.6,0.8-0.6,1.3s0.2,1,0.6,1.4c0.4,0.4,0.8,0.6,1.3,0.6c0.5,0,1-0.2,1.4-0.6
			c0.4-0.4,0.6-0.8,0.6-1.4V633.7z"/>
		<path d="M762.5,629.8h-1.9c-0.2-1.3-0.8-1.9-1.9-1.9c-0.5,0-1,0.2-1.3,0.6c-0.4,0.4-0.6,0.8-0.6,1.3v5.8c0,0.5,0.2,1,0.6,1.4
			c0.4,0.4,0.8,0.6,1.3,0.6c1.1,0,1.8-0.6,1.9-1.9h1.9c-0.2,2.6-1.4,3.8-3.8,3.8h-1.9c-1,0-1.9-0.4-2.7-1.1
			c-0.8-0.8-1.1-1.7-1.1-2.7v-5.8c0-1,0.4-1.9,1.1-2.7s1.7-1.1,2.7-1.1h1.9C761.1,626,762.4,627.3,762.5,629.8z"/>
		<path d="M768.3,622.2h3.8v3.8h1.9v1.9h-1.9v7.7c0,0.6,0.2,1.1,0.6,1.4c0.4,0.3,0.8,0.5,1.1,0.5h0.2v1.9h-1.9c-1,0-1.9-0.4-2.7-1.1
			c-0.8-0.8-1.1-1.7-1.1-2.7v-7.7h-1.9V626h1.9V622.2z"/>
		<path d="M777.8,624.1v-1.9h3.8v1.9H777.8z M777.8,639.4V626h3.8v13.4H777.8z"/>
		<path d="M789.3,626h3.8c1,0,1.9,0.4,2.7,1.1s1.1,1.6,1.1,2.7v5.8c0,1-0.4,1.9-1.1,2.7c-0.8,0.8-1.6,1.1-2.7,1.1h-3.8
			c-1,0-1.9-0.4-2.7-1.1c-0.8-0.8-1.1-1.7-1.1-2.7v-5.8c0-1,0.4-1.9,1.1-2.7S788.3,626,789.3,626z M789.3,629.8v5.8
			c0,0.5,0.2,1,0.6,1.4c0.4,0.4,0.8,0.6,1.3,0.6c0.5,0,1-0.2,1.4-0.6c0.4-0.4,0.6-0.8,0.6-1.4v-5.8c0-0.5-0.2-1-0.6-1.3
			c-0.4-0.4-0.8-0.6-1.4-0.6c-0.5,0-1,0.2-1.3,0.6C789.5,628.9,789.3,629.3,789.3,629.8z"/>
		<path d="M800.8,639.4V626h3.8v1.9c0.1-0.6,0.3-1.1,0.6-1.4c0.3-0.3,0.8-0.5,1.3-0.5h1.9c1,0,1.9,0.4,2.7,1.1s1.1,1.6,1.1,2.7v9.6
			h-3.8v-9.6c0-0.5-0.2-1-0.6-1.3c-0.4-0.4-0.8-0.6-1.4-0.6c-0.5,0-1,0.2-1.3,0.6c-0.4,0.4-0.6,0.8-0.6,1.3v9.6H800.8z"/>
	</g>
</g>
<g id="图层_3" class="st2">
	<g id="图层_1_1_" class="st3">
		<rect x="17.5" y="16.8" class="st1" width="884" height="657.8"/>
		<path d="M891,27.3V664H28V27.3H891 M912,6.3H7V685h905V6.3z"/>
		<line class="st4" x1="137.4" y1="6.7" x2="137.5" y2="675.5"/>
		<line class="st4" x1="266.4" y1="6.7" x2="266.5" y2="679.5"/>
		<line class="st4" x1="395.4" y1="6.7" x2="395.5" y2="677"/>
		<line class="st4" x1="524.5" y1="6.7" x2="524.5" y2="678"/>
		<line class="st4" x1="653.5" y1="6.7" x2="653.5" y2="679"/>
		<line class="st4" x1="782.5" y1="6.7" x2="782.5" y2="677"/>
		<path d="M915,3v686.3H3V3H915 M918,0H0v692.3h918V0z"/>
		<rect x="230" y="221" class="st1" width="87" height="20"/>
		<rect x="610" y="488" class="st1" width="87" height="20"/>
	</g>
	<g id="图层_2_1_" class="st3">
		<circle cx="459.5" cy="102.2" r="19.5"/>
		<polygon points="244.3,96.5 220.9,96.5 127.3,357.5 152.3,357.1 		"/>
		<polygon points="244.3,617.5 220.9,617.4 127.3,356.5 152.3,356.8 		"/>
		<rect x="266" y="96" width="116" height="19"/>
		<rect x="266" y="347" width="116" height="19"/>
		<rect x="266" y="598" width="116" height="19"/>
		<rect x="524" y="97" width="116" height="19"/>
		<rect x="524" y="348" width="116" height="19"/>
		<polygon points="793,603 772,603 643,96 664,96 		"/>
		<path d="M795,424"/>
		<polygon points="912,603 895,603 773,96 793,96 		"/>
		<path d="M40.7,65.4V54.9c0-0.8,0.3-1.6,0.9-2.1c0.6-0.6,1.3-0.9,2.1-0.9h3c1.7,0,3,1.3,3,3v10.5h-3v-6h-3v6H40.7z M43.7,57.9h3v-3
			c0-0.4-0.2-0.8-0.4-1.1c-0.3-0.3-0.7-0.4-1.1-0.4c-0.8,0-1.5,0.7-1.5,1.5l0,0V57.9z"/>
		<path d="M40.7,83.4V69.9h6c1.7,0,3,1.3,3,3v0.7c0,0.8-0.2,1.5-0.7,2.1c-0.6,0.5-1.4,0.9-2.2,0.9c0.8-0.1,1.7,0.3,2.2,0.9
			s0.8,1.3,0.7,2.1v0.7c0,0.8-0.3,1.6-0.9,2.1c-0.5,0.6-1.3,0.9-2.1,0.9L40.7,83.4z M43.7,75.9h1.5c0.4,0,0.8-0.2,1.1-0.4
			c0.3-0.3,0.4-0.7,0.4-1.1v-1.5c0-0.4-0.2-0.8-0.4-1.1c-0.3-0.3-0.7-0.4-1.1-0.4h-1.5V75.9z M43.7,81.9h1.5c0.8,0,1.5-0.7,1.5-1.5
			v-1.5c0.1-0.7-0.4-1.4-1.1-1.5c-0.1,0-0.3,0-0.4,0h-1.5V81.9z"/>
		<path d="M43.7,87.9h3c1.7,0,3,1.3,3,3v7.5c0,0.8-0.3,1.6-0.9,2.1c-0.5,0.6-1.3,0.9-2.1,0.9h-3c-1.7,0-3-1.3-3-3v-7.5
			c0-0.8,0.3-1.6,0.9-2.1C42.2,88.2,42.9,87.9,43.7,87.9z M43.7,90.9v7.5c0,0.4,0.2,0.8,0.4,1.1c0.3,0.3,0.6,0.4,1,0.4
			c0.8,0,1.5-0.7,1.5-1.5v-7.5c0-0.4-0.2-0.8-0.4-1.1c-0.3-0.3-0.7-0.4-1.1-0.4C44.3,89.4,43.7,90,43.7,90.9L43.7,90.9L43.7,90.9z"
			/>
		<path d="M46.7,105.9h3v10.5c0,0.8-0.3,1.6-0.9,2.1c-0.5,0.6-1.3,0.9-2.1,0.9h-3c-1.7,0-3-1.3-3-3v-10.5h3v10.5
			c0,0.4,0.2,0.8,0.4,1.1c0.3,0.3,0.6,0.4,1,0.4c0.8,0,1.5-0.7,1.5-1.5L46.7,105.9z"/>
		<path d="M43.7,137.4v-12h-3v-1.5h9v1.5h-3v12H43.7z"/>
		<path d="M92.1,62.7c-0.1,2-1.1,3-3,3h-3c-1.7,0-3-1.3-3-3v-7.5c0-0.8,0.3-1.6,0.9-2.1c0.6-0.6,1.3-0.9,2.1-0.9h3c1.9,0,2.9,1,3,3
			h-1.5c-0.1-1-0.6-1.5-1.5-1.5h-1.5c-0.8,0-1.5,0.7-1.5,1.5l0,0v7.5c0,0.4,0.2,0.8,0.4,1.1c0.3,0.3,0.6,0.4,1,0.4H89
			c0.9,0,1.4-0.5,1.5-1.5L92.1,62.7z"/>
		<path d="M86.1,70.2h3c0.8,0,1.6,0.3,2.1,0.9c0.6,0.6,0.9,1.3,0.9,2.1v7.5c0,1.7-1.3,3-3,3h-3c-1.7,0-3-1.3-3-3v-7.5
			C83.1,71.6,84.4,70.2,86.1,70.2L86.1,70.2z M86.1,73.2v7.5c0,0.4,0.2,0.8,0.4,1.1c0.3,0.3,0.6,0.4,1,0.4s0.8-0.2,1.1-0.4
			c0.3-0.3,0.4-0.7,0.4-1.1v-7.5c0-0.4-0.2-0.8-0.4-1.1c-0.3-0.3-0.7-0.4-1.1-0.4C86.7,71.7,86,72.4,86.1,73.2
			C86,73.2,86,73.2,86.1,73.2L86.1,73.2z"/>
		<path d="M82.3,101.7V88.2H83l8.3,7.5v-7.5h1.5v13.5h-0.7l-8.3-7.5v7.5H82.3z"/>
		<path d="M86.1,119.7v-12h-3v-1.5h9v1.5h-3v12H86.1z"/>
		<path d="M83.1,137.7v-10.5c0-1.7,1.3-3,3-3h3c0.8,0,1.6,0.3,2.1,0.9c0.6,0.6,0.9,1.3,0.9,2.1v10.5h-3v-6h-3v6H83.1z M86.1,130.2h3
			v-3c0-0.4-0.2-0.8-0.4-1.1c-0.3-0.3-0.7-0.4-1.1-0.4c-0.8,0-1.5,0.7-1.5,1.5l0,0V130.2z"/>
		<path d="M92.1,152.7c-0.1,2-1.1,3-3,3h-3c-1.7,0-3-1.3-3-3v-7.5c0-0.8,0.3-1.6,0.9-2.1c0.6-0.6,1.3-0.9,2.1-0.9h3c1.9,0,2.9,1,3,3
			h-1.5c-0.1-1-0.6-1.5-1.5-1.5h-1.5c-0.8,0-1.5,0.7-1.5,1.5l0,0v7.5c0,0.4,0.2,0.8,0.4,1.1c0.3,0.3,0.6,0.4,1,0.4H89
			c0.9,0,1.4-0.5,1.5-1.5H92.1z"/>
		<path d="M86.1,173.7v-12h-3v-1.5h9v1.5h-3v12H86.1z"/>
		<path d="M104.8,66.1V52.6h6c0.8,0,1.6,0.3,2.1,0.9c0.6,0.6,0.9,1.3,0.9,2.1v1.5c0,0.8-0.3,1.6-0.9,2.1c-0.6,0.6-1.3,0.9-2.1,0.9
			h-3v6H104.8z M107.8,58.6h1.5c0.8,0,1.5-0.7,1.5-1.5l0,0v-1.5c0-0.8-0.7-1.5-1.5-1.5l0,0h-1.5V58.6z"/>
		<path d="M107.8,70.6h3c0.8,0,1.6,0.3,2.1,0.9c0.6,0.6,0.9,1.3,0.9,2.1v7.5c0,0.8-0.3,1.6-0.9,2.1c-0.5,0.6-1.3,0.9-2.1,0.9h-3
			c-1.7,0-3-1.3-3-3v-7.5C104.8,71.9,106.2,70.6,107.8,70.6L107.8,70.6z M107.8,73.6v7.5c0,0.4,0.2,0.8,0.4,1.1
			c0.3,0.3,0.6,0.4,1,0.4s0.8-0.2,1.1-0.4c0.3-0.3,0.4-0.7,0.4-1.1v-7.5c0-0.8-0.7-1.5-1.5-1.5l0,0
			C108.4,72.1,107.8,72.7,107.8,73.6L107.8,73.6z"/>
		<path d="M104.8,102.1V88.6h6c0.8,0,1.6,0.3,2.1,0.9c0.6,0.6,0.9,1.3,0.9,2.1v0.8c0,0.7-0.3,1.4-0.7,1.9c-0.6,0.7-1.4,1-2.3,0.9
			h1.5c0.4,0,0.8,0.2,1.1,0.4c0.3,0.3,0.4,0.7,0.4,1.1v5.3h-3v-4.5c0-0.8-0.7-1.5-1.5-1.5l0,0h-1.5v6L104.8,102.1L104.8,102.1z
			 M107.8,94.6h1.5c0.8,0,1.5-0.7,1.5-1.5l0,0v-1.5c0-0.8-0.7-1.5-1.5-1.5l0,0h-1.5V94.6z"/>
		<path d="M107.8,120.1v-12h-3v-1.5h9v1.5h-3v12H107.8z"/>
		<path d="M105.6,138.1v-13.5h7.5v1.5h-4.5v4.5h3v1.5h-3v6H105.6z"/>
		<path d="M107.8,142.6h3c0.8,0,1.6,0.3,2.1,0.9c0.6,0.6,0.9,1.3,0.9,2.1v7.5c0,0.8-0.3,1.6-0.9,2.1c-0.5,0.6-1.3,0.9-2.1,0.9h-3
			c-1.7,0-3-1.3-3-3v-7.5C104.8,143.9,106.2,142.6,107.8,142.6L107.8,142.6z M107.8,145.6v7.5c0,0.4,0.2,0.8,0.4,1.1
			c0.3,0.3,0.6,0.4,1,0.4s0.8-0.2,1.1-0.4c0.3-0.3,0.4-0.7,0.4-1.1v-7.5c0-0.8-0.7-1.5-1.5-1.5l0,0
			C108.4,144.1,107.8,144.7,107.8,145.6L107.8,145.6z"/>
		<path d="M105.6,174.1v-13.5h3v12h4.5v1.5H105.6z"/>
		<path d="M107.8,192.1v-13.5h3v13.5H107.8z"/>
		<path d="M107.8,196.6h3c0.8,0,1.6,0.3,2.1,0.9c0.6,0.6,0.9,1.3,0.9,2.1v7.5c0,0.8-0.3,1.6-0.9,2.1c-0.5,0.6-1.3,0.9-2.1,0.9h-3
			c-1.7,0-3-1.3-3-3v-7.5C104.8,197.9,106.2,196.6,107.8,196.6L107.8,196.6z M107.8,199.6v7.5c0,0.4,0.2,0.8,0.4,1.1
			c0.3,0.3,0.6,0.4,1,0.4s0.8-0.2,1.1-0.4c0.3-0.3,0.4-0.7,0.4-1.1v-7.5c0-0.8-0.7-1.5-1.5-1.5l0,0
			C108.4,198.1,107.8,198.7,107.8,199.6L107.8,199.6z"/>
		<rect x="773" y="96" width="20" height="87"/>
		<path d="M442.4,197.3v-45h10v18.4l16.2-18.4h8.9l-20,22.5l20,22.5h-10l-15-17.5v17.5H442.4z"/>
		<path d="M447.4,257.3v-45h25v5h-15v15h10v5h-10v15h15v5H447.4z"/>
		<path d="M447.4,317.3v-45h25v5h-15v15h10v5h-10v20H447.4z"/>
		<path d="M444.9,377.3v-35c0-5.5,4.5-10,10-10h10c5.5,0,10,4.5,10,10v35H465v-20h-10v20H444.9z M454.9,352.3h10v-10
			c0-1.3-0.5-2.6-1.5-3.5c-1.9-2-5.1-2-7.1,0c-0.9,0.9-1.5,2.2-1.5,3.5L454.9,352.3z"/>
		<path d="M442.4,437.3v-45h2.3l27.7,25v-25h5v45h-2.3l-27.7-25v25H442.4z"/>
		<path d="M444.9,526.6v-12.5c0-5.9,3.3-9.2,10-10c-6.7-0.8-10-4.1-10-10v-12.5h10v15c0,2.8,2.2,5,5,5s5-2.2,5-5v-15h10v12.5
			c0,5.9-3.3,9.2-10,10c6.7,0.8,10,4.1,10,10v12.5h-10v-15c0-2.8-2.2-5-5-5s-5,2.2-5,5v15H444.9z"/>
		<path d="M465,541.6h10v35c0,5.5-4.5,10-10,10h-10c-5.5,0-10-4.5-10-10v-35h10v35c0,2.8,2.2,5,5,5s5-2.2,5-5V541.6z"/>
		<path d="M45.5,45C43,45,41,43,41,40.5s2-4.5,4.5-4.5s4.5,2,4.5,4.5C50,42.9,48,45,45.5,45L45.5,45z"/>
		<circle cx="45.5" cy="40.5" r="4.3"/>
		<g id="news_tag">
			<path d="M62.1,65.7V52.2h6c1.7,0,3,1.3,3,3V56c0,0.7-0.2,1.4-0.7,1.9c-0.6,0.7-1.4,1-2.3,0.9h1.5c0.4,0,0.7,0.2,1,0.4
				c0.3,0.3,0.4,0.7,0.4,1.1v5.3h-3v-4.5c0-0.4-0.2-0.7-0.4-1c-0.3-0.3-0.7-0.4-1.1-0.4H65v6L62.1,65.7z M65.1,58.2h1.5
				c0.4,0,0.8-0.2,1.1-0.4c0.3-0.3,0.4-0.7,0.4-1.1v-1.5c0-0.8-0.7-1.5-1.5-1.5l0,0h-1.5V58.2z"/>
			<path d="M62.9,83.7V70.2h7.5v1.5h-4.5v4.5h3v1.5h-3v4.5h4.5v1.5H62.9z"/>
			<path d="M70.4,91.2h-1.5c-0.1-1-0.6-1.5-1.4-1.5c-0.4,0-0.9,0.1-1.2,0.4c-0.3,0.3-0.4,0.7-0.4,1.1s0.2,0.8,0.4,1.1l3.2,3.6
				c0.6,0.6,0.9,1.3,0.9,2.1v0.7c0,0.8-0.3,1.6-0.9,2.1c-0.6,0.6-1.3,0.9-2.1,0.9h-1.5c-0.8,0.1-1.6-0.2-2.2-0.7
				c-0.5-0.6-0.8-1.4-0.8-2.3h1.5V99c0,0.4,0.2,0.7,0.5,0.9c0.3,0.2,0.6,0.3,1,0.3s0.8-0.1,1.2-0.4c0.3-0.3,0.4-0.7,0.3-1.1
				c0-0.4-0.2-0.8-0.4-1.1L63.8,94c-0.6-0.6-0.9-1.3-0.9-2.1v-0.7c0-1.7,1.3-3,3-3h1.5C69.2,88.2,70.2,89.2,70.4,91.2z"/>
			<path d="M68.1,106.2h3v10.5c0,0.8-0.3,1.6-0.9,2.1c-0.5,0.6-1.3,0.9-2.1,0.9h-3c-1.7,0-3-1.3-3-3v-10.5h3v10.5
				c0,0.4,0.2,0.8,0.4,1.1c0.3,0.3,0.6,0.4,1,0.4s0.8-0.2,1.1-0.4c0.3-0.3,0.4-0.7,0.4-1.1L68.1,106.2z"/>
			<path d="M59.1,137.7v-13.5h0.7l6.4,6.4l6.4-6.4h1.5v13.5h-3v-8.2l-5.3,5.3l-5.2-5.3v8.2L59.1,137.7L59.1,137.7z"/>
			<path d="M62.9,155.7v-13.5h7.5v1.5h-4.5v4.5h3v1.5h-3v4.5h4.5v1.5H62.9z"/>
			<path d="M66.5,45C64,45,62,43,62,40.5s2-4.5,4.5-4.5s4.5,2,4.5,4.5C71,42.9,69,45,66.5,45L66.5,45z"/>
			<circle cx="66.5" cy="40.5" r="4.3"/>
		</g>
		<path d="M87.5,45C85,45,83,43,83,40.5s2-4.5,4.5-4.5s4.5,2,4.5,4.5C92,42.9,90,45,87.5,45L87.5,45z"/>
		<circle cx="87.5" cy="40.5" r="4.3"/>
		<path d="M109.5,45c-2.5,0-4.5-2-4.5-4.5s2-4.5,4.5-4.5s4.5,2,4.5,4.5C114,42.9,112,45,109.5,45L109.5,45z"/>
		<circle cx="109.5" cy="40.5" r="4.3"/>
	</g>
</g>
<g class="st2">
	<g class="st3">
		<path d="M47.9,409.4c0-6.6,0-13.2,0-19.8c0-4.4,2.9-7.6,6.3-8.4c0.8-0.2,1.6-0.3,2.4-0.3c13.2,0,26.3,0,39.5,0
			c4.5,0,7.9,3.2,8.6,7c0.1,0.6,0.1,1.2,0.1,1.8c0,13.1,0,26.3,0,39.4c0,4.6-3.2,8-7,8.6c-0.6,0.1-1.2,0.1-1.8,0.1
			c-13.1,0-26.3,0-39.4,0c-4.6,0-8-3.2-8.6-7c-0.1-0.6-0.1-1.3-0.1-2C47.9,422.5,47.9,415.9,47.9,409.4z M69.9,419
			c0-0.7,0-1.3,0-1.9c0-2,0.4-3.9,1.3-5.6c2.9-5.8,7.9-8.5,14.2-9.1c0.9-0.1,0.9-0.1,0.8-1c-0.6-3.8-2.5-6.9-5.6-9.3
			c-4.3-3.4-9.3-4.6-14.7-3.8c-4.2,0.7-8,2.4-10.8,5.8c-3.7,4.5-4.7,9.6-2.4,15c1.1,2.7,3.1,4.7,5.5,6.4c0.8,0.6,0.9,1,0.7,2
			c-0.3,1.2-0.6,2.5-0.9,3.7c0,0.1,0,0.2,0,0.5c1.4-0.8,2.7-1.6,3.9-2.5s2.6-1,4-0.7C67.3,418.7,68.5,418.8,69.9,419z M96.4,430.9
			c0.1,0,0.1-0.1,0.2-0.1c-0.2-0.5-0.3-1-0.5-1.4c-0.4-1-0.3-1.9,0.4-2.7c0.3-0.3,0.5-0.6,0.8-0.9c5.4-4.8,5.3-12.6,0.4-17.6
			c-2.6-2.6-5.8-4-9.4-4.4c-5.3-0.5-9.9,1-13.5,5c-2.4,2.6-3.4,5.8-3.1,9.3c0.3,3,1.7,5.6,3.9,7.7c3.6,3.5,7.9,4.7,12.8,4.1
			c0.2,0,0.4-0.1,0.6-0.1c2.3-0.9,4.4-0.6,6.4,0.7C95.7,430.7,96,430.8,96.4,430.9z"/>
		<path d="M77.9,400.2c0,1.1-0.9,2-1.9,2c-1.1,0-2.1-0.9-2.1-2c0-1,1-2,2-2C77.1,398.3,77.9,399.1,77.9,400.2z"/>
		<path d="M64.7,400.2c0,1.1-0.9,2-2,2c-1,0-2-0.9-2-2s0.9-2,2-2C63.8,398.3,64.7,399.2,64.7,400.2z"/>
		<path d="M81.4,413.1c0,0.9-0.7,1.6-1.6,1.6s-1.6-0.7-1.6-1.6s0.7-1.7,1.6-1.7C80.7,411.5,81.4,412.2,81.4,413.1z"/>
		<path d="M92.1,413.1c0,0.9-0.7,1.6-1.6,1.6s-1.6-0.8-1.5-1.6c0-0.9,0.8-1.6,1.6-1.6C91.4,411.5,92.1,412.2,92.1,413.1z"/>
	</g>
	<path class="st3" d="M47.9,572c0-17.1,0-34.2,0-51.3c0.4-1.5,1.3-2.4,2.8-2.8c17.1,0,34.2,0,51.3,0c1.5,0.4,2.4,1.3,2.8,2.8
		c0,17.1,0,34.2,0,51.3c-0.6,2.2-2.2,2.8-4.3,2.8c-4.1-0.1-8.2,0-12.3,0c-0.3,0-0.6,0-1,0c0-7.4,0-14.6,0-22c2.5,0,4.8,0,7.3,0
		c0.3-1.9,0.5-3.7,0.8-5.5c0.1-0.7,0.2-1.4,0.3-2.1c0.1-0.7,0-1-0.8-1c-2.2,0-4.5,0-6.7,0c-0.3,0-0.6,0-0.9,0c0-1.8,0-3.5,0-5.3
		c0-0.8,0-1.7,0.3-2.4c0.5-1.3,1.7-1.7,2.9-1.8c1.9-0.1,3.7,0,5.6,0c0-2.7,0-5.2,0-7.8c-0.7-0.1-1.3-0.3-2-0.3c-0.8,0-1.6,0.1-2.4,0
		c-1.9-0.2-3.9-0.1-5.8,0.3c-2.2,0.5-4,1.7-5.3,3.3s-2.1,3.5-2.2,5.6c-0.1,2.4-0.1,4.9-0.2,7.3c0,0.3,0,0.6,0,1c-2.6,0-5,0-7.5,0
		c0,2.9,0,5.8,0,8.7c2.5,0,4.9,0,7.4,0c0,7.3,0,14.6,0,21.9c-0.4,0-0.7,0-1.1,0c-8.3,0-16.6,0-25,0C50.1,574.8,48.6,574.2,47.9,572z
		"/>
	<path class="st3" d="M98.3,361.8c0-10.5,0-21,0-31.8c-0.6,0.4-1.1,0.7-1.5,1c-6.3,4.5-12.7,8.9-19,13.5c-1.2,0.8-1.9,0.8-3,0
		c-6.4-4.6-12.9-9.1-19.3-13.7c-0.3-0.2-0.6-0.4-1.1-0.7c0,0.6-0.1,1.1-0.1,1.5c0,9.6,0,19.2,0,28.8c0,1.6,0,1.6-1.5,1.6
		c-2.9,0-4.8-1.8-4.8-4.7c0-10.6,0-21.3,0-31.9c0-1.8,0.2-3.6,1.8-4.8c0.9-0.7,1.6-0.8,2.7-0.1c7.6,5.3,15.2,10.6,22.7,15.9
		c0.9,0.6,1.4,0.6,2.3,0c7.5-5.3,14.9-10.5,22.4-15.7c1.5-1,2.1-1,3.4,0.3c0.9,1,1.3,2.2,1.3,3.5c0,7.8,0,15.6,0,23.4
		c0,3,0,5.9,0,8.9C104.7,360.7,102.4,362.5,98.3,361.8z"/>
	<g class="st3">
		<path d="M104.9,459.3c0,12.3,0,24.6,0,36.9c-0.1,0.2-0.1,0.4-0.2,0.6c-0.7,3.9-2.9,6.7-6.4,8.3c-1.3,0.6-2.7,0.8-4,1.2
			c-11.9,0-23.7,0-35.6,0c-0.3-0.1-0.5-0.1-0.8-0.2c-3.9-0.6-6.8-2.7-8.7-6.2c-1-2-1.3-4.1-1.3-6.2c0-10.9,0-21.8,0-32.8
			c0-2.5,0.7-4.8,2.2-6.9c2.2-3,5.3-4.5,8.9-4.7c2.4-0.1,4.9,0,7.3,0c9,0,18,0,27,0c5.1,0,9.3,3,10.9,7.7
			C104.5,457.8,104.7,458.6,104.9,459.3z M96,477.6c-0.4-1.9-0.6-3.9-1.2-5.9c-2.4-8.2-11.1-13.9-19.6-13.1
			c-1.4,0.1-2.8,0.1-4.2-0.5c-1.6-0.7-3.4-0.9-5.2-0.6c-7.6,1.3-11.6,8.7-8.7,15.8c0.2,0.5,0.3,1.2,0.2,1.8
			c-0.4,2.9-0.2,5.7,0.7,8.5c2.8,8.8,11.1,14.3,20.2,13.4c1.3-0.1,2.4,0.1,3.6,0.5c4,1.4,7.8,0.8,11-2c3.3-2.9,4.7-6.7,3.6-11
			C95.9,482.3,95.2,480.2,96,477.6z"/>
		<path d="M76.6,490.3c-2.8,0-5.4-0.4-7.6-1.9c-1.1-0.7-2.1-1.7-2.5-2.9c-0.5-1.2-0.1-2.5,0.8-3.1c1-0.6,2.4-0.4,3.3,0.5
			c0.3,0.3,0.5,0.6,0.8,0.9c1.7,2.6,5.2,2.9,7.6,2c0.4-0.2,0.9-0.4,1.2-0.7c1.5-1.5,1.1-3.4-0.9-4.1c-1.3-0.4-2.7-0.7-4-1.1
			c-1.6-0.5-3.3-0.8-4.9-1.4c-2.5-0.9-3.9-2.8-4-5.6c-0.1-2.8,1.1-5,3.7-6.2c4.8-2.2,9.4-1.9,13.8,1.1c0.7,0.5,1.3,1.3,1.6,2.1
			c0.5,1,0.1,2-0.7,2.6c-0.9,0.7-2.1,0.7-3,0.1c-0.5-0.4-0.9-0.8-1.4-1.3c-1.7-1.7-4.7-2.4-6.9-1.4c-0.6,0.2-1.1,0.7-1.4,1.2
			c-0.8,1.2-0.2,2.5,1.3,3c1.4,0.4,2.8,0.7,4.1,1.1c1.7,0.4,3.4,0.8,5,1.4c2.7,1,4,3,4.1,5.8s-1.1,5-3.6,6.4
			C80.9,490,78.7,490.2,76.6,490.3z"/>
	</g>
	<path class="st3" d="M47.9,639.9c0-16.8,0-33.5,0-50.3c0-0.1,0.1-0.2,0.1-0.3c0.3-1.6,1.3-2.6,2.9-2.9c0.1,0,0.2-0.1,0.3-0.1
		c16.8,0,33.5,0,50.3,0c0.1,0,0.2,0.1,0.4,0.1c1.6,0.3,2.5,1.3,2.8,2.8c0,0.1,0.1,0.2,0.1,0.4c0,16.8,0,33.5,0,50.3
		c0,0.1-0.1,0.1-0.1,0.2c-0.6,2.2-1.7,3.1-4.1,3.1c-13.8,0-27.5,0-41.3,0c-2.6,0-5.1,0-7.7,0c-2,0-3.3-1.1-3.7-3
		C48,640.1,48,640,47.9,639.9z M92.4,630.8c0-0.2,0-0.3,0-0.5c0-4.8,0-9.6,0-14.5c0-1.6-0.3-3.2-0.7-4.8c-0.6-2.6-2.1-4.4-4.8-5
		c-1.4-0.4-2.8-0.3-4.2-0.2c-2,0.2-3.8,0.7-4.6,2.8c0-1,0-1.9,0-2.8c-2.4,0-4.8,0-7.1,0c0,8.3,0,16.6,0,24.9c2.4,0,4.8,0,7.2,0
		c0-0.3,0-0.5,0-0.8c0-4.3,0-8.6,0-13c0-0.5,0-1,0.1-1.5c0.2-1.3,1.2-2.3,2.4-2.4c0.6-0.1,1.3-0.1,1.9,0c1.2,0.2,2,0.9,2.3,2.1
		c0.1,0.5,0.2,1.1,0.2,1.6c0,4.4,0,8.9,0,13.3c0,0.2,0,0.5,0,0.7C87.7,630.8,90.1,630.8,92.4,630.8z M67.5,630.8
		c0-8.3,0-16.6,0-24.9c-2.4,0-4.7,0-7.1,0c0,8.3,0,16.6,0,24.9C62.8,630.8,65.1,630.8,67.5,630.8z M64,596.9c-2.1,0-3.6,1.5-3.6,3.6
		c0,2,1.5,3.6,3.5,3.6c2.1,0,3.7-1.5,3.7-3.6C67.6,598.5,66,596.9,64,596.9z"/>
	<g id="图层_4" class="st3">
	</g>
	<text transform="matrix(1 0 0 1 32.0337 345.65)" class="st3 st5 st6">kx308@nyu.edu</text>
</g>
</svg>
