<svg xmlns="http://www.w3.org/2000/svg" viewBox="0 0 91.92 15.04"><defs><style>.cls-1{isolation:isolate;}</style></defs><title>skypetxt</title><g id="图层_2" data-name="图层 2"><g id="图层_1-2" data-name="图层 1"><g class="cls-1"><path d="M1.66,17.54v-15H5V10l5-4.17h3.35l-7,5.84,7,5.85H10L5,13.37v4.17Z" transform="translate(-1.66 -2.51)"/><path d="M25.06,12.53H18.38v1.66a1.68,1.68,0,0,0,.49,1.19,1.61,1.61,0,0,0,1.18.5h1.68a1.48,1.48,0,0,0,1.67-1.69h1.66c-.25,2.24-1.36,3.35-3.33,3.35H18.38a3.23,3.23,0,0,1-2.35-1,3.2,3.2,0,0,1-1-2.37v-5a3.17,3.17,0,0,1,1-2.34,3.21,3.21,0,0,1,2.35-1h3.35a3.36,3.36,0,0,1,3.33,3.33Zm-6.68-1.66h3.35V9.18A1.68,1.68,0,0,0,18.87,8a1.63,1.63,0,0,0-.49,1.17Z" transform="translate(-1.66 -2.51)"/><path d="M30.09,17.54v-10H28.41V5.85h1.68V5.69A3.06,3.06,0,0,1,31,3.45a3.07,3.07,0,0,1,2.25-.94h3.49V4.17H34.94a1.54,1.54,0,0,0-1.52,1.52v.16H35.1V7.52H33.42v10Z" transform="translate(-1.66 -2.51)"/><path d="M45.13,10.87V9.18a1.67,1.67,0,0,0-1.69-1.66H41.78c-1,0-1.54.55-1.66,1.66H38.43C38.7,7,39.81,5.85,41.78,5.85h3.35a3.17,3.17,0,0,1,2.34,1,3.17,3.17,0,0,1,1,2.34v8.36H45.13V15.88c-.14,1.11-.7,1.66-1.69,1.66H41.78a3.26,3.26,0,0,1-2.36-1,3.3,3.3,0,0,1,0-4.71,3.22,3.22,0,0,1,2.36-1Zm0,1.66H43.44a1.67,1.67,0,0,0-1.66,1.66,1.64,1.64,0,0,0,.49,1.19,1.6,1.6,0,0,0,1.17.5,1.64,1.64,0,0,0,1.2-.5,1.68,1.68,0,0,0,.49-1.19Z" transform="translate(-1.66 -2.51)"/><path d="M51.8,17.54V5.85h3.35V7.52a2.1,2.1,0,0,1,.52-1.26,1.58,1.58,0,0,1,1.14-.41H58.5a3.17,3.17,0,0,1,2.34,1,3.17,3.17,0,0,1,1,2.34v8.36H58.5V9.18A1.59,1.59,0,0,0,58,8a1.63,1.63,0,0,0-1.2-.49,1.67,1.67,0,0,0-1.66,1.66v8.36Z" transform="translate(-1.66 -2.51)"/><path d="M70.19,17.54V15A3.13,3.13,0,0,1,71,12.72a4.15,4.15,0,0,1,2.5-1,4,4,0,0,1-2.5-1,3.14,3.14,0,0,1-.84-2.31V5.85h3.34V9.18a1.64,1.64,0,0,0,.5,1.2,1.6,1.6,0,0,0,1.17.49,1.65,1.65,0,0,0,1.19-.49,1.63,1.63,0,0,0,.49-1.2V5.85h3.33V8.36a3.17,3.17,0,0,1-.83,2.31,4,4,0,0,1-2.5,1,4.1,4.1,0,0,1,2.5,1A3.16,3.16,0,0,1,80.21,15v2.5H76.88V14.19a1.67,1.67,0,0,0-1.68-1.66A1.56,1.56,0,0,0,74,13a1.6,1.6,0,0,0-.5,1.17v3.35Z" transform="translate(-1.66 -2.51)"/><path d="M93.58,5.85V17.54H90.25V15.88c-.13,1.11-.69,1.66-1.68,1.66H86.91a3.26,3.26,0,0,1-2.36-1,3.2,3.2,0,0,1-1-2.37V5.85h3.35v8.34a1.64,1.64,0,0,0,.49,1.19,1.64,1.64,0,0,0,2.36,0,1.64,1.64,0,0,0,.49-1.19V5.85Z" transform="translate(-1.66 -2.51)"/></g></g></g></svg>