<svg xmlns="http://www.w3.org/2000/svg" viewBox="0 0 337.74 43.65"><title>transitegarden</title><g id="图层_2" data-name="图层 2"><g id="图层_1-2" data-name="图层 1"><path d="M2.31,12.08V2.87H0V1.73H6.9V2.87H4.6v9.21Z" transform="translate(0 -1.73)"/><path d="M8.05,12.08V1.73h2.3V5.18a1.46,1.46,0,0,1,.36-.87A1.08,1.08,0,0,1,11.5,4h1.16A2.32,2.32,0,0,1,15,6.32v5.76H12.66V6.32A1.14,1.14,0,0,0,11.5,5.18a1.14,1.14,0,0,0-1.15,1.14v5.76Z" transform="translate(0 -1.73)"/><path d="M24.15,8.63H19.56V9.77a1.16,1.16,0,0,0,.33.82,1.1,1.1,0,0,0,.81.34h1.16A1,1,0,0,0,23,9.77h1.14c-.17,1.54-.94,2.31-2.29,2.31h-2.3a2.25,2.25,0,0,1-1.63-.68,2.22,2.22,0,0,1-.68-1.63V6.32a2.19,2.19,0,0,1,.68-1.61A2.25,2.25,0,0,1,19.56,4h2.3a2.21,2.21,0,0,1,1.61.68,2.15,2.15,0,0,1,.68,1.61ZM19.56,7.48h2.3V6.32a1.1,1.1,0,0,0-.34-.81,1.15,1.15,0,0,0-2,.81Z" transform="translate(0 -1.73)"/><path d="M31.06,12.08V2.87h-2.3V1.73h6.9V2.87H33.35v9.21Z" transform="translate(0 -1.73)"/><path d="M39.11,12.08h-2.3V4h2.3V6.32a2.85,2.85,0,0,1,.71-1.72A2.15,2.15,0,0,1,41.41,4h1.15V6.32h-2.3a1.07,1.07,0,0,0-.81.34,1.09,1.09,0,0,0-.34.82Z" transform="translate(0 -1.73)"/><path d="M48.31,7.48V6.32a1.13,1.13,0,0,0-1.15-1.14H46c-.68,0-1.06.38-1.15,1.14H43.71C43.89,4.79,44.66,4,46,4h2.3a2.21,2.21,0,0,1,1.62.68,2.18,2.18,0,0,1,.67,1.61v5.76H48.31V10.93c-.09.76-.47,1.15-1.15,1.15H46a2.21,2.21,0,0,1-1.62-.68,2.27,2.27,0,0,1,0-3.24A2.21,2.21,0,0,1,46,7.48Zm0,1.15H47.16A1.14,1.14,0,0,0,46,9.77a1.13,1.13,0,0,0,.34.82,1.07,1.07,0,0,0,.81.34,1.11,1.11,0,0,0,.82-.34,1.16,1.16,0,0,0,.33-.82Z" transform="translate(0 -1.73)"/><path d="M52.91,12.08V4h2.3V5.18a1.46,1.46,0,0,1,.36-.87A1.09,1.09,0,0,1,56.36,4h1.16a2.32,2.32,0,0,1,2.29,2.29v5.76H57.52V6.32a1.1,1.1,0,0,0-.34-.81,1.17,1.17,0,0,0-1.63,0,1.14,1.14,0,0,0-.34.81v5.76Z" transform="translate(0 -1.73)"/><path d="M67.87,6.32H66.72c-.1-.76-.46-1.14-1.09-1.14a1.45,1.45,0,0,0-.91.24.86.86,0,0,0-.3.71c0,.33.56.79,1.67,1.39.91.49,1.43.89,1.57,1.22a2.53,2.53,0,0,1,.21,1,2.32,2.32,0,0,1-2.31,2.31H64.42a2,2,0,0,1-2.31-2.31h1.16c.09.77.45,1.16,1.08,1.16a1.47,1.47,0,0,0,.92-.24.85.85,0,0,0,.31-.73c0-.32-.56-.78-1.67-1.38a3.67,3.67,0,0,1-1.58-1.21,2.58,2.58,0,0,1-.22-1,2.19,2.19,0,0,1,.69-1.62A2.21,2.21,0,0,1,64.42,4h1.14A2.11,2.11,0,0,1,67.87,6.32Z" transform="translate(0 -1.73)"/><path d="M70.16,2.87V1.73h2.3V2.87Zm0,9.21V4h2.3v8.05Z" transform="translate(0 -1.73)"/><path d="M75.91,1.73H78.2V4h1.16V5.18H78.2V9.77a1,1,0,0,0,.38.86,1.12,1.12,0,0,0,.67.3h.11v1.15H78.2a2.32,2.32,0,0,1-2.29-2.31V5.18H74.75V4h1.16Z" transform="translate(0 -1.73)"/><path d="M88.56,6.32H92V9.77a2.05,2.05,0,0,1-.73,1.73,2.47,2.47,0,0,1-1.56.58h-2.3a2.21,2.21,0,0,1-1.62-.68,2.19,2.19,0,0,1-.69-1.63V4a2.24,2.24,0,0,1,.67-1.62,2.2,2.2,0,0,1,1.64-.68h2.3c1.45,0,2.21.76,2.29,2.3H90.86c-.09-.77-.47-1.16-1.15-1.16H88.56a1.07,1.07,0,0,0-.81.34,1.09,1.09,0,0,0-.34.82V9.77a1.09,1.09,0,0,0,.34.82,1.07,1.07,0,0,0,.81.34,1.08,1.08,0,0,0,1.15-1.16V7.48H88.56Z" transform="translate(0 -1.73)"/><path d="M98.92,7.48V6.32a1.1,1.1,0,0,0-.34-.81,1.14,1.14,0,0,0-.82-.33H96.61q-1,0-1.14,1.14H94.31c.18-1.53,1-2.29,2.3-2.29h2.31a2.32,2.32,0,0,1,2.29,2.29v5.76H98.92V10.93c-.09.76-.48,1.15-1.16,1.15H96.61A2.25,2.25,0,0,1,95,11.4a2.27,2.27,0,0,1,0-3.24,2.25,2.25,0,0,1,1.62-.68Zm0,1.15H97.76a1.14,1.14,0,0,0-1.15,1.14,1.17,1.17,0,0,0,.34.82,1.15,1.15,0,0,0,1.63,0,1.13,1.13,0,0,0,.34-.82Z" transform="translate(0 -1.73)"/><path d="M105.82,12.08h-2.31V4h2.31V6.32a2.85,2.85,0,0,1,.71-1.72A2.15,2.15,0,0,1,108.12,4h1.15V6.32H107a1.07,1.07,0,0,0-.8.34,1.09,1.09,0,0,0-.34.82Z" transform="translate(0 -1.73)"/><path d="M117.31,12.08H115V10.93c-.09.76-.48,1.15-1.16,1.15h-1.14a2.21,2.21,0,0,1-1.62-.68,2.19,2.19,0,0,1-.69-1.63V6.32a2.16,2.16,0,0,1,.69-1.61A2.21,2.21,0,0,1,112.72,4H115V1.73h2.29ZM115,5.18h-1.16a1.14,1.14,0,0,0-1.14,1.14V9.77a1.13,1.13,0,0,0,.34.82,1.07,1.07,0,0,0,.8.34,1.08,1.08,0,0,0,.82-.34,1.13,1.13,0,0,0,.34-.82Z" transform="translate(0 -1.73)"/><path d="M126.52,8.63h-4.6V9.77a1.13,1.13,0,0,0,.34.82,1.09,1.09,0,0,0,.81.34h1.16a1,1,0,0,0,1.14-1.16h1.15c-.18,1.54-.94,2.31-2.29,2.31h-2.31a2.25,2.25,0,0,1-1.62-.68,2.22,2.22,0,0,1-.68-1.63V6.32a2.19,2.19,0,0,1,.68-1.61A2.25,2.25,0,0,1,121.92,4h2.31a2.32,2.32,0,0,1,2.29,2.29Zm-4.6-1.15h2.31V6.32a1.14,1.14,0,0,0-1.16-1.14,1.12,1.12,0,0,0-.81.33,1.1,1.1,0,0,0-.34.81Z" transform="translate(0 -1.73)"/><path d="M128.82,12.08V4h2.31V5.18a1.4,1.4,0,0,1,.35-.87,1.09,1.09,0,0,1,.79-.28h1.16a2.23,2.23,0,0,1,1.62.68,2.18,2.18,0,0,1,.67,1.61v5.76h-2.29V6.32a1.1,1.1,0,0,0-.34-.81,1.15,1.15,0,0,0-2,.81v5.76Z" transform="translate(0 -1.73)"/><path d="M3.49,25.79l-1.37,3-.85-.24,4.28-9.14h1.1L7,28.57l-1,.24-.07-3Zm2.36-5.13h0L3.89,25H6Z" transform="translate(0 -1.73)"/><path d="M11.45,21.45h2.4c2.05,0,2.79.84,2.22,3.5-.48,2.25-1.17,3.68-3.75,3.68H9.92l.18-.82h.75L12,22.28h-.75Zm.32,6.36h1c1.21,0,1.89-.69,2.33-2.76s0-2.77-1.18-2.77h-1Z" transform="translate(0 -1.73)"/><path d="M24.23,21.27l.8.33-4.29,7.21h-.17L19.35,21.6l1-.33.83,5.27Z" transform="translate(0 -1.73)"/><path d="M28.54,21.45H33l-.18.83H29.28l-.45,2.15h2.94l-.18.83H28.65l-.54,2.55h3.56l-.18.82H27Z" transform="translate(0 -1.73)"/><path d="M36.71,21.45h2.44c1.2,0,2,.56,1.74,2a2.85,2.85,0,0,1-1.89,2l1.14,2.91-.91.48-1.14-3.25H36.75l-.65,3.07h-.92Zm1.43,3.28a1.71,1.71,0,0,0,1.78-1.32c.14-.65-.15-1.13-1-1.13H37.45l-.52,2.45Z" transform="translate(0 -1.73)"/><path d="M46.45,22.28h-2l.18-.83H49.5l-.18.83h-2L46,28.63H45.1Z" transform="translate(0 -1.73)"/><path d="M52.52,27.81h1l1.17-5.53h-1l.18-.83h2.95l-.18.83h-1l-1.18,5.53h1l-.18.82h-3Z" transform="translate(0 -1.73)"/><path d="M61.08,26.36c0,.88.28,1.53,1.24,1.53a1.56,1.56,0,0,0,1.62-1.21c.19-.89-.51-1.11-1.15-1.4-1-.44-1.89-.71-1.6-2.07a2.48,2.48,0,0,1,2.51-1.89,1.67,1.67,0,0,1,1.81,1.81l-.94.26c0-.7-.29-1.2-1.08-1.2a1.32,1.32,0,0,0-1.36,1c-.15.67.22.88.72,1.11l1.39.68a1.46,1.46,0,0,1,.63,1.68,2.65,2.65,0,0,1-2.73,2.14,1.82,1.82,0,0,1-1.94-2.14Z" transform="translate(0 -1.73)"/><path d="M69.08,27.81h1l1.17-5.53h-1l.18-.83h3l-.18.83h-1L71,27.81h1l-.18.82h-3Z" transform="translate(0 -1.73)"/><path d="M77.79,21.45h1.15l1.49,6.05,0,0,.32-1.87.88-4.16h.92l-1.53,7.18H79.92l-1.51-6.05,0,0-.32,1.87-.88,4.15h-.93Z" transform="translate(0 -1.73)"/><path d="M89.51,28a4.62,4.62,0,0,1-2.38.79c-2.11,0-2.3-2-1.93-3.73s1.44-3.71,3.49-3.71a2.08,2.08,0,0,1,2,1.38l-.88.51a1.43,1.43,0,0,0-1.37-1c-1.42,0-2,1.78-2.27,2.87s-.36,2.83,1.09,2.83a3,3,0,0,0,1.42-.37l.4-1.89H87.35l.18-.83h2.65Z" transform="translate(0 -1.73)"/><path d="M102.52,28.63h-.92l2-9.2h2c1.63,0,2.34.87,2,2.45a3,3,0,0,1-2.8,2.66h-1.38Zm1-4.92h1.3c.85,0,1.49-.67,1.74-1.82s-.25-1.62-1.25-1.62H104.3Z" transform="translate(0 -1.73)"/><path d="M115.09,25.05c-.12.58-.82,3.71-3.34,3.71-1.15,0-2.37-.83-1.76-3.71s2.16-3.73,3.35-3.73S115.71,22.15,115.09,25.05Zm-4.14,0c-.22,1.05-.41,2.84,1,2.84s2-1.79,2.2-2.84.41-2.86-1-2.86S111.19,24,111,25.05Z" transform="translate(0 -1.73)"/><path d="M119,26.36c0,.88.28,1.53,1.24,1.53a1.56,1.56,0,0,0,1.62-1.21c.19-.89-.51-1.11-1.15-1.4-1-.44-1.89-.71-1.6-2.07a2.48,2.48,0,0,1,2.51-1.89,1.67,1.67,0,0,1,1.81,1.81l-.94.26c0-.7-.29-1.2-1.07-1.2a1.32,1.32,0,0,0-1.37,1c-.15.67.22.88.72,1.11l1.39.68a1.47,1.47,0,0,1,.64,1.68,2.67,2.67,0,0,1-2.74,2.14,1.83,1.83,0,0,1-1.94-2.14Z" transform="translate(0 -1.73)"/><path d="M129.25,22.28h-2l.18-.83h4.85l-.18.83h-1.94l-1.35,6.35h-.93Z" transform="translate(0 -1.73)"/><path d="M136.18,21.45h4.48l-.17.83h-3.56l-.46,2.15h2.94l-.18.83h-2.94l-.54,2.55h3.56l-.18.82h-4.48Z" transform="translate(0 -1.73)"/><path d="M144.35,21.45h2.44c1.2,0,2,.56,1.74,2a2.81,2.81,0,0,1-1.89,2l1.15,2.91-.91.48-1.15-3.25h-1.34l-.65,3.07h-.92Zm1.44,3.28a1.71,1.71,0,0,0,1.78-1.32c.13-.65-.16-1.13-1-1.13H145.1l-.53,2.45Z" transform="translate(0 -1.73)"/><path d="M160.75,20.26l.18-.83h2.42c1.85,0,2.76.82,2,4.61-.43,2-1.09,4.59-3.89,4.59H159l.18-.82h.74l1.6-7.55Zm.07,7.55h.75c1.12,0,2-.29,2.78-3.77s-.14-3.78-.95-3.78h-1Z" transform="translate(0 -1.73)"/><path d="M169.3,21.45h4.49l-.18.83h-3.56l-.46,2.15h2.94l-.18.83h-2.94l-.53,2.55h3.55l-.18.82h-4.48Z" transform="translate(0 -1.73)"/><path d="M177,26.36c0,.88.28,1.53,1.25,1.53a1.55,1.55,0,0,0,1.61-1.21c.19-.89-.51-1.11-1.15-1.4-1-.44-1.89-.71-1.6-2.07a2.48,2.48,0,0,1,2.51-1.89,1.66,1.66,0,0,1,1.81,1.81l-.94.26c0-.7-.29-1.2-1.07-1.2a1.32,1.32,0,0,0-1.37,1c-.15.67.22.88.72,1.11l1.39.68a1.47,1.47,0,0,1,.64,1.68,2.66,2.66,0,0,1-2.73,2.14,1.83,1.83,0,0,1-1.95-2.14Z" transform="translate(0 -1.73)"/><path d="M185,27.81h1l1.17-5.53h-1l.18-.83h2.95l-.18.83h-1l-1.17,5.53h1l-.18.82h-2.95Z" transform="translate(0 -1.73)"/><path d="M197.15,28a4.62,4.62,0,0,1-2.37.79c-2.11,0-2.31-2-1.93-3.73s1.43-3.71,3.49-3.71a2.1,2.1,0,0,1,2,1.38l-.89.51a1.43,1.43,0,0,0-1.36-1c-1.42,0-2,1.78-2.28,2.87s-.36,2.83,1.09,2.83a3,3,0,0,0,1.42-.37l.4-1.89H195l.18-.83h2.65Z" transform="translate(0 -1.73)"/><path d="M202,21.45h1.14l1.49,6.05,0,0,.32-1.87.88-4.16h.93l-1.53,7.18h-1.15l-1.5-6.05,0,0-.32,1.87-.88,4.15h-.92Z" transform="translate(0 -1.73)"/><path d="M210.7,21.45h4.49l-.18.83h-3.56L211,24.43h2.94l-.18.83h-2.94l-.53,2.55h3.56l-.18.82h-4.49Z" transform="translate(0 -1.73)"/><path d="M218.46,21.45h2.4c2,0,2.79.84,2.22,3.5-.48,2.25-1.17,3.68-3.75,3.68h-2.4l.18-.82h.74L219,22.28h-.75Zm.32,6.36h1c1.21,0,1.89-.69,2.33-2.76s0-2.77-1.19-2.77h-1Z" transform="translate(0 -1.73)"/><path d="M235.81,21.45h4.52l-.18.83h-3.6l-.45,2.15h3l-.18.83h-3l-.72,3.37h-.92Z" transform="translate(0 -1.73)"/><path d="M247.58,25.05c-.13.58-.83,3.71-3.34,3.71-1.16,0-2.37-.83-1.77-3.71s2.17-3.73,3.36-3.73S248.2,22.15,247.58,25.05Zm-4.14,0c-.22,1.05-.42,2.84,1,2.84s2-1.79,2.19-2.84.41-2.86-1-2.86S243.67,24,243.44,25.05Z" transform="translate(0 -1.73)"/><path d="M252,21.45h2.44c1.2,0,2,.56,1.73,2a2.81,2.81,0,0,1-1.89,2l1.15,2.91-.91.48-1.15-3.25H252l-.65,3.07h-.93Zm1.43,3.28a1.71,1.71,0,0,0,1.78-1.32c.14-.65-.15-1.13-1-1.13h-1.49l-.52,2.45Z" transform="translate(0 -1.73)"/><path d="M270,22.28h-2l.18-.83h4.86l-.18.83h-1.95l-1.35,6.35h-.92Z" transform="translate(0 -1.73)"/><path d="M276.57,21.45h.93l-.64,3h2.84l.64-3h.92l-1.53,7.18h-.92l.72-3.37h-2.85L276,28.63H275Z" transform="translate(0 -1.73)"/><path d="M285.23,21.45h4.48l-.18.83H286l-.45,2.15h2.93l-.18.83h-2.93l-.54,2.55h3.56l-.18.82H283.7Z" transform="translate(0 -1.73)"/><path d="M303.57,20.26h-2l.18-.83h4.85l-.17.83h-1.95l-1.78,8.37h-.92Z" transform="translate(0 -1.73)"/><path d="M310,21.45h2.44c1.2,0,2,.56,1.74,2a2.85,2.85,0,0,1-1.89,2l1.14,2.91-.91.48-1.14-3.25H310l-.65,3.07h-.92Zm1.43,3.28a1.71,1.71,0,0,0,1.78-1.32c.14-.65-.15-1.13-1-1.13H310.7l-.52,2.45Z" transform="translate(0 -1.73)"/><path d="M317.93,26.68l-1.13,2.13-.84-.33,3.77-7h1.18l.76,7-1,.33-.2-2.13Zm2.16-4.16-1.73,3.33h2Z" transform="translate(0 -1.73)"/><path d="M326.2,21.45h1.15l1.49,6.05,0,0,.31-1.87.89-4.16H331l-1.53,7.18h-1.15l-1.5-6.05,0,0-.31,1.87-.89,4.15h-.92Z" transform="translate(0 -1.73)"/><path d="M334.67,24.61h3.07l-.18.87h-3.07Z" transform="translate(0 -1.73)"/><path d="M3.12,42.92c0,.88.27,1.53,1.24,1.53A1.54,1.54,0,0,0,6,43.24c.2-.89-.51-1.11-1.14-1.4-1-.44-1.89-.71-1.6-2.07a2.48,2.48,0,0,1,2.51-1.89,1.67,1.67,0,0,1,1.81,1.81L6.61,40c0-.7-.29-1.2-1.08-1.2a1.31,1.31,0,0,0-1.36,1c-.16.68.22.89.71,1.12l1.4.68a1.46,1.46,0,0,1,.63,1.68,2.66,2.66,0,0,1-2.73,2.14,1.83,1.83,0,0,1-1.95-2.14Z" transform="translate(0 -1.73)"/><path d="M11.12,44.37h1l1.17-5.53h-1l.18-.83h3l-.18.83h-1l-1.18,5.53h1l-.17.82h-3Z" transform="translate(0 -1.73)"/><path d="M21.61,38.84h-2L19.8,38h4.86l-.18.83H22.53l-1.35,6.35h-.92Z" transform="translate(0 -1.73)"/><path d="M39.83,44.52a4.24,4.24,0,0,1-2.31.8c-2.37,0-2.16-2.87-1.78-4.71s1.41-4.74,3.7-4.74a2.08,2.08,0,0,1,2,1.48l-.93.49a1.39,1.39,0,0,0-1.31-1.1c-1.53,0-2.26,2.81-2.5,3.9-.67,3.16.11,3.81,1,3.81A2.51,2.51,0,0,0,39,44l.59-2.77H37.88l.18-.83h2.65Z" transform="translate(0 -1.73)"/><path d="M44.69,43.24l-1.14,2.13L42.71,45l3.77-7h1.18l.76,7-1,.33-.2-2.13Zm2.15-4.16-1.73,3.33h2Z" transform="translate(0 -1.73)"/><path d="M53.27,38h2.44c1.2,0,2,.56,1.74,2a2.83,2.83,0,0,1-1.89,2l1.14,2.91-.91.48-1.14-3.25H53.31l-.65,3.07h-.92Zm1.43,3.28A1.71,1.71,0,0,0,56.48,40c.14-.65-.15-1.13-1-1.13H54l-.52,2.45Z" transform="translate(0 -1.73)"/><path d="M61.14,38h2.39c2,0,2.79.84,2.23,3.5-.49,2.25-1.18,3.68-3.76,3.68H59.6l.18-.82h.75l1.17-5.53H61Zm.31,6.36h1c1.22,0,1.89-.69,2.33-2.76s0-2.77-1.18-2.77h-1Z" transform="translate(0 -1.73)"/><path d="M69.94,38h4.48l-.18.83H70.68L70.23,41h2.94l-.18.83H70.05l-.54,2.55h3.56l-.18.82H68.41Z" transform="translate(0 -1.73)"/><path d="M77.79,38h1.15l1.49,6.05,0,0,.32-1.87L81.67,38h.92l-1.53,7.18H79.92l-1.51-6,0,0L78.07,41l-.88,4.15h-.93Z" transform="translate(0 -1.73)"/><path d="M93.93,44.37h1l1.17-5.53h-1l.18-.83h3l-.18.83H97l-1.17,5.53h1l-.18.82h-3Z" transform="translate(0 -1.73)"/><path d="M102.63,38h1.15l1.49,6.05,0,0,.32-1.87.88-4.16h.92l-1.53,7.18h-1.14l-1.51-6,0,0L102.91,41,102,45.19h-.93Z" transform="translate(0 -1.73)"/><path d="M119.62,36h1.16l1.09,7.74,0,0,.4-2.05L123.5,36h.92l-2,9.2H121.3l-1.09-7.75,0,0-.4,2.08-1.2,5.64h-.93Z" transform="translate(0 -1.73)"/><path d="M132.33,35.82l.77.34-3.53,5.41-.77,3.62h-.93l.78-3.62-1.23-5.41.94-.34,1,4.67Z" transform="translate(0 -1.73)"/><path d="M139.49,43.82a3.65,3.65,0,0,1-2.7,1.5c-2.4,0-2.14-2.9-1.75-4.72s1.36-4.73,3.76-4.73a1.93,1.93,0,0,1,1.93,1.49l-.88.47a1.31,1.31,0,0,0-1.24-1.09c-1.68,0-2.35,2.65-2.61,3.86s-.72,3.85,1,3.85a2.69,2.69,0,0,0,1.87-1.16Z" transform="translate(0 -1.73)"/></g></g></svg>