<svg id="图层_1" data-name="图层 1" xmlns="http://www.w3.org/2000/svg" viewBox="0 0 21.02 468"><title>未标题-1</title><path d="M46.14,52.69h9v9a5.37,5.37,0,0,1-1.91,4.52,6.43,6.43,0,0,1-4.06,1.49h-6a6,6,0,0,1-6-6v-15a5.79,5.79,0,0,1,1.75-4.23,5.72,5.72,0,0,1,4.26-1.79h6c3.76,0,5.76,2,6,6h-3q-.36-3-3-3h-3a2.89,2.89,0,0,0-2.1.88,2.94,2.94,0,0,0-.89,2.15v15A2.9,2.9,0,0,0,44,63.83a3,3,0,0,0,5.13-2.14v-6h-3Z" transform="translate(-35.65 -40.7)"/><path d="M37.14,103.7v-27h12a5.73,5.73,0,0,1,4.21,1.79,5.8,5.8,0,0,1,1.76,4.23v1.62a6.4,6.4,0,0,1-1.37,3.87q-1.37,1.85-4.6,1.85h3a2.87,2.87,0,0,1,2.11.88,2.91,2.91,0,0,1,.88,2.14V103.7h-6v-9a3,3,0,0,0-3-3h-3v12Zm6-15h3a3,3,0,0,0,3-3v-3a3,3,0,0,0-3-3h-3Z" transform="translate(-35.65 -40.7)"/><path d="M37.14,139.7v-21a6.06,6.06,0,0,1,6-6h6a5.73,5.73,0,0,1,4.21,1.79,5.8,5.8,0,0,1,1.76,4.23v21h-6v-12h-6v12Zm6-15h6v-6a3,3,0,0,0-3-3,2.89,2.89,0,0,0-2.1.88,2.94,2.94,0,0,0-.89,2.15Z" transform="translate(-35.65 -40.7)"/><path d="M37.14,175.7v-27h12a5.73,5.73,0,0,1,4.21,1.79,5.8,5.8,0,0,1,1.76,4.23v3a5.8,5.8,0,0,1-1.76,4.23,5.73,5.73,0,0,1-4.21,1.79h-6v12Zm6-15h3a3,3,0,0,0,3-3v-3a3,3,0,0,0-3-3h-3Z" transform="translate(-35.65 -40.7)"/><path d="M37.14,211.7v-27h6v12h6v-12h6v27h-6v-12h-6v12Z" transform="translate(-35.65 -40.7)"/><path d="M43.17,247.7v-27h6v27Z" transform="translate(-35.65 -40.7)"/><path d="M55.14,277.69q-.36,6-6,6h-6a6,6,0,0,1-6-6v-15a5.79,5.79,0,0,1,1.75-4.23,5.72,5.72,0,0,1,4.26-1.79h6c3.76,0,5.76,2,6,6h-3q-.36-3-3-3h-3a2.89,2.89,0,0,0-2.1.88,2.94,2.94,0,0,0-.89,2.15v15a2.94,2.94,0,0,0,.89,2.13,2.83,2.83,0,0,0,2.1.9h3c1.77,0,2.77-1,3-3Z" transform="translate(-35.65 -40.7)"/><path d="M37.14,328.7v-27h12a5.73,5.73,0,0,1,4.21,1.79,5.8,5.8,0,0,1,1.76,4.23v15a5.83,5.83,0,0,1-1.76,4.23,5.72,5.72,0,0,1-4.21,1.78Zm6-3h3a2.87,2.87,0,0,0,2.14-.9,2.94,2.94,0,0,0,.89-2.13v-15a3,3,0,0,0-3-3h-3Z" transform="translate(-35.65 -40.7)"/><path d="M38.65,364.7v-27h15v3h-9v9h6v3h-6v9h9v3Z" transform="translate(-35.65 -40.7)"/><path d="M53.67,379.72h-3c-.27-2-1.21-3-2.85-3a3.29,3.29,0,0,0-2.37.76,3,3,0,0,0-.79,2.27,3.19,3.19,0,0,0,.86,2.12L51.9,389a6.27,6.27,0,0,1,1.77,4.25v1.47a5.81,5.81,0,0,1-1.77,4.23,5.74,5.74,0,0,1-4.25,1.78h-3a6.11,6.11,0,0,1-4.5-1.49,6.1,6.1,0,0,1-1.52-4.52h3v.51a2.14,2.14,0,0,0,.93,1.87,3.57,3.57,0,0,0,2.06.65,2.94,2.94,0,0,0,2.28-.78,3.21,3.21,0,0,0,.7-2.25,3.1,3.1,0,0,0-.86-2.12l-6.37-7.13a6.19,6.19,0,0,1-1.77-4.25v-1.47a6.08,6.08,0,0,1,6-6h3Q53.31,373.7,53.67,379.72Z" transform="translate(-35.65 -40.7)"/><path d="M43.17,436.7v-27h6v27Z" transform="translate(-35.65 -40.7)"/><path d="M46.14,457.69h9v9a5.37,5.37,0,0,1-1.91,4.52,6.43,6.43,0,0,1-4.06,1.49h-6a6,6,0,0,1-6-6v-15a5.79,5.79,0,0,1,1.75-4.23,5.72,5.72,0,0,1,4.26-1.79h6c3.76,0,5.76,2,6,6h-3q-.36-3-3-3h-3a2.89,2.89,0,0,0-2.1.88,2.94,2.94,0,0,0-.89,2.15v15a2.9,2.9,0,0,0,.89,2.14,3,3,0,0,0,5.13-2.14v-6h-3Z" transform="translate(-35.65 -40.7)"/><path d="M35.65,508.7v-27h1.4l16.6,15v-15h3v27H55.3l-16.63-15v15Z" transform="translate(-35.65 -40.7)"/></svg>