<svg xmlns="http://www.w3.org/2000/svg" xmlns:xlink="http://www.w3.org/1999/xlink" viewBox="0 0 216 54"><defs><style>.cls-1{fill:url(#未命名的渐变_59);}</style><linearGradient id="未命名的渐变_59" x1="183.97" y1="51.1" x2="215.39" y2="-2.88" gradientUnits="userSpaceOnUse"><stop offset="0.03" stop-color="#7b00ff"/><stop offset="1" stop-color="#00f4ff"/></linearGradient></defs><title>资源 6</title><g id="图层_2" data-name="图层 2"><g id="图层_1-2" data-name="图层 1"><path d="M0,54V0H30V6H12V24h12v6H12V54Z"/><path d="M66,30V24a5.74,5.74,0,0,0-1.76-4.22A5.85,5.85,0,0,0,60,18H54q-5.32,0-6,6H42q1.44-12,12-12H66a11.51,11.51,0,0,1,8.43,3.53A11.51,11.51,0,0,1,78,24V54H66V48q-.72,6-6,6H54a11.62,11.62,0,0,1-8.46-3.53,11.83,11.83,0,0,1,0-16.92A11.62,11.62,0,0,1,54,30Zm0,6H60a6,6,0,0,0-6,6,5.87,5.87,0,0,0,1.76,4.24A5.7,5.7,0,0,0,60,48a5.77,5.77,0,0,0,4.28-1.8A5.83,5.83,0,0,0,66,42Z"/><path d="M120,24h-6q-.72-6-6-6a6,6,0,0,0-6,6V42a5.84,5.84,0,0,0,1.77,4.24A5.68,5.68,0,0,0,108,48q5.32,0,6-6h6q-.72,12-12,12h-6A12.1,12.1,0,0,1,90,42V24a11.46,11.46,0,0,1,3.56-8.43A11.64,11.64,0,0,1,102,12h6Q119.37,12,120,24Z"/><path d="M168,36H144v6a5.87,5.87,0,0,0,1.76,4.24A5.7,5.7,0,0,0,150,48H156q6,0,6-6h6Q166.61,54,156,54H144a12.12,12.12,0,0,1-12-12V24a11.43,11.43,0,0,1,3.57-8.43A11.61,11.61,0,0,1,144,12h12a11.52,11.52,0,0,1,8.43,3.53A11.5,11.5,0,0,1,168,24Zm-24-6h12V24a5.78,5.78,0,0,0-1.76-4.22A5.87,5.87,0,0,0,150,18a6,6,0,0,0-6,6Z"/><path class="cls-1" d="M180,54V39q0-10.58,12-12-12-1.44-12-12V0h12V18a5.73,5.73,0,0,0,1.77,4.21A5.73,5.73,0,0,0,198,24a5.82,5.82,0,0,0,4.28-1.77A5.73,5.73,0,0,0,204.05,18V0H216V15q0,10.58-11.95,12Q216,28.52,216,39V54H204.05V36a5.73,5.73,0,0,0-1.77-4.21A5.82,5.82,0,0,0,198,30a6,6,0,0,0-6,6V54Z"/></g></g></svg>