<svg xmlns="http://www.w3.org/2000/svg" viewBox="0 0 124.25 19.26"><title>application</title><g id="图层_2" data-name="图层 2"><g id="图层_1-2" data-name="图层 1"><path d="M1.74,18.38V6.13a3.39,3.39,0,0,1,1-2.48,3.43,3.43,0,0,1,2.47-1H8.76a3.33,3.33,0,0,1,2.45,1,3.39,3.39,0,0,1,1,2.47V18.38H8.76v-7H5.25v7ZM5.25,9.62H8.76V6.13A1.76,1.76,0,0,0,7,4.37,1.74,1.74,0,0,0,5.25,6.13Z" transform="translate(-1.74 -2.63)"/><path d="M15.75,6.13h3.51V7.88a1.76,1.76,0,0,1,.44-1.32A1.82,1.82,0,0,1,21,6.13h1.76a3.52,3.52,0,0,1,3.49,3.49v5.25a3.52,3.52,0,0,1-3.49,3.51h-3.5v3.5H15.75Zm3.51,10.5H21a1.74,1.74,0,0,0,1.76-1.76V9.62a1.68,1.68,0,0,0-.51-1.23A1.71,1.71,0,0,0,21,7.88a1.74,1.74,0,0,0-1.74,1.74Z" transform="translate(-1.74 -2.63)"/><path d="M29.76,6.13h3.5V7.88a1.8,1.8,0,0,1,.44-1.32A1.84,1.84,0,0,1,35,6.13h1.76a3.52,3.52,0,0,1,3.49,3.49v5.25a3.52,3.52,0,0,1-3.49,3.51H33.26v3.5h-3.5Zm3.5,10.5H35a1.74,1.74,0,0,0,1.76-1.76V9.62a1.68,1.68,0,0,0-.51-1.23A1.72,1.72,0,0,0,35,7.88a1.76,1.76,0,0,0-1.75,1.74Z" transform="translate(-1.74 -2.63)"/><path d="M43.76,18.38V2.62h3.51V18.38Z" transform="translate(-1.74 -2.63)"/><path d="M50.76,4.37V2.62h3.5V4.37Zm0,14V6.13h3.5V18.38Z" transform="translate(-1.74 -2.63)"/><path d="M66.51,9.62H64.76C64.62,8.46,64,7.88,63,7.88a1.74,1.74,0,0,0-1.74,1.74v5.25a1.73,1.73,0,0,0,.51,1.24,1.65,1.65,0,0,0,1.23.52c1,0,1.62-.59,1.76-1.76h1.75Q66.3,18.38,63,18.38H61.26a3.53,3.53,0,0,1-3.51-3.51V9.62a3.37,3.37,0,0,1,1-2.46,3.4,3.4,0,0,1,2.47-1H63Q66.32,6.13,66.51,9.62Z" transform="translate(-1.74 -2.63)"/><path d="M77,11.38V9.62a1.69,1.69,0,0,0-.52-1.23,1.71,1.71,0,0,0-1.25-.51H73.5q-1.56,0-1.74,1.74H70q.42-3.49,3.51-3.49H77a3.52,3.52,0,0,1,3.48,3.49v8.76H77V16.63c-.14,1.16-.73,1.75-1.77,1.75H73.5A3.53,3.53,0,0,1,70,14.87a3.37,3.37,0,0,1,1-2.46,3.42,3.42,0,0,1,2.47-1Zm0,1.74H75.24a1.72,1.72,0,0,0-1.23.52,1.68,1.68,0,0,0-.51,1.23A1.73,1.73,0,0,0,74,16.11a1.74,1.74,0,0,0,2.48,0A1.74,1.74,0,0,0,77,14.87Z" transform="translate(-1.74 -2.63)"/><path d="M85.76,2.62h3.49V6.13H91V7.88H89.25v7a1.57,1.57,0,0,0,.57,1.31,1.7,1.7,0,0,0,1,.45H91v1.75H89.25a3.52,3.52,0,0,1-3.49-3.51v-7H84V6.13h1.76Z" transform="translate(-1.74 -2.63)"/><path d="M94.5,4.37V2.62H98V4.37Zm0,14V6.13H98V18.38Z" transform="translate(-1.74 -2.63)"/><path d="M105,6.13h3.5A3.52,3.52,0,0,1,112,9.62v5.25a3.39,3.39,0,0,1-1,2.47,3.33,3.33,0,0,1-2.46,1H105a3.53,3.53,0,0,1-3.51-3.51V9.62a3.37,3.37,0,0,1,1-2.46A3.42,3.42,0,0,1,105,6.13Zm0,3.49v5.25a1.73,1.73,0,0,0,.51,1.24,1.74,1.74,0,0,0,2.48,0,1.73,1.73,0,0,0,.51-1.24V9.62A1.68,1.68,0,0,0,108,8.39a1.76,1.76,0,0,0-2.48,0A1.68,1.68,0,0,0,105,9.62Z" transform="translate(-1.74 -2.63)"/><path d="M115.5,18.38V6.13H119V7.88a2.18,2.18,0,0,1,.55-1.32,1.66,1.66,0,0,1,1.2-.43h1.76A3.52,3.52,0,0,1,126,9.62v8.76h-3.49V9.62A1.68,1.68,0,0,0,122,8.39a1.72,1.72,0,0,0-1.25-.51A1.76,1.76,0,0,0,119,9.62v8.76Z" transform="translate(-1.74 -2.63)"/></g></g></svg>