<svg xmlns="http://www.w3.org/2000/svg" viewBox="0 0 328.31 43.59"><title>CR</title><g id="图层_2" data-name="图层 2"><g id="图层_1-2" data-name="图层 1"><path d="M8.05,9.77c-.1,1.54-.86,2.31-2.29,2.31H3.45a2.21,2.21,0,0,1-1.62-.68,2.18,2.18,0,0,1-.68-1.63V4a2.23,2.23,0,0,1,.66-1.62,2.2,2.2,0,0,1,1.64-.68H5.76C7.2,1.73,8,2.49,8.05,4H6.9c-.09-.77-.47-1.16-1.14-1.16H4.6a1.07,1.07,0,0,0-.81.34A1.09,1.09,0,0,0,3.45,4V9.77a1.09,1.09,0,0,0,.34.81,1,1,0,0,0,.81.35H5.76c.68,0,1.06-.39,1.14-1.16Z" transform="translate(-1.15 -1.73)"/><path d="M10.35,12.08V1.73h2.3V12.08Z" transform="translate(-1.15 -1.73)"/><path d="M17.25,4h2.3a2.32,2.32,0,0,1,2.3,2.29V9.77a2.21,2.21,0,0,1-.68,1.62,2.19,2.19,0,0,1-1.62.69h-2.3a2.21,2.21,0,0,1-1.62-.68A2.18,2.18,0,0,1,15,9.77V6.32a2.17,2.17,0,0,1,.68-1.61A2.21,2.21,0,0,1,17.25,4Zm0,2.29V9.77a1.09,1.09,0,0,0,.34.81,1,1,0,0,0,.81.35,1.08,1.08,0,0,0,.82-.35,1.12,1.12,0,0,0,.33-.81V6.32A1.13,1.13,0,0,0,18.4,5.18a1.14,1.14,0,0,0-1.15,1.14Z" transform="translate(-1.15 -1.73)"/><path d="M29.9,6.32H28.76c-.1-.76-.47-1.14-1.09-1.14a1.43,1.43,0,0,0-.91.24.84.84,0,0,0-.31.71c0,.33.56.79,1.67,1.39.91.49,1.44.89,1.58,1.22a2.52,2.52,0,0,1,.2,1,2.21,2.21,0,0,1-.67,1.63,2.24,2.24,0,0,1-1.63.68H26.45a2,2,0,0,1-2.3-2.31h1.16c.09.77.45,1.16,1.08,1.16a1.47,1.47,0,0,0,.92-.24.87.87,0,0,0,.3-.73c0-.32-.55-.78-1.67-1.38a3.74,3.74,0,0,1-1.58-1.21,2.58,2.58,0,0,1-.21-1,2.21,2.21,0,0,1,.68-1.62A2.25,2.25,0,0,1,26.45,4H27.6A2.11,2.11,0,0,1,29.9,6.32Z" transform="translate(-1.15 -1.73)"/><path d="M32.19,2.87V1.73H34.5V2.87Zm0,9.21V4H34.5v8.05Z" transform="translate(-1.15 -1.73)"/><path d="M36.79,12.08V4H39.1V5.18a1.4,1.4,0,0,1,.35-.87A1.09,1.09,0,0,1,40.24,4H41.4A2.21,2.21,0,0,1,43,4.71a2.17,2.17,0,0,1,.68,1.61v5.76H41.4V6.32a1.1,1.1,0,0,0-.34-.81,1.15,1.15,0,0,0-2,.81v5.76Z" transform="translate(-1.15 -1.73)"/><path d="M52.89,4v9.19a2.32,2.32,0,0,1-2.29,2.31H48.3q-2,0-2.31-2.31h1.16c.06.77.44,1.16,1.15,1.16h1.14a1.08,1.08,0,0,0,.82-.34,1.09,1.09,0,0,0,.34-.82V10.93c-.09.76-.47,1.15-1.16,1.15H48.3a2.21,2.21,0,0,1-1.62-.68A2.19,2.19,0,0,1,46,9.77V6.32a2.18,2.18,0,0,1,.69-1.61A2.21,2.21,0,0,1,48.3,4ZM50.6,5.18H49.44A1.14,1.14,0,0,0,48.3,6.32V9.77a1.09,1.09,0,0,0,.34.81,1,1,0,0,0,.8.35,1.05,1.05,0,0,0,.82-.35,1.09,1.09,0,0,0,.34-.81Z" transform="translate(-1.15 -1.73)"/><path d="M59.81,1.73H62.1V4h1.16V5.18H62.1V9.77a1,1,0,0,0,.37.86,1.12,1.12,0,0,0,.68.3h.11v1.15H62.1a2.3,2.3,0,0,1-2.29-2.31V5.18H58.65V4h1.16Z" transform="translate(-1.15 -1.73)"/><path d="M65.55,12.08V1.73h2.3V5.18a1.46,1.46,0,0,1,.36-.87A1.09,1.09,0,0,1,69,4h1.16a2.21,2.21,0,0,1,1.61.68,2.21,2.21,0,0,1,.68,1.61v5.76H70.16V6.32a1.1,1.1,0,0,0-.34-.81,1.17,1.17,0,0,0-1.63,0,1.14,1.14,0,0,0-.34.81v5.76Z" transform="translate(-1.15 -1.73)"/><path d="M81.65,8.62H77.06V9.77a1.09,1.09,0,0,0,.34.81,1,1,0,0,0,.8.35h1.16a1,1,0,0,0,1.15-1.16h1.14c-.17,1.54-.93,2.31-2.29,2.31h-2.3a2.21,2.21,0,0,1-1.62-.68,2.19,2.19,0,0,1-.69-1.63V6.32a2.18,2.18,0,0,1,.69-1.61A2.21,2.21,0,0,1,77.06,4h2.3a2.3,2.3,0,0,1,2.29,2.29ZM77.06,7.48h2.3V6.32A1.1,1.1,0,0,0,79,5.51a1.12,1.12,0,0,0-.82-.33,1.14,1.14,0,0,0-1.14,1.14Z" transform="translate(-1.15 -1.73)"/><path d="M87.41,12.08V1.73h2.3v9.2h3.45v1.15Z" transform="translate(-1.15 -1.73)"/><path d="M97.76,4h2.3a2.23,2.23,0,0,1,1.62.68,2.2,2.2,0,0,1,.67,1.61V9.77a2.32,2.32,0,0,1-2.29,2.31h-2.3a2.21,2.21,0,0,1-1.62-.68,2.19,2.19,0,0,1-.69-1.63V6.32a2.18,2.18,0,0,1,.69-1.61A2.21,2.21,0,0,1,97.76,4Zm0,2.29V9.77a1.09,1.09,0,0,0,.34.81,1,1,0,0,0,.8.35,1.07,1.07,0,0,0,.82-.35,1.09,1.09,0,0,0,.34-.81V6.32a1.1,1.1,0,0,0-.34-.81,1.12,1.12,0,0,0-.82-.33,1.14,1.14,0,0,0-1.14,1.14Z" transform="translate(-1.15 -1.73)"/><path d="M107,4h2.31a2.21,2.21,0,0,1,1.61.68,2.21,2.21,0,0,1,.68,1.61V9.77a2.21,2.21,0,0,1-.68,1.62,2.18,2.18,0,0,1-1.61.69H107a2.25,2.25,0,0,1-1.62-.68,2.18,2.18,0,0,1-.68-1.63V6.32a2.17,2.17,0,0,1,.68-1.61A2.25,2.25,0,0,1,107,4Zm0,2.29V9.77a1.09,1.09,0,0,0,.34.81,1,1,0,0,0,.81.35,1.08,1.08,0,0,0,.82-.35,1.13,1.13,0,0,0,.34-.81V6.32a1.14,1.14,0,0,0-1.16-1.14A1.14,1.14,0,0,0,107,6.32Z" transform="translate(-1.15 -1.73)"/><path d="M113.86,4h2.31V5.18a1.14,1.14,0,0,1,.29-.87,1.15,1.15,0,0,1,.85-.28h1.16a2.19,2.19,0,0,1,1.61.68,2.17,2.17,0,0,1,.68,1.61V9.77a2.32,2.32,0,0,1-2.29,2.31h-2.3v2.3h-2.31Zm2.31,6.9h1.14a1.16,1.16,0,0,0,1.16-1.16V6.32a1.1,1.1,0,0,0-.34-.81,1.15,1.15,0,0,0-2,.81Z" transform="translate(-1.15 -1.73)"/><path d="M128.82,4h2.3a2.3,2.3,0,0,1,2.29,2.29V9.77a2.32,2.32,0,0,1-2.29,2.31h-2.3a2.21,2.21,0,0,1-1.62-.68,2.19,2.19,0,0,1-.69-1.63V6.32a2.18,2.18,0,0,1,.69-1.61A2.21,2.21,0,0,1,128.82,4Zm0,2.29V9.77a1.09,1.09,0,0,0,.34.81,1,1,0,0,0,.81.35,1.08,1.08,0,0,0,.82-.35,1.12,1.12,0,0,0,.33-.81V6.32A1.13,1.13,0,0,0,130,5.18a1.14,1.14,0,0,0-1.15,1.14Z" transform="translate(-1.15 -1.73)"/><path d="M135.72,12.08V4H138V5.18a1.46,1.46,0,0,1,.36-.87,1.09,1.09,0,0,1,.79-.28h1.16a2.21,2.21,0,0,1,1.61.68,2.21,2.21,0,0,1,.68,1.61v5.76h-2.29V6.32a1.1,1.1,0,0,0-.34-.81,1.16,1.16,0,0,0-2,.81v5.76Z" transform="translate(-1.15 -1.73)"/><path d="M148.37,1.73h2.31v9.2h1.14a1.07,1.07,0,0,0,.82-.35,1.09,1.09,0,0,0,.34-.81v-8h2.29v9.2h1.16a1.06,1.06,0,0,0,.81-.35,1.09,1.09,0,0,0,.34-.81v-8h2.3V8.14a3.81,3.81,0,0,1-1.15,2.78A3.8,3.8,0,0,1,156,12.08h-3v-.36a3.36,3.36,0,0,1-1.63.36h-3Z" transform="translate(-1.15 -1.73)"/><path d="M166.78,7.48V6.32a1.1,1.1,0,0,0-.34-.81,1.12,1.12,0,0,0-.82-.33h-1.14c-.68,0-1.06.38-1.15,1.14h-1.16c.19-1.53,1-2.29,2.31-2.29h2.3a2.3,2.3,0,0,1,2.29,2.29v5.76h-2.29V10.93c-.09.76-.48,1.15-1.16,1.15h-1.14a2.21,2.21,0,0,1-1.62-.68,2.25,2.25,0,0,1,0-3.24,2.21,2.21,0,0,1,1.62-.68Zm0,1.14h-1.16a1.16,1.16,0,0,0-1.14,1.15,1.09,1.09,0,0,0,.34.81,1,1,0,0,0,.8.35,1.07,1.07,0,0,0,.82-.35,1.09,1.09,0,0,0,.34-.81Z" transform="translate(-1.15 -1.73)"/><path d="M177.13,6.32H176c-.1-.76-.47-1.14-1.09-1.14a1.43,1.43,0,0,0-.91.24.84.84,0,0,0-.31.71c0,.33.56.79,1.67,1.39.91.49,1.44.89,1.58,1.22a2.7,2.7,0,0,1,.2,1,2.21,2.21,0,0,1-.67,1.63,2.25,2.25,0,0,1-1.63.68h-1.15a2,2,0,0,1-2.3-2.31h1.16c.09.77.45,1.16,1.07,1.16a1.48,1.48,0,0,0,.93-.24.87.87,0,0,0,.3-.73c0-.32-.56-.78-1.67-1.38a3.67,3.67,0,0,1-1.58-1.21,2.58,2.58,0,0,1-.21-1,2.18,2.18,0,0,1,.68-1.62A2.25,2.25,0,0,1,173.68,4h1.15A2.11,2.11,0,0,1,177.13,6.32Z" transform="translate(-1.15 -1.73)"/><path d="M180.58,1.73h2.29V4H184V5.18h-1.16V9.77a1,1,0,0,0,.37.86,1.14,1.14,0,0,0,.68.3H184v1.15h-1.16a2.32,2.32,0,0,1-2.29-2.31V5.18h-1.16V4h1.16Z" transform="translate(-1.15 -1.73)"/><path d="M193.22,8.62h-4.59V9.77a1.09,1.09,0,0,0,.34.81,1,1,0,0,0,.8.35h1.16a1,1,0,0,0,1.15-1.16h1.14c-.17,1.54-.94,2.31-2.29,2.31h-2.3A2.21,2.21,0,0,1,187,11.4a2.19,2.19,0,0,1-.69-1.63V6.32A2.18,2.18,0,0,1,187,4.71,2.21,2.21,0,0,1,188.63,4h2.3a2.3,2.3,0,0,1,2.29,2.29Zm-4.59-1.14h2.3V6.32a1.1,1.1,0,0,0-.34-.81,1.12,1.12,0,0,0-.82-.33,1.14,1.14,0,0,0-1.14,1.14Z" transform="translate(-1.15 -1.73)"/><path d="M4.12,19.43H8.61l-.18.83H4.87l-.65,3H7.16L7,24.12H4.06l-.79,3.69H6.83l-.18.82H2.17Z" transform="translate(-1.15 -1.73)"/><path d="M16,21.27l.8.33-4.29,7.21h-.17L11.07,21.6l1-.33.83,5.27Z" transform="translate(-1.15 -1.73)"/><path d="M20.26,21.45h4.48l-.18.83H21l-.45,2.15h2.94l-.18.83H20.37l-.54,2.55h3.56l-.18.82H18.73Z" transform="translate(-1.15 -1.73)"/><path d="M28.11,21.45h1.15l1.49,6.05,0,0,.31-1.87L32,21.45h.92l-1.53,7.18H30.23l-1.5-6.05,0,0-.31,1.87-.89,4.15h-.92Z" transform="translate(-1.15 -1.73)"/><path d="M38.17,22.28h-2l.18-.83h4.86l-.18.83H39.09l-1.35,6.35h-.92Z" transform="translate(-1.15 -1.73)"/><path d="M52.84,28.63h-.92l2-9.2h2c1.62,0,2.34.87,2,2.45a3,3,0,0,1-2.8,2.66H53.71Zm1-4.92h1.3c.85,0,1.49-.66,1.73-1.82s-.24-1.62-1.24-1.62H54.62Z" transform="translate(-1.15 -1.73)"/><path d="M65.41,25.05c-.12.58-.83,3.71-3.34,3.71-1.16,0-2.37-.83-1.76-3.71s2.16-3.73,3.35-3.73S66,22.15,65.41,25.05Zm-4.14,0c-.22,1.05-.41,2.84,1,2.84s2-1.79,2.2-2.84.41-2.86-1-2.86S61.51,24,61.27,25.05Z" transform="translate(-1.15 -1.73)"/><path d="M69.36,26.36c0,.88.28,1.53,1.24,1.53a1.56,1.56,0,0,0,1.62-1.21c.19-.89-.52-1.11-1.15-1.4-1-.44-1.89-.71-1.6-2.07A2.48,2.48,0,0,1,72,21.32a1.67,1.67,0,0,1,1.81,1.81l-.94.26c0-.7-.29-1.2-1.08-1.2a1.32,1.32,0,0,0-1.36,1c-.15.67.22.88.72,1.11l1.39.68a1.46,1.46,0,0,1,.63,1.68,2.65,2.65,0,0,1-2.73,2.14,1.82,1.82,0,0,1-1.94-2.14Z" transform="translate(-1.15 -1.73)"/><path d="M79.57,22.28h-2l.17-.83h4.86l-.18.83H80.5l-1.36,6.35h-.92Z" transform="translate(-1.15 -1.73)"/><path d="M86.5,21.45H91l-.18.83H87.24l-.45,2.15h2.94l-.18.83H86.61l-.54,2.55h3.56l-.18.82H85Z" transform="translate(-1.15 -1.73)"/><path d="M94.67,21.45h2.44c1.2,0,2,.56,1.74,2a2.83,2.83,0,0,1-1.89,2l1.14,2.91-.91.48-1.14-3.25H94.71l-.65,3.07h-.92Zm1.43,3.28a1.71,1.71,0,0,0,1.78-1.32c.14-.65-.15-1.13-1-1.13H95.41l-.52,2.45Z" transform="translate(-1.15 -1.73)"/><path d="M110.82,21.45h2.4c2,0,2.78.84,2.22,3.5-.49,2.25-1.18,3.68-3.75,3.68h-2.4l.17-.82h.75l1.17-5.53h-.74Zm.31,6.36h1c1.22,0,1.89-.69,2.33-2.76s0-2.77-1.18-2.77h-1Z" transform="translate(-1.15 -1.73)"/><path d="M119.62,21.45h4.48l-.17.83h-3.56l-.46,2.15h2.94l-.18.83h-2.94l-.54,2.55h3.56l-.18.82h-4.48Z" transform="translate(-1.15 -1.73)"/><path d="M127.32,26.36c0,.88.28,1.53,1.24,1.53a1.56,1.56,0,0,0,1.62-1.21c.19-.89-.51-1.11-1.15-1.4-1-.44-1.89-.71-1.6-2.07a2.48,2.48,0,0,1,2.51-1.89,1.67,1.67,0,0,1,1.81,1.81l-.94.26c0-.7-.29-1.2-1.07-1.2a1.32,1.32,0,0,0-1.37,1c-.15.67.22.88.72,1.11l1.39.68a1.47,1.47,0,0,1,.64,1.68,2.67,2.67,0,0,1-2.74,2.14,1.83,1.83,0,0,1-1.94-2.14Z" transform="translate(-1.15 -1.73)"/><path d="M135.33,27.81h1l1.18-5.53h-1l.18-.83h2.95l-.18.83h-1l-1.17,5.53h1l-.18.82h-2.95Z" transform="translate(-1.15 -1.73)"/><path d="M147.47,28a4.62,4.62,0,0,1-2.37.79c-2.11,0-2.31-2-1.93-3.72s1.43-3.72,3.48-3.72a2.11,2.11,0,0,1,2,1.38l-.89.51a1.43,1.43,0,0,0-1.36-1c-1.42,0-2,1.78-2.28,2.87s-.36,2.83,1.09,2.83a3,3,0,0,0,1.42-.37l.4-1.89h-1.72l.18-.83h2.64Z" transform="translate(-1.15 -1.73)"/><path d="M152.31,21.45h1.15L155,27.5l0,0,.32-1.87.88-4.16h.92l-1.53,7.18h-1.14l-1.51-6.05,0,0-.32,1.87-.88,4.15h-.93Z" transform="translate(-1.15 -1.73)"/><path d="M161,21.45h4.49l-.18.83h-3.56l-.46,2.15h2.94l-.18.83h-2.94l-.53,2.55h3.55l-.18.82h-4.48Z" transform="translate(-1.15 -1.73)"/><path d="M168.78,21.45h2.4c2,0,2.79.84,2.22,3.5-.48,2.25-1.17,3.68-3.75,3.68h-2.4l.18-.82h.74l1.17-5.53h-.74Zm.32,6.36h1c1.21,0,1.89-.69,2.33-2.76s0-2.77-1.19-2.77h-.95Z" transform="translate(-1.15 -1.73)"/><path d="M186.13,21.45h4.52l-.18.83h-3.6l-.45,2.15h3l-.18.83h-3l-.72,3.37h-.93Z" transform="translate(-1.15 -1.73)"/><path d="M197.9,25.05c-.13.58-.83,3.71-3.34,3.71-1.16,0-2.38-.83-1.77-3.71s2.17-3.73,3.35-3.73S198.52,22.15,197.9,25.05Zm-4.14,0c-.22,1.05-.42,2.84,1,2.84s2-1.79,2.19-2.84.41-2.86-1-2.86S194,24,193.76,25.05Z" transform="translate(-1.15 -1.73)"/><path d="M202.31,21.45h2.45c1.19,0,2,.56,1.73,2a2.81,2.81,0,0,1-1.89,2l1.15,2.91-.91.48-1.15-3.25h-1.34l-.64,3.07h-.93Zm1.44,3.28a1.71,1.71,0,0,0,1.78-1.32c.14-.65-.15-1.13-1-1.13h-1.49l-.53,2.45Z" transform="translate(-1.15 -1.73)"/><path d="M222.29,27.26a3.64,3.64,0,0,1-2.7,1.5c-2.4,0-2.14-2.9-1.75-4.72s1.36-4.73,3.76-4.73a2,2,0,0,1,1.94,1.49l-.89.47a1.3,1.3,0,0,0-1.24-1.09c-1.68,0-2.34,2.65-2.61,3.86s-.71,3.85,1,3.85a2.73,2.73,0,0,0,1.88-1.16Z" transform="translate(-1.15 -1.73)"/><path d="M231,25.05c-.13.58-.83,3.71-3.34,3.71-1.16,0-2.37-.83-1.77-3.71s2.17-3.73,3.35-3.73S231.64,22.15,231,25.05Zm-4.14,0c-.22,1.05-.42,2.84,1,2.84s2-1.79,2.19-2.84.41-2.86-1-2.86S227.11,24,226.88,25.05Z" transform="translate(-1.15 -1.73)"/><path d="M235.72,21.45h.93l-1.35,6.36h3.76l-.18.82h-4.69Z" transform="translate(-1.15 -1.73)"/><path d="M244,21.45h.93l-1.35,6.36h3.76l-.18.82h-4.69Z" transform="translate(-1.15 -1.73)"/><path d="M252.1,21.45h4.49l-.18.83h-3.56l-.46,2.15h2.94l-.18.83h-2.93l-.54,2.55h3.56l-.18.82h-4.49Z" transform="translate(-1.15 -1.73)"/><path d="M263.7,27.26a3.5,3.5,0,0,1-2.71,1.5c-2.09,0-2.34-1.93-2-3.71.61-2.87,2.32-3.73,3.48-3.73a1.86,1.86,0,0,1,1.94,1.54l-.94.42c-.18-.58-.48-1.09-1.18-1.09-1.44,0-2.1,1.74-2.33,2.85s-.35,2.85,1.11,2.85a2.59,2.59,0,0,0,1.95-1.16Z" transform="translate(-1.15 -1.73)"/><path d="M270,22.28h-2l.18-.83h4.86l-.18.83h-1.95l-1.35,6.35h-.92Z" transform="translate(-1.15 -1.73)"/><path d="M276.09,27.81h1l1.17-5.53h-1l.18-.83h2.95l-.17.83h-1L278,27.81h1l-.18.82h-2.95Z" transform="translate(-1.15 -1.73)"/><path d="M289.2,21.27l.8.33-4.29,7.21h-.17l-1.22-7.21,1-.33.83,5.27Z" transform="translate(-1.15 -1.73)"/><path d="M293.51,21.45H298l-.18.83h-3.56l-.45,2.15h2.93l-.18.83h-2.93l-.54,2.55h3.56l-.18.82H292Z" transform="translate(-1.15 -1.73)"/><path d="M310.56,19.43h2.49c.91,0,1.89.79,1.53,2.45a3.31,3.31,0,0,1-2.14,2.59l1.06,3.94-.91.4-1.16-4.27h-1l-.87,4.09h-.93Zm0,4.28h1.35c.81,0,1.42-.59,1.68-1.83s-.23-1.62-1.17-1.62h-1.13Z" transform="translate(-1.15 -1.73)"/><path d="M318.35,21.45h4.48l-.18.83h-3.56l-.45,2.15h2.94l-.18.83h-2.94l-.54,2.55h3.56l-.18.82h-4.48Z" transform="translate(-1.15 -1.73)"/><path d="M326.39,24.61h3.07l-.18.87h-3.07Z" transform="translate(-1.15 -1.73)"/><path d="M3.12,42.92c0,.88.27,1.53,1.24,1.53A1.54,1.54,0,0,0,6,43.24c.2-.89-.51-1.11-1.14-1.4-1-.44-1.89-.71-1.6-2.07a2.48,2.48,0,0,1,2.51-1.89,1.67,1.67,0,0,1,1.81,1.81L6.61,40c0-.7-.29-1.2-1.08-1.2a1.31,1.31,0,0,0-1.36,1c-.16.67.22.88.71,1.11l1.4.68a1.46,1.46,0,0,1,.63,1.68,2.66,2.66,0,0,1-2.73,2.14,1.83,1.83,0,0,1-1.95-2.14Z" transform="translate(-1.15 -1.73)"/><path d="M11.44,45.2h-.93L12.05,38h2.23c1.67,0,2.13.91,1.9,2a2.59,2.59,0,0,1-2.53,2.14H12.1Zm2.1-3.92A1.5,1.5,0,0,0,15.19,40c.21-1-.37-1.2-1.13-1.2H12.79l-.52,2.44Z" transform="translate(-1.15 -1.73)"/><path d="M24,41.61c-.12.58-.83,3.71-3.34,3.71-1.16,0-2.37-.83-1.76-3.71s2.16-3.73,3.35-3.73S24.63,38.71,24,41.61Zm-4.14,0c-.22,1-.41,2.84,1,2.84s2-1.79,2.19-2.84.42-2.86-1-2.86S20.11,40.55,19.87,41.61Z" transform="translate(-1.15 -1.73)"/><path d="M28.11,38h1.15l1.49,6.05,0,0,.31-1.87L32,38h.92L31.38,45.2H30.23l-1.5-6.06,0,0L28.39,41,27.5,45.2h-.92Z" transform="translate(-1.15 -1.73)"/><path d="M36.24,42.92c0,.88.27,1.53,1.24,1.53a1.54,1.54,0,0,0,1.61-1.21c.2-.89-.51-1.11-1.14-1.4-1-.44-1.89-.71-1.6-2.07a2.48,2.48,0,0,1,2.51-1.89,1.67,1.67,0,0,1,1.81,1.81l-.94.26c0-.7-.29-1.2-1.08-1.2a1.32,1.32,0,0,0-1.36,1c-.15.67.22.88.71,1.11l1.4.68A1.46,1.46,0,0,1,40,43.18a2.65,2.65,0,0,1-2.73,2.14,1.82,1.82,0,0,1-1.94-2.14Z" transform="translate(-1.15 -1.73)"/><path d="M44.24,44.37h1l1.17-5.53h-1L45.6,38h2.95l-.18.83h-1l-1.18,5.53h1L47,45.2h-3Z" transform="translate(-1.15 -1.73)"/><path d="M51.36,45.2l.18-.83h.75l1.17-5.53h-.74L52.9,38h2.26c1.82,0,2.45.69,2.19,1.92a2,2,0,0,1-1.13,1.47,1.38,1.38,0,0,1,.87,1.74,2.6,2.6,0,0,1-2.8,2.06Zm2.93-.83c.81,0,1.61-.18,1.82-1.16A1,1,0,0,0,55,41.91H53.74l-.53,2.46Zm.65-3.29a1.42,1.42,0,0,0,1.45-1.15c.17-.86-.38-1.09-1-1.09h-1l-.49,2.24Z" transform="translate(-1.15 -1.73)"/><path d="M60.8,44.37h1L63,38.84H62l.18-.83h3l-.18.83h-1l-1.18,5.53h1l-.18.83h-3Z" transform="translate(-1.15 -1.73)"/><path d="M70.12,38H71l-1.35,6.36h3.77l-.18.83H68.59Z" transform="translate(-1.15 -1.73)"/><path d="M77.36,44.37h1l1.17-5.53h-1l.18-.83h3l-.18.83h-1L79.3,44.37h1l-.18.83h-3Z" transform="translate(-1.15 -1.73)"/><path d="M87.85,38.84h-2L86,38H90.9l-.18.83H88.78L87.42,45.2H86.5Z" transform="translate(-1.15 -1.73)"/><path d="M98.71,37.83l.76.45-3.2,4.14-.59,2.78h-.93l.6-2.78L93.9,38.28l1-.45L96,41.53Z" transform="translate(-1.15 -1.73)"/></g></g></svg>