<svg xmlns="http://www.w3.org/2000/svg" viewBox="0 0 71.76 21"><title>design_1</title><g id="图层_2" data-name="图层 2"><g id="图层_1-2" data-name="图层 1"><path d="M1.74,18.38V2.62h7a3.33,3.33,0,0,1,2.45,1,3.39,3.39,0,0,1,1,2.47v8.74a3.39,3.39,0,0,1-1,2.47,3.33,3.33,0,0,1-2.45,1Zm3.51-1.75H7a1.68,1.68,0,0,0,1.25-.52,1.7,1.7,0,0,0,.52-1.24V6.13A1.76,1.76,0,0,0,7,4.37H5.25Z" transform="translate(-1.74 -2.63)"/><path d="M26.25,13.12h-7v1.75a1.73,1.73,0,0,0,.51,1.24,1.65,1.65,0,0,0,1.23.52h1.76a1.55,1.55,0,0,0,1.75-1.76h1.74q-.41,3.51-3.49,3.51h-3.5a3.53,3.53,0,0,1-3.51-3.51V9.62a3.37,3.37,0,0,1,1-2.46,3.4,3.4,0,0,1,2.47-1h3.5a3.52,3.52,0,0,1,3.49,3.49Zm-7-1.74h3.5V9.62a1.68,1.68,0,0,0-.51-1.23A1.71,1.71,0,0,0,21,7.88a1.74,1.74,0,0,0-1.74,1.74Z" transform="translate(-1.74 -2.63)"/><path d="M38.51,9.62H36.77c-.15-1.16-.71-1.74-1.66-1.74a2.21,2.21,0,0,0-1.38.36,1.31,1.31,0,0,0-.47,1.08c0,.51.85,1.22,2.54,2.12a5.63,5.63,0,0,1,2.4,1.85,4,4,0,0,1,.31,1.58A3.52,3.52,0,0,1,35,18.38H33.26q-3.49,0-3.5-3.51h1.76c.14,1.17.69,1.76,1.64,1.76a2.22,2.22,0,0,0,1.41-.37,1.33,1.33,0,0,0,.46-1.1c0-.49-.85-1.19-2.54-2.1a5.67,5.67,0,0,1-2.41-1.85,3.77,3.77,0,0,1-.32-1.57,3.34,3.34,0,0,1,1-2.48,3.39,3.39,0,0,1,2.46-1H35Q38.3,6.13,38.51,9.62Z" transform="translate(-1.74 -2.63)"/><path d="M42,4.37V2.62h3.51V4.37Zm0,14V6.13h3.51V18.38Z" transform="translate(-1.74 -2.63)"/><path d="M59.49,6.13v14a3.39,3.39,0,0,1-1,2.47,3.32,3.32,0,0,1-2.45,1H52.5c-2.06,0-3.23-1.16-3.51-3.5h1.77c.08,1.17.66,1.76,1.74,1.76h1.74a1.71,1.71,0,0,0,1.25-.51A1.73,1.73,0,0,0,56,20.12V16.63c-.14,1.16-.73,1.75-1.77,1.75H52.5A3.53,3.53,0,0,1,49,14.87V9.62a3.37,3.37,0,0,1,1-2.46,3.42,3.42,0,0,1,2.47-1ZM56,7.88H54.24A1.71,1.71,0,0,0,53,8.39a1.68,1.68,0,0,0-.51,1.23v5.25A1.73,1.73,0,0,0,53,16.11a1.74,1.74,0,0,0,2.48,0A1.74,1.74,0,0,0,56,14.87Z" transform="translate(-1.74 -2.63)"/><path d="M63,18.38V6.13h3.51V7.88a2.18,2.18,0,0,1,.54-1.32,1.68,1.68,0,0,1,1.2-.43H70a3.39,3.39,0,0,1,2.46,1,3.36,3.36,0,0,1,1,2.46v8.76H70V9.62a1.68,1.68,0,0,0-.51-1.23,1.71,1.71,0,0,0-1.25-.51,1.74,1.74,0,0,0-1.74,1.74v8.76Z" transform="translate(-1.74 -2.63)"/></g></g></svg>