<svg xmlns="http://www.w3.org/2000/svg" viewBox="0 0 108.53 15.75"><title>faceXConstuct</title><g id="图层_2" data-name="图层 2"><g id="图层_1-2" data-name="图层 1"><path d="M12.24,14.87Q12,18.38,8.76,18.38H5.25a3.43,3.43,0,0,1-2.47-1,3.39,3.39,0,0,1-1-2.48V6.13a3.42,3.42,0,0,1,1-2.47,3.37,3.37,0,0,1,2.49-1H8.76c2.19,0,3.36,1.17,3.48,3.51H10.5C10.36,5,9.78,4.37,8.76,4.37H7A1.74,1.74,0,0,0,5.25,6.13v8.74a1.73,1.73,0,0,0,.51,1.24A1.68,1.68,0,0,0,7,16.63H8.76c1,0,1.61-.59,1.74-1.76Z" transform="translate(-1.74 -2.63)"/><path d="M19.26,6.13h3.5a3.52,3.52,0,0,1,3.49,3.49v5.25a3.39,3.39,0,0,1-1,2.47,3.35,3.35,0,0,1-2.46,1h-3.5a3.53,3.53,0,0,1-3.51-3.51V9.62a3.37,3.37,0,0,1,1-2.46A3.4,3.4,0,0,1,19.26,6.13Zm0,3.49v5.25a1.73,1.73,0,0,0,.51,1.24,1.65,1.65,0,0,0,1.23.52,1.68,1.68,0,0,0,1.25-.52,1.73,1.73,0,0,0,.51-1.24V9.62a1.68,1.68,0,0,0-.51-1.23A1.71,1.71,0,0,0,21,7.88a1.74,1.74,0,0,0-1.74,1.74Z" transform="translate(-1.74 -2.63)"/><path d="M29.76,18.38V6.13h3.5V7.88a2.18,2.18,0,0,1,.55-1.32A1.66,1.66,0,0,1,35,6.13h1.76a3.52,3.52,0,0,1,3.49,3.49v8.76H36.77V9.62a1.68,1.68,0,0,0-.51-1.23A1.72,1.72,0,0,0,35,7.88a1.76,1.76,0,0,0-1.75,1.74v8.76Z" transform="translate(-1.74 -2.63)"/><path d="M52.52,9.62H50.78c-.16-1.16-.71-1.74-1.66-1.74a2.24,2.24,0,0,0-1.39.36,1.3,1.3,0,0,0-.46,1.08c0,.51.85,1.22,2.54,2.12a5.63,5.63,0,0,1,2.4,1.85,4,4,0,0,1,.31,1.58A3.52,3.52,0,0,1,49,18.38H47.27q-3.51,0-3.51-3.51h1.77c.14,1.17.68,1.76,1.64,1.76a2.19,2.19,0,0,0,1.4-.37,1.31,1.31,0,0,0,.46-1.1c0-.49-.84-1.19-2.54-2.1a5.69,5.69,0,0,1-2.4-1.85,3.78,3.78,0,0,1-.33-1.57,3.38,3.38,0,0,1,1-2.48,3.43,3.43,0,0,1,2.47-1H49Q52.31,6.13,52.52,9.62Z" transform="translate(-1.74 -2.63)"/><path d="M57.77,2.62h3.49V6.13H63V7.88H61.26v7a1.6,1.6,0,0,0,.56,1.31,1.73,1.73,0,0,0,1,.45H63v1.75H61.26a3.52,3.52,0,0,1-3.49-3.51v-7H56V6.13h1.76Z" transform="translate(-1.74 -2.63)"/><path d="M70,18.38h-3.5V6.13H70V9.62A4.34,4.34,0,0,1,71.09,7a3.3,3.3,0,0,1,2.43-.87h1.74V9.62h-3.5A1.76,1.76,0,0,0,70,11.38Z" transform="translate(-1.74 -2.63)"/><path d="M87.51,6.13V18.38H84V16.63c-.14,1.16-.73,1.75-1.76,1.75H80.51a3.39,3.39,0,0,1-2.46-1,3.35,3.35,0,0,1-1-2.48V6.13h3.5v8.74A1.7,1.7,0,0,0,81,16.11a1.65,1.65,0,0,0,1.23.52,1.69,1.69,0,0,0,1.25-.52A1.73,1.73,0,0,0,84,14.87V6.13Z" transform="translate(-1.74 -2.63)"/><path d="M99.77,9.62H98q-.21-1.74-1.77-1.74A1.71,1.71,0,0,0,95,8.39a1.68,1.68,0,0,0-.51,1.23v5.25A1.73,1.73,0,0,0,95,16.11a1.68,1.68,0,0,0,1.23.52c1,0,1.63-.59,1.77-1.76h1.74q-.21,3.51-3.51,3.51H94.52a3.43,3.43,0,0,1-2.47-1,3.39,3.39,0,0,1-1-2.48V9.62a3.37,3.37,0,0,1,1-2.46,3.43,3.43,0,0,1,2.47-1h1.74C98.48,6.13,99.64,7.29,99.77,9.62Z" transform="translate(-1.74 -2.63)"/><path d="M105,2.62h3.49V6.13h1.76V7.88h-1.76v7a1.57,1.57,0,0,0,.56,1.31,1.73,1.73,0,0,0,1,.45h.17v1.75h-1.76A3.52,3.52,0,0,1,105,14.87v-7h-1.76V6.13H105Z" transform="translate(-1.74 -2.63)"/></g></g></svg>