<svg xmlns="http://www.w3.org/2000/svg" viewBox="0 0 149.5 17.25"><title>offical_site</title><g id="图层_2" data-name="图层 2"><g id="图层_1-2" data-name="图层 1"><path d="M5.75,2.88H9.59A3.64,3.64,0,0,1,12.28,4a3.73,3.73,0,0,1,1.13,2.71v9.56A3.73,3.73,0,0,1,12.28,19a3.64,3.64,0,0,1-2.69,1.13H5.75A3.71,3.71,0,0,1,3.05,19a3.69,3.69,0,0,1-1.14-2.72V6.72A3.69,3.69,0,0,1,3.05,4,3.71,3.71,0,0,1,5.75,2.88Zm0,3.84v9.56a1.88,1.88,0,0,0,.56,1.36,1.88,1.88,0,0,0,2.72,0,1.88,1.88,0,0,0,.56-1.36V6.72A1.93,1.93,0,0,0,7.66,4.78a1.85,1.85,0,0,0-1.35.57A1.87,1.87,0,0,0,5.75,6.72Z" transform="translate(-1.91 -2.88)"/><path d="M17.25,20.12V2.88h9.59v1.9H21.09v5.75h3.84v1.94H21.09v7.65Z" transform="translate(-1.91 -2.88)"/><path d="M30.66,20.12V2.88h9.59v1.9H34.5v5.75h3.84v1.94H34.5v7.65Z" transform="translate(-1.91 -2.88)"/><path d="M46,20.12V2.88h3.82V20.12Z" transform="translate(-1.91 -2.88)"/><path d="M67.07,16.28q-.24,3.84-3.82,3.84H59.41a3.86,3.86,0,0,1-3.84-3.84V6.72A3.75,3.75,0,0,1,56.68,4a3.67,3.67,0,0,1,2.73-1.13h3.84q3.61,0,3.82,3.84H65.16c-.16-1.29-.79-1.94-1.91-1.94H61.32A1.85,1.85,0,0,0,60,5.35a1.87,1.87,0,0,0-.56,1.37v9.56A1.88,1.88,0,0,0,60,17.64a1.86,1.86,0,0,0,1.35.58h1.93c1.13,0,1.77-.65,1.91-1.94Z" transform="translate(-1.91 -2.88)"/><path d="M70.91,20.12V6.72A3.69,3.69,0,0,1,72.05,4a3.71,3.71,0,0,1,2.7-1.12h3.84A3.64,3.64,0,0,1,81.28,4a3.73,3.73,0,0,1,1.13,2.71v13.4H78.59V12.47H74.75v7.65Zm3.84-9.59h3.84V6.72a1.93,1.93,0,0,0-1.93-1.94,1.85,1.85,0,0,0-1.35.57,1.87,1.87,0,0,0-.56,1.37Z" transform="translate(-1.91 -2.88)"/><path d="M86.25,20.12V2.88h3.84V18.22h5.75v1.9Z" transform="translate(-1.91 -2.88)"/><path d="M115,6.72h-1.91c-.17-1.29-.78-1.94-1.82-1.94a2.11,2.11,0,0,0-1.52.49,1.93,1.93,0,0,0-.5,1.45,2,2,0,0,0,.55,1.35l4.07,4.56A4,4,0,0,1,115,15.34v.94A3.73,3.73,0,0,1,113.87,19a3.66,3.66,0,0,1-2.71,1.13h-1.91a3.94,3.94,0,0,1-2.88-.95,3.92,3.92,0,0,1-1-2.89h1.93v.33a1.35,1.35,0,0,0,.6,1.19,2.22,2.22,0,0,0,1.31.42,1.89,1.89,0,0,0,1.46-.5,2.07,2.07,0,0,0,.45-1.44,2,2,0,0,0-.55-1.35l-4.08-4.56a4,4,0,0,1-1.12-2.71V6.72A3.72,3.72,0,0,1,106.53,4a3.69,3.69,0,0,1,2.72-1.13h1.91C113.56,2.88,114.85,4.16,115,6.72Z" transform="translate(-1.91 -2.88)"/><path d="M120.75,20.12V2.88h3.82V20.12Z" transform="translate(-1.91 -2.88)"/><path d="M132.25,20.12V4.78h-3.84V2.88h11.5v1.9h-3.84V20.12Z" transform="translate(-1.91 -2.88)"/><path d="M141.82,20.12V2.88h9.59v1.9h-5.75v5.75h3.84v1.94h-3.84v5.75h5.75v1.9Z" transform="translate(-1.91 -2.88)"/></g></g></svg>