<svg xmlns="http://www.w3.org/2000/svg" viewBox="0 0 228.9 110.63"><title>资源 10</title><g id="图层_2" data-name="图层 2"><g id="图层_1-2" data-name="图层 1"><path d="M1.14,12.08V1.73H5.75a2.18,2.18,0,0,1,1.62.68A2.2,2.2,0,0,1,8,4V5.18A2.24,2.24,0,0,1,7.37,6.8a2.21,2.21,0,0,1-1.62.68H3.45v4.6ZM3.45,6.32H4.6A1.11,1.11,0,0,0,5.42,6a1.09,1.09,0,0,0,.33-.8V4a1.12,1.12,0,0,0-.33-.82,1.11,1.11,0,0,0-.82-.34H3.45Z" transform="translate(-1.14 -1.73)"/><path d="M17.25,8.62h-4.6V9.77a1.13,1.13,0,0,0,.34.81,1.08,1.08,0,0,0,.81.35H15A1,1,0,0,0,16.1,9.77h1.15c-.18,1.54-.94,2.31-2.29,2.31H12.65A2.25,2.25,0,0,1,11,11.4a2.22,2.22,0,0,1-.68-1.63V6.32A2.21,2.21,0,0,1,11,4.71,2.25,2.25,0,0,1,12.65,4H15a2.21,2.21,0,0,1,1.61.68,2.21,2.21,0,0,1,.68,1.61Zm-4.6-1.14H15V6.32a1.1,1.1,0,0,0-.34-.81,1.16,1.16,0,0,0-2,.81Z" transform="translate(-1.14 -1.73)"/><path d="M21.86,12.08H19.55V4h2.31V6.32a2.85,2.85,0,0,1,.71-1.72A2.15,2.15,0,0,1,24.16,4h1.15V6.32H23a1.07,1.07,0,0,0-.8.34,1.09,1.09,0,0,0-.34.82Z" transform="translate(-1.14 -1.73)"/><path d="M28.76,4h2.3a2.3,2.3,0,0,1,2.29,2.29V9.77a2.32,2.32,0,0,1-2.29,2.31h-2.3a2.21,2.21,0,0,1-1.62-.68,2.19,2.19,0,0,1-.69-1.63V6.32a2.18,2.18,0,0,1,.69-1.61A2.21,2.21,0,0,1,28.76,4Zm0,2.29V9.77a1.09,1.09,0,0,0,.34.81,1,1,0,0,0,.8.35,1.07,1.07,0,0,0,.82-.35,1.09,1.09,0,0,0,.34-.81V6.32a1.1,1.1,0,0,0-.34-.81,1.12,1.12,0,0,0-.82-.33,1.14,1.14,0,0,0-1.14,1.14Z" transform="translate(-1.14 -1.73)"/><path d="M35.66,12.08V4H38V5.18a1.46,1.46,0,0,1,.36-.87A1.08,1.08,0,0,1,39.11,4h1.16a2.21,2.21,0,0,1,1.61.68,2.21,2.21,0,0,1,.68,1.61v5.76H40.27V6.32a1.14,1.14,0,0,0-1.16-1.14,1.12,1.12,0,0,0-.81.33,1.1,1.1,0,0,0-.34.81v5.76Z" transform="translate(-1.14 -1.73)"/><path d="M49.47,7.48V6.32a1.1,1.1,0,0,0-.34-.81,1.12,1.12,0,0,0-.82-.33H47.17c-.68,0-1.07.38-1.15,1.14H44.86C45,4.79,45.81,4,47.17,4h2.3a2.23,2.23,0,0,1,1.62.68,2.2,2.2,0,0,1,.67,1.61v5.76H49.47V10.93c-.09.76-.48,1.15-1.16,1.15H47.17a2.25,2.25,0,0,1-1.63-.68,2.27,2.27,0,0,1,0-3.24,2.25,2.25,0,0,1,1.63-.68Zm0,1.14H48.31a1.14,1.14,0,0,0-1.14,1.15,1.12,1.12,0,0,0,.33.81,1.12,1.12,0,0,0,1.63,0,1.09,1.09,0,0,0,.34-.81Z" transform="translate(-1.14 -1.73)"/><path d="M54.07,12.08V1.73h2.3V12.08Z" transform="translate(-1.14 -1.73)"/><path d="M62.11,12.08V1.73h4.61a2.19,2.19,0,0,1,1.62.68A2.2,2.2,0,0,1,69,4V5.18a2.3,2.3,0,0,1-2.29,2.3h-2.3v4.6Zm2.31-5.76h1.14A1.09,1.09,0,0,0,66.38,6a1.07,1.07,0,0,0,.34-.8V4a1.16,1.16,0,0,0-1.16-1.16H64.42Z" transform="translate(-1.14 -1.73)"/><path d="M73.62,4h2.31a2.3,2.3,0,0,1,2.28,2.29V9.77a2.2,2.2,0,0,1-.67,1.62,2.18,2.18,0,0,1-1.61.69H73.62A2.23,2.23,0,0,1,72,11.4a2.18,2.18,0,0,1-.68-1.63V6.32A2.17,2.17,0,0,1,72,4.71,2.23,2.23,0,0,1,73.62,4Zm0,2.29V9.77a1.09,1.09,0,0,0,.34.81,1,1,0,0,0,.81.35,1.08,1.08,0,0,0,.82-.35,1.13,1.13,0,0,0,.34-.81V6.32a1.14,1.14,0,0,0-1.16-1.14,1.14,1.14,0,0,0-1.15,1.14Z" transform="translate(-1.14 -1.73)"/><path d="M82.82,12.08h-2.3V4h2.3V6.32a2.85,2.85,0,0,1,.72-1.72A2.15,2.15,0,0,1,85.13,4h1.15V6.32H84a1.1,1.1,0,0,0-.81.34,1.13,1.13,0,0,0-.34.82Z" transform="translate(-1.14 -1.73)"/><path d="M88.58,1.73h2.29V4H92V5.18H90.87V9.77a1,1,0,0,0,.37.86,1.14,1.14,0,0,0,.68.3H92v1.15H90.87a2.32,2.32,0,0,1-2.29-2.31V5.18H87.42V4h1.16Z" transform="translate(-1.14 -1.73)"/><path d="M95.48,12.08V5.18H94.32V4h1.16V3.92a2.14,2.14,0,0,1,.65-1.55,2.11,2.11,0,0,1,1.54-.64h2.41V2.87H98.82a1,1,0,0,0-.74.31,1,1,0,0,0-.31.74V4h1.16V5.18H97.77v6.9Z" transform="translate(-1.14 -1.73)"/><path d="M103.53,4h2.3a2.23,2.23,0,0,1,1.62.68,2.2,2.2,0,0,1,.67,1.61V9.77a2.32,2.32,0,0,1-2.29,2.31h-2.3a2.25,2.25,0,0,1-1.63-.68,2.22,2.22,0,0,1-.68-1.63V6.32a2.21,2.21,0,0,1,.68-1.61A2.25,2.25,0,0,1,103.53,4Zm0,2.29V9.77a1.12,1.12,0,0,0,.33.81,1.12,1.12,0,0,0,1.63,0,1.09,1.09,0,0,0,.34-.81V6.32a1.1,1.1,0,0,0-.34-.81,1.15,1.15,0,0,0-2,.81Z" transform="translate(-1.14 -1.73)"/><path d="M110.43,12.08V1.73h2.3V12.08Z" transform="translate(-1.14 -1.73)"/><path d="M115,2.87V1.73h2.31V2.87Zm0,9.21V4h2.31v8.05Z" transform="translate(-1.14 -1.73)"/><path d="M121.92,4h2.31a2.21,2.21,0,0,1,1.61.68,2.21,2.21,0,0,1,.68,1.61V9.77a2.21,2.21,0,0,1-.68,1.62,2.18,2.18,0,0,1-1.61.69h-2.31a2.23,2.23,0,0,1-1.62-.68,2.18,2.18,0,0,1-.68-1.63V6.32a2.17,2.17,0,0,1,.68-1.61A2.23,2.23,0,0,1,121.92,4Zm0,2.29V9.77a1.09,1.09,0,0,0,.34.81,1,1,0,0,0,.81.35,1.08,1.08,0,0,0,.82-.35,1.13,1.13,0,0,0,.34-.81V6.32a1.14,1.14,0,0,0-1.16-1.14,1.14,1.14,0,0,0-1.15,1.14Z" transform="translate(-1.14 -1.73)"/><path d="M132.27,12.08V1.73h4.61a2.15,2.15,0,0,1,1.61.68A2.18,2.18,0,0,1,139.17,4V9.77a2.18,2.18,0,0,1-.68,1.62,2.16,2.16,0,0,1-1.61.69Zm2.31-1.15h1.14a1.07,1.07,0,0,0,.82-.35,1.09,1.09,0,0,0,.34-.81V4a1.16,1.16,0,0,0-1.16-1.16h-1.14Z" transform="translate(-1.14 -1.73)"/><path d="M148.38,8.62h-4.6V9.77a1.09,1.09,0,0,0,.34.81,1,1,0,0,0,.81.35h1.15a1,1,0,0,0,1.15-1.16h1.15c-.18,1.54-.94,2.31-2.3,2.31h-2.3a2.21,2.21,0,0,1-1.62-.68,2.19,2.19,0,0,1-.69-1.63V6.32a2.18,2.18,0,0,1,.69-1.61A2.21,2.21,0,0,1,143.78,4h2.3a2.32,2.32,0,0,1,2.3,2.29Zm-4.6-1.14h2.3V6.32a1.13,1.13,0,0,0-1.15-1.14,1.14,1.14,0,0,0-1.15,1.14Z" transform="translate(-1.14 -1.73)"/><path d="M156.43,6.32h-1.14c-.1-.76-.47-1.14-1.09-1.14a1.43,1.43,0,0,0-.91.24.84.84,0,0,0-.31.71c0,.33.56.79,1.67,1.39.91.49,1.44.89,1.58,1.22a2.52,2.52,0,0,1,.2,1,2.21,2.21,0,0,1-.67,1.63,2.24,2.24,0,0,1-1.63.68H153a2,2,0,0,1-2.3-2.31h1.16c.09.77.45,1.16,1.07,1.16a1.48,1.48,0,0,0,.93-.24.87.87,0,0,0,.3-.73c0-.32-.55-.78-1.67-1.38a3.74,3.74,0,0,1-1.58-1.21,2.58,2.58,0,0,1-.21-1,2.21,2.21,0,0,1,.68-1.62A2.25,2.25,0,0,1,153,4h1.15A2.11,2.11,0,0,1,156.43,6.32Z" transform="translate(-1.14 -1.73)"/><path d="M158.72,2.87V1.73H161V2.87Zm0,9.21V4H161v8.05Z" transform="translate(-1.14 -1.73)"/><path d="M170.22,4v9.19a2.21,2.21,0,0,1-.68,1.62,2.18,2.18,0,0,1-1.61.69h-2.31c-1.35,0-2.12-.77-2.3-2.31h1.16c.05.77.44,1.16,1.14,1.16h1.15a1.16,1.16,0,0,0,1.16-1.16V10.93c-.09.76-.48,1.15-1.16,1.15h-1.15A2.25,2.25,0,0,1,164,11.4a2.22,2.22,0,0,1-.68-1.63V6.32A2.21,2.21,0,0,1,164,4.71,2.25,2.25,0,0,1,165.62,4Zm-2.29,1.15h-1.16a1.14,1.14,0,0,0-1.15,1.14V9.77a1.13,1.13,0,0,0,.34.81,1.12,1.12,0,0,0,1.63,0,1.09,1.09,0,0,0,.34-.81Z" transform="translate(-1.14 -1.73)"/><path d="M172.52,12.08V4h2.31V5.18a1.4,1.4,0,0,1,.36-.87A1.05,1.05,0,0,1,176,4h1.16a2.3,2.3,0,0,1,2.29,2.29v5.76h-2.29V6.32a1.1,1.1,0,0,0-.34-.81,1.12,1.12,0,0,0-.82-.33,1.14,1.14,0,0,0-1.14,1.14v5.76Z" transform="translate(-1.14 -1.73)"/><path d="M1.68,45.2l.18-.83h.75l1.6-7.55H3.46L3.64,36H6.46c1,0,1.86.85,1.54,2.32a2.54,2.54,0,0,1-1.35,1.78c.94.46,1.14,1.24.91,2.35-.42,1.91-1.64,2.76-2.91,2.76Zm3.11-.83c.82,0,1.51-.61,1.8-1.95S6.3,40.6,5.34,40.6h-1l-.8,3.77Zm.55-4.6A1.6,1.6,0,0,0,7,38.31c.23-1.13-.25-1.49-1.37-1.49H5.13l-.62,3Z" transform="translate(-1.14 -1.73)"/><path d="M12.62,38l-1,4.9c-.22,1,0,1.54.92,1.54,1.16,0,1.52-.51,1.74-1.54l1-4.9h.92l-1.14,5.34a2.6,2.6,0,0,1-2.68,2c-1.56,0-2-1-1.82-2L11.7,38Z" transform="translate(-1.14 -1.73)"/><path d="M19.68,42.92c0,.88.27,1.53,1.24,1.53a1.54,1.54,0,0,0,1.61-1.21c.2-.89-.51-1.11-1.14-1.4-1-.44-1.89-.71-1.6-2.07a2.48,2.48,0,0,1,2.51-1.89,1.67,1.67,0,0,1,1.81,1.81l-.94.26c0-.7-.29-1.2-1.08-1.2a1.31,1.31,0,0,0-1.36,1c-.16.67.22.88.71,1.11l1.4.68a1.46,1.46,0,0,1,.63,1.68,2.66,2.66,0,0,1-2.73,2.14,1.83,1.83,0,0,1-1.95-2.14Z" transform="translate(-1.14 -1.73)"/><path d="M27.68,44.37h1l1.17-5.53h-1L29,38h3l-.18.83h-1l-1.18,5.53h1l-.17.83h-3Z" transform="translate(-1.14 -1.73)"/><path d="M36.39,38h1.15L39,44.06l0,0,.31-1.87L40.27,38h.92L39.66,45.2H38.51L37,39.14l0,0L36.67,41l-.89,4.16h-.92Z" transform="translate(-1.14 -1.73)"/><path d="M45.1,38h4.48l-.18.83H45.84L45.39,41h2.94l-.18.83H45.21l-.54,2.55h3.56l-.18.83H43.57Z" transform="translate(-1.14 -1.73)"/><path d="M52.8,42.92c0,.88.27,1.53,1.24,1.53a1.54,1.54,0,0,0,1.61-1.21c.2-.89-.51-1.11-1.14-1.4-1-.44-1.89-.71-1.6-2.07a2.48,2.48,0,0,1,2.51-1.89,1.67,1.67,0,0,1,1.81,1.81l-.94.26c0-.7-.29-1.2-1.08-1.2a1.31,1.31,0,0,0-1.36,1c-.15.67.22.88.71,1.11l1.4.68a1.46,1.46,0,0,1,.63,1.68,2.65,2.65,0,0,1-2.73,2.14,1.82,1.82,0,0,1-1.94-2.14Z" transform="translate(-1.14 -1.73)"/><path d="M61.08,42.92c0,.88.28,1.53,1.24,1.53a1.54,1.54,0,0,0,1.61-1.21c.2-.89-.51-1.11-1.14-1.4-1-.44-1.89-.71-1.6-2.07a2.48,2.48,0,0,1,2.51-1.89,1.67,1.67,0,0,1,1.81,1.81l-.94.26c0-.7-.29-1.2-1.08-1.2a1.32,1.32,0,0,0-1.36,1c-.16.67.22.88.71,1.11l1.4.68a1.46,1.46,0,0,1,.63,1.68,2.66,2.66,0,0,1-2.73,2.14,1.82,1.82,0,0,1-1.94-2.14Z" transform="translate(-1.14 -1.73)"/><path d="M81.53,43.82a3.65,3.65,0,0,1-2.7,1.5c-2.4,0-2.14-2.9-1.76-4.72s1.37-4.73,3.77-4.73a1.93,1.93,0,0,1,1.93,1.49l-.88.47a1.31,1.31,0,0,0-1.24-1.09C79,36.74,78.3,39.39,78,40.6s-.72,3.85,1,3.85a2.71,2.71,0,0,0,1.87-1.16Z" transform="translate(-1.14 -1.73)"/><path d="M86.09,43.24,85,45.37,84.11,45l3.77-7h1.18l.76,7-1,.33-.2-2.13Zm2.15-4.16-1.73,3.33h2Z" transform="translate(-1.14 -1.73)"/><path d="M94.67,38h2.44c1.2,0,2,.56,1.74,2A2.83,2.83,0,0,1,97,42l1.14,2.91-.91.48-1.14-3.25H94.71l-.65,3.08h-.92Zm1.43,3.28A1.71,1.71,0,0,0,97.88,40c.14-.65-.15-1.13-1-1.13H95.41l-.52,2.45Z" transform="translate(-1.14 -1.73)"/><path d="M102.54,38h2.4c2,0,2.78.84,2.22,3.5-.49,2.25-1.18,3.69-3.76,3.69H101l.18-.83h.75l1.17-5.53h-.74Zm.31,6.36h1c1.22,0,1.89-.69,2.33-2.76s0-2.77-1.18-2.77h-1Z" transform="translate(-1.14 -1.73)"/><path d="M123.33,36.41A7.94,7.94,0,0,0,120.65,41a5.43,5.43,0,0,0,.74,4.58l-.67.55a5.82,5.82,0,0,1-1-5.13,8.71,8.71,0,0,1,3.21-5.12Z" transform="translate(-1.14 -1.73)"/><path d="M129.68,36.82h-2l.18-.83h4.86l-.18.83h-2l-1.78,8.38h-.92Z" transform="translate(-1.14 -1.73)"/><path d="M139.93,41.61c-.12.58-.82,3.71-3.34,3.71-1.15,0-2.37-.83-1.76-3.71s2.16-3.73,3.35-3.73S140.55,38.71,139.93,41.61Zm-4.14,0c-.22,1-.41,2.84,1,2.84s2-1.79,2.2-2.84.41-2.86-1-2.86S136,40.55,135.79,41.61Z" transform="translate(-1.14 -1.73)"/><path d="M143.92,45.2H143L144.53,38h2.23c1.67,0,2.13.91,1.91,2a2.59,2.59,0,0,1-2.54,2.14h-1.54Zm2.1-3.92A1.51,1.51,0,0,0,147.68,40c.2-1-.38-1.2-1.14-1.2h-1.26l-.53,2.44Z" transform="translate(-1.14 -1.73)"/><path d="M161.62,36h.92l-1.78,8.38h3.78l-.18.83h-4.7Z" transform="translate(-1.14 -1.73)"/><path d="M169.3,38h4.49l-.18.83h-3.56L169.59,41h2.94l-.18.83h-2.94l-.53,2.55h3.55l-.18.83h-4.48Z" transform="translate(-1.14 -1.73)"/><path d="M177.84,38h4.53l-.18.83h-3.6L178.13,41h3l-.18.83h-3l-.72,3.38h-.93Z" transform="translate(-1.14 -1.73)"/><path d="M187.21,38.84h-2l.18-.83h4.85l-.18.83h-1.94l-1.35,6.36h-.93Z" transform="translate(-1.14 -1.73)"/><path d="M195.71,35.87c1.19,1.21,1.43,3.3,1,5.12a8.79,8.79,0,0,1-3.21,5.13l-.45-.55A7.85,7.85,0,0,0,195.78,41a5.39,5.39,0,0,0-.74-4.58Z" transform="translate(-1.14 -1.73)"/><path d="M4.29,52.55h.92L3.43,60.93H7.21L7,61.75H2.33Z" transform="translate(-1.14 -1.73)"/><path d="M15.73,58.17c-.13.58-.83,3.71-3.34,3.71-1.16,0-2.37-.83-1.77-3.71s2.17-3.73,3.36-3.73S16.35,55.27,15.73,58.17Zm-4.14,0c-.22,1-.41,2.84,1,2.84s2-1.79,2.19-2.84.42-2.86-1-2.86S11.82,57.11,11.59,58.17Z" transform="translate(-1.14 -1.73)"/><path d="M23.26,61.09a4.62,4.62,0,0,1-2.37.79c-2.11,0-2.3-2-1.93-3.72s1.43-3.72,3.49-3.72a2.09,2.09,0,0,1,2,1.38l-.88.51a1.44,1.44,0,0,0-1.37-1c-1.42,0-2,1.78-2.27,2.87S19.57,61,21,61a3,3,0,0,0,1.42-.37l.4-1.89H21.11l.18-.83h2.65Z" transform="translate(-1.14 -1.73)"/><path d="M32.29,58.17c-.13.58-.83,3.71-3.34,3.71-1.16,0-2.37-.83-1.76-3.71s2.16-3.73,3.35-3.73S32.91,55.27,32.29,58.17Zm-4.14,0c-.22,1-.41,2.84,1,2.84s2-1.79,2.19-2.84.42-2.86-1-2.86S28.38,57.11,28.15,58.17Z" transform="translate(-1.14 -1.73)"/><path d="M48.81,53a7.94,7.94,0,0,0-2.68,4.58,5.39,5.39,0,0,0,.73,4.58l-.66.55a5.82,5.82,0,0,1-1-5.13,8.66,8.66,0,0,1,3.21-5.12Z" transform="translate(-1.14 -1.73)"/><path d="M55.16,53.38h-2l.18-.83h4.86l-.18.83h-2L54.3,61.75h-.92Z" transform="translate(-1.14 -1.73)"/><path d="M65.41,58.17c-.12.58-.83,3.71-3.34,3.71-1.16,0-2.37-.83-1.76-3.71s2.16-3.73,3.35-3.73S66,55.27,65.41,58.17Zm-4.14,0c-.22,1-.41,2.84,1,2.84s2-1.79,2.2-2.84.41-2.86-1-2.86S61.51,57.11,61.27,58.17Z" transform="translate(-1.14 -1.73)"/><path d="M69.4,61.75h-.92L70,54.57h2.23c1.67,0,2.13.91,1.91,2a2.6,2.6,0,0,1-2.54,2.14H70.06Zm2.1-3.91a1.5,1.5,0,0,0,1.65-1.24c.21-1-.37-1.2-1.13-1.2H70.75l-.52,2.44Z" transform="translate(-1.14 -1.73)"/><path d="M90.22,52.55h1.16l-1.68,9.2h-1l1.45-7.66h0l-2.55,4.62L87,54.09h0l-1.81,7.66h-1l2.23-9.2h1.14l.5,3.91Z" transform="translate(-1.14 -1.73)"/><path d="M93.92,60.93h1L96.1,55.4h-1l.18-.83h3l-.18.83H97l-1.17,5.53h1l-.18.82h-3Z" transform="translate(-1.14 -1.73)"/><path d="M102.54,54.57h2.4c2,0,2.78.84,2.22,3.5-.49,2.25-1.18,3.68-3.76,3.68H101l.18-.82h.75l1.17-5.53h-.74Zm.31,6.36h1c1.22,0,1.89-.69,2.33-2.76s0-2.77-1.18-2.77h-1Z" transform="translate(-1.14 -1.73)"/><path d="M112.91,52.43c1.19,1.21,1.42,3.3,1,5.12a8.8,8.8,0,0,1-3.22,5.13l-.44-.55A8,8,0,0,0,113,57.55a5.39,5.39,0,0,0-.74-4.58Z" transform="translate(-1.14 -1.73)"/><path d="M3.16,78.32H2.23l2-9.21h2c1.63,0,2.35.87,2,2.45a3,3,0,0,1-2.8,2.66H4Zm1-4.93H5.5c.86,0,1.49-.67,1.74-1.82S7,69.94,6,69.94H4.94Z" transform="translate(-1.14 -1.73)"/><path d="M15.73,74.73c-.13.58-.83,3.71-3.34,3.71-1.16,0-2.37-.83-1.77-3.71S12.79,71,14,71,16.35,71.83,15.73,74.73Zm-4.14,0c-.22,1-.41,2.84,1,2.84s2-1.79,2.19-2.84.42-2.86-1-2.86S11.82,73.67,11.59,74.73Z" transform="translate(-1.14 -1.73)"/><path d="M19.68,76c0,.88.27,1.53,1.24,1.53a1.54,1.54,0,0,0,1.61-1.21c.2-.89-.51-1.11-1.14-1.4-1-.44-1.89-.71-1.6-2.07A2.48,2.48,0,0,1,22.3,71a1.67,1.67,0,0,1,1.81,1.81l-.94.26c0-.7-.29-1.2-1.08-1.2a1.31,1.31,0,0,0-1.36,1c-.16.67.22.88.71,1.11l1.4.68a1.46,1.46,0,0,1,.63,1.68,2.66,2.66,0,0,1-2.73,2.14,1.83,1.83,0,0,1-1.95-2.14Z" transform="translate(-1.14 -1.73)"/><path d="M29.89,72h-2l.18-.83h4.86l-.18.83H30.81l-1.35,6.36h-.92Z" transform="translate(-1.14 -1.73)"/><path d="M36.82,71.13H41.3l-.18.83H37.56l-.45,2.15H40l-.17.83H36.93l-.54,2.55H40l-.18.83H35.29Z" transform="translate(-1.14 -1.73)"/><path d="M45,71.13h2.44c1.2,0,2,.56,1.74,2a2.85,2.85,0,0,1-1.89,2L48.42,78l-.91.48-1.14-3.25H45l-.65,3.08h-.92Zm1.43,3.28a1.71,1.71,0,0,0,1.78-1.32c.14-.65-.15-1.13-1-1.13H45.73l-.52,2.45Z" transform="translate(-1.14 -1.73)"/><path d="M65.37,69.53a7.94,7.94,0,0,0-2.68,4.58,5.43,5.43,0,0,0,.73,4.58l-.66.55a5.82,5.82,0,0,1-1-5.13A8.66,8.66,0,0,1,64.94,69Z" transform="translate(-1.14 -1.73)"/><path d="M71.72,69.94h-2l.18-.83h4.86l-.18.83h-2l-1.78,8.38h-.92Z" transform="translate(-1.14 -1.73)"/><path d="M82,74.73c-.12.58-.83,3.71-3.34,3.71-1.16,0-2.37-.83-1.76-3.71S79,71,80.22,71,82.59,71.83,82,74.73Zm-4.14,0c-.22,1-.41,2.84,1,2.84s2-1.79,2.2-2.84.41-2.86-1-2.86S78.07,73.67,77.83,74.73Z" transform="translate(-1.14 -1.73)"/><path d="M86,78.32H85l1.53-7.19H88.8c1.67,0,2.13.91,1.91,2a2.59,2.59,0,0,1-2.54,2.14H86.62Zm2.1-3.92a1.5,1.5,0,0,0,1.65-1.24c.21-1-.37-1.2-1.13-1.2H87.31l-.52,2.44Z" transform="translate(-1.14 -1.73)"/><path d="M103.56,69.11H106c.91,0,1.89.79,1.53,2.45a3.28,3.28,0,0,1-2.14,2.59l1.06,3.94-.91.4-1.15-4.27h-1l-.87,4.1h-.92Zm0,4.28h1.35c.82,0,1.42-.59,1.69-1.83s-.24-1.62-1.18-1.62H104.3Z" transform="translate(-1.14 -1.73)"/><path d="M110.48,77.49h1L112.66,72h-1l.18-.83h3l-.18.83h-1l-1.17,5.53h1l-.18.83h-3Z" transform="translate(-1.14 -1.73)"/><path d="M122.63,77.65a4.62,4.62,0,0,1-2.38.79c-2.11,0-2.3-2-1.93-3.73S119.76,71,121.81,71a2.08,2.08,0,0,1,2,1.38l-.88.51a1.43,1.43,0,0,0-1.37-1c-1.42,0-2,1.78-2.27,2.87s-.36,2.83,1.09,2.83a3,3,0,0,0,1.42-.37l.4-1.89h-1.73l.18-.83h2.65Z" transform="translate(-1.14 -1.73)"/><path d="M127.53,71.13h.92l-.63,3h2.84l.63-3h.93l-1.53,7.19h-.93l.72-3.38h-2.84l-.72,3.38H126Z" transform="translate(-1.14 -1.73)"/><path d="M137.53,72h-2l.17-.83h4.86l-.18.83h-1.94l-1.35,6.36h-.93Z" transform="translate(-1.14 -1.73)"/><path d="M146,69c1.19,1.21,1.43,3.3,1,5.12a8.8,8.8,0,0,1-3.22,5.13l-.44-.55a7.9,7.9,0,0,0,2.69-4.58,5.39,5.39,0,0,0-.74-4.58Z" transform="translate(-1.14 -1.73)"/><path d="M3.49,92l-1.37,3-.85-.24,4.27-9.14H6.65L7,94.81l-1,.24L6,92ZM5.85,86.9h0L3.89,91.21H6Z" transform="translate(-1.14 -1.73)"/><path d="M11.44,94.88h-.93L12,87.69h2.24c1.67,0,2.12.91,1.9,2a2.58,2.58,0,0,1-2.53,2.14H12.1ZM13.54,91a1.5,1.5,0,0,0,1.65-1.24c.21-1-.37-1.2-1.13-1.2H12.79L12.27,91Z" transform="translate(-1.14 -1.73)"/><path d="M19.72,94.88h-.93l1.54-7.19h2.23c1.67,0,2.13.91,1.9,2a2.58,2.58,0,0,1-2.53,2.14H20.38ZM21.82,91a1.5,1.5,0,0,0,1.65-1.24c.21-1-.37-1.2-1.13-1.2H21.07L20.55,91Z" transform="translate(-1.14 -1.73)"/><path d="M38.57,86.5H37.33l.18-.83h3.42l-.18.83H39.49l-1.6,7.55h1.26l-.18.83H35.55l.18-.83H37Z" transform="translate(-1.14 -1.73)"/><path d="M44.67,87.69h1.14l1.49,6,.05,0,.31-1.87.89-4.16h.92l-1.53,7.19H46.79l-1.5-6.06,0,0L45,90.72l-.89,4.16h-.92Z" transform="translate(-1.14 -1.73)"/><path d="M54.73,88.52h-2l.18-.83h4.86l-.18.83h-2L54.3,94.88h-.92Z" transform="translate(-1.14 -1.73)"/><path d="M61.66,87.69h4.48l-.18.83H62.4L62,90.67h2.94l-.18.83H61.77l-.54,2.55h3.56l-.18.83H60.13Z" transform="translate(-1.14 -1.73)"/><path d="M69.83,87.69h2.44c1.2,0,2,.56,1.74,2a2.85,2.85,0,0,1-1.89,2l1.14,2.91-.91.48L71.21,91.8H69.87l-.65,3.08H68.3ZM71.26,91A1.71,1.71,0,0,0,73,89.65c.14-.65-.15-1.13-1-1.13H70.57L70.05,91Z" transform="translate(-1.14 -1.73)"/><path d="M78.48,87.69H83l-.18.83h-3.6l-.46,2.15h3l-.18.83h-3l-.72,3.38H77Z" transform="translate(-1.14 -1.73)"/><path d="M86.09,92.92,85,95.05l-.85-.33,3.77-7h1.18l.76,7-1,.33-.2-2.13Zm2.15-4.16-1.73,3.33h2Z" transform="translate(-1.14 -1.73)"/><path d="M98.09,93.5a3.49,3.49,0,0,1-2.7,1.5c-2.1,0-2.35-1.93-2-3.71.61-2.87,2.32-3.73,3.48-3.73a1.86,1.86,0,0,1,1.94,1.54l-.93.42c-.18-.58-.49-1.09-1.19-1.09-1.43,0-2.1,1.74-2.33,2.85S94,94.13,95.5,94.13A2.56,2.56,0,0,0,97.44,93Z" transform="translate(-1.14 -1.73)"/><path d="M103.06,87.69h4.48l-.18.83H103.8l-.45,2.15h2.94l-.18.83h-2.94l-.54,2.55h3.56l-.18.83h-4.48Z" transform="translate(-1.14 -1.73)"/><path d="M123.33,86.09a7.94,7.94,0,0,0-2.68,4.58,5.43,5.43,0,0,0,.74,4.58l-.67.55a5.82,5.82,0,0,1-1-5.13,8.71,8.71,0,0,1,3.21-5.12Z" transform="translate(-1.14 -1.73)"/><path d="M131.62,85.67h1.16l-1.68,9.21h-1l1.45-7.67h0L129,91.83l-.59-4.62h0l-1.81,7.67h-1l2.23-9.21H129l.49,3.91Z" transform="translate(-1.14 -1.73)"/><path d="M135.33,94.05h1l1.18-5.53h-1l.18-.83h2.95l-.18.83h-1l-1.17,5.53h1l-.18.83h-2.95Z" transform="translate(-1.14 -1.73)"/><path d="M143.94,87.69h2.4c2,0,2.78.84,2.22,3.5-.49,2.25-1.18,3.69-3.75,3.69h-2.4l.18-.83h.74l1.17-5.53h-.74Zm.31,6.36h1c1.22,0,1.89-.69,2.33-2.76s0-2.77-1.18-2.77h-.95Z" transform="translate(-1.14 -1.73)"/><path d="M161.62,85.67h.92l-1.78,8.38h3.78l-.18.83h-4.7Z" transform="translate(-1.14 -1.73)"/><path d="M169.3,87.69h4.49l-.18.83h-3.56l-.46,2.15h2.94l-.18.83h-2.94l-.53,2.55h3.55l-.18.83h-4.48Z" transform="translate(-1.14 -1.73)"/><path d="M177.84,87.69h4.53l-.18.83h-3.6l-.46,2.15h3l-.18.83h-3l-.72,3.38h-.93Z" transform="translate(-1.14 -1.73)"/><path d="M187.21,88.52h-2l.18-.83h4.85l-.18.83h-1.94l-1.35,6.36h-.93Z" transform="translate(-1.14 -1.73)"/><path d="M195.71,85.55c1.19,1.21,1.43,3.3,1,5.12a8.79,8.79,0,0,1-3.21,5.13l-.45-.55a7.85,7.85,0,0,0,2.69-4.58,5.39,5.39,0,0,0-.74-4.58Z" transform="translate(-1.14 -1.73)"/><path d="M4.39,102.23H8.91l-.18.83H5.13l-.65,3h3l-.16.82h-3l-1,4.52H2.43Z" transform="translate(-1.14 -1.73)"/><path d="M11.56,109.48l-1.13,2.13-.84-.33,3.77-7h1.18l.76,7-1,.33-.2-2.13Zm2.15-4.16L12,108.65h2Z" transform="translate(-1.14 -1.73)"/><path d="M23.57,110.06a3.5,3.5,0,0,1-2.71,1.5c-2.09,0-2.34-1.93-2-3.71.61-2.87,2.32-3.73,3.48-3.73a1.86,1.86,0,0,1,1.94,1.54l-.93.42c-.18-.58-.49-1.09-1.19-1.09-1.44,0-2.1,1.74-2.33,2.84s-.35,2.86,1.11,2.86a2.57,2.57,0,0,0,2-1.16Z" transform="translate(-1.14 -1.73)"/><path d="M28.54,104.25H33l-.18.83H29.28l-.45,2.15h2.94l-.18.83H28.65l-.54,2.55h3.56l-.18.83H27Z" transform="translate(-1.14 -1.73)"/><path d="M34.8,111.44l.18-.83h.75l1.6-7.55h-.75l.18-.83h2.82c1,0,1.86.85,1.54,2.32a2.51,2.51,0,0,1-1.35,1.78c.94.46,1.14,1.24.91,2.35-.41,1.91-1.64,2.76-2.91,2.76Zm3.11-.83c.82,0,1.51-.61,1.8-2s-.29-1.82-1.25-1.82h-1l-.8,3.77Zm.55-4.6a1.6,1.6,0,0,0,1.7-1.46c.23-1.13-.25-1.49-1.37-1.49h-.54l-.62,3Z" transform="translate(-1.14 -1.73)"/><path d="M48.85,107.85c-.13.58-.83,3.71-3.34,3.71-1.16,0-2.37-.83-1.76-3.71s2.16-3.73,3.35-3.73S49.47,105,48.85,107.85Zm-4.14,0c-.22,1.05-.41,2.84,1,2.84s2-1.79,2.19-2.84.42-2.86-1-2.86S45,106.79,44.71,107.85Z" transform="translate(-1.14 -1.73)"/><path d="M57.13,107.85c-.12.58-.83,3.71-3.34,3.71-1.16,0-2.37-.83-1.76-3.71s2.16-3.73,3.35-3.73S57.75,105,57.13,107.85Zm-4.14,0c-.22,1.05-.41,2.84,1,2.84s2-1.79,2.19-2.84.42-2.86-1-2.86S53.23,106.79,53,107.85Z" transform="translate(-1.14 -1.73)"/><path d="M61.23,104.25h1.15l1.49,6,0,0,.31-1.87.89-4.16H66l-1.53,7.19H63.36l-1.51-6.06,0,0-.31,1.87-.89,4.16H59.7Z" transform="translate(-1.14 -1.73)"/><path d="M77.68,111.44h-.92l1.95-9.21h2c1.63,0,2.35.87,2,2.45a3,3,0,0,1-2.8,2.66H78.55Zm1-4.93H80c.85,0,1.49-.67,1.73-1.82s-.24-1.62-1.24-1.62H79.46Z" transform="translate(-1.14 -1.73)"/><path d="M86.09,109.48,85,111.61l-.85-.33,3.77-7h1.18l.76,7-1,.33-.2-2.13Zm2.15-4.16-1.73,3.33h2Z" transform="translate(-1.14 -1.73)"/><path d="M97.79,110.77a4.65,4.65,0,0,1-2.38.79c-2.11,0-2.3-2-1.93-3.73s1.44-3.71,3.49-3.71a2.08,2.08,0,0,1,2,1.38l-.88.51a1.43,1.43,0,0,0-1.37-1c-1.42,0-2,1.78-2.27,2.87s-.36,2.83,1.09,2.83a3,3,0,0,0,1.42-.37l.4-1.89H95.63l.18-.83h2.65Z" transform="translate(-1.14 -1.73)"/><path d="M103.06,104.25h4.48l-.18.83H103.8l-.45,2.15h2.94l-.18.83h-2.94l-.54,2.55h3.56l-.18.83h-4.48Z" transform="translate(-1.14 -1.73)"/><path d="M123.33,102.65a7.94,7.94,0,0,0-2.68,4.58,5.43,5.43,0,0,0,.74,4.58l-.67.55a5.82,5.82,0,0,1-1-5.13,8.71,8.71,0,0,1,3.21-5.12Z" transform="translate(-1.14 -1.73)"/><path d="M125.89,111.44l.18-.83h.74l1.6-7.55h-.74l.18-.83h2.81c1,0,1.86.85,1.55,2.32a2.53,2.53,0,0,1-1.36,1.78c.94.46,1.15,1.24.91,2.35-.41,1.91-1.64,2.76-2.91,2.76Zm3.1-.83c.83,0,1.52-.61,1.81-2s-.29-1.82-1.26-1.82h-1l-.81,3.77Zm.55-4.6a1.6,1.6,0,0,0,1.7-1.46c.23-1.13-.25-1.49-1.37-1.49h-.53l-.63,3Z" transform="translate(-1.14 -1.73)"/><path d="M139.93,107.85c-.12.58-.82,3.71-3.34,3.71-1.15,0-2.37-.83-1.76-3.71s2.16-3.73,3.35-3.73S140.55,105,139.93,107.85Zm-4.14,0c-.22,1.05-.41,2.84,1,2.84s2-1.79,2.2-2.84.41-2.86-1-2.86S136,106.79,135.79,107.85Z" transform="translate(-1.14 -1.73)"/><path d="M145.81,105.08h-2l.18-.83h4.85l-.18.83h-1.94l-1.36,6.36h-.92Z" transform="translate(-1.14 -1.73)"/><path d="M154.09,105.08h-2l.18-.83h4.85l-.18.83H155l-1.35,6.36h-.93Z" transform="translate(-1.14 -1.73)"/><path d="M164.77,107.85c-.12.58-.82,3.71-3.33,3.71-1.16,0-2.38-.83-1.77-3.71s2.17-3.73,3.35-3.73S165.39,105,164.77,107.85Zm-4.14,0c-.22,1.05-.41,2.84,1,2.84s2-1.79,2.19-2.84.41-2.86-1-2.86S160.87,106.79,160.63,107.85Z" transform="translate(-1.14 -1.73)"/><path d="M169.37,105.61h0l-1.42,5.83h-1l1.82-7.19H170l.63,3.12,2-3.12h1.22l-1.25,7.19h-1l1.07-5.83h0l-2.43,3.8Z" transform="translate(-1.14 -1.73)"/><path d="M186.36,102.23h2.48c.91,0,1.89.79,1.53,2.45a3.28,3.28,0,0,1-2.14,2.59l1.07,3.94-.91.4-1.16-4.27h-1l-.87,4.1h-.92Zm0,4.28h1.35c.82,0,1.42-.59,1.69-1.83s-.24-1.62-1.18-1.62H187.1Z" transform="translate(-1.14 -1.73)"/><path d="M193.29,110.61h1l1.18-5.53h-1l.18-.83h3l-.18.83h-1l-1.17,5.53h1l-.18.83h-2.95Z" transform="translate(-1.14 -1.73)"/><path d="M205.43,110.77a4.62,4.62,0,0,1-2.37.79c-2.11,0-2.31-2-1.93-3.73s1.43-3.71,3.49-3.71a2.1,2.1,0,0,1,2,1.38l-.89.51a1.43,1.43,0,0,0-1.36-1c-1.42,0-2,1.78-2.28,2.87s-.36,2.83,1.09,2.83a3,3,0,0,0,1.42-.37l.4-1.89h-1.72l.18-.83h2.65Z" transform="translate(-1.14 -1.73)"/><path d="M210.33,104.25h.93l-.64,3h2.84l.64-3H215l-1.53,7.19h-.93l.72-3.38h-2.84l-.72,3.38h-.92Z" transform="translate(-1.14 -1.73)"/><path d="M220.34,105.08h-2l.18-.83h4.85l-.17.83h-2l-1.35,6.36H219Z" transform="translate(-1.14 -1.73)"/><path d="M228.84,102.11a5.78,5.78,0,0,1,1,5.12,8.79,8.79,0,0,1-3.21,5.13l-.45-.55a7.85,7.85,0,0,0,2.69-4.58,5.39,5.39,0,0,0-.74-4.58Z" transform="translate(-1.14 -1.73)"/></g></g></svg>