<svg xmlns="http://www.w3.org/2000/svg" viewBox="0 0 289.26 27.09"><title>tea</title><g id="图层_2" data-name="图层 2"><g id="图层_1-2" data-name="图层 1"><path d="M2.31,12.08V2.87H0V1.73H6.9V2.87H4.6v9.21Z" transform="translate(0 -1.73)"/><path d="M15,8.62h-4.6V9.77a1.09,1.09,0,0,0,.34.81,1,1,0,0,0,.81.35h1.16A1,1,0,0,0,13.8,9.77H15c-.18,1.54-.94,2.31-2.29,2.31H10.35a2.25,2.25,0,0,1-1.62-.68,2.18,2.18,0,0,1-.68-1.63V6.32a2.17,2.17,0,0,1,.68-1.61A2.25,2.25,0,0,1,10.35,4h2.31a2.21,2.21,0,0,1,1.61.68A2.21,2.21,0,0,1,15,6.32Zm-4.6-1.14h2.31V6.32A1.14,1.14,0,0,0,11.5,5.18a1.14,1.14,0,0,0-1.15,1.14Z" transform="translate(0 -1.73)"/><path d="M21.86,7.48V6.32a1.1,1.1,0,0,0-.34-.81,1.12,1.12,0,0,0-.82-.33H19.56c-.69,0-1.07.38-1.15,1.14H17.25C17.43,4.79,18.2,4,19.56,4h2.3a2.21,2.21,0,0,1,1.61.68,2.17,2.17,0,0,1,.68,1.61v5.76H21.86V10.93c-.09.76-.48,1.15-1.16,1.15H19.56a2.25,2.25,0,0,1-1.63-.68,2.27,2.27,0,0,1,0-3.24,2.25,2.25,0,0,1,1.63-.68Zm0,1.14H20.7a1.14,1.14,0,0,0-1.14,1.15,1.12,1.12,0,0,0,.33.81,1.12,1.12,0,0,0,1.63,0,1.09,1.09,0,0,0,.34-.81Z" transform="translate(0 -1.73)"/><path d="M29.9,12.08V1.73h4.61a2.18,2.18,0,0,1,1.62.68A2.2,2.2,0,0,1,36.8,4V5.18a2.24,2.24,0,0,1-.67,1.62,2.21,2.21,0,0,1-1.62.68h-2.3v4.6Zm2.31-5.76h1.14A1.12,1.12,0,0,0,34.18,6a1.09,1.09,0,0,0,.33-.8V4a1.14,1.14,0,0,0-1.16-1.16H32.21Z" transform="translate(0 -1.73)"/><path d="M43.72,7.48V6.32a1.14,1.14,0,0,0-1.16-1.14H41.41q-1,0-1.14,1.14H39.11c.18-1.53,1-2.29,2.3-2.29h2.31a2.21,2.21,0,0,1,1.61.68A2.21,2.21,0,0,1,46,6.32v5.76H43.72V10.93c-.09.76-.48,1.15-1.16,1.15H41.41a2.25,2.25,0,0,1-1.62-.68,2.27,2.27,0,0,1,0-3.24,2.25,2.25,0,0,1,1.62-.68Zm0,1.14H42.56a1.16,1.16,0,0,0-1.15,1.15,1.13,1.13,0,0,0,.34.81,1.12,1.12,0,0,0,1.63,0,1.13,1.13,0,0,0,.34-.81Z" transform="translate(0 -1.73)"/><path d="M50.62,12.08H48.31V4h2.31V6.32a2.85,2.85,0,0,1,.71-1.72A2.15,2.15,0,0,1,52.92,4h1.15V6.32H51.76a1.07,1.07,0,0,0-.8.34,1.09,1.09,0,0,0-.34.82Z" transform="translate(0 -1.73)"/><path d="M59.82,12.08V2.87h-2.3V1.73h6.9V2.87H62.11v9.21Z" transform="translate(0 -1.73)"/><path d="M72.46,8.62H67.87V9.77a1.09,1.09,0,0,0,.34.81,1,1,0,0,0,.8.35h1.16a1,1,0,0,0,1.15-1.16h1.14c-.17,1.54-.93,2.31-2.29,2.31h-2.3a2.21,2.21,0,0,1-1.62-.68,2.19,2.19,0,0,1-.69-1.63V6.32a2.18,2.18,0,0,1,.69-1.61A2.21,2.21,0,0,1,67.87,4h2.3a2.3,2.3,0,0,1,2.29,2.29ZM67.87,7.48h2.3V6.32a1.15,1.15,0,0,0-2.3,0Z" transform="translate(0 -1.73)"/><path d="M79.38,7.48V6.32a1.14,1.14,0,0,0-1.16-1.14H77.07q-1,0-1.14,1.14H74.77C75,4.79,75.72,4,77.07,4h2.31A2.21,2.21,0,0,1,81,4.71a2.21,2.21,0,0,1,.68,1.61v5.76H79.38V10.93c-.1.76-.48,1.15-1.16,1.15H77.07a2.25,2.25,0,0,1-1.62-.68,2.27,2.27,0,0,1,0-3.24,2.25,2.25,0,0,1,1.62-.68Zm0,1.14H78.22a1.13,1.13,0,0,0-.81.34,1.14,1.14,0,0,0-.34.81,1.13,1.13,0,0,0,.34.81,1.06,1.06,0,0,0,.81.35,1.08,1.08,0,0,0,.82-.35,1.13,1.13,0,0,0,.34-.81Z" transform="translate(0 -1.73)"/><path d="M3.16,28.63H2.23l2-9.2h2c1.63,0,2.35.87,2,2.45a3,3,0,0,1-2.8,2.66H4Zm1-4.92H5.5c.86,0,1.49-.66,1.74-1.82S7,20.26,6,20.26H4.94Z" transform="translate(0 -1.73)"/><path d="M15.73,25.05c-.13.58-.83,3.71-3.34,3.71-1.16,0-2.37-.83-1.76-3.71s2.16-3.73,3.35-3.73S16.35,22.15,15.73,25.05Zm-4.14,0c-.22,1.05-.41,2.84,1,2.84s2-1.79,2.19-2.84.42-2.86-1-2.86S11.83,24,11.59,25.05Z" transform="translate(0 -1.73)"/><path d="M19.68,26.36c0,.88.27,1.53,1.24,1.53a1.54,1.54,0,0,0,1.61-1.21c.2-.89-.51-1.11-1.14-1.4-1-.44-1.89-.71-1.6-2.07a2.48,2.48,0,0,1,2.51-1.89,1.67,1.67,0,0,1,1.81,1.81l-.94.26c0-.7-.29-1.2-1.08-1.2a1.31,1.31,0,0,0-1.36,1c-.16.67.22.88.71,1.11l1.4.68a1.46,1.46,0,0,1,.63,1.68,2.66,2.66,0,0,1-2.73,2.14,1.82,1.82,0,0,1-1.94-2.14Z" transform="translate(0 -1.73)"/><path d="M29.89,22.28h-2l.18-.83h4.86l-.18.83H30.81l-1.35,6.35h-.92Z" transform="translate(0 -1.73)"/><path d="M36.82,21.45H41.3l-.18.83H37.56l-.45,2.15h2.94l-.18.83H36.93l-.54,2.55H40l-.18.82H35.29Z" transform="translate(0 -1.73)"/><path d="M45,21.45h2.44c1.2,0,2,.56,1.74,2a2.83,2.83,0,0,1-1.89,2l1.14,2.91-.91.48-1.14-3.25H45l-.65,3.07h-.92Zm1.43,3.28a1.71,1.71,0,0,0,1.78-1.32c.14-.65-.15-1.13-1-1.13H45.73l-.52,2.45Z" transform="translate(0 -1.73)"/><path d="M61.38,20.26l.18-.83H64c1.85,0,2.76.82,2,4.61-.43,2-1.09,4.59-3.89,4.59H59.6l.18-.82h.75l1.6-7.55Zm.07,7.55h.76c1.12,0,2-.29,2.77-3.77s-.13-3.78-1-3.78h-1Z" transform="translate(0 -1.73)"/><path d="M69.94,21.45h4.48l-.18.83H70.68l-.45,2.15h2.94l-.18.83H70.05l-.54,2.55h3.56l-.18.82H68.41Z" transform="translate(0 -1.73)"/><path d="M77.64,26.36c0,.88.28,1.53,1.24,1.53a1.56,1.56,0,0,0,1.62-1.21c.19-.89-.51-1.11-1.15-1.4-1-.44-1.89-.71-1.6-2.07a2.48,2.48,0,0,1,2.51-1.89,1.67,1.67,0,0,1,1.81,1.81l-.94.26c0-.7-.29-1.2-1.08-1.2a1.32,1.32,0,0,0-1.36,1c-.15.67.22.88.72,1.11l1.39.68a1.46,1.46,0,0,1,.63,1.68,2.65,2.65,0,0,1-2.73,2.14,1.82,1.82,0,0,1-1.94-2.14Z" transform="translate(0 -1.73)"/><path d="M85.64,27.81h1l1.17-5.53h-1l.18-.83h3l-.18.83h-1l-1.17,5.53h1l-.18.82h-3Z" transform="translate(0 -1.73)"/><path d="M97.79,28a4.62,4.62,0,0,1-2.38.79c-2.11,0-2.3-2-1.93-3.72s1.44-3.72,3.49-3.72a2.08,2.08,0,0,1,2,1.38l-.88.51a1.43,1.43,0,0,0-1.36-1c-1.43,0-2,1.78-2.28,2.87s-.36,2.83,1.09,2.83A3,3,0,0,0,97,27.52l.4-1.89H95.64l.17-.83h2.65Z" transform="translate(0 -1.73)"/><path d="M102.63,21.45h1.15l1.49,6.05,0,0,.32-1.87.88-4.16h.92l-1.53,7.18h-1.14l-1.51-6.05,0,0-.32,1.87L102,28.63h-.93Z" transform="translate(0 -1.73)"/><path d="M111.34,21.45h4.48l-.18.83h-3.55l-.46,2.15h2.94l-.18.83h-2.94l-.54,2.55h3.56l-.18.82h-4.48Z" transform="translate(0 -1.73)"/><path d="M119.1,21.45h2.4c2,0,2.78.84,2.22,3.5-.49,2.25-1.17,3.68-3.75,3.68h-2.4l.18-.82h.74l1.17-5.53h-.74Zm.31,6.36h1c1.22,0,1.89-.69,2.34-2.76s0-2.77-1.19-2.77h-1Z" transform="translate(0 -1.73)"/><path d="M136.44,21.45H141l-.18.83h-3.6l-.46,2.15h3l-.18.83h-3l-.71,3.37h-.93Z" transform="translate(0 -1.73)"/><path d="M148.21,25.05c-.12.58-.82,3.71-3.33,3.71-1.16,0-2.38-.83-1.77-3.71s2.17-3.73,3.35-3.73S148.83,22.15,148.21,25.05Zm-4.13,0c-.23,1.05-.42,2.84,1,2.84s2-1.79,2.19-2.84.41-2.86-1-2.86S144.31,24,144.08,25.05Z" transform="translate(0 -1.73)"/><path d="M152.63,21.45h2.44c1.2,0,2,.56,1.74,2a2.81,2.81,0,0,1-1.89,2l1.15,2.91-.91.48L154,25.56h-1.34L152,28.63h-.92Zm1.44,3.28a1.71,1.71,0,0,0,1.78-1.32c.13-.65-.16-1.13-1-1.13h-1.49l-.53,2.45Z" transform="translate(0 -1.73)"/><path d="M169.3,19.43h1.16l1.09,7.74,0,0,.4-2.06,1.2-5.66h.92l-2,9.2H171l-1.09-7.75,0,0-.4,2.08-1.2,5.64h-.93Z" transform="translate(0 -1.73)"/><path d="M182,19.25l.77.35L179.25,25l-.77,3.62h-.92l.77-3.62L177.1,19.6l.94-.35,1,4.68Z" transform="translate(0 -1.73)"/><path d="M186.94,19.43l-1.42,6.69c-.19.92-.21,1.77.94,1.77s1.53-.87,1.72-1.77l1.42-6.69h.93l-1.49,7a2.81,2.81,0,0,1-2.76,2.36c-1.4,0-2-1-1.76-2.32l1.5-7Z" transform="translate(0 -1.73)"/><path d="M203.51,24.07c-.92-.62-1.53-1.06-1.24-2.41a2.86,2.86,0,0,1,2.64-2.35c1.29,0,1.72.92,1.72,2.08l-.94.14c0-.67-.19-1.35-1-1.35a1.61,1.61,0,0,0-1.51,1.48c-.16.74-.07,1,1.2,1.84,1,.68,1.64,1.25,1.33,2.67a3,3,0,0,1-2.87,2.59c-1.62,0-2-1.08-1.82-2.54l1-.12c-.1,1-.05,1.79,1.07,1.79a1.81,1.81,0,0,0,1.73-1.64C205,25,204.35,24.62,203.51,24.07Z" transform="translate(0 -1.73)"/><path d="M210.76,19.43h.92l-.82,3.87h2.84l.82-3.87h.93l-2,9.2h-.92l1-4.51h-2.84l-1,4.51h-.93Z" transform="translate(0 -1.73)"/><path d="M227,20.26l.18-.83h2.43c1.84,0,2.75.82,2,4.61-.42,2-1.09,4.59-3.89,4.59h-2.45l.18-.82h.74l1.6-7.55Zm.07,7.55h.76c1.11,0,2-.29,2.77-3.77s-.14-3.78-1-3.78h-1Z" transform="translate(0 -1.73)"/><path d="M235.34,25.79l-1.37,3-.85-.24,4.27-9.14h1.11l.38,9.14-1,.24-.07-3Zm2.36-5.13h0L235.74,25h2.07Z" transform="translate(0 -1.73)"/><path d="M247.8,24c-.25,1.16-1,4.73-3.56,4.73s-1.79-3.55-1.55-4.73c.32-1.52,1.11-4.72,3.56-4.72C248.85,19.31,248.06,22.81,247.8,24Zm-4.14,0c-.52,2.48-.54,3.86.76,3.86,1.6,0,2.07-2.26,2.41-3.86s.86-3.85-.77-3.85S244,22.68,243.66,24Z" transform="translate(0 -1.73)"/><path d="M263.7,27.26a3.67,3.67,0,0,1-2.71,1.5c-2.4,0-2.14-2.9-1.75-4.72s1.37-4.73,3.77-4.73a1.94,1.94,0,0,1,1.93,1.49l-.88.47a1.31,1.31,0,0,0-1.25-1.09c-1.68,0-2.34,2.65-2.6,3.86s-.72,3.85,1,3.85a2.73,2.73,0,0,0,1.88-1.16Z" transform="translate(0 -1.73)"/><path d="M268.85,21.45h.92l-1.35,6.36h3.76l-.18.82h-4.69Z" transform="translate(0 -1.73)"/><path d="M277.59,21.45l-1,4.9c-.22,1,0,1.54.92,1.54,1.16,0,1.52-.51,1.74-1.54l1.05-4.9h.92L280,26.79a2.6,2.6,0,0,1-2.68,2c-1.56,0-2-1-1.82-2l1.13-5.28Z" transform="translate(0 -1.73)"/><path d="M283.21,28.63l.18-.82h.75l1.17-5.53h-.75l.18-.83H287c1.82,0,2.45.69,2.19,1.92a2.07,2.07,0,0,1-1.13,1.47,1.39,1.39,0,0,1,.87,1.74,2.6,2.6,0,0,1-2.8,2.05Zm2.93-.82c.81,0,1.61-.18,1.82-1.16a1,1,0,0,0-1.08-1.3h-1.29l-.53,2.46Zm.65-3.29a1.4,1.4,0,0,0,1.44-1.15c.18-.86-.37-1.09-1-1.09h-1l-.48,2.24Z" transform="translate(0 -1.73)"/></g></g></svg>