<svg xmlns="http://www.w3.org/2000/svg" viewBox="0 0 93.37 10.5"><defs><style>.cls-1{isolation:isolate;}</style></defs><title>wechattxt</title><g id="图层_2" data-name="图层 2"><g id="图层_1-2" data-name="图层 1"><g class="cls-1"><path d="M1.16,12.25V9.34Q1.16,7.29,3.5,7,1.16,6.72,1.16,4.66V1.75H3.5v3.5A1.16,1.16,0,0,0,4.66,6.41,1.16,1.16,0,0,0,5.84,5.25V1.75H8.16V4.66C8.16,6,7.39,6.81,5.84,7c1.55.2,2.32,1,2.32,2.34v2.91H5.84V8.75A1.16,1.16,0,0,0,4.66,7.59,1.16,1.16,0,0,0,3.5,8.75v3.5Z" transform="translate(-1.16 -1.75)"/><path d="M17.5,4.09v8.16H15.18V11.09c-.1.77-.49,1.16-1.18,1.16H12.84a2.25,2.25,0,0,1-1.65-.69,2.22,2.22,0,0,1-.69-1.65V4.09h2.34V9.91a1.15,1.15,0,0,0,.34.83,1.15,1.15,0,0,0,1.65,0,1.16,1.16,0,0,0,.35-.83V4.09Z" transform="translate(-1.16 -1.75)"/><path d="M19.84,12.25V1.75h2.34V6L26,1.75H28L23.34,7,28,12.25H25.68l-3.5-4.09v4.09Z" transform="translate(-1.16 -1.75)"/><path d="M37.34,8.75H32.68V9.91a1.15,1.15,0,0,0,.34.83,1.12,1.12,0,0,0,.82.35H35a1,1,0,0,0,1.17-1.18h1.16c-.18,1.56-1,2.34-2.33,2.34H32.68A2.25,2.25,0,0,1,31,11.56a2.22,2.22,0,0,1-.69-1.65V6.41A2.25,2.25,0,0,1,31,4.77a2.28,2.28,0,0,1,1.65-.68H35a2.34,2.34,0,0,1,2.33,2.32ZM32.68,7.59H35V6.41a1.11,1.11,0,0,0-.34-.82,1.13,1.13,0,0,0-.83-.34,1.16,1.16,0,0,0-1.16,1.16Z" transform="translate(-1.16 -1.75)"/><path d="M40.85,12.25v-7H39.68V4.09h1.17V4a2.14,2.14,0,0,1,.66-1.57,2.14,2.14,0,0,1,1.57-.66h2.43V2.91H44.24A1.08,1.08,0,0,0,43.18,4v.11h1.17V5.25H43.18v7Z" transform="translate(-1.16 -1.75)"/><path d="M51.35,7.59V6.41A1.11,1.11,0,0,0,51,5.59a1.13,1.13,0,0,0-.83-.34H49c-.69,0-1.07.39-1.16,1.16H46.68c.18-1.55,1-2.32,2.33-2.32h2.34a2.34,2.34,0,0,1,2.33,2.32v5.84H51.35V11.09c-.09.77-.48,1.16-1.17,1.16H49a2.25,2.25,0,0,1-1.64-.69,2.22,2.22,0,0,1-.69-1.65,2.25,2.25,0,0,1,.69-1.64A2.28,2.28,0,0,1,49,7.59Zm0,1.16H50.18A1.18,1.18,0,0,0,49,9.91a1.16,1.16,0,0,0,.35.83,1.12,1.12,0,0,0,.82.35,1.18,1.18,0,0,0,1.17-1.18Z" transform="translate(-1.16 -1.75)"/><path d="M56,12.25V4.09h2.34V5.25a1.41,1.41,0,0,1,.37-.87,1,1,0,0,1,.79-.29h1.18A2.32,2.32,0,0,1,63,6.41v5.84H60.69V6.41a1.11,1.11,0,0,0-.34-.82,1.14,1.14,0,0,0-.84-.34,1.13,1.13,0,0,0-.82.34,1.15,1.15,0,0,0-.34.82v5.84Z" transform="translate(-1.16 -1.75)"/><path d="M71.19,4.09H70c-.11-.79-.47-1.18-1.11-1.18a1.26,1.26,0,0,0-.92.3,1.14,1.14,0,0,0-.31.88,1.21,1.21,0,0,0,.34.82L70.5,7.69a2.42,2.42,0,0,1,.69,1.65v.57a2.27,2.27,0,0,1-.69,1.65,2.22,2.22,0,0,1-1.65.69H67.69a2.37,2.37,0,0,1-1.75-.58,2.38,2.38,0,0,1-.59-1.76h1.18v.2a.84.84,0,0,0,.36.73,1.43,1.43,0,0,0,.8.25,1.15,1.15,0,0,0,.89-.3,1.29,1.29,0,0,0,.27-.88,1.21,1.21,0,0,0-.33-.82L66,6.31a2.39,2.39,0,0,1-.69-1.65V4.09A2.27,2.27,0,0,1,66,2.44a2.24,2.24,0,0,1,1.65-.69h1.16Q71.05,1.75,71.19,4.09Z" transform="translate(-1.16 -1.75)"/><path d="M78.19,7.59V6.41a1.11,1.11,0,0,0-.34-.82A1.14,1.14,0,0,0,77,5.25H75.85c-.69,0-1.08.39-1.16,1.16H73.51c.19-1.55,1-2.32,2.34-2.32h2.34a2.32,2.32,0,0,1,2.32,2.32v5.84H78.19V11.09c-.09.77-.49,1.16-1.18,1.16H75.85a2.25,2.25,0,0,1-1.64-.69,2.19,2.19,0,0,1-.7-1.65,2.22,2.22,0,0,1,.7-1.64,2.28,2.28,0,0,1,1.64-.68Zm0,1.16H77a1.13,1.13,0,0,0-.82.34,1.15,1.15,0,0,0-.34.82,1.19,1.19,0,0,0,.34.83,1.14,1.14,0,0,0,.82.35,1.18,1.18,0,0,0,1.18-1.18Z" transform="translate(-1.16 -1.75)"/><path d="M89.85,12.25H87.53V6.41a1.12,1.12,0,0,0-.35-.82,1.17,1.17,0,0,0-2,.82v5.84H82.85V4.09h2.34V5.25a1.46,1.46,0,0,1,.36-.87,1.08,1.08,0,0,1,.8-.29h1.18a2,2,0,0,1,1.75.82A1.7,1.7,0,0,1,90,4.29a2.54,2.54,0,0,1,1-.2h1.16a2.28,2.28,0,0,1,1.64.68,2.22,2.22,0,0,1,.7,1.64v5.84H92.19V6.41a1.1,1.1,0,0,0-.34-.81,1.16,1.16,0,0,0-1.65,0,1.12,1.12,0,0,0-.35.82Z" transform="translate(-1.16 -1.75)"/></g></g></g></svg>