<svg xmlns="http://www.w3.org/2000/svg" viewBox="0 0 202.45 27.09"><title>资源 4</title><g id="图层_2" data-name="图层 2"><g id="图层_1-2" data-name="图层 1"><path d="M1.15,12.08V1.73H6.9V2.87H3.45V6.32H5.76V7.48H3.45v3.45H6.9v1.15Z" transform="translate(-1.15 -1.73)"/><path d="M13.8,4h2.29V8.14a3.81,3.81,0,0,1-1.15,2.78,3.78,3.78,0,0,1-2.77,1.16h-3V4H11.5v6.9h1.14A1.18,1.18,0,0,0,13.8,9.77Z" transform="translate(-1.15 -1.73)"/><path d="M25.29,8.62H20.7V9.77a1.1,1.1,0,0,0,.34.81,1.08,1.08,0,0,0,.81.35H23a1,1,0,0,0,1.15-1.16h1.14c-.17,1.54-.93,2.31-2.29,2.31H20.7a2.21,2.21,0,0,1-1.62-.68,2.19,2.19,0,0,1-.69-1.63V6.32a2.16,2.16,0,0,1,.69-1.61A2.21,2.21,0,0,1,20.7,4H23a2.21,2.21,0,0,1,1.62.68,2.18,2.18,0,0,1,.67,1.61ZM20.7,7.48H23V6.32a1.13,1.13,0,0,0-1.15-1.14A1.14,1.14,0,0,0,20.7,6.32Z" transform="translate(-1.15 -1.73)"/><path d="M29.9,12.08H27.6V4h2.3V6.32a2.91,2.91,0,0,1,.71-1.72A2.19,2.19,0,0,1,32.21,4h1.14V6.32h-2.3a1.1,1.1,0,0,0-.81.34,1.13,1.13,0,0,0-.34.82Z" transform="translate(-1.15 -1.73)"/><path d="M35.66,13.22c.05.77.44,1.16,1.14,1.16H38a1.16,1.16,0,0,0,1.16-1.16V10.93c-.09.76-.48,1.15-1.16,1.15H36.8a2.25,2.25,0,0,1-1.62-.68,2.22,2.22,0,0,1-.68-1.63V4h2.3V9.77a1.14,1.14,0,0,0,.34.81,1.16,1.16,0,0,0,2-.81V4H41.4v9.19a2.21,2.21,0,0,1-.68,1.62,2.18,2.18,0,0,1-1.61.69H36.8c-1.35,0-2.12-.77-2.3-2.31Z" transform="translate(-1.15 -1.73)"/><path d="M51.76,1.73h2.29V8.14a3.81,3.81,0,0,1-1.15,2.78,3.78,3.78,0,0,1-2.77,1.16h-3V1.73h2.31v9.2H50.6a1.09,1.09,0,0,0,.82-.35,1.1,1.1,0,0,0,.34-.81Z" transform="translate(-1.15 -1.73)"/><path d="M58.66,4H61a2.32,2.32,0,0,1,2.29,2.29V9.77a2.21,2.21,0,0,1-.68,1.62,2.18,2.18,0,0,1-1.61.69H58.66A2.25,2.25,0,0,1,57,11.4a2.22,2.22,0,0,1-.68-1.63V6.32A2.19,2.19,0,0,1,57,4.71,2.25,2.25,0,0,1,58.66,4Zm0,2.29V9.77a1.18,1.18,0,0,0,1.15,1.16,1.12,1.12,0,0,0,.82-.35A1.14,1.14,0,0,0,61,9.77V6.32a1.14,1.14,0,0,0-1.16-1.14,1.12,1.12,0,0,0-.81.33A1.1,1.1,0,0,0,58.66,6.32Z" transform="translate(-1.15 -1.73)"/><path d="M66.72,1.73H69V4h1.16V5.18H69V9.77a1,1,0,0,0,.37.86,1.14,1.14,0,0,0,.68.3h.11v1.15H69a2.32,2.32,0,0,1-2.29-2.31V5.18H65.56V4h1.16Z" transform="translate(-1.15 -1.73)"/><path d="M79.36,8.62H74.77V9.77a1.13,1.13,0,0,0,.33.81,1.11,1.11,0,0,0,.81.35h1.16a1,1,0,0,0,1.15-1.16h1.14c-.17,1.54-.94,2.31-2.29,2.31h-2.3a2.25,2.25,0,0,1-1.63-.68,2.22,2.22,0,0,1-.68-1.63V6.32a2.19,2.19,0,0,1,.68-1.61A2.25,2.25,0,0,1,74.77,4h2.3a2.23,2.23,0,0,1,1.62.68,2.18,2.18,0,0,1,.67,1.61ZM74.77,7.48h2.3V6.32a1.1,1.1,0,0,0-.34-.81,1.15,1.15,0,0,0-2,.81Z" transform="translate(-1.15 -1.73)"/><path d="M85.12,12.08V1.73h.53l4.92,4.89,4.9-4.89h1.16V12.08H94.32V5.75l-4,4-4-4v6.33Z" transform="translate(-1.15 -1.73)"/><path d="M103.53,7.48V6.32a1.14,1.14,0,0,0-1.16-1.14h-1.15q-1,0-1.14,1.14H98.92c.18-1.53,1-2.29,2.3-2.29h2.31a2.32,2.32,0,0,1,2.29,2.29v5.76h-2.29V10.93c-.1.76-.48,1.15-1.16,1.15h-1.15a2.25,2.25,0,0,1-1.62-.68,2.27,2.27,0,0,1,0-3.24,2.25,2.25,0,0,1,1.62-.68Zm0,1.14h-1.16a1.15,1.15,0,0,0-.81,2,1.08,1.08,0,0,0,.81.35,1.12,1.12,0,0,0,.82-.35,1.14,1.14,0,0,0,.34-.81Z" transform="translate(-1.15 -1.73)"/><path d="M108.12,12.08V1.73h2.31V6.9L113.88,4h2.3l-4.82,4,4.82,4h-2.3L110.43,9.2v2.88Z" transform="translate(-1.15 -1.73)"/><path d="M124.22,8.62h-4.59V9.77a1.1,1.1,0,0,0,.34.81,1.08,1.08,0,0,0,.8.35h1.16a1,1,0,0,0,1.15-1.16h1.14c-.17,1.54-.93,2.31-2.29,2.31h-2.3A2.21,2.21,0,0,1,118,11.4a2.19,2.19,0,0,1-.69-1.63V6.32A2.16,2.16,0,0,1,118,4.71,2.21,2.21,0,0,1,119.63,4h2.3a2.21,2.21,0,0,1,1.62.68,2.18,2.18,0,0,1,.67,1.61Zm-4.59-1.14h2.3V6.32a1.13,1.13,0,0,0-.33-.81,1.15,1.15,0,0,0-.83-.33,1.14,1.14,0,0,0-1.14,1.14Z" transform="translate(-1.15 -1.73)"/><path d="M132.28,6.32h-1.14c-.1-.76-.47-1.14-1.09-1.14a1.43,1.43,0,0,0-.91.24.83.83,0,0,0-.31.71c0,.33.56.79,1.67,1.39.91.49,1.44.89,1.58,1.22a2.7,2.7,0,0,1,.2,1,2.21,2.21,0,0,1-.67,1.63,2.24,2.24,0,0,1-1.63.68h-1.15a2,2,0,0,1-2.3-2.31h1.16c.09.77.45,1.16,1.07,1.16a1.48,1.48,0,0,0,.93-.24A.87.87,0,0,0,130,10c0-.32-.55-.78-1.67-1.38a3.74,3.74,0,0,1-1.58-1.21,2.58,2.58,0,0,1-.21-1,2.21,2.21,0,0,1,.68-1.62A2.25,2.25,0,0,1,128.83,4H130A2.11,2.11,0,0,1,132.28,6.32Z" transform="translate(-1.15 -1.73)"/><path d="M142.63,7.48V6.32a1.14,1.14,0,0,0-1.16-1.14h-1.14c-.68,0-1.06.38-1.15,1.14H138c.19-1.53,1-2.29,2.31-2.29h2.3a2.21,2.21,0,0,1,1.62.68,2.18,2.18,0,0,1,.67,1.61v5.76h-2.29V10.93c-.09.76-.48,1.15-1.16,1.15h-1.14a2.21,2.21,0,0,1-1.62-.68,2.25,2.25,0,0,1,0-3.24,2.21,2.21,0,0,1,1.62-.68Zm0,1.14h-1.16a1.15,1.15,0,0,0-.8,2,1.08,1.08,0,0,0,.8.35,1.09,1.09,0,0,0,.82-.35,1.1,1.1,0,0,0,.34-.81Z" transform="translate(-1.15 -1.73)"/><path d="M157.58,9.77c-.09,1.54-.86,2.31-2.29,2.31H153a2.25,2.25,0,0,1-1.62-.68,2.22,2.22,0,0,1-.68-1.63V4a2.2,2.2,0,0,1,.67-1.62A2.17,2.17,0,0,1,153,1.73h2.31c1.44,0,2.21.76,2.29,2.3h-1.15c-.09-.77-.47-1.16-1.14-1.16h-1.16a1.09,1.09,0,0,0-.81.34A1.13,1.13,0,0,0,153,4V9.77a1.14,1.14,0,0,0,.34.81,1.1,1.1,0,0,0,.81.35h1.16c.68,0,1.06-.39,1.14-1.16Z" transform="translate(-1.15 -1.73)"/><path d="M159.88,12.08V1.73h2.31V5.18a1.35,1.35,0,0,1,.36-.87,1.05,1.05,0,0,1,.78-.28h1.16a2.23,2.23,0,0,1,1.62.68,2.18,2.18,0,0,1,.67,1.61v5.76h-2.29V6.32a1.1,1.1,0,0,0-.34-.81,1.15,1.15,0,0,0-2,.81v5.76Z" transform="translate(-1.15 -1.73)"/><path d="M173.7,7.48V6.32a1.14,1.14,0,0,0-1.16-1.14h-1.15q-1,0-1.14,1.14h-1.16c.18-1.53.95-2.29,2.3-2.29h2.31A2.32,2.32,0,0,1,176,6.32v5.76H173.7V10.93c-.1.76-.48,1.15-1.16,1.15h-1.15a2.25,2.25,0,0,1-1.62-.68,2.27,2.27,0,0,1,0-3.24,2.25,2.25,0,0,1,1.62-.68Zm0,1.14h-1.16a1.15,1.15,0,0,0-.81,2,1.08,1.08,0,0,0,.81.35,1.12,1.12,0,0,0,.82-.35,1.14,1.14,0,0,0,.34-.81Z" transform="translate(-1.15 -1.73)"/><path d="M178.29,12.08V4h2.31V5.18a1.4,1.4,0,0,1,.35-.87,1.09,1.09,0,0,1,.79-.28h1.16a2.21,2.21,0,0,1,1.61.68,2.15,2.15,0,0,1,.68,1.61v5.76H182.9V6.32a1.1,1.1,0,0,0-.34-.81,1.15,1.15,0,0,0-2,.81v5.76Z" transform="translate(-1.15 -1.73)"/><path d="M194.39,4v9.19a2.32,2.32,0,0,1-2.29,2.31h-2.3q-2,0-2.31-2.31h1.16c.06.77.44,1.16,1.15,1.16h1.14a1.14,1.14,0,0,0,1.16-1.16V10.93c-.09.76-.47,1.15-1.16,1.15H189.8a2.21,2.21,0,0,1-1.62-.68,2.19,2.19,0,0,1-.69-1.63V6.32a2.16,2.16,0,0,1,.69-1.61A2.21,2.21,0,0,1,189.8,4ZM192.1,5.18h-1.16a1.14,1.14,0,0,0-1.14,1.14V9.77a1.1,1.1,0,0,0,.34.81,1.08,1.08,0,0,0,.8.35,1.16,1.16,0,0,0,1.16-1.16Z" transform="translate(-1.15 -1.73)"/><path d="M203.6,8.62H199V9.77a1.14,1.14,0,0,0,.34.81,1.11,1.11,0,0,0,.81.35h1.16a1,1,0,0,0,1.14-1.16h1.15c-.18,1.54-.94,2.31-2.29,2.31H199a2.25,2.25,0,0,1-1.62-.68,2.22,2.22,0,0,1-.68-1.63V6.32a2.19,2.19,0,0,1,.68-1.61A2.25,2.25,0,0,1,199,4h2.31a2.32,2.32,0,0,1,2.29,2.29ZM199,7.48h2.31V6.32a1.16,1.16,0,0,0-2.31,0Z" transform="translate(-1.15 -1.73)"/><path d="M3.16,28.63H2.23l2-9.2h2c1.63,0,2.35.87,2,2.45a3,3,0,0,1-2.8,2.66H4Zm1-4.92H5.5c.86,0,1.49-.67,1.74-1.82S7,20.26,6,20.26H4.94Z" transform="translate(-1.15 -1.73)"/><path d="M15.73,25.05c-.13.58-.83,3.71-3.34,3.71-1.16,0-2.37-.83-1.76-3.71s2.16-3.73,3.35-3.73S16.35,22.15,15.73,25.05Zm-4.14,0c-.22,1.05-.41,2.84,1,2.84s2-1.79,2.19-2.84.42-2.86-1-2.86S11.83,24,11.59,25.05Z" transform="translate(-1.15 -1.73)"/><path d="M20.44,21.45h.92L20,27.81h3.76l-.17.82H18.91Z" transform="translate(-1.15 -1.73)"/><path d="M27.68,27.81h1l1.17-5.53h-1l.18-.83h3l-.18.83h-1l-1.18,5.53h1l-.17.82h-3Z" transform="translate(-1.15 -1.73)"/><path d="M38.17,22.28h-2l.18-.83h4.86l-.18.83H39.09l-1.35,6.35h-.92Z" transform="translate(-1.15 -1.73)"/><path d="M44.24,27.81h1l1.17-5.53h-1l.18-.83h2.95l-.18.83h-1l-1.18,5.53h1l-.17.82h-3Z" transform="translate(-1.15 -1.73)"/><path d="M56.69,27.26a3.49,3.49,0,0,1-2.7,1.5c-2.1,0-2.35-1.93-2-3.71.61-2.87,2.32-3.73,3.48-3.73a1.86,1.86,0,0,1,1.94,1.53l-.93.43c-.18-.58-.49-1.09-1.19-1.09-1.43,0-2.1,1.74-2.33,2.84s-.35,2.86,1.12,2.86A2.56,2.56,0,0,0,56,26.73Z" transform="translate(-1.15 -1.73)"/><path d="M61.25,26.68l-1.14,2.13-.84-.33,3.77-7h1.19l.75,7-1,.33-.2-2.13Zm2.15-4.16-1.73,3.33h2Z" transform="translate(-1.15 -1.73)"/><path d="M70.12,21.45H71l-1.35,6.36h3.77l-.18.82H68.59Z" transform="translate(-1.15 -1.73)"/><path d="M86,28.63H85l1.53-7.18H88.8c1.67,0,2.13.91,1.91,2a2.58,2.58,0,0,1-2.54,2.13H86.62Zm2.1-3.91a1.5,1.5,0,0,0,1.65-1.24c.21-1-.37-1.2-1.13-1.2H87.31l-.52,2.44Z" transform="translate(-1.15 -1.73)"/><path d="M98.53,25.05c-.12.58-.83,3.71-3.34,3.71-1.15,0-2.37-.83-1.76-3.71s2.16-3.73,3.35-3.73S99.15,22.15,98.53,25.05Zm-4.14,0c-.22,1.05-.41,2.84,1,2.84s2-1.79,2.2-2.84.41-2.86-1-2.86S94.63,24,94.39,25.05Z" transform="translate(-1.15 -1.73)"/><path d="M102.48,26.36c0,.88.28,1.53,1.24,1.53a1.56,1.56,0,0,0,1.62-1.21c.19-.89-.51-1.11-1.15-1.4-1-.44-1.89-.71-1.6-2.07a2.48,2.48,0,0,1,2.51-1.89,1.67,1.67,0,0,1,1.81,1.81l-.94.26c0-.7-.29-1.2-1.08-1.2a1.32,1.32,0,0,0-1.36,1c-.15.67.22.88.72,1.11l1.39.68a1.45,1.45,0,0,1,.63,1.68,2.65,2.65,0,0,1-2.73,2.14,1.83,1.83,0,0,1-1.94-2.14Z" transform="translate(-1.15 -1.73)"/><path d="M112.69,22.28h-2l.18-.83h4.85l-.18.83h-1.94l-1.35,6.35h-.93Z" transform="translate(-1.15 -1.73)"/><path d="M119.62,21.45h4.48l-.17.83h-3.56l-.46,2.15h2.94l-.18.83h-2.94l-.54,2.55h3.56l-.18.82h-4.48Z" transform="translate(-1.15 -1.73)"/><path d="M127.79,21.45h2.44c1.2,0,2,.56,1.74,2a2.81,2.81,0,0,1-1.89,2l1.15,2.91-.92.48-1.14-3.25h-1.34l-.65,3.07h-.92Zm1.44,3.28A1.71,1.71,0,0,0,131,23.41c.13-.65-.16-1.13-1-1.13h-1.49L128,24.73Z" transform="translate(-1.15 -1.73)"/><path d="M143.94,21.45h2.4c2,0,2.78.84,2.22,3.5-.48,2.25-1.17,3.68-3.75,3.68h-2.4l.18-.82h.74l1.17-5.53h-.74Zm.32,6.36h1c1.22,0,1.89-.69,2.34-2.76s0-2.77-1.19-2.77h-.95Z" transform="translate(-1.15 -1.73)"/><path d="M152.74,21.45h4.49l-.18.83h-3.56L153,24.43H156l-.18.83h-2.94l-.54,2.55h3.56l-.18.82h-4.48Z" transform="translate(-1.15 -1.73)"/><path d="M160.44,26.36c0,.88.28,1.53,1.24,1.53a1.56,1.56,0,0,0,1.62-1.21c.19-.89-.51-1.11-1.15-1.4-1-.44-1.89-.71-1.6-2.07a2.48,2.48,0,0,1,2.51-1.89,1.66,1.66,0,0,1,1.81,1.81l-.94.26c0-.7-.29-1.2-1.07-1.2a1.32,1.32,0,0,0-1.37,1c-.15.67.22.88.72,1.11l1.39.68a1.47,1.47,0,0,1,.64,1.68,2.66,2.66,0,0,1-2.73,2.14,1.83,1.83,0,0,1-1.95-2.14Z" transform="translate(-1.15 -1.73)"/><path d="M168.45,27.81h1l1.18-5.53h-1l.18-.83h2.95l-.18.83h-1l-1.17,5.53h1l-.18.82h-2.95Z" transform="translate(-1.15 -1.73)"/><path d="M180.59,28a4.62,4.62,0,0,1-2.37.79c-2.11,0-2.31-2-1.93-3.73s1.43-3.71,3.49-3.71a2.1,2.1,0,0,1,2,1.38l-.89.51a1.43,1.43,0,0,0-1.36-1c-1.42,0-2,1.78-2.28,2.87s-.36,2.83,1.09,2.83a3,3,0,0,0,1.42-.37l.4-1.89h-1.72l.18-.83h2.65Z" transform="translate(-1.15 -1.73)"/><path d="M185.44,21.45h1.14l1.49,6.05,0,0,.32-1.87.88-4.16h.93l-1.54,7.18h-1.14l-1.5-6.05,0,0-.32,1.87-.88,4.15h-.93Z" transform="translate(-1.15 -1.73)"/></g></g></svg>